<svg version="1.1" viewBox="0.0 0.0 707.0 438.0" fill="none" stroke="none" stroke-linecap="square" stroke-miterlimit="10" width="707" height="438" xmlns:xlink="http://www.w3.org/1999/xlink" xmlns="http://www.w3.org/2000/svg"><path fill="#ffffff" d="M0 0L707.0 0L707.0 438.0L0 438.0L0 0Z" fill-rule="nonzero"/><path stroke="#333333" stroke-width="1.0" stroke-linecap="butt" d="M48.5 396.5L685.5 396.5" fill-rule="nonzero"/><path stroke="#cccccc" stroke-width="1.0" stroke-linecap="butt" d="M48.5 313.5L685.5 313.5" fill-rule="nonzero"/><path stroke="#cccccc" stroke-width="1.0" stroke-linecap="butt" d="M48.5 231.5L685.5 231.5" fill-rule="nonzero"/><path stroke="#cccccc" stroke-width="1.0" stroke-linecap="butt" d="M48.5 149.5L685.5 149.5" fill-rule="nonzero"/><path stroke="#cccccc" stroke-width="1.0" stroke-linecap="butt" d="M48.5 67.5L685.5 67.5" fill-rule="nonzero"/><clipPath id="id_0"><path d="M48.9 67.5L685.1 67.5L685.1 396.1L48.9 396.1L48.9 67.5Z" clip-rule="nonzero"/></clipPath><path stroke="#000000" stroke-width="2.0" stroke-linecap="butt" stroke-opacity="0.0" clip-path="url(#id_0)" d="M135.0 396.0L79.0 396.0L79.0 313.0C79.0 311.89542 79.89543 311.0 81.0 311.0L133.0 311.0C134.10457 311.0 135.0 311.89542 135.0 313.0Z" fill-rule="nonzero"/><path fill="#4285f4" clip-path="url(#id_0)" d="M135.0 396.0L79.0 396.0L79.0 313.0C79.0 311.89542 79.89543 311.0 81.0 311.0L133.0 311.0C134.10457 311.0 135.0 311.89542 135.0 313.0Z" fill-rule="nonzero"/><path stroke="#000000" stroke-width="2.0" stroke-linecap="butt" stroke-opacity="0.0" clip-path="url(#id_0)" d="M222.0 396.0L166.0 396.0L166.0 240.0C166.0 238.89543 166.89543 238.0 168.0 238.0L220.0 238.0C221.10457 238.0 222.0 238.89543 222.0 240.0Z" fill-rule="nonzero"/><path fill="#4285f4" clip-path="url(#id_0)" d="M222.0 396.0L166.0 396.0L166.0 240.0C166.0 238.89543 166.89543 238.0 168.0 238.0L220.0 238.0C221.10457 238.0 222.0 238.89543 222.0 240.0Z" fill-rule="nonzero"/><path stroke="#000000" stroke-width="2.0" stroke-linecap="butt" stroke-opacity="0.0" clip-path="url(#id_0)" d="M308.0 396.0L252.0 396.0L252.0 267.0C252.0 265.89542 252.89543 265.0 254.0 265.0L306.0 265.0C307.10458 265.0 308.0 265.89542 308.0 267.0Z" fill-rule="nonzero"/><path fill="#4285f4" clip-path="url(#id_0)" d="M308.0 396.0L252.0 396.0L252.0 267.0C252.0 265.89542 252.89543 265.0 254.0 265.0L306.0 265.0C307.10458 265.0 308.0 265.89542 308.0 267.0Z" fill-rule="nonzero"/><path stroke="#000000" stroke-width="2.0" stroke-linecap="butt" stroke-opacity="0.0" clip-path="url(#id_0)" d="M395.0 396.0L339.0 396.0L339.0 208.0C339.0 206.89543 339.89542 206.0 341.0 206.0L393.0 206.0C394.10458 206.0 395.0 206.89543 395.0 208.0Z" fill-rule="nonzero"/><path fill="#4285f4" clip-path="url(#id_0)" d="M395.0 396.0L339.0 396.0L339.0 208.0C339.0 206.89543 339.89542 206.0 341.0 206.0L393.0 206.0C394.10458 206.0 395.0 206.89543 395.0 208.0Z" fill-rule="nonzero"/><path stroke="#000000" stroke-width="2.0" stroke-linecap="butt" stroke-opacity="0.0" clip-path="url(#id_0)" d="M482.0 396.0L426.0 396.0L426.0 129.0C426.0 127.89543 426.89542 127.0 428.0 127.0L480.0 127.0C481.10458 127.0 482.0 127.89543 482.0 129.0Z" fill-rule="nonzero"/><path fill="#4285f4" clip-path="url(#id_0)" d="M482.0 396.0L426.0 396.0L426.0 129.0C426.0 127.89543 426.89542 127.0 428.0 127.0L480.0 127.0C481.10458 127.0 482.0 127.89543 482.0 129.0Z" fill-rule="nonzero"/><path stroke="#000000" stroke-width="2.0" stroke-linecap="butt" stroke-opacity="0.0" clip-path="url(#id_0)" d="M568.0 396.0L512.0 396.0L512.0 112.0C512.0 110.89543 512.89545 110.0 514.0 110.0L566.0 110.0C567.10455 110.0 568.0 110.89543 568.0 112.0Z" fill-rule="nonzero"/><path fill="#4285f4" clip-path="url(#id_0)" d="M568.0 396.0L512.0 396.0L512.0 112.0C512.0 110.89543 512.89545 110.0 514.0 110.0L566.0 110.0C567.10455 110.0 568.0 110.89543 568.0 112.0Z" fill-rule="nonzero"/><path stroke="#000000" stroke-width="2.0" stroke-linecap="butt" stroke-opacity="0.0" clip-path="url(#id_0)" d="M655.0 396.0L599.0 396.0L599.0 73.0C599.0 71.89543 599.89545 71.0 601.0 71.0L653.0 71.0C654.10455 71.0 655.0 71.89543 655.0 73.0Z" fill-rule="nonzero"/><path fill="#4285f4" clip-path="url(#id_0)" d="M655.0 396.0L599.0 396.0L599.0 73.0C599.0 71.89543 599.89545 71.0 601.0 71.0L653.0 71.0C654.10455 71.0 655.0 71.89543 655.0 73.0Z" fill-rule="nonzero"/><path fill="#000000" d="M36.4 395.86563Q36.4 394.33438 36.7125 393.4125Q37.025 392.475 37.634377 391.975Q38.259377 391.475 39.196877 391.475Q39.884377 391.475 40.4 391.75626Q40.93125 392.0375 41.275 392.56876Q41.61875 393.08438 41.80625 393.83438Q41.99375 394.58438 41.99375 395.86563Q41.99375 397.38126 41.68125 398.30313Q41.384377 399.225 40.759377 399.74063Q40.15 400.24063 39.196877 400.24063Q37.9625 400.24063 37.24375 399.35Q36.4 398.2875 36.4 395.86563ZM37.478127 395.86563Q37.478127 397.975 37.978127 398.67813Q38.478127 399.38126 39.196877 399.38126Q39.93125 399.38126 40.415627 398.67813Q40.915627 397.975 40.915627 395.86563Q40.915627 393.74063 40.415627 393.05313Q39.93125 392.35 39.18125 392.35Q38.4625 392.35 38.025 392.95938Q37.478127 393.74063 37.478127 395.86563Z" fill-rule="nonzero"/><path fill="#000000" d="M34.946877 316.9344L34.946877 317.95L29.259375 317.95Q29.259375 317.575 29.384375 317.21564Q29.603125 316.6375 30.071875 316.075Q30.55625 315.5125 31.4625 314.77814Q32.86875 313.6219 33.353127 312.95Q33.853127 312.27814 33.853127 311.6844Q33.853127 311.0594 33.4 310.6375Q32.946877 310.2 32.228127 310.2Q31.4625 310.2 31.009375 310.65314Q30.55625 311.10626 30.540625 311.91876L29.4625 311.8094Q29.571875 310.59064 30.290625 309.96564Q31.025 309.325 32.259377 309.325Q33.49375 309.325 34.2125 310.0125Q34.93125 310.7 34.93125 311.71564Q34.93125 312.23126 34.7125 312.73126Q34.509377 313.21564 34.009377 313.77814Q33.525 314.325 32.4 315.27814Q31.446875 316.075 31.165625 316.3719Q30.9 316.65314 30.728125 316.9344L34.946877 316.9344ZM36.4 315.7L37.509377 315.60626Q37.634377 316.41876 38.071877 316.825Q38.525 317.23126 39.165627 317.23126Q39.915627 317.23126 40.446877 316.65314Q40.978127 316.075 40.978127 315.1375Q40.978127 314.23126 40.4625 313.71564Q39.9625 313.1844 39.134377 313.1844Q38.634377 313.1844 38.2125 313.41876Q37.80625 313.65314 37.571877 314.0125L36.5875 313.8875L37.415627 309.48126L41.696877 309.48126L41.696877 310.48126L38.259377 310.48126L37.80625 312.79376Q38.571877 312.2469 39.415627 312.2469Q40.540627 312.2469 41.30625 313.02814Q42.0875 313.8094 42.0875 315.04376Q42.0875 316.2 41.415627 317.0594Q40.5875 318.09064 39.165627 318.09064Q37.99375 318.09064 37.24375 317.4344Q36.509377 316.77814 36.4 315.7Z" fill-rule="nonzero"/><path fill="#000000" d="M29.4 233.55L30.509375 233.45625Q30.634375 234.26875 31.071875 234.675Q31.525 235.08125 32.165627 235.08125Q32.915627 235.08125 33.446877 234.50313Q33.978127 233.925 33.978127 232.9875Q33.978127 232.08125 33.4625 231.56563Q32.9625 231.03438 32.134377 231.03438Q31.634375 231.03438 31.2125 231.26875Q30.80625 231.50313 30.571875 231.8625L29.5875 231.7375L30.415625 227.33125L34.696877 227.33125L34.696877 228.33125L31.259375 228.33125L30.80625 230.64375Q31.571875 230.09688 32.415627 230.09688Q33.540627 230.09688 34.30625 230.87813Q35.0875 231.65938 35.0875 232.89375Q35.0875 234.05 34.415627 234.90938Q33.5875 235.94063 32.165627 235.94063Q30.99375 235.94063 30.24375 235.28438Q29.509375 234.62813 29.4 233.55ZM36.4 231.56563Q36.4 230.03438 36.7125 229.1125Q37.025 228.175 37.634377 227.675Q38.259377 227.175 39.196877 227.175Q39.884377 227.175 40.4 227.45625Q40.93125 227.7375 41.275 228.26875Q41.61875 228.78438 41.80625 229.53438Q41.99375 230.28438 41.99375 231.56563Q41.99375 233.08125 41.68125 234.00313Q41.384377 234.925 40.759377 235.44063Q40.15 235.94063 39.196877 235.94063Q37.9625 235.94063 37.24375 235.05Q36.4 233.9875 36.4 231.56563ZM37.478127 231.56563Q37.478127 233.675 37.978127 234.37813Q38.478127 235.08125 39.196877 235.08125Q39.93125 235.08125 40.415627 234.37813Q40.915627 233.675 40.915627 231.56563Q40.915627 229.44063 40.415627 228.75313Q39.93125 228.05 39.18125 228.05Q38.4625 228.05 38.025 228.65938Q37.478127 229.44063 37.478127 231.56563Z" fill-rule="nonzero"/><path fill="#000000" d="M29.4625 146.18124L29.4625 145.16562L35.025 145.16562L35.025 145.99374Q34.2125 146.86874 33.4 148.32187Q32.603127 149.75937 32.165627 151.29062Q31.8375 152.36874 31.759375 153.65L30.665625 153.65Q30.68125 152.63437 31.05625 151.19687Q31.446875 149.75937 32.15 148.43124Q32.86875 147.10312 33.68125 146.18124L29.4625 146.18124ZM36.4 151.4L37.509377 151.30624Q37.634377 152.11874 38.071877 152.525Q38.525 152.93124 39.165627 152.93124Q39.915627 152.93124 40.446877 152.35312Q40.978127 151.775 40.978127 150.8375Q40.978127 149.93124 40.4625 149.41562Q39.9625 148.88437 39.134377 148.88437Q38.634377 148.88437 38.2125 149.11874Q37.80625 149.35312 37.571877 149.7125L36.5875 149.5875L37.415627 145.18124L41.696877 145.18124L41.696877 146.18124L38.259377 146.18124L37.80625 148.49374Q38.571877 147.94687 39.415627 147.94687Q40.540627 147.94687 41.30625 148.72812Q42.0875 149.50937 42.0875 150.74374Q42.0875 151.9 41.415627 152.75937Q40.5875 153.79062 39.165627 153.79062Q37.99375 153.79062 37.24375 153.13437Q36.509377 152.47812 36.4 151.4Z" fill-rule="nonzero"/><path fill="#000000" d="M26.36875 71.5L25.321875 71.5L25.321875 64.78125Q24.93125 65.140625 24.30625 65.515625Q23.696875 65.875 23.2125 66.046875L23.2125 65.03125Q24.0875 64.609375 24.74375 64.03125Q25.415625 63.4375 25.696875 62.875L26.36875 62.875L26.36875 71.5ZM29.4 67.265625Q29.4 65.734375 29.7125 64.8125Q30.025 63.875 30.634375 63.375Q31.259375 62.875 32.196877 62.875Q32.884377 62.875 33.4 63.15625Q33.93125 63.4375 34.275 63.96875Q34.61875 64.484375 34.80625 65.234375Q34.99375 65.984375 34.99375 67.265625Q34.99375 68.78125 34.68125 69.703125Q34.384377 70.625 33.759377 71.140625Q33.15 71.640625 32.196877 71.640625Q30.9625 71.640625 30.24375 70.75Q29.4 69.6875 29.4 67.265625ZM30.478125 67.265625Q30.478125 69.375 30.978125 70.078125Q31.478125 70.78125 32.196877 70.78125Q32.93125 70.78125 33.415627 70.078125Q33.915627 69.375 33.915627 67.265625Q33.915627 65.140625 33.415627 64.453125Q32.93125 63.75 32.18125 63.75Q31.4625 63.75 31.025 64.359375Q30.478125 65.140625 30.478125 67.265625ZM36.4 67.265625Q36.4 65.734375 36.7125 64.8125Q37.025 63.875 37.634377 63.375Q38.259377 62.875 39.196877 62.875Q39.884377 62.875 40.4 63.15625Q40.93125 63.4375 41.275 63.96875Q41.61875 64.484375 41.80625 65.234375Q41.99375 65.984375 41.99375 67.265625Q41.99375 68.78125 41.68125 69.703125Q41.384377 70.625 40.759377 71.140625Q40.15 71.640625 39.196877 71.640625Q37.9625 71.640625 37.24375 70.75Q36.4 69.6875 36.4 67.265625ZM37.478127 67.265625Q37.478127 69.375 37.978127 70.078125Q38.478127 70.78125 39.196877 70.78125Q39.93125 70.78125 40.415627 70.078125Q40.915627 69.375 40.915627 67.265625Q40.915627 65.140625 40.415627 64.453125Q39.93125 63.75 39.18125 63.75Q38.4625 63.75 38.025 64.359375Q37.478127 65.140625 37.478127 67.265625Z" fill-rule="nonzero"/><path fill="#000000" d="M99.373405 412.08438L99.373405 413.1L93.685905 413.1Q93.685905 412.725 93.810905 412.36563Q94.029655 411.7875 94.498405 411.225Q94.98278 410.6625 95.88903 409.92813Q97.29528 408.77188 97.779655 408.1Q98.279655 407.42813 98.279655 406.83438Q98.279655 406.20938 97.82653 405.7875Q97.373405 405.35 96.654655 405.35Q95.88903 405.35 95.435905 405.80313Q94.98278 406.25626 94.967155 407.06876L93.88903 406.95938Q93.998405 405.74063 94.717155 405.11563Q95.45153 404.475 96.685905 404.475Q97.92028 404.475 98.63903 405.1625Q99.35778 405.85 99.35778 406.86563Q99.35778 407.38126 99.13903 407.88126Q98.935905 408.36563 98.435905 408.92813Q97.95153 409.475 96.82653 410.42813Q95.873405 411.225 95.592155 411.52188Q95.32653 411.80313 95.154655 412.08438L99.373405 412.08438ZM100.82653 408.86563Q100.82653 407.33438 101.13903 406.4125Q101.45153 405.475 102.060905 404.975Q102.685905 404.475 103.623405 404.475Q104.310905 404.475 104.82653 404.75626Q105.35778 405.0375 105.70153 405.56876Q106.04528 406.08438 106.23278 406.83438Q106.42028 407.58438 106.42028 408.86563Q106.42028 410.38126 106.10778 411.30313Q105.810905 412.225 105.185905 412.74063Q104.57653 413.24063 103.623405 413.24063Q102.38903 413.24063 101.67028 412.35Q100.82653 411.2875 100.82653 408.86563ZM101.904655 408.86563Q101.904655 410.975 102.404655 411.67813Q102.904655 412.38126 103.623405 412.38126Q104.35778 412.38126 104.842155 411.67813Q105.342155 410.975 105.342155 408.86563Q105.342155 406.74063 104.842155 406.05313Q104.35778 405.35 103.60778 405.35Q102.88903 405.35 102.45153 405.95938Q101.904655 406.74063 101.904655 408.86563ZM111.79528 413.1L110.748405 413.1L110.748405 406.38126Q110.35778 406.74063 109.73278 407.11563Q109.123405 407.475 108.63903 407.64688L108.63903 406.63126Q109.51403 406.20938 110.17028 405.63126Q110.842155 405.0375 111.123405 404.475L111.79528 404.475L111.79528 413.1ZM116.45153 408.44376Q115.79528 408.19376 115.467155 407.75626Q115.154655 407.30313 115.154655 406.69376Q115.154655 405.75626 115.82653 405.11563Q116.51403 404.475 117.623405 404.475Q118.748405 404.475 119.435905 405.13126Q120.123405 405.7875 120.123405 406.725Q120.123405 407.31876 119.810905 407.75626Q119.498405 408.19376 118.85778 408.44376Q119.654655 408.69376 120.060905 409.27188Q120.467155 409.85 120.467155 410.64688Q120.467155 411.74063 119.685905 412.49063Q118.92028 413.24063 117.63903 413.24063Q116.373405 413.24063 115.592155 412.49063Q114.810905 411.74063 114.810905 410.61563Q114.810905 409.77188 115.23278 409.20938Q115.67028 408.64688 116.45153 408.44376ZM116.23278 406.64688Q116.23278 407.25626 116.623405 407.64688Q117.029655 408.0375 117.654655 408.0375Q118.26403 408.0375 118.654655 407.6625Q119.04528 407.27188 119.04528 406.70938Q119.04528 406.13126 118.63903 405.74063Q118.23278 405.33438 117.63903 405.33438Q117.029655 405.33438 116.623405 405.725Q116.23278 406.11563 116.23278 406.64688ZM115.904655 410.61563Q115.904655 411.06876 116.10778 411.49063Q116.32653 411.9125 116.748405 412.14688Q117.17028 412.38126 117.654655 412.38126Q118.404655 412.38126 118.88903 411.89688Q119.38903 411.4125 119.38903 410.6625Q119.38903 409.89688 118.88903 409.39688Q118.38903 408.89688 117.623405 408.89688Q116.873405 408.89688 116.38903 409.39688Q115.904655 409.88126 115.904655 410.61563Z" fill-rule="nonzero"/><path fill="#000000" d="M185.93123 412.08438L185.93123 413.1L180.24373 413.1Q180.24373 412.725 180.36873 412.36563Q180.58748 411.7875 181.05623 411.225Q181.5406 410.6625 182.44685 409.92813Q183.8531 408.77188 184.33748 408.1Q184.83748 407.42813 184.83748 406.83438Q184.83748 406.20938 184.38435 405.7875Q183.93123 405.35 183.21248 405.35Q182.44685 405.35 181.99373 405.80313Q181.5406 406.25626 181.52498 407.06876L180.44685 406.95938Q180.55623 405.74063 181.27498 405.11563Q182.00935 404.475 183.24373 404.475Q184.4781 404.475 185.19685 405.1625Q185.9156 405.85 185.9156 406.86563Q185.9156 407.38126 185.69685 407.88126Q185.49373 408.36563 184.99373 408.92813Q184.50935 409.475 183.38435 410.42813Q182.43123 411.225 182.14998 411.52188Q181.88435 411.80313 181.71248 412.08438L185.93123 412.08438ZM187.38435 408.86563Q187.38435 407.33438 187.69685 406.4125Q188.00935 405.475 188.61873 404.975Q189.24373 404.475 190.18123 404.475Q190.86873 404.475 191.38435 404.75626Q191.9156 405.0375 192.25935 405.56876Q192.6031 406.08438 192.7906 406.83438Q192.9781 407.58438 192.9781 408.86563Q192.9781 410.38126 192.6656 411.30313Q192.36873 412.225 191.74373 412.74063Q191.13435 413.24063 190.18123 413.24063Q188.94685 413.24063 188.2281 412.35Q187.38435 411.2875 187.38435 408.86563ZM188.46248 408.86563Q188.46248 410.975 188.96248 411.67813Q189.46248 412.38126 190.18123 412.38126Q190.9156 412.38126 191.39998 411.67813Q191.89998 410.975 191.89998 408.86563Q191.89998 406.74063 191.39998 406.05313Q190.9156 405.35 190.1656 405.35Q189.44685 405.35 189.00935 405.95938Q188.46248 406.74063 188.46248 408.86563ZM198.3531 413.1L197.30623 413.1L197.30623 406.38126Q196.9156 406.74063 196.2906 407.11563Q195.68123 407.475 195.19685 407.64688L195.19685 406.63126Q196.07185 406.20938 196.7281 405.63126Q197.39998 405.0375 197.68123 404.475L198.3531 404.475L198.3531 413.1ZM201.5406 411.11563L202.55623 411.02188Q202.68123 411.74063 203.0406 412.06876Q203.4156 412.38126 203.9781 412.38126Q204.46248 412.38126 204.82185 412.1625Q205.19685 411.92813 205.43123 411.56876Q205.6656 411.19376 205.82185 410.56876Q205.9781 409.92813 205.9781 409.27188Q205.9781 409.19376 205.9781 409.05313Q205.6656 409.55313 205.11873 409.88126Q204.57185 410.19376 203.93123 410.19376Q202.8531 410.19376 202.11873 409.42813Q201.38435 408.64688 201.38435 407.38126Q201.38435 406.06876 202.14998 405.27188Q202.93123 404.475 204.08748 404.475Q204.9156 404.475 205.6031 404.92813Q206.30623 405.38126 206.6656 406.225Q207.02498 407.05313 207.02498 408.63126Q207.02498 410.27188 206.6656 411.25626Q206.32185 412.225 205.6031 412.74063Q204.89998 413.24063 203.96248 413.24063Q202.94685 413.24063 202.30623 412.69376Q201.6656 412.13126 201.5406 411.11563ZM205.8531 407.31876Q205.8531 406.4125 205.36873 405.88126Q204.89998 405.35 204.21248 405.35Q203.50935 405.35 202.9781 405.92813Q202.46248 406.49063 202.46248 407.4125Q202.46248 408.225 202.96248 408.74063Q203.46248 409.25626 204.18123 409.25626Q204.9156 409.25626 205.38435 408.74063Q205.8531 408.225 205.8531 407.31876Z" fill-rule="nonzero"/><path fill="#000000" d="M272.48904 412.08438L272.48904 413.1L266.80154 413.1Q266.80154 412.725 266.92654 412.36563Q267.1453 411.7875 267.61404 411.225Q268.09842 410.6625 269.00467 409.92813Q270.41092 408.77188 270.8953 408.1Q271.3953 407.42813 271.3953 406.83438Q271.3953 406.20938 270.94217 405.7875Q270.48904 405.35 269.7703 405.35Q269.00467 405.35 268.55154 405.80313Q268.09842 406.25626 268.0828 407.06876L267.00467 406.95938Q267.11404 405.74063 267.8328 405.11563Q268.56717 404.475 269.80154 404.475Q271.03592 404.475 271.75467 405.1625Q272.47342 405.85 272.47342 406.86563Q272.47342 407.38126 272.25467 407.88126Q272.05154 408.36563 271.55154 408.92813Q271.06717 409.475 269.94217 410.42813Q268.98904 411.225 268.7078 411.52188Q268.44217 411.80313 268.2703 412.08438L272.48904 412.08438ZM273.94217 408.86563Q273.94217 407.33438 274.25467 406.4125Q274.56717 405.475 275.17654 404.975Q275.80154 404.475 276.73904 404.475Q277.42654 404.475 277.94217 404.75626Q278.47342 405.0375 278.81717 405.56876Q279.16092 406.08438 279.34842 406.83438Q279.53592 407.58438 279.53592 408.86563Q279.53592 410.38126 279.22342 411.30313Q278.92654 412.225 278.30154 412.74063Q277.69217 413.24063 276.73904 413.24063Q275.50467 413.24063 274.78592 412.35Q273.94217 411.2875 273.94217 408.86563ZM275.0203 408.86563Q275.0203 410.975 275.5203 411.67813Q276.0203 412.38126 276.73904 412.38126Q277.47342 412.38126 277.9578 411.67813Q278.4578 410.975 278.4578 408.86563Q278.4578 406.74063 277.9578 406.05313Q277.47342 405.35 276.72342 405.35Q276.00467 405.35 275.56717 405.95938Q275.0203 406.74063 275.0203 408.86563ZM286.48904 412.08438L286.48904 413.1L280.80154 413.1Q280.80154 412.725 280.92654 412.36563Q281.1453 411.7875 281.61404 411.225Q282.09842 410.6625 283.00467 409.92813Q284.41092 408.77188 284.8953 408.1Q285.3953 407.42813 285.3953 406.83438Q285.3953 406.20938 284.94217 405.7875Q284.48904 405.35 283.7703 405.35Q283.00467 405.35 282.55154 405.80313Q282.09842 406.25626 282.0828 407.06876L281.00467 406.95938Q281.11404 405.74063 281.8328 405.11563Q282.56717 404.475 283.80154 404.475Q285.03592 404.475 285.75467 405.1625Q286.47342 405.85 286.47342 406.86563Q286.47342 407.38126 286.25467 407.88126Q286.05154 408.36563 285.55154 408.92813Q285.06717 409.475 283.94217 410.42813Q282.98904 411.225 282.7078 411.52188Q282.44217 411.80313 282.2703 412.08438L286.48904 412.08438ZM287.94217 408.86563Q287.94217 407.33438 288.25467 406.4125Q288.56717 405.475 289.17654 404.975Q289.80154 404.475 290.73904 404.475Q291.42654 404.475 291.94217 404.75626Q292.47342 405.0375 292.81717 405.56876Q293.16092 406.08438 293.34842 406.83438Q293.53592 407.58438 293.53592 408.86563Q293.53592 410.38126 293.22342 411.30313Q292.92654 412.225 292.30154 412.74063Q291.69217 413.24063 290.73904 413.24063Q289.50467 413.24063 288.78592 412.35Q287.94217 411.2875 287.94217 408.86563ZM289.0203 408.86563Q289.0203 410.975 289.5203 411.67813Q290.0203 412.38126 290.73904 412.38126Q291.47342 412.38126 291.9578 411.67813Q292.4578 410.975 292.4578 408.86563Q292.4578 406.74063 291.9578 406.05313Q291.47342 405.35 290.72342 405.35Q290.00467 405.35 289.56717 405.95938Q289.0203 406.74063 289.0203 408.86563Z" fill-rule="nonzero"/><path fill="#000000" d="M359.04688 412.08438L359.04688 413.1L353.35938 413.1Q353.35938 412.725 353.48438 412.36563Q353.70312 411.7875 354.17188 411.225Q354.65625 410.6625 355.5625 409.92813Q356.96875 408.77188 357.45312 408.1Q357.95312 407.42813 357.95312 406.83438Q357.95312 406.20938 357.5 405.7875Q357.04688 405.35 356.32812 405.35Q355.5625 405.35 355.10938 405.80313Q354.65625 406.25626 354.64062 407.06876L353.5625 406.95938Q353.67188 405.74063 354.39062 405.11563Q355.125 404.475 356.35938 404.475Q357.59375 404.475 358.3125 405.1625Q359.03125 405.85 359.03125 406.86563Q359.03125 407.38126 358.8125 407.88126Q358.60938 408.36563 358.10938 408.92813Q357.625 409.475 356.5 410.42813Q355.54688 411.225 355.26562 411.52188Q355.0 411.80313 354.82812 412.08438L359.04688 412.08438ZM360.5 408.86563Q360.5 407.33438 360.8125 406.4125Q361.125 405.475 361.73438 404.975Q362.35938 404.475 363.29688 404.475Q363.98438 404.475 364.5 404.75626Q365.03125 405.0375 365.375 405.56876Q365.71875 406.08438 365.90625 406.83438Q366.09375 407.58438 366.09375 408.86563Q366.09375 410.38126 365.78125 411.30313Q365.48438 412.225 364.85938 412.74063Q364.25 413.24063 363.29688 413.24063Q362.0625 413.24063 361.34375 412.35Q360.5 411.2875 360.5 408.86563ZM361.57812 408.86563Q361.57812 410.975 362.07812 411.67813Q362.57812 412.38126 363.29688 412.38126Q364.03125 412.38126 364.51562 411.67813Q365.01562 410.975 365.01562 408.86563Q365.01562 406.74063 364.51562 406.05313Q364.03125 405.35 363.28125 405.35Q362.5625 405.35 362.125 405.95938Q361.57812 406.74063 361.57812 408.86563ZM373.04688 412.08438L373.04688 413.1L367.35938 413.1Q367.35938 412.725 367.48438 412.36563Q367.70312 411.7875 368.17188 411.225Q368.65625 410.6625 369.5625 409.92813Q370.96875 408.77188 371.45312 408.1Q371.95312 407.42813 371.95312 406.83438Q371.95312 406.20938 371.5 405.7875Q371.04688 405.35 370.32812 405.35Q369.5625 405.35 369.10938 405.80313Q368.65625 406.25626 368.64062 407.06876L367.5625 406.95938Q367.67188 405.74063 368.39062 405.11563Q369.125 404.475 370.35938 404.475Q371.59375 404.475 372.3125 405.1625Q373.03125 405.85 373.03125 406.86563Q373.03125 407.38126 372.8125 407.88126Q372.60938 408.36563 372.10938 408.92813Q371.625 409.475 370.5 410.42813Q369.54688 411.225 369.26562 411.52188Q369.0 411.80313 368.82812 412.08438L373.04688 412.08438ZM378.46875 413.1L377.42188 413.1L377.42188 406.38126Q377.03125 406.74063 376.40625 407.11563Q375.79688 407.475 375.3125 407.64688L375.3125 406.63126Q376.1875 406.20938 376.84375 405.63126Q377.51562 405.0375 377.79688 404.475L378.46875 404.475L378.46875 413.1Z" fill-rule="nonzero"/><path fill="#000000" d="M445.6047 412.08438L445.6047 413.1L439.9172 413.1Q439.9172 412.725 440.0422 412.36563Q440.26096 411.7875 440.7297 411.225Q441.21408 410.6625 442.12033 409.92813Q443.52658 408.77188 444.01096 408.1Q444.51096 407.42813 444.51096 406.83438Q444.51096 406.20938 444.05783 405.7875Q443.6047 405.35 442.88596 405.35Q442.12033 405.35 441.6672 405.80313Q441.21408 406.25626 441.19846 407.06876L440.12033 406.95938Q440.2297 405.74063 440.94846 405.11563Q441.68283 404.475 442.9172 404.475Q444.15158 404.475 444.87033 405.1625Q445.58908 405.85 445.58908 406.86563Q445.58908 407.38126 445.37033 407.88126Q445.1672 408.36563 444.6672 408.92813Q444.18283 409.475 443.05783 410.42813Q442.1047 411.225 441.82346 411.52188Q441.55783 411.80313 441.38596 412.08438L445.6047 412.08438ZM447.05783 408.86563Q447.05783 407.33438 447.37033 406.4125Q447.68283 405.475 448.2922 404.975Q448.9172 404.475 449.8547 404.475Q450.5422 404.475 451.05783 404.75626Q451.58908 405.0375 451.93283 405.56876Q452.27658 406.08438 452.46408 406.83438Q452.65158 407.58438 452.65158 408.86563Q452.65158 410.38126 452.33908 411.30313Q452.0422 412.225 451.4172 412.74063Q450.80783 413.24063 449.8547 413.24063Q448.62033 413.24063 447.90158 412.35Q447.05783 411.2875 447.05783 408.86563ZM448.13596 408.86563Q448.13596 410.975 448.63596 411.67813Q449.13596 412.38126 449.8547 412.38126Q450.58908 412.38126 451.07346 411.67813Q451.57346 410.975 451.57346 408.86563Q451.57346 406.74063 451.07346 406.05313Q450.58908 405.35 449.83908 405.35Q449.12033 405.35 448.68283 405.95938Q448.13596 406.74063 448.13596 408.86563ZM459.6047 412.08438L459.6047 413.1L453.9172 413.1Q453.9172 412.725 454.0422 412.36563Q454.26096 411.7875 454.7297 411.225Q455.21408 410.6625 456.12033 409.92813Q457.52658 408.77188 458.01096 408.1Q458.51096 407.42813 458.51096 406.83438Q458.51096 406.20938 458.05783 405.7875Q457.6047 405.35 456.88596 405.35Q456.12033 405.35 455.6672 405.80313Q455.21408 406.25626 455.19846 407.06876L454.12033 406.95938Q454.2297 405.74063 454.94846 405.11563Q455.68283 404.475 456.9172 404.475Q458.15158 404.475 458.87033 405.1625Q459.58908 405.85 459.58908 406.86563Q459.58908 407.38126 459.37033 407.88126Q459.1672 408.36563 458.6672 408.92813Q458.18283 409.475 457.05783 410.42813Q456.1047 411.225 455.82346 411.52188Q455.55783 411.80313 455.38596 412.08438L459.6047 412.08438ZM466.6047 412.08438L466.6047 413.1L460.9172 413.1Q460.9172 412.725 461.0422 412.36563Q461.26096 411.7875 461.7297 411.225Q462.21408 410.6625 463.12033 409.92813Q464.52658 408.77188 465.01096 408.1Q465.51096 407.42813 465.51096 406.83438Q465.51096 406.20938 465.05783 405.7875Q464.6047 405.35 463.88596 405.35Q463.12033 405.35 462.6672 405.80313Q462.21408 406.25626 462.19846 407.06876L461.12033 406.95938Q461.2297 405.74063 461.94846 405.11563Q462.68283 404.475 463.9172 404.475Q465.15158 404.475 465.87033 405.1625Q466.58908 405.85 466.58908 406.86563Q466.58908 407.38126 466.37033 407.88126Q466.1672 408.36563 465.6672 408.92813Q465.18283 409.475 464.05783 410.42813Q463.1047 411.225 462.82346 411.52188Q462.55783 411.80313 462.38596 412.08438L466.6047 412.08438Z" fill-rule="nonzero"/><path fill="#000000" d="M532.16254 412.08438L532.16254 413.1L526.47504 413.1Q526.47504 412.725 526.60004 412.36563Q526.8188 411.7875 527.28754 411.225Q527.7719 410.6625 528.67816 409.92813Q530.0844 408.77188 530.5688 408.1Q531.0688 407.42813 531.0688 406.83438Q531.0688 406.20938 530.61566 405.7875Q530.16254 405.35 529.4438 405.35Q528.67816 405.35 528.22504 405.80313Q527.7719 406.25626 527.7563 407.06876L526.67816 406.95938Q526.78754 405.74063 527.5063 405.11563Q528.24066 404.475 529.47504 404.475Q530.7094 404.475 531.42816 405.1625Q532.1469 405.85 532.1469 406.86563Q532.1469 407.38126 531.92816 407.88126Q531.72504 408.36563 531.22504 408.92813Q530.74066 409.475 529.61566 410.42813Q528.66254 411.225 528.3813 411.52188Q528.11566 411.80313 527.9438 412.08438L532.16254 412.08438ZM533.61566 408.86563Q533.61566 407.33438 533.92816 406.4125Q534.24066 405.475 534.85004 404.975Q535.47504 404.475 536.41254 404.475Q537.10004 404.475 537.61566 404.75626Q538.1469 405.0375 538.49066 405.56876Q538.8344 406.08438 539.0219 406.83438Q539.2094 407.58438 539.2094 408.86563Q539.2094 410.38126 538.8969 411.30313Q538.60004 412.225 537.97504 412.74063Q537.36566 413.24063 536.41254 413.24063Q535.17816 413.24063 534.4594 412.35Q533.61566 411.2875 533.61566 408.86563ZM534.6938 408.86563Q534.6938 410.975 535.1938 411.67813Q535.6938 412.38126 536.41254 412.38126Q537.1469 412.38126 537.6313 411.67813Q538.1313 410.975 538.1313 408.86563Q538.1313 406.74063 537.6313 406.05313Q537.1469 405.35 536.3969 405.35Q535.67816 405.35 535.24066 405.95938Q534.6938 406.74063 534.6938 408.86563ZM546.16254 412.08438L546.16254 413.1L540.47504 413.1Q540.47504 412.725 540.60004 412.36563Q540.8188 411.7875 541.28754 411.225Q541.7719 410.6625 542.67816 409.92813Q544.0844 408.77188 544.5688 408.1Q545.0688 407.42813 545.0688 406.83438Q545.0688 406.20938 544.61566 405.7875Q544.16254 405.35 543.4438 405.35Q542.67816 405.35 542.22504 405.80313Q541.7719 406.25626 541.7563 407.06876L540.67816 406.95938Q540.78754 405.74063 541.5063 405.11563Q542.24066 404.475 543.47504 404.475Q544.7094 404.475 545.42816 405.1625Q546.1469 405.85 546.1469 406.86563Q546.1469 407.38126 545.92816 407.88126Q545.72504 408.36563 545.22504 408.92813Q544.74066 409.475 543.61566 410.42813Q542.66254 411.225 542.3813 411.52188Q542.11566 411.80313 541.9438 412.08438L546.16254 412.08438ZM547.61566 410.83438L548.67816 410.69376Q548.85004 411.58438 549.28754 411.99063Q549.72504 412.38126 550.35004 412.38126Q551.10004 412.38126 551.61566 411.86563Q552.1313 411.35 552.1313 410.58438Q552.1313 409.86563 551.6469 409.39688Q551.17816 408.9125 550.4438 408.9125Q550.1469 408.9125 549.6938 409.0375L549.8188 408.1Q549.92816 408.11563 549.99066 408.11563Q550.66254 408.11563 551.1938 407.77188Q551.74066 407.4125 551.74066 406.67813Q551.74066 406.1 551.35004 405.725Q550.9594 405.33438 550.3344 405.33438Q549.72504 405.33438 549.30316 405.725Q548.8969 406.11563 548.78754 406.88126L547.72504 406.69376Q547.91254 405.64688 548.60004 405.06876Q549.28754 404.475 550.30316 404.475Q551.0063 404.475 551.60004 404.7875Q552.1938 405.08438 552.5063 405.6Q552.8188 406.11563 552.8188 406.70938Q552.8188 407.25626 552.5219 407.725Q552.22504 408.17813 551.6469 408.44376Q552.3969 408.61563 552.8188 409.17813Q553.24066 409.725 553.24066 410.56876Q553.24066 411.69376 552.41254 412.475Q551.60004 413.25626 550.35004 413.25626Q549.22504 413.25626 548.47504 412.58438Q547.72504 411.89688 547.61566 410.83438Z" fill-rule="nonzero"/><path fill="#000000" d="M618.72034 412.08438L618.72034 413.1L613.03284 413.1Q613.03284 412.725 613.15784 412.36563Q613.3766 411.7875 613.84534 411.225Q614.3297 410.6625 615.23596 409.92813Q616.6422 408.77188 617.1266 408.1Q617.6266 407.42813 617.6266 406.83438Q617.6266 406.20938 617.17346 405.7875Q616.72034 405.35 616.0016 405.35Q615.23596 405.35 614.78284 405.80313Q614.3297 406.25626 614.3141 407.06876L613.23596 406.95938Q613.34534 405.74063 614.0641 405.11563Q614.79846 404.475 616.03284 404.475Q617.2672 404.475 617.98596 405.1625Q618.7047 405.85 618.7047 406.86563Q618.7047 407.38126 618.48596 407.88126Q618.28284 408.36563 617.78284 408.92813Q617.29846 409.475 616.17346 410.42813Q615.22034 411.225 614.9391 411.52188Q614.67346 411.80313 614.5016 412.08438L618.72034 412.08438ZM620.17346 408.86563Q620.17346 407.33438 620.48596 406.4125Q620.79846 405.475 621.40784 404.975Q622.03284 404.475 622.97034 404.475Q623.65784 404.475 624.17346 404.75626Q624.7047 405.0375 625.04846 405.56876Q625.3922 406.08438 625.5797 406.83438Q625.7672 407.58438 625.7672 408.86563Q625.7672 410.38126 625.4547 411.30313Q625.15784 412.225 624.53284 412.74063Q623.92346 413.24063 622.97034 413.24063Q621.73596 413.24063 621.0172 412.35Q620.17346 411.2875 620.17346 408.86563ZM621.2516 408.86563Q621.2516 410.975 621.7516 411.67813Q622.2516 412.38126 622.97034 412.38126Q623.7047 412.38126 624.1891 411.67813Q624.6891 410.975 624.6891 408.86563Q624.6891 406.74063 624.1891 406.05313Q623.7047 405.35 622.9547 405.35Q622.23596 405.35 621.79846 405.95938Q621.2516 406.74063 621.2516 408.86563ZM632.72034 412.08438L632.72034 413.1L627.03284 413.1Q627.03284 412.725 627.15784 412.36563Q627.3766 411.7875 627.84534 411.225Q628.3297 410.6625 629.23596 409.92813Q630.6422 408.77188 631.1266 408.1Q631.6266 407.42813 631.6266 406.83438Q631.6266 406.20938 631.17346 405.7875Q630.72034 405.35 630.0016 405.35Q629.23596 405.35 628.78284 405.80313Q628.3297 406.25626 628.3141 407.06876L627.23596 406.95938Q627.34534 405.74063 628.0641 405.11563Q628.79846 404.475 630.03284 404.475Q631.2672 404.475 631.98596 405.1625Q632.7047 405.85 632.7047 406.86563Q632.7047 407.38126 632.48596 407.88126Q632.28284 408.36563 631.78284 408.92813Q631.29846 409.475 630.17346 410.42813Q629.22034 411.225 628.9391 411.52188Q628.67346 411.80313 628.5016 412.08438L632.72034 412.08438ZM637.54846 413.1L637.54846 411.0375L633.8297 411.0375L633.8297 410.06876L637.7516 404.50626L638.61096 404.50626L638.61096 410.06876L639.7672 410.06876L639.7672 411.0375L638.61096 411.0375L638.61096 413.1L637.54846 413.1ZM637.54846 410.06876L637.54846 406.20938L634.86096 410.06876L637.54846 410.06876Z" fill-rule="nonzero"/><path fill="#757575" d="M23.446875 40.9L23.446875 26.587502L28.8375 26.587502Q30.275 26.587502 31.025 26.712502Q32.071877 26.900002 32.790627 27.400002Q33.509377 27.884377 33.93125 28.775002Q34.36875 29.665627 34.36875 30.728127Q34.36875 32.55625 33.196877 33.821877Q32.040627 35.071877 29.009375 35.071877L25.3375 35.071877L25.3375 40.9L23.446875 40.9ZM25.3375 33.384377L29.040625 33.384377Q30.86875 33.384377 31.634375 32.7125Q32.415627 32.025 32.415627 30.775002Q32.415627 29.884377 31.9625 29.243752Q31.509375 28.603127 30.775 28.400002Q30.290625 28.275002 28.99375 28.275002L25.3375 28.275002L25.3375 33.384377ZM42.99375 39.61875Q42.009377 40.446877 41.103127 40.790627Q40.196877 41.134377 39.165627 41.134377Q37.4625 41.134377 36.540627 40.30625Q35.61875 39.4625 35.61875 38.165627Q35.61875 37.4 35.9625 36.775Q36.321877 36.15 36.884377 35.775Q37.446877 35.384377 38.15 35.18125Q38.665627 35.05625 39.7125 34.915627Q41.8375 34.665627 42.8375 34.321877Q42.853127 33.9625 42.853127 33.853127Q42.853127 32.790627 42.353127 32.3375Q41.68125 31.743752 40.353127 31.743752Q39.103127 31.743752 38.509377 32.18125Q37.93125 32.61875 37.65 33.728127L35.93125 33.49375Q36.165627 32.384377 36.696877 31.712502Q37.228127 31.025002 38.24375 30.665627Q39.259377 30.290627 40.603127 30.290627Q41.93125 30.290627 42.759377 30.603127Q43.5875 30.915627 43.978127 31.400002Q44.36875 31.868752 44.525 32.5875Q44.61875 33.040627 44.61875 34.2125L44.61875 36.55625Q44.61875 39.009377 44.728127 39.665627Q44.8375 40.30625 45.18125 40.9L43.3375 40.9Q43.071877 40.353127 42.99375 39.61875ZM42.8375 35.696877Q41.884377 36.0875 39.9625 36.353127Q38.884377 36.509377 38.43125 36.7125Q37.99375 36.9 37.74375 37.275Q37.49375 37.65 37.49375 38.11875Q37.49375 38.821877 38.025 39.290627Q38.55625 39.759377 39.5875 39.759377Q40.603127 39.759377 41.384377 39.321877Q42.18125 38.86875 42.55625 38.103127Q42.8375 37.49375 42.8375 36.3375L42.8375 35.696877ZM47.2125 44.86875L47.2125 30.525002L48.821877 30.525002L48.821877 31.868752Q49.384377 31.087502 50.0875 30.696877Q50.80625 30.290627 51.821877 30.290627Q53.15 30.290627 54.165627 30.978127Q55.18125 31.665627 55.696877 32.915627Q56.228127 34.15 56.228127 35.634377Q56.228127 37.228127 55.65 38.509377Q55.0875 39.775 53.99375 40.4625Q52.9 41.134377 51.696877 41.134377Q50.821877 41.134377 50.11875 40.759377Q49.43125 40.384377 48.978127 39.821877L48.978127 44.86875L47.2125 44.86875ZM48.80625 35.775Q48.80625 37.775 49.61875 38.728127Q50.43125 39.68125 51.5875 39.68125Q52.759377 39.68125 53.5875 38.696877Q54.43125 37.7125 54.43125 35.61875Q54.43125 33.65 53.603127 32.665627Q52.790627 31.665627 51.665627 31.665627Q50.540627 31.665627 49.665627 32.728127Q48.80625 33.775 48.80625 35.775ZM65.32188 37.55625L67.13438 37.790627Q66.7125 39.36875 65.54063 40.259377Q64.38438 41.134377 62.571877 41.134377Q60.30625 41.134377 58.9625 39.74375Q57.634377 38.3375 57.634377 35.80625Q57.634377 33.18125 58.978127 31.743752Q60.321877 30.290627 62.478127 30.290627Q64.55625 30.290627 65.86875 31.712502Q67.19688 33.11875 67.19688 35.696877Q67.19688 35.853127 67.18125 36.165627L59.446877 36.165627Q59.540627 37.86875 60.415627 38.775Q61.290627 39.68125 62.5875 39.68125Q63.55625 39.68125 64.22813 39.18125Q64.91563 38.665627 65.32188 37.55625ZM59.540627 34.7125L65.3375 34.7125Q65.22813 33.415627 64.68125 32.759377Q63.8375 31.743752 62.49375 31.743752Q61.290627 31.743752 60.4625 32.55625Q59.634377 33.353127 59.540627 34.7125ZM69.19688 40.9L69.19688 30.525002L70.775 30.525002L70.775 32.103127Q71.38438 30.993752 71.9 30.650002Q72.41563 30.290627 73.025 30.290627Q73.91563 30.290627 74.8375 30.853127L74.22813 32.49375Q73.5875 32.103127 72.94688 32.103127Q72.36875 32.103127 71.9 32.4625Q71.44688 32.80625 71.24375 33.415627Q70.9625 34.353127 70.9625 35.4625L70.9625 40.9L69.19688 40.9ZM75.50938 37.80625L77.25938 37.525Q77.4 38.571877 78.07188 39.134377Q78.74375 39.68125 79.94688 39.68125Q81.15 39.68125 81.72813 39.196877Q82.32188 38.696877 82.32188 38.040627Q82.32188 37.446877 81.80625 37.103127Q81.44688 36.86875 80.00938 36.509377Q78.07188 36.009377 77.32188 35.665627Q76.5875 35.30625 76.19688 34.68125Q75.80625 34.040627 75.80625 33.275Q75.80625 32.5875 76.11875 31.993752Q76.44688 31.400002 76.99375 31.009377Q77.4 30.712502 78.10313 30.509377Q78.82188 30.290627 79.63438 30.290627Q80.85313 30.290627 81.775 30.650002Q82.69688 30.993752 83.13438 31.603127Q83.57188 32.196877 83.74375 33.196877L82.025 33.43125Q81.9 32.634377 81.3375 32.196877Q80.775 31.743752 79.75938 31.743752Q78.54063 31.743752 78.025 32.15Q77.50938 32.540627 77.50938 33.071877Q77.50938 33.415627 77.72813 33.696877Q77.93125 33.978127 78.4 34.165627Q78.66563 34.259377 79.94688 34.603127Q81.82188 35.103127 82.55625 35.43125Q83.29063 35.74375 83.7125 36.353127Q84.13438 36.946877 84.13438 37.853127Q84.13438 38.728127 83.61875 39.509377Q83.10313 40.290627 82.13438 40.7125Q81.16563 41.134377 79.94688 41.134377Q77.93125 41.134377 76.86875 40.290627Q75.80625 39.446877 75.50938 37.80625ZM92.19688 40.9L92.19688 30.525002L93.775 30.525002L93.775 32.103127Q94.38438 30.993752 94.9 30.650002Q95.41563 30.290627 96.025 30.290627Q96.91563 30.290627 97.8375 30.853127L97.22813 32.49375Q96.5875 32.103127 95.94688 32.103127Q95.36875 32.103127 94.9 32.4625Q94.44688 32.80625 94.24375 33.415627Q93.9625 34.353127 93.9625 35.4625L93.9625 40.9L92.19688 40.9ZM106.32188 37.55625L108.13438 37.790627Q107.7125 39.36875 106.54063 40.259377Q105.38438 41.134377 103.57188 41.134377Q101.30625 41.134377 99.9625 39.74375Q98.63438 38.3375 98.63438 35.80625Q98.63438 33.18125 99.97813 31.743752Q101.32188 30.290627 103.47813 30.290627Q105.55625 30.290627 106.86875 31.712502Q108.19688 33.11875 108.19688 35.696877Q108.19688 35.853127 108.18125 36.165627L100.44688 36.165627Q100.54063 37.86875 101.41563 38.775Q102.29063 39.68125 103.5875 39.68125Q104.55625 39.68125 105.22813 39.18125Q105.91563 38.665627 106.32188 37.55625ZM100.54063 34.7125L106.3375 34.7125Q106.22813 33.415627 105.68125 32.759377Q104.8375 31.743752 103.49375 31.743752Q102.29063 31.743752 101.4625 32.55625Q100.63438 33.353127 100.54063 34.7125ZM116.99375 39.61875Q116.00938 40.446877 115.10313 40.790627Q114.19688 41.134377 113.16563 41.134377Q111.4625 41.134377 110.54063 40.30625Q109.61875 39.4625 109.61875 38.165627Q109.61875 37.4 109.9625 36.775Q110.32188 36.15 110.88438 35.775Q111.44688 35.384377 112.15 35.18125Q112.66563 35.05625 113.7125 34.915627Q115.8375 34.665627 116.8375 34.321877Q116.85313 33.9625 116.85313 33.853127Q116.85313 32.790627 116.35313 32.3375Q115.68125 31.743752 114.35313 31.743752Q113.10313 31.743752 112.50938 32.18125Q111.93125 32.61875 111.65 33.728127L109.93125 33.49375Q110.16563 32.384377 110.69688 31.712502Q111.22813 31.025002 112.24375 30.665627Q113.25938 30.290627 114.60313 30.290627Q115.93125 30.290627 116.75938 30.603127Q117.5875 30.915627 117.97813 31.400002Q118.36875 31.868752 118.525 32.5875Q118.61875 33.040627 118.61875 34.2125L118.61875 36.55625Q118.61875 39.009377 118.72813 39.665627Q118.8375 40.30625 119.18125 40.9L117.3375 40.9Q117.07188 40.353127 116.99375 39.61875ZM116.8375 35.696877Q115.88438 36.0875 113.9625 36.353127Q112.88438 36.509377 112.43125 36.7125Q111.99375 36.9 111.74375 37.275Q111.49375 37.65 111.49375 38.11875Q111.49375 38.821877 112.025 39.290627Q112.55625 39.759377 113.5875 39.759377Q114.60313 39.759377 115.38438 39.321877Q116.18125 38.86875 116.55625 38.103127Q116.8375 37.49375 116.8375 36.3375L116.8375 35.696877ZM127.94688 40.9L127.94688 39.5875Q126.9625 41.134377 125.04063 41.134377Q123.80625 41.134377 122.75938 40.446877Q121.72813 39.759377 121.15 38.540627Q120.5875 37.321877 120.5875 35.728127Q120.5875 34.165627 121.10313 32.9Q121.61875 31.634377 122.65 30.962502Q123.69688 30.290627 124.9625 30.290627Q125.9 30.290627 126.63438 30.696877Q127.36875 31.087502 127.8375 31.712502L127.8375 26.587502L129.57187 26.587502L129.57187 40.9L127.94688 40.9ZM122.38438 35.728127Q122.38438 37.7125 123.22813 38.696877Q124.07188 39.68125 125.2125 39.68125Q126.36875 39.68125 127.16563 38.74375Q127.97813 37.80625 127.97813 35.86875Q127.97813 33.74375 127.15 32.74375Q126.3375 31.743752 125.13438 31.743752Q123.9625 31.743752 123.16563 32.7125Q122.38438 33.665627 122.38438 35.728127ZM145.32187 37.55625L147.13437 37.790627Q146.7125 39.36875 145.54062 40.259377Q144.38437 41.134377 142.57187 41.134377Q140.30624 41.134377 138.9625 39.74375Q137.63437 38.3375 137.63437 35.80625Q137.63437 33.18125 138.97812 31.743752Q140.32187 30.290627 142.47812 30.290627Q144.55624 30.290627 145.86874 31.712502Q147.19687 33.11875 147.19687 35.696877Q147.19687 35.853127 147.18124 36.165627L139.44687 36.165627Q139.54062 37.86875 140.41562 38.775Q141.29062 39.68125 142.5875 39.68125Q143.55624 39.68125 144.22812 39.18125Q144.91562 38.665627 145.32187 37.55625ZM139.54062 34.7125L145.3375 34.7125Q145.22812 33.415627 144.68124 32.759377Q143.8375 31.743752 142.49374 31.743752Q141.29062 31.743752 140.4625 32.55625Q139.63437 33.353127 139.54062 34.7125ZM155.99374 39.61875Q155.00937 40.446877 154.10312 40.790627Q153.19687 41.134377 152.16562 41.134377Q150.4625 41.134377 149.54062 40.30625Q148.61874 39.4625 148.61874 38.165627Q148.61874 37.4 148.9625 36.775Q149.32187 36.15 149.88437 35.775Q150.44687 35.384377 151.15 35.18125Q151.66562 35.05625 152.7125 34.915627Q154.8375 34.665627 155.8375 34.321877Q155.85312 33.9625 155.85312 33.853127Q155.85312 32.790627 155.35312 32.3375Q154.68124 31.743752 153.35312 31.743752Q152.10312 31.743752 151.50937 32.18125Q150.93124 32.61875 150.65 33.728127L148.93124 33.49375Q149.16562 32.384377 149.69687 31.712502Q150.22812 31.025002 151.24374 30.665627Q152.25937 30.290627 153.60312 30.290627Q154.93124 30.290627 155.75937 30.603127Q156.5875 30.915627 156.97812 31.400002Q157.36874 31.868752 157.525 32.5875Q157.61874 33.040627 157.61874 34.2125L157.61874 36.55625Q157.61874 39.009377 157.72812 39.665627Q157.8375 40.30625 158.18124 40.9L156.3375 40.9Q156.07187 40.353127 155.99374 39.61875ZM155.8375 35.696877Q154.88437 36.0875 152.9625 36.353127Q151.88437 36.509377 151.43124 36.7125Q150.99374 36.9 150.74374 37.275Q150.49374 37.65 150.49374 38.11875Q150.49374 38.821877 151.025 39.290627Q151.55624 39.759377 152.5875 39.759377Q153.60312 39.759377 154.38437 39.321877Q155.18124 38.86875 155.55624 38.103127Q155.8375 37.49375 155.8375 36.3375L155.8375 35.696877ZM166.99374 37.103127L168.7125 37.321877Q168.43124 39.11875 167.25937 40.134377Q166.10312 41.134377 164.4 41.134377Q162.275 41.134377 160.97812 39.74375Q159.68124 38.353127 159.68124 35.759377Q159.68124 34.071877 160.22812 32.821877Q160.79062 31.556252 161.93124 30.931252Q163.07187 30.290627 164.41562 30.290627Q166.10312 30.290627 167.16562 31.150002Q168.24374 32.009377 168.55624 33.571877L166.8375 33.8375Q166.60312 32.790627 165.97812 32.275Q165.35312 31.743752 164.47812 31.743752Q163.15 31.743752 162.32187 32.696877Q161.49374 33.65 161.49374 35.696877Q161.49374 37.790627 162.29062 38.74375Q163.0875 39.68125 164.38437 39.68125Q165.41562 39.68125 166.10312 39.05625Q166.80624 38.415627 166.99374 37.103127ZM170.2125 40.9L170.2125 26.587502L171.97812 26.587502L171.97812 31.712502Q173.2125 30.290627 175.0875 30.290627Q176.22812 30.290627 177.07187 30.743752Q177.93124 31.196877 178.29062 32.009377Q178.66562 32.80625 178.66562 34.321877L178.66562 40.9L176.91562 40.9L176.91562 34.321877Q176.91562 33.009377 176.3375 32.415627Q175.75937 31.806252 174.72812 31.806252Q173.94687 31.806252 173.24374 32.2125Q172.55624 32.61875 172.25937 33.321877Q171.97812 34.009377 171.97812 35.228127L171.97812 40.9L170.2125 40.9ZM186.13437 44.9L185.94687 43.24375Q186.525 43.4 186.94687 43.4Q187.54062 43.4 187.88437 43.196877Q188.24374 43.009377 188.4625 42.665627Q188.63437 42.4 189.00937 41.353127Q189.05624 41.196877 189.16562 40.915627L185.22812 30.525002L187.11874 30.525002L189.275 36.540627Q189.69687 37.68125 190.025 38.93125Q190.3375 37.728127 190.74374 36.571877L192.9625 30.525002L194.72812 30.525002L190.775 41.071877Q190.15 42.790627 189.79062 43.43125Q189.32187 44.30625 188.7125 44.696877Q188.11874 45.103127 187.275 45.103127Q186.75937 45.103127 186.13437 44.9ZM203.32187 37.55625L205.13437 37.790627Q204.7125 39.36875 203.54062 40.259377Q202.38437 41.134377 200.57187 41.134377Q198.30624 41.134377 196.9625 39.74375Q195.63437 38.3375 195.63437 35.80625Q195.63437 33.18125 196.97812 31.743752Q198.32187 30.290627 200.47812 30.290627Q202.55624 30.290627 203.86874 31.712502Q205.19687 33.11875 205.19687 35.696877Q205.19687 35.853127 205.18124 36.165627L197.44687 36.165627Q197.54062 37.86875 198.41562 38.775Q199.29062 39.68125 200.5875 39.68125Q201.55624 39.68125 202.22812 39.18125Q202.91562 38.665627 203.32187 37.55625ZM197.54062 34.7125L203.3375 34.7125Q203.22812 33.415627 202.68124 32.759377Q201.8375 31.743752 200.49374 31.743752Q199.29062 31.743752 198.4625 32.55625Q197.63437 33.353127 197.54062 34.7125ZM213.99374 39.61875Q213.00937 40.446877 212.10312 40.790627Q211.19687 41.134377 210.16562 41.134377Q208.4625 41.134377 207.54062 40.30625Q206.61874 39.4625 206.61874 38.165627Q206.61874 37.4 206.9625 36.775Q207.32187 36.15 207.88437 35.775Q208.44687 35.384377 209.15 35.18125Q209.66562 35.05625 210.7125 34.915627Q212.8375 34.665627 213.8375 34.321877Q213.85312 33.9625 213.85312 33.853127Q213.85312 32.790627 213.35312 32.3375Q212.68124 31.743752 211.35312 31.743752Q210.10312 31.743752 209.50937 32.18125Q208.93124 32.61875 208.65 33.728127L206.93124 33.49375Q207.16562 32.384377 207.69687 31.712502Q208.22812 31.025002 209.24374 30.665627Q210.25937 30.290627 211.60312 30.290627Q212.93124 30.290627 213.75937 30.603127Q214.5875 30.915627 214.97812 31.400002Q215.36874 31.868752 215.525 32.5875Q215.61874 33.040627 215.61874 34.2125L215.61874 36.55625Q215.61874 39.009377 215.72812 39.665627Q215.8375 40.30625 216.18124 40.9L214.3375 40.9Q214.07187 40.353127 213.99374 39.61875ZM213.8375 35.696877Q212.88437 36.0875 210.9625 36.353127Q209.88437 36.509377 209.43124 36.7125Q208.99374 36.9 208.74374 37.275Q208.49374 37.65 208.49374 38.11875Q208.49374 38.821877 209.025 39.290627Q209.55624 39.759377 210.5875 39.759377Q211.60312 39.759377 212.38437 39.321877Q213.18124 38.86875 213.55624 38.103127Q213.8375 37.49375 213.8375 36.3375L213.8375 35.696877ZM218.19687 40.9L218.19687 30.525002L219.775 30.525002L219.775 32.103127Q220.38437 30.993752 220.9 30.650002Q221.41562 30.290627 222.025 30.290627Q222.91562 30.290627 223.8375 30.853127L223.22812 32.49375Q222.5875 32.103127 221.94687 32.103127Q221.36874 32.103127 220.9 32.4625Q220.44687 32.80625 220.24374 33.415627Q219.9625 34.353127 219.9625 35.4625L219.9625 40.9L218.19687 40.9Z" fill-rule="nonzero"/></svg>