<svg version="1.1" viewBox="0.0 0.0 600.0 371.0" fill="none" stroke="none" stroke-linecap="square" stroke-miterlimit="10" width="600" height="371" xmlns:xlink="http://www.w3.org/1999/xlink" xmlns="http://www.w3.org/2000/svg"><path fill="#ffffff" d="M0 0L600.0 0L600.0 371.0L0 371.0L0 0Z" fill-rule="nonzero"/><path stroke="#333333" stroke-width="1.0" stroke-linecap="butt" d="M45.5 321.5L581.5 321.5" fill-rule="nonzero"/><path stroke="#cccccc" stroke-width="1.0" stroke-linecap="butt" d="M45.5 256.5L581.5 256.5" fill-rule="nonzero"/><path stroke="#cccccc" stroke-width="1.0" stroke-linecap="butt" d="M45.5 191.5L581.5 191.5" fill-rule="nonzero"/><path stroke="#cccccc" stroke-width="1.0" stroke-linecap="butt" d="M45.5 126.5L581.5 126.5" fill-rule="nonzero"/><path stroke="#cccccc" stroke-width="1.0" stroke-linecap="butt" d="M45.5 61.5L581.5 61.5" fill-rule="nonzero"/><clipPath id="id_0"><path d="M45.55 61.916668L581.45 61.916668L581.45 321.70126L45.55 321.70126L45.55 61.916668Z" clip-rule="nonzero"/></clipPath><path stroke="#000000" stroke-width="2.0" stroke-linecap="butt" stroke-opacity="0.0" clip-path="url(#id_0)" d="M72.0 322.0L55.0 322.0L55.0 320.0C55.0 318.89542 55.89543 318.0 57.0 318.0L70.0 318.0C71.10457 318.0 72.0 318.89542 72.0 320.0Z" fill-rule="nonzero"/><path fill="#4285f4" clip-path="url(#id_0)" d="M72.0 322.0L55.0 322.0L55.0 320.0C55.0 318.89542 55.89543 318.0 57.0 318.0L70.0 318.0C71.10457 318.0 72.0 318.89542 72.0 320.0Z" fill-rule="nonzero"/><path stroke="#000000" stroke-width="2.0" stroke-linecap="butt" stroke-opacity="0.0" clip-path="url(#id_0)" d="M99.0 322.0L82.0 322.0L82.0 320.0C82.0 318.89542 82.89543 318.0 84.0 318.0L97.0 318.0C98.10457 318.0 99.0 318.89542 99.0 320.0Z" fill-rule="nonzero"/><path fill="#4285f4" clip-path="url(#id_0)" d="M99.0 322.0L82.0 322.0L82.0 320.0C82.0 318.89542 82.89543 318.0 84.0 318.0L97.0 318.0C98.10457 318.0 99.0 318.89542 99.0 320.0Z" fill-rule="nonzero"/><path stroke="#000000" stroke-width="2.0" stroke-linecap="butt" stroke-opacity="0.0" clip-path="url(#id_0)" d="M125.0 322.0L108.0 322.0L108.0 322.0L125.0 322.0Z" fill-rule="nonzero"/><path fill="#4285f4" clip-path="url(#id_0)" d="M125.0 322.0L108.0 322.0L108.0 322.0L125.0 322.0Z" fill-rule="nonzero"/><path stroke="#000000" stroke-width="2.0" stroke-linecap="butt" stroke-opacity="0.0" clip-path="url(#id_0)" d="M151.0 322.0L134.0 322.0L134.0 322.0L151.0 322.0Z" fill-rule="nonzero"/><path fill="#4285f4" clip-path="url(#id_0)" d="M151.0 322.0L134.0 322.0L134.0 322.0L151.0 322.0Z" fill-rule="nonzero"/><path stroke="#000000" stroke-width="2.0" stroke-linecap="butt" stroke-opacity="0.0" clip-path="url(#id_0)" d="M178.0 322.0L161.0 322.0L161.0 322.0L178.0 322.0Z" fill-rule="nonzero"/><path fill="#4285f4" clip-path="url(#id_0)" d="M178.0 322.0L161.0 322.0L161.0 322.0L178.0 322.0Z" fill-rule="nonzero"/><path stroke="#000000" stroke-width="2.0" stroke-linecap="butt" stroke-opacity="0.0" clip-path="url(#id_0)" d="M204.0 322.0L187.0 322.0L187.0 320.0C187.0 318.89542 187.89543 318.0 189.0 318.0L202.0 318.0C203.10457 318.0 204.0 318.89542 204.0 320.0Z" fill-rule="nonzero"/><path fill="#4285f4" clip-path="url(#id_0)" d="M204.0 322.0L187.0 322.0L187.0 320.0C187.0 318.89542 187.89543 318.0 189.0 318.0L202.0 318.0C203.10457 318.0 204.0 318.89542 204.0 320.0Z" fill-rule="nonzero"/><path stroke="#000000" stroke-width="2.0" stroke-linecap="butt" stroke-opacity="0.0" clip-path="url(#id_0)" d="M230.0 322.0L213.0 322.0L213.0 314.0C213.0 312.89542 213.89543 312.0 215.0 312.0L228.0 312.0C229.10457 312.0 230.0 312.89542 230.0 314.0Z" fill-rule="nonzero"/><path fill="#4285f4" clip-path="url(#id_0)" d="M230.0 322.0L213.0 322.0L213.0 314.0C213.0 312.89542 213.89543 312.0 215.0 312.0L228.0 312.0C229.10457 312.0 230.0 312.89542 230.0 314.0Z" fill-rule="nonzero"/><path stroke="#000000" stroke-width="2.0" stroke-linecap="butt" stroke-opacity="0.0" clip-path="url(#id_0)" d="M257.0 322.0L240.0 322.0L240.0 322.0L257.0 322.0Z" fill-rule="nonzero"/><path fill="#4285f4" clip-path="url(#id_0)" d="M257.0 322.0L240.0 322.0L240.0 322.0L257.0 322.0Z" fill-rule="nonzero"/><path stroke="#000000" stroke-width="2.0" stroke-linecap="butt" stroke-opacity="0.0" clip-path="url(#id_0)" d="M283.0 322.0L266.0 322.0L266.0 322.0L283.0 322.0Z" fill-rule="nonzero"/><path fill="#4285f4" clip-path="url(#id_0)" d="M283.0 322.0L266.0 322.0L266.0 322.0L283.0 322.0Z" fill-rule="nonzero"/><path stroke="#000000" stroke-width="2.0" stroke-linecap="butt" stroke-opacity="0.0" clip-path="url(#id_0)" d="M309.0 322.0L292.0 322.0L292.0 317.0C292.0 315.89542 292.89542 315.0 294.0 315.0L307.0 315.0C308.10458 315.0 309.0 315.89542 309.0 317.0Z" fill-rule="nonzero"/><path fill="#4285f4" clip-path="url(#id_0)" d="M309.0 322.0L292.0 322.0L292.0 317.0C292.0 315.89542 292.89542 315.0 294.0 315.0L307.0 315.0C308.10458 315.0 309.0 315.89542 309.0 317.0Z" fill-rule="nonzero"/><path stroke="#000000" stroke-width="2.0" stroke-linecap="butt" stroke-opacity="0.0" clip-path="url(#id_0)" d="M336.0 322.0L319.0 322.0L319.0 304.0C319.0 302.89542 319.89542 302.0 321.0 302.0L334.0 302.0C335.10458 302.0 336.0 302.89542 336.0 304.0Z" fill-rule="nonzero"/><path fill="#4285f4" clip-path="url(#id_0)" d="M336.0 322.0L319.0 322.0L319.0 304.0C319.0 302.89542 319.89542 302.0 321.0 302.0L334.0 302.0C335.10458 302.0 336.0 302.89542 336.0 304.0Z" fill-rule="nonzero"/><path stroke="#000000" stroke-width="2.0" stroke-linecap="butt" stroke-opacity="0.0" clip-path="url(#id_0)" d="M362.0 322.0L345.0 322.0L345.0 301.0C345.0 299.89542 345.89542 299.0 347.0 299.0L360.0 299.0C361.10458 299.0 362.0 299.89542 362.0 301.0Z" fill-rule="nonzero"/><path fill="#4285f4" clip-path="url(#id_0)" d="M362.0 322.0L345.0 322.0L345.0 301.0C345.0 299.89542 345.89542 299.0 347.0 299.0L360.0 299.0C361.10458 299.0 362.0 299.89542 362.0 301.0Z" fill-rule="nonzero"/><path stroke="#000000" stroke-width="2.0" stroke-linecap="butt" stroke-opacity="0.0" clip-path="url(#id_0)" d="M388.0 322.0L371.0 322.0L371.0 291.0C371.0 289.89542 371.89542 289.0 373.0 289.0L386.0 289.0C387.10458 289.0 388.0 289.89542 388.0 291.0Z" fill-rule="nonzero"/><path fill="#4285f4" clip-path="url(#id_0)" d="M388.0 322.0L371.0 322.0L371.0 291.0C371.0 289.89542 371.89542 289.0 373.0 289.0L386.0 289.0C387.10458 289.0 388.0 289.89542 388.0 291.0Z" fill-rule="nonzero"/><path stroke="#000000" stroke-width="2.0" stroke-linecap="butt" stroke-opacity="0.0" clip-path="url(#id_0)" d="M415.0 322.0L398.0 322.0L398.0 187.0C398.0 185.89543 398.89542 185.0 400.0 185.0L413.0 185.0C414.10458 185.0 415.0 185.89543 415.0 187.0Z" fill-rule="nonzero"/><path fill="#4285f4" clip-path="url(#id_0)" d="M415.0 322.0L398.0 322.0L398.0 187.0C398.0 185.89543 398.89542 185.0 400.0 185.0L413.0 185.0C414.10458 185.0 415.0 185.89543 415.0 187.0Z" fill-rule="nonzero"/><path stroke="#000000" stroke-width="2.0" stroke-linecap="butt" stroke-opacity="0.0" clip-path="url(#id_0)" d="M441.0 322.0L424.0 322.0L424.0 187.0C424.0 185.89543 424.89542 185.0 426.0 185.0L439.0 185.0C440.10458 185.0 441.0 185.89543 441.0 187.0Z" fill-rule="nonzero"/><path fill="#4285f4" clip-path="url(#id_0)" d="M441.0 322.0L424.0 322.0L424.0 187.0C424.0 185.89543 424.89542 185.0 426.0 185.0L439.0 185.0C440.10458 185.0 441.0 185.89543 441.0 187.0Z" fill-rule="nonzero"/><path stroke="#000000" stroke-width="2.0" stroke-linecap="butt" stroke-opacity="0.0" clip-path="url(#id_0)" d="M467.0 322.0L450.0 322.0L450.0 142.0C450.0 140.89543 450.89542 140.0 452.0 140.0L465.0 140.0C466.10458 140.0 467.0 140.89543 467.0 142.0Z" fill-rule="nonzero"/><path fill="#4285f4" clip-path="url(#id_0)" d="M467.0 322.0L450.0 322.0L450.0 142.0C450.0 140.89543 450.89542 140.0 452.0 140.0L465.0 140.0C466.10458 140.0 467.0 140.89543 467.0 142.0Z" fill-rule="nonzero"/><path stroke="#000000" stroke-width="2.0" stroke-linecap="butt" stroke-opacity="0.0" clip-path="url(#id_0)" d="M494.0 322.0L477.0 322.0L477.0 64.0C477.0 62.89543 477.89542 62.0 479.0 62.0L492.0 62.0C493.10458 62.0 494.0 62.89543 494.0 64.0Z" fill-rule="nonzero"/><path fill="#4285f4" clip-path="url(#id_0)" d="M494.0 322.0L477.0 322.0L477.0 64.0C477.0 62.89543 477.89542 62.0 479.0 62.0L492.0 62.0C493.10458 62.0 494.0 62.89543 494.0 64.0Z" fill-rule="nonzero"/><path stroke="#000000" stroke-width="2.0" stroke-linecap="butt" stroke-opacity="0.0" clip-path="url(#id_0)" d="M520.0 322.0L503.0 322.0L503.0 90.0C503.0 88.89543 503.89542 88.0 505.0 88.0L518.0 88.0C519.10455 88.0 520.0 88.89543 520.0 90.0Z" fill-rule="nonzero"/><path fill="#4285f4" clip-path="url(#id_0)" d="M520.0 322.0L503.0 322.0L503.0 90.0C503.0 88.89543 503.89542 88.0 505.0 88.0L518.0 88.0C519.10455 88.0 520.0 88.89543 520.0 90.0Z" fill-rule="nonzero"/><path stroke="#000000" stroke-width="2.0" stroke-linecap="butt" stroke-opacity="0.0" clip-path="url(#id_0)" d="M546.0 322.0L529.0 322.0L529.0 74.0C529.0 72.89543 529.89545 72.0 531.0 72.0L544.0 72.0C545.10455 72.0 546.0 72.89543 546.0 74.0Z" fill-rule="nonzero"/><path fill="#4285f4" clip-path="url(#id_0)" d="M546.0 322.0L529.0 322.0L529.0 74.0C529.0 72.89543 529.89545 72.0 531.0 72.0L544.0 72.0C545.10455 72.0 546.0 72.89543 546.0 74.0Z" fill-rule="nonzero"/><path stroke="#000000" stroke-width="2.0" stroke-linecap="butt" stroke-opacity="0.0" clip-path="url(#id_0)" d="M573.0 322.0L556.0 322.0L556.0 194.0C556.0 192.89543 556.89545 192.0 558.0 192.0L571.0 192.0C572.10455 192.0 573.0 192.89543 573.0 194.0Z" fill-rule="nonzero"/><path fill="#4285f4" clip-path="url(#id_0)" d="M573.0 322.0L556.0 322.0L556.0 194.0C556.0 192.89543 556.89545 192.0 558.0 192.0L571.0 192.0C572.10455 192.0 573.0 192.89543 573.0 194.0Z" fill-rule="nonzero"/><path fill="#000000" d="M33.05 321.4669Q33.05 319.93564 33.3625 319.01376Q33.675 318.07626 34.284374 317.57626Q34.909374 317.07626 35.846874 317.07626Q36.534374 317.07626 37.05 317.3575Q37.58125 317.63876 37.925 318.17Q38.26875 318.68564 38.45625 319.43564Q38.64375 320.18564 38.64375 321.4669Q38.64375 322.9825 38.33125 323.9044Q38.034374 324.82626 37.409374 325.3419Q36.8 325.8419 35.846874 325.8419Q34.6125 325.8419 33.89375 324.95126Q33.05 323.88876 33.05 321.4669ZM34.128124 321.4669Q34.128124 323.57626 34.628124 324.2794Q35.128124 324.9825 35.846874 324.9825Q36.58125 324.9825 37.065624 324.2794Q37.565624 323.57626 37.565624 321.4669Q37.565624 319.3419 37.065624 318.6544Q36.58125 317.95126 35.83125 317.95126Q35.1125 317.95126 34.675 318.56064Q34.128124 319.3419 34.128124 321.4669Z" fill-rule="nonzero"/><path fill="#000000" d="M31.596874 259.7395L31.596874 260.75513L25.909374 260.75513Q25.909374 260.38013 26.034374 260.02075Q26.253124 259.44263 26.721874 258.88013Q27.20625 258.31763 28.1125 257.58325Q29.51875 256.427 30.003124 255.75513Q30.503124 255.08325 30.503124 254.4895Q30.503124 253.8645 30.05 253.44263Q29.596874 253.00513 28.878124 253.00513Q28.1125 253.00513 27.659374 253.45825Q27.20625 253.91138 27.190624 254.72388L26.1125 254.6145Q26.221874 253.39575 26.940624 252.77075Q27.675 252.13013 28.909374 252.13013Q30.14375 252.13013 30.8625 252.81763Q31.58125 253.50513 31.58125 254.52075Q31.58125 255.03638 31.3625 255.53638Q31.159374 256.02075 30.659374 256.58325Q30.175 257.13013 29.05 258.08325Q28.096874 258.88013 27.815624 259.177Q27.55 259.45825 27.378124 259.7395L31.596874 259.7395ZM33.05 256.52075Q33.05 254.9895 33.3625 254.06763Q33.675 253.13013 34.284374 252.63013Q34.909374 252.13013 35.846874 252.13013Q36.534374 252.13013 37.05 252.41138Q37.58125 252.69263 37.925 253.22388Q38.26875 253.7395 38.45625 254.4895Q38.64375 255.2395 38.64375 256.52075Q38.64375 258.03638 38.33125 258.95825Q38.034374 259.88013 37.409374 260.39575Q36.8 260.89575 35.846874 260.89575Q34.6125 260.89575 33.89375 260.00513Q33.05 258.94263 33.05 256.52075ZM34.128124 256.52075Q34.128124 258.63013 34.628124 259.33325Q35.128124 260.03638 35.846874 260.03638Q36.58125 260.03638 37.065624 259.33325Q37.565624 258.63013 37.565624 256.52075Q37.565624 254.39575 37.065624 253.70825Q36.58125 253.00513 35.83125 253.00513Q35.1125 253.00513 34.675 253.6145Q34.128124 254.39575 34.128124 256.52075Z" fill-rule="nonzero"/><path fill="#000000" d="M29.425 195.80896L29.425 193.74646L25.70625 193.74646L25.70625 192.77771L29.628124 187.21521L30.4875 187.21521L30.4875 192.77771L31.64375 192.77771L31.64375 193.74646L30.4875 193.74646L30.4875 195.80896L29.425 195.80896ZM29.425 192.77771L29.425 188.91833L26.7375 192.77771L29.425 192.77771ZM33.05 191.57458Q33.05 190.04333 33.3625 189.12146Q33.675 188.18396 34.284374 187.68396Q34.909374 187.18396 35.846874 187.18396Q36.534374 187.18396 37.05 187.46521Q37.58125 187.74646 37.925 188.27771Q38.26875 188.79333 38.45625 189.54333Q38.64375 190.29333 38.64375 191.57458Q38.64375 193.09021 38.33125 194.01208Q38.034374 194.93396 37.409374 195.44958Q36.8 195.94958 35.846874 195.94958Q34.6125 195.94958 33.89375 195.05896Q33.05 193.99646 33.05 191.57458ZM34.128124 191.57458Q34.128124 193.68396 34.628124 194.38708Q35.128124 195.09021 35.846874 195.09021Q36.58125 195.09021 37.065624 194.38708Q37.565624 193.68396 37.565624 191.57458Q37.565624 189.44958 37.065624 188.76208Q36.58125 188.05896 35.83125 188.05896Q35.1125 188.05896 34.675 188.66833Q34.128124 189.44958 34.128124 191.57458Z" fill-rule="nonzero"/><path fill="#000000" d="M31.51875 124.37843L30.471874 124.45656Q30.33125 123.83156 30.08125 123.55031Q29.64375 123.09718 29.01875 123.09718Q28.51875 123.09718 28.128124 123.37843Q27.64375 123.75343 27.346874 124.45656Q27.065624 125.14406 27.05 126.42531Q27.425 125.84718 27.971874 125.56593Q28.534374 125.28468 29.14375 125.28468Q30.190624 125.28468 30.925 126.06593Q31.675 126.84718 31.675 128.06593Q31.675 128.87843 31.315624 129.58156Q30.971874 130.26906 30.3625 130.64406Q29.753124 131.00343 28.9875 131.00343Q27.659374 131.00343 26.83125 130.03468Q26.003124 129.06593 26.003124 126.84718Q26.003124 124.34718 26.925 123.22218Q27.721874 122.23781 29.08125 122.23781Q30.096874 122.23781 30.7375 122.81593Q31.39375 123.37843 31.51875 124.37843ZM27.221874 128.08156Q27.221874 128.62843 27.440624 129.12843Q27.675 129.61281 28.08125 129.87843Q28.503124 130.14406 28.971874 130.14406Q29.628124 130.14406 30.1125 129.61281Q30.596874 129.06593 30.596874 128.14406Q30.596874 127.25343 30.1125 126.73781Q29.64375 126.22218 28.925 126.22218Q28.20625 126.22218 27.70625 126.73781Q27.221874 127.25343 27.221874 128.08156ZM33.05 126.62843Q33.05 125.09718 33.3625 124.17531Q33.675 123.23781 34.284374 122.73781Q34.909374 122.23781 35.846874 122.23781Q36.534374 122.23781 37.05 122.51906Q37.58125 122.80031 37.925 123.33156Q38.26875 123.84718 38.45625 124.59718Q38.64375 125.34718 38.64375 126.62843Q38.64375 128.14406 38.33125 129.06593Q38.034374 129.98781 37.409374 130.50343Q36.8 131.00343 35.846874 131.00343Q34.6125 131.00343 33.89375 130.11281Q33.05 129.05031 33.05 126.62843ZM34.128124 126.62843Q34.128124 128.73781 34.628124 129.44093Q35.128124 130.14406 35.846874 130.14406Q36.58125 130.14406 37.065624 129.44093Q37.565624 128.73781 37.565624 126.62843Q37.565624 124.50343 37.065624 123.81593Q36.58125 123.11281 35.83125 123.11281Q35.1125 123.11281 34.675 123.72218Q34.128124 124.50343 34.128124 126.62843Z" fill-rule="nonzero"/><path fill="#000000" d="M27.675 61.260414Q27.01875 61.010414 26.690624 60.572914Q26.378124 60.11979 26.378124 59.510414Q26.378124 58.572914 27.05 57.93229Q27.7375 57.291664 28.846874 57.291664Q29.971874 57.291664 30.659374 57.947914Q31.346874 58.604164 31.346874 59.541664Q31.346874 60.135414 31.034374 60.572914Q30.721874 61.010414 30.08125 61.260414Q30.878124 61.510414 31.284374 62.08854Q31.690624 62.666664 31.690624 63.46354Q31.690624 64.55729 30.909374 65.30729Q30.14375 66.05729 28.8625 66.05729Q27.596874 66.05729 26.815624 65.30729Q26.034374 64.55729 26.034374 63.43229Q26.034374 62.58854 26.45625 62.02604Q26.89375 61.46354 27.675 61.260414ZM27.45625 59.46354Q27.45625 60.072914 27.846874 60.46354Q28.253124 60.854164 28.878124 60.854164Q29.4875 60.854164 29.878124 60.479164Q30.26875 60.08854 30.26875 59.52604Q30.26875 58.947914 29.8625 58.55729Q29.45625 58.15104 28.8625 58.15104Q28.253124 58.15104 27.846874 58.541664Q27.45625 58.93229 27.45625 59.46354ZM27.128124 63.43229Q27.128124 63.885414 27.33125 64.30729Q27.55 64.729164 27.971874 64.96354Q28.39375 65.197914 28.878124 65.197914Q29.628124 65.197914 30.1125 64.71354Q30.6125 64.229164 30.6125 63.479164Q30.6125 62.71354 30.1125 62.21354Q29.6125 61.71354 28.846874 61.71354Q28.096874 61.71354 27.6125 62.21354Q27.128124 62.697914 27.128124 63.43229ZM33.05 61.68229Q33.05 60.15104 33.3625 59.229164Q33.675 58.291664 34.284374 57.791664Q34.909374 57.291664 35.846874 57.291664Q36.534374 57.291664 37.05 57.572914Q37.58125 57.854164 37.925 58.385414Q38.26875 58.90104 38.45625 59.65104Q38.64375 60.40104 38.64375 61.68229Q38.64375 63.197914 38.33125 64.11979Q38.034374 65.041664 37.409374 65.55729Q36.8 66.05729 35.846874 66.05729Q34.6125 66.05729 33.89375 65.166664Q33.05 64.104164 33.05 61.68229ZM34.128124 61.68229Q34.128124 63.791664 34.628124 64.49479Q35.128124 65.197914 35.846874 65.197914Q36.58125 65.197914 37.065624 64.49479Q37.565624 63.791664 37.565624 61.68229Q37.565624 59.55729 37.065624 58.86979Q36.58125 58.166664 35.83125 58.166664Q35.1125 58.166664 34.675 58.77604Q34.128124 59.55729 34.128124 61.68229Z" fill-rule="nonzero"/><path fill="#000000" d="M54.862373 350.2845L55.58053 351.00266L51.55886 355.02432Q51.293694 354.75916 51.127964 354.41666Q50.873848 353.85318 50.807556 353.12396Q50.752316 352.38373 50.873848 351.22363Q51.050625 349.41165 50.918045 348.59406Q50.79651 347.7654 50.376663 347.34558Q49.934723 346.90363 49.316006 346.92575Q48.686237 346.9368 48.178005 347.445Q47.636627 347.9864 47.636627 348.6272Q47.636627 349.26804 48.2001 349.8536L47.360413 350.5386Q46.575966 349.5995 46.642258 348.64932Q46.70855 347.67703 47.581383 346.8042Q48.45422 345.93137 49.448586 345.90927Q50.442955 345.88718 51.16111 346.60532Q51.525715 346.96994 51.724586 347.47815Q51.923462 347.9643 51.967655 348.7156Q52.01185 349.4448 51.890316 350.91425Q51.77983 352.1517 51.79088 352.5605Q51.801926 352.9472 51.879265 353.2676L54.862373 350.2845ZM53.613888 346.981Q52.53113 345.89822 52.10024 345.0254Q51.658295 344.1415 51.735634 343.35706Q51.824024 342.56155 52.48694 341.89865Q52.973072 341.4125 53.53655 341.2468Q54.111073 341.07 54.72979 341.20258Q55.33746 341.32413 56.000374 341.72186Q56.663284 342.11963 57.569267 343.0256Q58.640976 344.09732 59.07187 344.97015Q59.51381 345.83194 59.43647 346.63846Q59.35913 347.4229 58.68517 348.0969Q57.812336 348.96973 56.674335 348.84818Q55.326412 348.6935 53.613888 346.981ZM54.376236 346.21863Q55.86779 347.71017 56.71853 347.85382Q57.569267 347.99744 58.0775 347.4892Q58.596783 346.96994 58.4421 346.13025Q58.29847 345.2795 56.806915 343.78796Q55.304314 342.28534 54.464626 342.15277Q53.624935 341.99808 53.09461 342.5284Q52.586372 343.03665 52.70791 343.7769Q52.873634 344.71603 54.376236 346.21863ZM58.563637 342.03122Q57.480877 340.9485 57.049984 340.07565Q56.608044 339.19174 56.685383 338.40732Q56.773773 337.61182 57.436684 336.9489Q57.92282 336.46277 58.486298 336.29703Q59.06082 336.12027 59.67954 336.25284Q60.28721 336.3744 60.95012 336.77213Q61.613033 337.16986 62.519012 338.07587Q63.59072 339.14755 64.021614 340.0204Q64.463554 340.88217 64.386215 341.68872Q64.308876 342.47318 63.63492 343.14713Q62.76208 344.01996 61.62408 343.89844Q60.27616 343.74374 58.563637 342.03122ZM59.325985 341.2689Q60.81754 342.76044 61.668278 342.90405Q62.519012 343.0477 63.02725 342.53946Q63.546528 342.02017 63.39185 341.18048Q63.24822 340.32974 61.756664 338.8382Q60.254063 337.3356 59.41437 337.203Q58.574684 337.04834 58.044353 337.57867Q57.53612 338.0869 57.657654 338.82715Q57.823383 339.76627 59.325985 341.2689ZM64.91655 338.48465L65.634705 337.6339Q66.297615 338.12006 66.89423 338.09796Q67.50191 338.0648 67.954895 337.61182Q68.48523 337.08148 68.45208 336.29703Q68.41894 335.5126 67.75603 334.84967Q67.11521 334.20886 66.386 334.20886Q65.6568 334.18677 65.07123 334.77234Q64.717674 335.1259 64.58509 335.58994Q64.463554 336.0429 64.55195 336.46277L63.767498 337.07043L61.237385 333.36917L64.26469 330.34186L64.971794 331.04898L62.54111 333.47964L63.85589 335.43524Q64.01057 334.50717 64.607185 333.91055Q65.40269 333.11505 66.49649 333.1261Q67.60134 333.1261 68.47418 333.99893Q69.29177 334.81653 69.424355 335.8993Q69.567986 337.21408 68.56257 338.21948Q67.733925 339.04813 66.739555 339.1144Q65.75624 339.16965 64.91655 338.48465Z" fill-rule="nonzero"/><path fill="#000000" d="M81.196526 350.2845L81.91468 351.00266L77.89301 355.02432Q77.627846 354.75916 77.46212 354.41666Q77.208 353.85318 77.14171 353.12396Q77.086464 352.38373 77.208 351.22363Q77.38478 349.41165 77.2522 348.59406Q77.13066 347.7654 76.710815 347.34558Q76.268875 346.90363 75.650154 346.92575Q75.02039 346.9368 74.51215 347.445Q73.97078 347.9864 73.97078 348.6272Q73.97078 349.26804 74.534256 349.8536L73.694565 350.5386Q72.91012 349.5995 72.97641 348.64932Q73.0427 347.67703 73.915535 346.8042Q74.78837 345.93137 75.78274 345.90927Q76.77711 345.88718 77.49526 346.60532Q77.85986 346.96994 78.05874 347.47815Q78.257614 347.9643 78.3018 348.7156Q78.346 349.4448 78.224464 350.91425Q78.11398 352.1517 78.12503 352.5605Q78.13608 352.9472 78.21342 353.2676L81.196526 350.2845ZM79.948044 346.981Q78.86528 345.89822 78.43439 345.0254Q77.99245 344.1415 78.069786 343.35706Q78.15817 342.56155 78.82109 341.89865Q79.30723 341.4125 79.8707 341.2468Q80.44523 341.07 81.06394 341.20258Q81.671616 341.32413 82.334526 341.72186Q82.99744 342.11963 83.90342 343.0256Q84.97513 344.09732 85.40602 344.97015Q85.84796 345.83194 85.77062 346.6385Q85.69328 347.4229 85.019325 348.0969Q84.146484 348.96973 83.008484 348.84818Q81.66057 348.6935 79.948044 346.981ZM80.71039 346.21863Q82.20194 347.71017 83.05268 347.85382Q83.90342 347.99744 84.41165 347.4892Q84.93093 346.96994 84.77625 346.13025Q84.63262 345.2795 83.14107 343.78796Q81.638466 342.28534 80.798775 342.15277Q79.95909 341.99808 79.42876 342.5284Q78.920525 343.03665 79.04206 343.7769Q79.20779 344.71603 80.71039 346.21863ZM84.89779 342.03122Q83.81503 340.9485 83.38414 340.07565Q82.94219 339.19174 83.01954 338.40732Q83.107925 337.61182 83.770836 336.9489Q84.25697 336.46277 84.82045 336.29703Q85.39497 336.12027 86.01369 336.25284Q86.62136 336.3744 87.28427 336.77213Q87.94719 337.16986 88.853165 338.07587Q89.92487 339.14755 90.35577 340.0204Q90.79771 340.88217 90.72037 341.68872Q90.64303 342.47318 89.96907 343.14713Q89.09624 344.01996 87.95824 343.89844Q86.61031 343.74374 84.89779 342.03122ZM85.66014 341.2689Q87.15169 342.76044 88.002426 342.90405Q88.853165 343.0477 89.3614 342.53946Q89.880684 342.02017 89.726 341.18048Q89.58237 340.32974 88.09082 338.8382Q86.58822 337.3356 85.74853 337.203Q84.90884 337.04834 84.37851 337.57867Q83.87027 338.0869 83.991806 338.82715Q84.15753 339.76627 85.66014 341.2689ZM92.123535 331.6235L91.43852 332.419Q90.89715 332.0765 90.5215 332.05438Q89.89173 332.04333 89.44979 332.4853Q89.09624 332.83884 89.0189 333.31393Q88.94155 333.9216 89.22881 334.6287Q89.516075 335.31372 90.41101 336.23074Q90.26738 335.5568 90.45521 334.97122Q90.654076 334.3746 91.08497 333.9437Q91.825226 333.20343 92.896935 333.2366Q93.97969 333.2587 94.84148 334.12048Q95.416 334.695 95.65907 335.4463Q95.90214 336.1755 95.73641 336.87155Q95.55963 337.55658 95.01826 338.09796Q94.079124 339.03708 92.80855 338.93765Q91.537964 338.8382 89.96907 337.26932Q88.2013 335.50156 88.05767 334.05417Q87.92509 332.79465 88.886314 331.83344Q89.60447 331.11526 90.466255 331.07108Q91.32804 331.0048 92.123535 331.6235ZM91.70369 337.28036Q92.09039 337.66705 92.598625 337.86594Q93.10686 338.0427 93.58194 337.94327Q94.06808 337.8328 94.399536 337.50134Q94.86357 337.0373 94.83043 336.31912Q94.78623 335.58994 94.13437 334.93808Q93.5046 334.3083 92.79749 334.2862Q92.10144 334.25305 91.59321 334.7613Q91.08497 335.26953 91.09602 335.98767Q91.11812 336.6948 91.70369 337.28036Z" fill-rule="nonzero"/><path fill="#000000" d="M107.53068 350.2845L108.24883 351.00266L104.227165 355.02432Q103.962 354.75916 103.79627 354.41666Q103.54215 353.85318 103.47586 353.12396Q103.420616 352.38373 103.54215 351.22363Q103.71893 349.41165 103.58635 348.59406Q103.46481 347.7654 103.04497 347.34558Q102.60303 346.90363 101.98431 346.92575Q101.354546 346.9368 100.846306 347.445Q100.30493 347.9864 100.30493 348.6272Q100.30493 349.26804 100.86841 349.8536L100.02872 350.5386Q99.24427 349.5995 99.31056 348.64932Q99.376854 347.67703 100.24969 346.8042Q101.12252 345.93137 102.11689 345.90927Q103.11126 345.88718 103.829414 346.60532Q104.194016 346.96994 104.39289 347.47815Q104.59177 347.9643 104.635956 348.7156Q104.68015 349.4448 104.55862 350.91425Q104.448135 352.1517 104.45918 352.5605Q104.47023 352.9472 104.54757 353.2676L107.53068 350.2845ZM106.282196 346.981Q105.19943 345.89822 104.76854 345.0254Q104.3266 344.1415 104.40394 343.35706Q104.492325 342.56155 105.15524 341.89865Q105.64138 341.4125 106.20485 341.2468Q106.77937 341.07 107.39809 341.2026Q108.00576 341.32413 108.66867 341.72186Q109.33159 342.11963 110.237564 343.0256Q111.30927 344.09732 111.740166 344.97015Q112.182106 345.83194 112.10477 346.6385Q112.02743 347.4229 111.35348 348.0969Q110.48064 348.96973 109.342636 348.84818Q107.99472 348.6935 106.282196 346.981ZM107.04454 346.21863Q108.536095 347.71017 109.38683 347.85382Q110.23757 347.99744 110.745804 347.4892Q111.26508 346.96994 111.1104 346.13025Q110.96677 345.2795 109.47522 343.78796Q107.97262 342.28534 107.13293 342.15277Q106.29324 341.99808 105.76291 342.5284Q105.25468 343.03665 105.37621 343.7769Q105.54194 344.71603 107.04454 346.21863ZM111.23193 342.03125Q110.14918 340.9485 109.718285 340.07565Q109.276344 339.19177 109.35368 338.40732Q109.44207 337.61182 110.10498 336.9489Q110.59112 336.46277 111.154594 336.29703Q111.72912 336.12027 112.34784 336.25284Q112.955505 336.3744 113.61842 336.77213Q114.281334 337.1699 115.18732 338.07587Q116.259026 339.14755 116.68992 340.02042Q117.13186 340.8822 117.05452 341.68872Q116.97718 342.47318 116.303215 343.14713Q115.43038 344.02 114.29238 343.89844Q112.94446 343.74377 111.23193 342.03125ZM111.994286 341.2689Q113.48584 342.76044 114.33658 342.90408Q115.18732 343.0477 115.69555 342.53946Q116.21483 342.0202 116.06015 341.1805Q115.91652 340.32977 114.424965 338.8382Q112.92236 337.3356 112.08267 337.20303Q111.24298 337.04834 110.712654 337.57867Q110.20442 338.0869 110.32595 338.82715Q110.491684 339.7663 111.994286 341.2689ZM113.93883 334.75024L113.22067 334.0321L117.15395 330.09882L117.739525 330.6844Q117.78372 331.87762 118.23671 333.47968Q118.689705 335.0596 119.4631 336.45172Q119.99343 337.4461 120.84417 338.40732L120.07077 339.18073Q119.36366 338.4515 118.61236 337.1699Q117.87211 335.8772 117.43017 334.4409Q116.999275 332.99353 116.921936 331.76715L113.93883 334.75024Z" fill-rule="nonzero"/><path fill="#000000" d="M133.86484 350.2845L134.583 351.00266L130.56133 355.02432Q130.29616 354.75916 130.13043 354.41666Q129.87631 353.85318 129.81001 353.12396Q129.75478 352.3837 129.87631 351.2236Q130.05309 349.41165 129.9205 348.59406Q129.79897 347.7654 129.37912 347.34558Q128.93718 346.90363 128.31847 346.92572Q127.6887 346.93677 127.180466 347.445Q126.63909 347.9864 126.63909 348.6272Q126.63909 349.26804 127.20256 349.8536L126.36288 350.5386Q125.57843 349.5995 125.64472 348.6493Q125.71101 347.67703 126.58385 346.8042Q127.45668 345.93137 128.45105 345.90927Q129.44542 345.88718 130.16357 346.60532Q130.52818 346.9699 130.72705 347.47815Q130.92592 347.9643 130.97012 348.7156Q131.01431 349.4448 130.89278 350.91425Q130.78229 352.1517 130.79333 352.5605Q130.80438 352.94717 130.88173 353.2676L133.86484 350.2845ZM132.61635 346.981Q131.5336 345.89822 131.1027 345.0254Q130.66075 344.1415 130.7381 343.35706Q130.82649 342.56155 131.4894 341.89865Q131.97554 341.4125 132.53902 341.24677Q133.11354 341.07 133.73225 341.20258Q134.33992 341.32413 135.00284 341.72186Q135.66574 342.11963 136.57173 343.0256Q137.64343 344.0973 138.07433 344.97012Q138.51627 345.83194 138.43893 346.63846Q138.36159 347.4229 137.68764 348.09686Q136.8148 348.9697 135.6768 348.84818Q134.32887 348.6935 132.61635 346.981ZM133.3787 346.21863Q134.87025 347.71017 135.721 347.85382Q136.57173 347.99744 137.07996 347.4892Q137.59924 346.9699 137.44456 346.13025Q137.30093 345.2795 135.80937 343.78793Q134.30678 342.28534 133.46709 342.15277Q132.6274 341.99808 132.09706 342.5284Q131.58884 343.03665 131.71037 343.7769Q131.8761 344.71603 133.3787 346.21863ZM137.5661 342.03122Q136.48334 340.94846 136.05244 340.07562Q135.6105 339.19174 135.68785 338.40732Q135.77623 337.61182 136.43915 336.94888Q136.92528 336.46277 137.48875 336.29703Q138.06328 336.12027 138.682 336.25284Q139.28967 336.37436 139.95258 336.77213Q140.6155 337.16986 141.52147 338.07584Q142.59319 339.14755 143.02408 340.0204Q143.46602 340.88217 143.38869 341.68872Q143.31134 342.47318 142.63737 343.14713Q141.76454 344.01996 140.62654 343.89844Q139.27863 343.74374 137.5661 342.03122ZM138.32845 341.2689Q139.82 342.76044 140.67075 342.90405Q141.52147 343.0477 142.02971 342.53946Q142.549 342.02017 142.39432 341.18048Q142.25069 340.32974 140.75912 338.8382Q139.25653 337.3356 138.41684 337.203Q137.57715 337.04834 137.04681 337.57867Q136.53859 338.08688 136.66011 338.82715Q136.82585 339.76627 138.32845 341.2689ZM143.36658 335.63412Q142.72577 335.9214 142.18439 335.84406Q141.643 335.7446 141.21211 335.31372Q140.54921 334.6508 140.5713 333.72272Q140.60445 332.7836 141.3889 331.99915Q142.18439 331.20364 143.13457 331.18155Q144.08473 331.15945 144.74765 331.82236Q145.1675 332.24222 145.25589 332.77255Q145.34427 333.3029 145.06805 333.93265Q145.8083 333.54596 146.50436 333.66748Q147.20042 333.789 147.7639 334.35248Q148.53731 335.1259 148.5152 336.20865Q148.50415 337.28036 147.59818 338.18634Q146.70325 339.08127 145.62048 339.10336Q144.53773 339.12546 143.74223 338.32996Q143.14561 337.73334 143.04617 337.0373Q142.9578 336.33017 143.36658 335.63412ZM141.94131 334.51822Q142.37221 334.9491 142.92464 334.9491Q143.48811 334.93805 143.93005 334.49612Q144.36095 334.06522 144.372 333.52383Q144.372 332.9714 143.97426 332.57367Q143.56546 332.1649 143.00198 332.17593Q142.42746 332.17593 142.00761 332.59576Q141.57672 333.02667 141.56567 333.59015Q141.56567 334.14258 141.94131 334.51822ZM144.51562 337.55658Q144.83604 337.87698 145.27798 338.03165Q145.73097 338.1753 146.195 338.0427Q146.65904 337.91013 147.00156 337.56763Q147.53189 337.0373 147.53189 336.35226Q147.54294 335.65622 147.0126 335.1259Q146.47122 334.5845 145.76411 334.5845Q145.057 334.5845 144.51562 335.1259Q143.9853 335.65622 143.99635 336.35226Q143.99635 337.0373 144.51562 337.55658Z" fill-rule="nonzero"/><path fill="#000000" d="M160.19899 350.2845L160.91714 351.00266L156.89548 355.02432Q156.63031 354.75916 156.46458 354.41666Q156.21046 353.85318 156.14417 353.12396Q156.08893 352.3837 156.21046 351.2236Q156.38724 349.41165 156.25465 348.59406Q156.13312 347.7654 155.71327 347.34558Q155.27133 346.90363 154.65262 346.92572Q154.02286 346.93677 153.51462 347.445Q152.97324 347.9864 152.97324 348.6272Q152.97324 349.26804 153.53671 349.8536L152.69702 350.5386Q151.91258 349.5995 151.97887 348.6493Q152.04517 347.67703 152.918 346.8042Q153.79083 345.93137 154.7852 345.90927Q155.77957 345.88718 156.49773 346.60532Q156.86234 346.9699 157.0612 347.47815Q157.26007 347.9643 157.30428 348.7156Q157.34846 349.4448 157.22693 350.91425Q157.11644 352.1517 157.12749 352.5605Q157.13853 352.94717 157.21588 353.2676L160.19899 350.2845ZM158.9505 346.981Q157.86775 345.89822 157.43686 345.0254Q156.9949 344.1415 157.07225 343.35706Q157.16064 342.56155 157.82355 341.89865Q158.3097 341.4125 158.87317 341.24677Q159.4477 341.07 160.0664 341.20258Q160.67407 341.32413 161.33699 341.72186Q161.9999 342.11963 162.90588 343.0256Q163.97758 344.0973 164.40848 344.97012Q164.85042 345.83194 164.77309 346.63846Q164.69574 347.4229 164.02179 348.09686Q163.14896 348.9697 162.01096 348.84818Q160.66302 348.6935 158.9505 346.981ZM159.71284 346.21863Q161.2044 347.71017 162.05515 347.85382Q162.90588 347.99744 163.41411 347.4892Q163.9334 346.9699 163.77872 346.13025Q163.63509 345.2795 162.14352 343.78793Q160.64093 342.28534 159.80124 342.15277Q158.96155 341.99808 158.43121 342.5284Q157.92299 343.03665 158.04453 343.7769Q158.21025 344.71603 159.71284 346.21863ZM163.90025 342.03122Q162.81749 340.94846 162.3866 340.07562Q161.94466 339.19174 162.022 338.40732Q162.11038 337.61182 162.7733 336.94888Q163.25943 336.46277 163.8229 336.29703Q164.39743 336.12027 165.01616 336.25284Q165.62383 336.37436 166.28673 336.77213Q166.94965 337.16986 167.85562 338.07584Q168.92734 339.14755 169.35823 340.0204Q169.80017 340.88217 169.72284 341.68872Q169.6455 342.47318 168.97153 343.14713Q168.0987 344.01996 166.9607 343.89844Q165.61278 343.74374 163.90025 342.03122ZM164.6626 341.2689Q166.15416 342.76044 167.0049 342.90405Q167.85562 343.0477 168.36386 342.53946Q168.88315 342.02017 168.72847 341.18048Q168.58484 340.32974 167.09328 338.8382Q165.59068 337.3356 164.75099 337.203Q163.9113 337.04834 163.38097 337.57867Q162.87274 338.08688 162.99426 338.82715Q163.16 339.76627 164.6626 341.2689ZM170.55147 338.56198L171.20334 337.77753Q171.79996 338.1974 172.28609 338.1753Q172.77223 338.1311 173.16998 337.73334Q173.51248 337.39084 173.61192 336.98206Q173.71135 336.55115 173.62297 336.13132Q173.52353 335.7004 173.19208 335.14798Q172.84956 334.5845 172.38553 334.12048Q172.33029 334.06522 172.23085 333.9658Q172.36343 334.5403 172.20876 335.15903Q172.04303 335.7667 171.59004 336.2197Q170.82768 336.98206 169.76703 336.95993Q168.69531 336.9268 167.80038 336.03186Q166.87231 335.1038 166.8502 333.99893Q166.83916 332.88303 167.65675 332.06543Q168.24232 331.47986 169.04887 331.31415Q169.86647 331.13736 170.71721 331.47986Q171.55688 331.8113 172.67279 332.92722Q173.83289 334.0873 174.27483 335.0375Q174.71677 335.96558 174.57314 336.8384Q174.4295 337.68915 173.7666 338.35205Q173.04845 339.07022 172.20876 339.1365Q171.35802 339.19174 170.55147 338.56198ZM170.91608 332.8278Q170.27525 332.18698 169.5571 332.15384Q168.84999 332.10962 168.36386 332.59576Q167.86668 333.09296 167.89983 333.8774Q167.93297 334.63974 168.58484 335.29163Q169.15936 335.86615 169.87752 335.8772Q170.59567 335.88824 171.1039 335.38Q171.62318 334.86072 171.59004 334.16467Q171.55688 333.4686 170.91608 332.8278Z" fill-rule="nonzero"/><path fill="#000000" d="M186.53314 350.2845L187.2513 351.00266L183.22963 355.02432Q182.96446 354.75916 182.79874 354.41666Q182.54462 353.85318 182.47832 353.12396Q182.42308 352.3837 182.54462 351.2236Q182.72139 349.41165 182.5888 348.59406Q182.46727 347.7654 182.04742 347.34558Q181.60548 346.90363 180.98677 346.92572Q180.35701 346.93677 179.84877 347.445Q179.30739 347.9864 179.30739 348.6272Q179.30739 349.26804 179.87086 349.8536L179.03117 350.5386Q178.24673 349.5995 178.31302 348.6493Q178.37932 347.67703 179.25215 346.8042Q180.12498 345.93137 181.11935 345.90927Q182.11372 345.88718 182.83188 346.60532Q183.19649 346.9699 183.39536 347.47815Q183.59422 347.9643 183.63843 348.7156Q183.68262 349.4448 183.56108 350.91425Q183.45059 352.1517 183.46164 352.5605Q183.47269 352.94717 183.55003 353.2676L186.53314 350.2845ZM185.28465 346.981Q184.2019 345.89822 183.77101 345.0254Q183.32906 344.1415 183.4064 343.35706Q183.4948 342.56155 184.1577 341.89865Q184.64384 341.4125 185.20732 341.24677Q185.78185 341.07 186.40056 341.20258Q187.00822 341.32413 187.67114 341.72186Q188.33405 342.11963 189.24004 343.0256Q190.31174 344.0973 190.74263 344.97012Q191.18457 345.83194 191.10724 346.63846Q191.02989 347.4229 190.35594 348.09686Q189.48311 348.9697 188.34511 348.84818Q186.99718 348.6935 185.28465 346.981ZM186.047 346.21863Q187.53856 347.71017 188.3893 347.85382Q189.24004 347.99744 189.74826 347.4892Q190.26755 346.9699 190.11287 346.13025Q189.96924 345.2795 188.47768 343.78793Q186.97508 342.28534 186.13539 342.15277Q185.2957 341.99808 184.76537 342.5284Q184.25714 343.03665 184.37868 343.7769Q184.5444 344.71603 186.047 346.21863ZM196.03488 342.21906L195.29463 342.9593L190.54376 338.20844Q190.52167 338.73877 190.3449 339.44586Q190.1681 340.1309 189.94714 340.5949L189.22899 339.87677Q189.5494 338.95972 189.60463 338.08688Q189.65988 337.19196 189.461 336.59534L189.9361 336.12027L196.03488 342.21906ZM195.18414 337.08148Q194.1014 335.99872 193.6705 335.1259Q193.22856 334.242 193.3059 333.45755Q193.39429 332.66205 194.0572 331.99915Q194.54333 331.513 195.10681 331.3473Q195.68134 331.1705 196.30005 331.3031Q196.90771 331.42462 197.57063 331.82236Q198.23355 332.22012 199.13953 333.1261Q200.21124 334.1978 200.64214 335.07065Q201.08408 335.93243 201.00673 336.73898Q200.9294 337.5234 200.25543 338.1974Q199.3826 339.07022 198.2446 338.94867Q196.89667 338.794 195.18414 337.08148ZM195.9465 336.31912Q197.43805 337.81067 198.28879 337.9543Q199.13953 338.09793 199.64777 337.58972Q200.16704 337.07043 200.01236 336.23074Q199.86873 335.38 198.37718 333.88846Q196.87457 332.38583 196.03488 332.25327Q195.1952 332.09857 194.66487 332.6289Q194.15663 333.13715 194.27817 333.8774Q194.4439 334.81653 195.9465 336.31912Z" fill-rule="nonzero"/><path fill="#000000" d="M212.8673 350.2845L213.58545 351.00266L209.56378 355.02432Q209.29861 354.75916 209.13289 354.41666Q208.87877 353.85318 208.81247 353.12396Q208.75723 352.3837 208.87877 351.2236Q209.05554 349.41165 208.92296 348.59406Q208.80142 347.7654 208.38158 347.34558Q207.93964 346.90363 207.32092 346.92572Q206.69116 346.93677 206.18292 347.445Q205.64154 347.9864 205.64154 348.6272Q205.64154 349.26804 206.20502 349.8536L205.36533 350.5386Q204.58089 349.5995 204.64717 348.6493Q204.71347 347.67703 205.5863 346.8042Q206.45914 345.93137 207.4535 345.90927Q208.44788 345.88718 209.16603 346.60532Q209.53064 346.9699 209.7295 347.47815Q209.92838 347.9643 209.97258 348.7156Q210.01677 349.4448 209.89523 350.91425Q209.78474 352.1517 209.79579 352.5605Q209.80684 352.94717 209.88419 353.2676L212.8673 350.2845ZM211.6188 346.981Q210.53606 345.89822 210.10516 345.0254Q209.66321 344.1415 209.74055 343.35706Q209.82895 342.56155 210.49185 341.89865Q210.978 341.4125 211.54147 341.24677Q212.116 341.07 212.73471 341.20258Q213.34238 341.32413 214.0053 341.72186Q214.6682 342.11963 215.57419 343.0256Q216.64589 344.0973 217.07678 344.97012Q217.51872 345.83194 217.44139 346.63846Q217.36404 347.4229 216.6901 348.09686Q215.81726 348.9697 214.67926 348.84818Q213.33133 348.6935 211.6188 346.981ZM212.38115 346.21863Q213.87271 347.71017 214.72345 347.85382Q215.57419 347.99744 216.08241 347.4892Q216.6017 346.9699 216.44702 346.13025Q216.30339 345.2795 214.81183 343.78793Q213.30923 342.28534 212.46954 342.15277Q211.62985 341.99808 211.09952 342.5284Q210.5913 343.03665 210.71283 343.7769Q210.87856 344.71603 212.38115 346.21863ZM222.36903 342.21906L221.62878 342.9593L216.87791 338.20844Q216.85582 338.73877 216.67905 339.44586Q216.50226 340.1309 216.2813 340.5949L215.56314 339.87677Q215.88354 338.95972 215.93878 338.08688Q215.99403 337.19196 215.79515 336.59534L216.27025 336.12027L222.36903 342.21906ZM227.31879 337.26932L226.57854 338.00955L221.82767 333.2587Q221.80556 333.789 221.62878 334.49612Q221.45201 335.18112 221.23103 335.64517L220.51288 334.927Q220.8333 334.00998 220.88853 333.13715Q220.94377 332.24222 220.7449 331.6456L221.21999 331.1705L227.31879 337.26932Z" fill-rule="nonzero"/><path fill="#000000" d="M239.20145 350.2845L239.9196 351.00266L235.89793 355.02432Q235.63277 354.75916 235.46704 354.41666Q235.21292 353.85318 235.14662 353.12396Q235.09138 352.3837 235.21292 351.2236Q235.3897 349.41165 235.25711 348.59406Q235.13557 347.7654 234.71573 347.34558Q234.27379 346.90363 233.65508 346.92572Q233.02531 346.93677 232.51707 347.445Q231.9757 347.9864 231.9757 348.6272Q231.9757 349.26804 232.53917 349.8536L231.69948 350.5386Q230.91504 349.5995 230.98132 348.6493Q231.04762 347.67703 231.92046 346.8042Q232.79329 345.93137 233.78766 345.90927Q234.78203 345.88718 235.50018 346.60532Q235.86479 346.9699 236.06366 347.47815Q236.26253 347.9643 236.30673 348.7156Q236.35092 349.4448 236.22939 350.91425Q236.1189 352.1517 236.12994 352.5605Q236.14099 352.94717 236.21834 353.2676L239.20145 350.2845ZM237.95296 346.981Q236.87021 345.89822 236.43932 345.0254Q235.99736 344.1415 236.0747 343.35706Q236.1631 342.56155 236.826 341.89865Q237.31215 341.4125 237.87563 341.24677Q238.45015 341.07 239.06886 341.20258Q239.67653 341.32413 240.33945 341.72186Q241.00235 342.11963 241.90834 343.0256Q242.98004 344.0973 243.41093 344.97015Q243.85287 345.83194 243.77554 346.63846Q243.6982 347.4229 243.02425 348.09686Q242.15141 348.9697 241.01341 348.84818Q239.66548 348.6935 237.95296 346.981ZM238.7153 346.21863Q240.20686 347.71017 241.0576 347.85382Q241.90834 347.99744 242.41656 347.4892Q242.93585 346.9699 242.78117 346.13025Q242.63754 345.2795 241.14598 343.78793Q239.64339 342.28534 238.8037 342.15277Q237.964 341.99808 237.43369 342.5284Q236.92545 343.03665 237.04698 343.7769Q237.2127 344.71603 238.7153 346.21863ZM248.70319 342.21906L247.96294 342.9593L243.21207 338.20844Q243.18997 338.73877 243.0132 339.44586Q242.83641 340.1309 242.61545 340.5949L241.8973 339.87677Q242.2177 338.95972 242.27293 338.08688Q242.32819 337.19196 242.1293 336.59534L242.6044 336.12027L248.70319 342.21906ZM254.05069 335.43524L254.76884 336.1534L250.74718 340.17508Q250.48201 339.9099 250.31628 339.5674Q250.06216 339.00394 249.99586 338.27472Q249.94063 337.53445 250.06216 336.37436Q250.23894 334.5624 250.10635 333.7448Q249.98482 332.91617 249.56497 332.49634Q249.12303 332.05438 248.50432 332.07648Q247.87456 332.08752 247.36632 332.59576Q246.82494 333.13715 246.82494 333.77795Q246.82494 334.4188 247.38841 335.00436L246.54872 335.68936Q245.76428 334.75024 245.83057 333.80005Q245.89687 332.8278 246.7697 331.95496Q247.64253 331.08212 248.6369 331.06003Q249.63127 331.03793 250.34943 331.75607Q250.71402 332.1207 250.9129 332.6289Q251.11177 333.11505 251.15598 333.86636Q251.20016 334.59555 251.07863 336.065Q250.96814 337.30246 250.97919 337.71124Q250.99023 338.09793 251.06758 338.41837L254.05069 335.43524Z" fill-rule="nonzero"/><path fill="#000000" d="M265.53558 350.2845L266.25375 351.00266L262.2321 355.02432Q261.96692 354.75916 261.80118 354.41666Q261.54706 353.85318 261.48077 353.12396Q261.42554 352.38373 261.54706 351.22363Q261.72385 349.41165 261.59125 348.5941Q261.46973 347.76544 261.04987 347.34558Q260.60794 346.90366 259.98923 346.92575Q259.35944 346.9368 258.85123 347.44504Q258.30984 347.9864 258.30984 348.62723Q258.30984 349.26804 258.87332 349.8536L258.03363 350.5386Q257.24918 349.5995 257.31546 348.64932Q257.38177 347.67703 258.2546 346.8042Q259.12744 345.93137 260.1218 345.90927Q261.11618 345.88718 261.83432 346.60535Q262.1989 346.96994 262.3978 347.47818Q262.59668 347.9643 262.64087 348.7156Q262.68506 349.44482 262.56354 350.91428Q262.45303 352.1517 262.46408 352.5605Q262.47513 352.9472 262.5525 353.2676L265.53558 350.2845ZM264.2871 346.981Q263.20435 345.89822 262.77344 345.0254Q262.3315 344.1415 262.40884 343.35706Q262.49722 342.56155 263.16016 341.89865Q263.64627 341.4125 264.20975 341.2468Q264.78427 341.07 265.403 341.2026Q266.01068 341.32413 266.67358 341.72186Q267.3365 342.11963 268.2425 343.0256Q269.31418 344.09732 269.7451 344.97015Q270.187 345.83194 270.10968 346.6385Q270.03235 347.4229 269.35837 348.0969Q268.48553 348.96973 267.34753 348.84818Q265.99963 348.6935 264.2871 346.981ZM265.04944 346.21863Q266.54102 347.71017 267.39175 347.85382Q268.2425 347.99744 268.7507 347.48923Q269.27 346.96994 269.11533 346.13025Q268.97168 345.2795 267.48013 343.78796Q265.97754 342.28534 265.13785 342.15277Q264.29816 341.99808 263.76782 342.5284Q263.25958 343.03665 263.38113 343.77692Q263.54684 344.71603 265.04944 346.21863ZM275.03732 342.21906L274.2971 342.95932L269.5462 338.20844Q269.5241 338.73877 269.34732 339.4459Q269.17056 340.1309 268.9496 340.59494L268.23145 339.87677Q268.55185 338.95975 268.6071 338.0869Q268.66232 337.192 268.46344 336.59537L268.93854 336.12027L275.03732 342.21906ZM275.5787 338.4736L276.2306 337.62286Q276.98187 338.1311 277.5785 338.109Q278.16406 338.07587 278.60602 337.6339Q279.13635 337.10358 279.13635 336.3744Q279.13635 335.64517 278.59497 335.1038Q278.08673 334.59558 277.41278 334.60663Q276.7388 334.59558 276.2195 335.11484Q276.0096 335.32477 275.7776 335.73358L275.20306 334.98227Q275.29144 334.916 275.33563 334.8718Q275.81073 334.3967 275.94333 333.77798Q276.0759 333.13715 275.5566 332.6179Q275.14783 332.20908 274.60645 332.22012Q274.05402 332.22012 273.61206 332.66208Q273.18118 333.09296 273.1591 333.66748Q273.14804 334.23096 273.61206 334.84967L272.72818 335.4684Q272.1205 334.59558 272.19785 333.70062Q272.26416 332.79465 272.9823 332.0765Q273.4795 331.5793 274.1203 331.38043Q274.75006 331.17053 275.33563 331.31415Q275.9212 331.4578 276.34106 331.87762Q276.72775 332.2643 276.8493 332.8057Q276.95978 333.33603 276.7388 333.93265Q277.3907 333.52386 278.08673 333.6233Q278.77173 333.71167 279.36838 334.30832Q280.16385 335.1038 280.1307 336.2418Q280.1086 337.36874 279.22473 338.25262Q278.42923 339.04813 277.42383 339.10336Q276.40735 339.14755 275.5787 338.4736Z" fill-rule="nonzero"/><path fill="#000000" d="M291.86975 350.2845L292.5879 351.00266L288.56622 355.02432Q288.30106 354.75916 288.13535 354.41666Q287.88123 353.85318 287.81494 353.12396Q287.7597 352.3837 287.88123 351.2236Q288.058 349.41165 287.9254 348.59406Q287.8039 347.7654 287.38403 347.34558Q286.9421 346.90363 286.3234 346.92572Q285.6936 346.93677 285.1854 347.445Q284.644 347.9864 284.644 348.6272Q284.644 349.26804 285.2075 349.8536L284.3678 350.5386Q283.58334 349.5995 283.64963 348.6493Q283.7159 347.67703 284.58875 346.8042Q285.4616 345.93137 286.45596 345.90927Q287.45032 345.88718 288.1685 346.60532Q288.53308 346.96994 288.73196 347.47815Q288.93085 347.9643 288.97504 348.7156Q289.01923 349.4448 288.8977 350.91425Q288.7872 352.1517 288.79825 352.5605Q288.8093 352.94717 288.88663 353.2676L291.86975 350.2845ZM290.62128 346.981Q289.5385 345.89822 289.1076 345.0254Q288.66568 344.1415 288.743 343.35706Q288.8314 342.56155 289.49432 341.89865Q289.98044 341.4125 290.5439 341.24677Q291.11844 341.07 291.73715 341.20258Q292.34485 341.32413 293.00775 341.72186Q293.67065 342.11963 294.57663 343.0256Q295.64835 344.0973 296.07925 344.97015Q296.52118 345.83194 296.44385 346.63846Q296.36652 347.4229 295.69254 348.09686Q294.8197 348.96973 293.6817 348.84818Q292.3338 348.6935 290.62128 346.981ZM291.3836 346.21863Q292.87515 347.71017 293.7259 347.85382Q294.57663 347.99744 295.08487 347.4892Q295.60416 346.96994 295.44946 346.13025Q295.30585 345.2795 293.8143 343.78793Q292.31168 342.28534 291.47202 342.15277Q290.63232 341.99808 290.102 342.5284Q289.59375 343.03665 289.71527 343.7769Q289.881 344.71603 291.3836 346.21863ZM301.3715 342.21906L300.63126 342.9593L295.88037 338.20844Q295.85828 338.73877 295.6815 339.44586Q295.50473 340.1309 295.28375 340.5949L294.56558 339.87677Q294.886 338.95972 294.94125 338.08688Q294.9965 337.19196 294.7976 336.59534L295.2727 336.12027L301.3715 342.21906ZM305.9014 337.68915L304.443 336.23074L301.81345 338.8603L301.12842 338.1753L299.96832 331.4688L300.576 330.86115L304.50928 334.79443L305.32687 333.97684L306.01187 334.66183L305.1943 335.47943L306.6527 336.93784L305.9014 337.68915ZM303.758 335.54575L301.029 332.81674L301.85764 337.44608L303.758 335.54575Z" fill-rule="nonzero"/><path fill="#000000" d="M318.2039 350.2845L318.92206 351.00266L314.9004 355.02432Q314.63522 354.75916 314.46948 354.41666Q314.21536 353.85318 314.14908 353.12396Q314.09384 352.38373 314.21536 351.22363Q314.39215 349.41165 314.25955 348.5941Q314.13803 347.76544 313.71817 347.34558Q313.27625 346.90366 312.65753 346.92575Q312.02774 346.9368 311.51953 347.44504Q310.97815 347.9864 310.97815 348.62723Q310.97815 349.26804 311.54163 349.8536L310.70193 350.5386Q309.91748 349.5995 309.98376 348.64932Q310.05008 347.67703 310.9229 346.8042Q311.79575 345.93137 312.7901 345.90927Q313.7845 345.88718 314.50262 346.60535Q314.86722 346.96994 315.0661 347.47818Q315.26498 347.9643 315.30917 348.7156Q315.35336 349.44482 315.23184 350.91428Q315.12134 352.1517 315.1324 352.5605Q315.14343 352.9472 315.2208 353.2676L318.2039 350.2845ZM316.9554 346.981Q315.87265 345.89822 315.44174 345.0254Q314.99982 344.1415 315.07715 343.35706Q315.16553 342.56155 315.82846 341.89865Q316.31458 341.4125 316.87805 341.2468Q317.45258 341.07 318.07132 341.2026Q318.679 341.32413 319.3419 341.72186Q320.0048 342.11963 320.9108 343.0256Q321.98248 344.09732 322.4134 344.97015Q322.85532 345.83194 322.77798 346.6385Q322.70065 347.4229 322.02667 348.0969Q321.15384 348.96973 320.01584 348.84818Q318.66794 348.6935 316.9554 346.981ZM317.71774 346.21863Q319.20932 347.71017 320.06006 347.85382Q320.9108 347.99744 321.419 347.48923Q321.9383 346.96994 321.78363 346.13025Q321.63998 345.2795 320.14844 343.78796Q318.64584 342.28534 317.80615 342.15277Q316.96646 341.99808 316.43613 342.5284Q315.9279 343.03665 316.04944 343.77692Q316.21515 344.71603 317.71774 346.21863ZM327.70563 342.21906L326.9654 342.95932L322.2145 338.20844Q322.1924 338.73877 322.01562 339.4459Q321.83887 340.1309 321.6179 340.59494L320.89975 339.87677Q321.22015 338.95975 321.2754 338.0869Q321.33063 337.192 321.13174 336.59537L321.60684 336.12027L327.70563 342.21906ZM328.25806 338.48465L328.97623 337.6339Q329.63913 338.12006 330.23575 338.09796Q330.8434 338.06482 331.29642 337.61182Q331.82675 337.08148 331.7936 336.29706Q331.76047 335.5126 331.09753 334.84967Q330.45673 334.20886 329.7275 334.20886Q328.99832 334.18677 328.41275 334.77234Q328.0592 335.1259 327.9266 335.58994Q327.80508 336.04294 327.89346 336.46277L327.109 337.07043L324.5789 333.36917L327.6062 330.3419L328.3133 331.04898L325.88263 333.47968L327.19742 335.43524Q327.35208 334.50717 327.9487 333.91055Q328.7442 333.11505 329.838 333.1261Q330.94287 333.1261 331.8157 333.99893Q332.6333 334.81653 332.76587 335.8993Q332.90952 337.21408 331.90408 338.21948Q331.07544 339.04813 330.0811 339.1144Q329.09775 339.16968 328.25806 338.48465Z" fill-rule="nonzero"/><path fill="#000000" d="M344.53806 350.2845L345.2562 351.00266L341.23453 355.02432Q340.96936 354.75916 340.80365 354.41666Q340.54953 353.85318 340.48325 353.12396Q340.428 352.3837 340.54953 351.2236Q340.72632 349.41165 340.59372 348.59406Q340.4722 347.7654 340.05234 347.34558Q339.6104 346.90363 338.9917 346.92572Q338.3619 346.93677 337.8537 347.445Q337.31232 347.9864 337.31232 348.6272Q337.31232 349.26804 337.8758 349.8536L337.0361 350.5386Q336.25165 349.5995 336.31793 348.6493Q336.38422 347.67703 337.25705 346.8042Q338.1299 345.93137 339.12427 345.90927Q340.11862 345.88718 340.8368 346.60532Q341.2014 346.96994 341.40027 347.47815Q341.59915 347.9643 341.64334 348.7156Q341.68753 349.4448 341.566 350.91425Q341.4555 352.1517 341.46655 352.5605Q341.4776 352.94717 341.55496 353.2676L344.53806 350.2845ZM343.28958 346.981Q342.20682 345.89822 341.7759 345.0254Q341.33398 344.1415 341.41132 343.35706Q341.4997 342.56155 342.16263 341.89865Q342.64874 341.4125 343.21222 341.24677Q343.78674 341.07 344.40546 341.20258Q345.01315 341.32413 345.67606 341.72186Q346.33896 342.11963 347.24493 343.0256Q348.31665 344.0973 348.74756 344.97015Q349.18948 345.83194 349.11215 346.63846Q349.03482 347.4229 348.36084 348.09686Q347.488 348.96973 346.35 348.84818Q345.0021 348.6935 343.28958 346.981ZM344.0519 346.21863Q345.54346 347.71017 346.3942 347.85382Q347.24493 347.99744 347.75317 347.4892Q348.27246 346.96994 348.11777 346.13025Q347.97415 345.2795 346.4826 343.78793Q344.97998 342.28534 344.14032 342.15277Q343.30063 341.99808 342.7703 342.5284Q342.26205 343.03665 342.38358 343.7769Q342.54932 344.71603 344.0519 346.21863ZM354.0398 342.21906L353.29956 342.9593L348.54868 338.20844Q348.52658 338.73877 348.3498 339.44586Q348.17303 340.1309 347.95206 340.5949L347.2339 339.87677Q347.5543 338.95972 347.60956 338.08688Q347.6648 337.19196 347.4659 336.59534L347.941 336.12027L354.0398 342.21906ZM355.46506 331.6235L354.78006 332.419Q354.23868 332.07648 353.86304 332.05438Q353.23325 332.04333 352.79132 332.4853Q352.43777 332.83884 352.3604 333.31393Q352.28308 333.9216 352.57034 334.6287Q352.8576 335.31372 353.75253 336.23074Q353.60892 335.5568 353.79672 334.97122Q353.9956 334.37457 354.4265 333.9437Q355.16675 333.20343 356.23846 333.23657Q357.32123 333.2587 358.183 334.12048Q358.75754 334.695 359.0006 335.4463Q359.24365 336.1755 359.07794 336.87155Q358.90115 337.55658 358.35977 338.09793Q357.42065 339.03708 356.1501 338.93762Q354.8795 338.8382 353.3106 337.26932Q351.54282 335.50153 351.3992 334.05417Q351.2666 332.79465 352.22784 331.83344Q352.94598 331.11526 353.80777 331.07108Q354.66956 331.0048 355.46506 331.6235ZM355.04523 337.28036Q355.43192 337.66705 355.94016 337.86594Q356.4484 338.0427 356.92346 337.94327Q357.4096 337.8328 357.74106 337.5013Q358.2051 337.0373 358.17197 336.31912Q358.12778 335.58994 357.4759 334.93805Q356.84613 334.3083 356.13904 334.2862Q355.44296 334.25305 354.93472 334.7613Q354.4265 335.26953 354.43756 335.98767Q354.45966 336.6948 355.04523 337.28036Z" fill-rule="nonzero"/><path fill="#000000" d="M370.8722 350.2845L371.59036 351.00266L367.5687 355.02432Q367.30353 354.75916 367.1378 354.41666Q366.88367 353.85318 366.81738 353.12396Q366.76215 352.38373 366.88367 351.22363Q367.06046 349.41165 366.92786 348.5941Q366.80634 347.76544 366.38647 347.34558Q365.94455 346.90366 365.32584 346.92575Q364.69604 346.9368 364.18784 347.44504Q363.64645 347.9864 363.64645 348.62723Q363.64645 349.26804 364.20993 349.8536L363.37024 350.5386Q362.5858 349.5995 362.65207 348.64932Q362.71838 347.67703 363.59122 346.8042Q364.46405 345.93137 365.4584 345.90927Q366.4528 345.88718 367.17093 346.60535Q367.53552 346.96994 367.7344 347.47818Q367.9333 347.9643 367.97748 348.7156Q368.02167 349.44482 367.90015 350.91428Q367.78964 352.1517 367.8007 352.5605Q367.81174 352.9472 367.8891 353.2676L370.8722 350.2845ZM369.62372 346.981Q368.54095 345.89822 368.11005 345.0254Q367.66812 344.1415 367.74545 343.35706Q367.83383 342.56155 368.49677 341.89865Q368.98288 341.4125 369.54636 341.2468Q370.12088 341.07 370.73962 341.2026Q371.3473 341.32413 372.0102 341.72186Q372.6731 342.11963 373.5791 343.0256Q374.6508 344.09732 375.0817 344.97015Q375.52362 345.83194 375.4463 346.6385Q375.36896 347.4229 374.69498 348.0969Q373.82214 348.96973 372.68414 348.84818Q371.33624 348.6935 369.62372 346.981ZM370.38605 346.21863Q371.87762 347.71017 372.72836 347.85382Q373.5791 347.99744 374.0873 347.48923Q374.6066 346.96994 374.45193 346.13025Q374.3083 345.2795 372.81674 343.78796Q371.31415 342.28534 370.47446 342.15277Q369.63477 341.99808 369.10443 342.5284Q368.5962 343.03665 368.71774 343.77692Q368.88345 344.71603 370.38605 346.21863ZM380.37393 342.21906L379.6337 342.95932L374.8828 338.20844Q374.86072 338.73877 374.68393 339.4459Q374.50717 340.1309 374.2862 340.59494L373.56805 339.87677Q373.88846 338.95975 373.9437 338.0869Q373.99893 337.192 373.80005 336.59537L374.27515 336.12027L380.37393 342.21906ZM377.28036 334.75024L376.5622 334.0321L380.49548 330.09882L381.08105 330.6844Q381.12524 331.87762 381.57825 333.47968Q382.03122 335.0596 382.80463 336.45172Q383.33496 337.4461 384.1857 338.40732L383.4123 339.18073Q382.7052 338.4515 381.9539 337.1699Q381.21362 335.8772 380.7717 334.4409Q380.3408 332.99353 380.26346 331.76715L377.28036 334.75024Z" fill-rule="nonzero"/><path fill="#000000" d="M397.20636 350.2845L397.9245 351.00266L393.90283 355.02432Q393.63766 354.75916 393.47195 354.41666Q393.21783 353.85318 393.15155 353.12396Q393.0963 352.3837 393.21783 351.2236Q393.39462 349.41165 393.26202 348.59406Q393.1405 347.7654 392.72064 347.34558Q392.27872 346.90363 391.66 346.92572Q391.0302 346.93677 390.522 347.445Q389.98062 347.9864 389.98062 348.6272Q389.98062 349.26804 390.5441 349.8536L389.7044 350.5386Q388.91995 349.5995 388.98624 348.6493Q389.05252 347.67703 389.92535 346.8042Q390.79822 345.93137 391.79257 345.90927Q392.78693 345.88718 393.5051 346.60532Q393.8697 346.96994 394.06857 347.47815Q394.26746 347.9643 394.31165 348.7156Q394.35583 349.4448 394.2343 350.91425Q394.1238 352.1517 394.13486 352.5605Q394.1459 352.94717 394.22327 353.2676L397.20636 350.2845ZM395.9579 346.981Q394.87512 345.89822 394.4442 345.0254Q394.0023 344.1415 394.07962 343.35706Q394.168 342.56155 394.83093 341.89865Q395.31705 341.4125 395.88052 341.24677Q396.45505 341.07 397.07376 341.20258Q397.68146 341.32413 398.34436 341.72186Q399.00726 342.11963 399.91324 343.0256Q400.98495 344.0973 401.41586 344.97015Q401.8578 345.83194 401.78046 346.63846Q401.70312 347.4229 401.02914 348.09686Q400.1563 348.96973 399.0183 348.84818Q397.6704 348.6935 395.9579 346.981ZM396.7202 346.21863Q398.21176 347.71017 399.0625 347.85382Q399.91324 347.99744 400.42148 347.4892Q400.94077 346.96994 400.78607 346.13025Q400.64246 345.2795 399.1509 343.78793Q397.6483 342.28534 396.80862 342.15277Q395.96893 341.99808 395.4386 342.5284Q394.93036 343.03665 395.05188 343.7769Q395.21762 344.71603 396.7202 346.21863ZM406.7081 342.21906L405.96786 342.9593L401.21698 338.20844Q401.1949 338.73877 401.0181 339.44586Q400.84134 340.1309 400.62036 340.5949L399.9022 339.87677Q400.22263 338.95972 400.27786 338.08688Q400.3331 337.19196 400.13422 336.59534L400.6093 336.12027L406.7081 342.21906ZM406.7081 335.63412Q406.0673 335.9214 405.5259 335.84406Q404.98453 335.7446 404.55365 335.31372Q403.89072 334.6508 403.9128 333.72272Q403.94598 332.7836 404.7304 331.99915Q405.5259 331.20364 406.47607 331.18155Q407.42627 331.15945 408.08917 331.82236Q408.50903 332.24222 408.5974 332.77255Q408.6858 333.3029 408.40958 333.93265Q409.14984 333.54596 409.8459 333.66748Q410.54196 333.789 411.10544 334.35248Q411.8788 335.1259 411.85672 336.20865Q411.84567 337.28036 410.9397 338.18634Q410.04477 339.08127 408.962 339.10336Q407.87924 339.12546 407.08377 338.32996Q406.48712 337.73334 406.3877 337.0373Q406.29932 336.33017 406.7081 335.63412ZM405.28284 334.51822Q405.71375 334.9491 406.26617 334.9491Q406.82965 334.93805 407.27158 334.49612Q407.70248 334.06522 407.71353 333.52383Q407.71353 332.97144 407.31577 332.57367Q406.90698 332.1649 406.3435 332.17593Q405.76898 332.17593 405.34912 332.59576Q404.91824 333.02667 404.9072 333.59015Q404.9072 334.14258 405.28284 334.51822ZM407.85715 337.55658Q408.17755 337.87698 408.6195 338.03165Q409.07248 338.1753 409.53653 338.0427Q410.00058 337.91013 410.34308 337.56763Q410.8734 337.0373 410.8734 336.35226Q410.88446 335.65622 410.35413 335.1259Q409.81274 334.5845 409.10565 334.5845Q408.39853 334.5845 407.85715 335.1259Q407.3268 335.65622 407.33786 336.35226Q407.33786 337.0373 407.85715 337.55658Z" fill-rule="nonzero"/><path fill="#000000" d="M423.5405 350.2845L424.25867 351.00266L420.237 355.02432Q419.97183 354.75916 419.8061 354.41666Q419.55197 353.85318 419.4857 353.12396Q419.43045 352.38373 419.55197 351.22363Q419.72876 349.41165 419.59616 348.5941Q419.47464 347.76544 419.05478 347.34558Q418.61285 346.90366 417.99414 346.92575Q417.36435 346.9368 416.85614 347.44504Q416.31476 347.9864 416.31476 348.62723Q416.31476 349.26804 416.87823 349.8536L416.03854 350.5386Q415.2541 349.5995 415.32037 348.64932Q415.3867 347.67703 416.25952 346.8042Q417.13235 345.93137 418.1267 345.90927Q419.1211 345.88718 419.83923 346.60535Q420.20383 346.96994 420.4027 347.47818Q420.6016 347.9643 420.64578 348.7156Q420.68997 349.44482 420.56845 350.91428Q420.45795 352.1517 420.469 352.5605Q420.48004 352.9472 420.5574 353.2676L423.5405 350.2845ZM422.29202 346.981Q421.20926 345.89822 420.77835 345.0254Q420.33643 344.1415 420.41376 343.35706Q420.50214 342.56155 421.16507 341.89865Q421.65118 341.4125 422.21466 341.2468Q422.78918 341.07 423.40793 341.2026Q424.0156 341.32413 424.6785 341.7219Q425.3414 342.11963 426.2474 343.0256Q427.3191 344.09732 427.75 344.97015Q428.19193 345.83194 428.1146 346.6385Q428.03726 347.4229 427.36328 348.0969Q426.49045 348.96973 425.35245 348.84818Q424.00455 348.6935 422.29202 346.981ZM423.05435 346.21863Q424.54593 347.71017 425.39667 347.85382Q426.2474 347.99744 426.7556 347.48923Q427.2749 346.96994 427.12024 346.13025Q426.9766 345.2795 425.48505 343.78796Q423.98245 342.28534 423.14276 342.15277Q422.30307 341.99808 421.77274 342.5284Q421.2645 343.03665 421.38605 343.77692Q421.55176 344.71603 423.05435 346.21863ZM433.04224 342.21906L432.302 342.95932L427.55112 338.20844Q427.52902 338.73877 427.35223 339.4459Q427.17548 340.1309 426.9545 340.59494L426.23636 339.87677Q426.55676 338.95975 426.612 338.0869Q426.66724 337.192 426.46835 336.59537L426.94345 336.12027L433.04224 342.21906ZM433.89297 338.56198L434.54486 337.77756Q435.14148 338.1974 435.6276 338.1753Q436.11374 338.1311 436.51147 337.73337Q436.854 337.39084 436.95343 336.98206Q437.05286 336.55115 436.96448 336.13132Q436.86505 335.7004 436.5336 335.14798Q436.19107 334.58453 435.72705 334.12048Q435.6718 334.06525 435.57236 333.9658Q435.70496 334.5403 435.55026 335.15906Q435.38455 335.76672 434.93155 336.2197Q434.1692 336.98206 433.10855 336.95996Q432.03683 336.92682 431.1419 336.0319Q430.2138 335.1038 430.1917 333.99893Q430.18066 332.88306 430.99826 332.06546Q431.58383 331.4799 432.39038 331.31415Q433.20798 331.13736 434.05872 331.4799Q434.8984 331.81134 436.0143 332.92725Q437.1744 334.08734 437.61633 335.0375Q438.0583 335.96558 437.91464 336.8384Q437.77103 337.68915 437.10812 338.35208Q436.38995 339.07022 435.55026 339.1365Q434.69952 339.19177 433.89297 338.56198ZM434.2576 332.8278Q433.61676 332.18698 432.89862 332.15384Q432.1915 332.10965 431.70538 332.5958Q431.2082 333.09296 431.24133 333.8774Q431.27448 334.63977 431.92633 335.29163Q432.50085 335.86615 433.21902 335.8772Q433.93716 335.88824 434.4454 335.38Q434.9647 334.86072 434.93155 334.16467Q434.8984 333.46863 434.2576 332.8278Z" fill-rule="nonzero"/><path fill="#000000" d="M449.87466 350.2845L450.5928 351.00266L446.57114 355.02432Q446.30597 354.75916 446.14026 354.41666Q445.88614 353.85318 445.81985 353.12396Q445.76462 352.3837 445.88614 351.2236Q446.06293 349.41165 445.93033 348.59406Q445.8088 347.7654 445.38895 347.34558Q444.94702 346.90363 444.3283 346.92572Q443.69852 346.93677 443.1903 347.445Q442.64893 347.9864 442.64893 348.6272Q442.64893 349.26804 443.2124 349.8536L442.3727 350.5386Q441.58826 349.5995 441.65454 348.6493Q441.72083 347.67703 442.59366 346.8042Q443.46652 345.93137 444.46088 345.90927Q445.45523 345.88718 446.1734 346.60532Q446.538 346.96994 446.73688 347.47815Q446.93576 347.9643 446.97995 348.7156Q447.02414 349.4448 446.90262 350.91425Q446.7921 352.1517 446.80316 352.5605Q446.8142 352.94717 446.89157 353.2676L449.87466 350.2845ZM448.6262 346.981Q447.54343 345.89822 447.11252 345.0254Q446.6706 344.1415 446.74792 343.35706Q446.8363 342.56155 447.49924 341.89865Q447.98535 341.4125 448.54883 341.24677Q449.12335 341.07 449.74207 341.20258Q450.34976 341.32413 451.01266 341.72186Q451.67557 342.11963 452.58154 343.0256Q453.65326 344.0973 454.08417 344.97015Q454.5261 345.83194 454.44876 346.63846Q454.37143 347.4229 453.69745 348.09686Q452.82462 348.96973 451.6866 348.84818Q450.3387 348.6935 448.6262 346.981ZM449.38852 346.21863Q450.88007 347.71017 451.7308 347.85382Q452.58154 347.99744 453.08978 347.4892Q453.60907 346.96994 453.45438 346.13025Q453.31076 345.2795 451.8192 343.78793Q450.3166 342.28534 449.47693 342.15277Q448.63724 341.99808 448.1069 342.5284Q447.59866 343.03665 447.72018 343.7769Q447.88593 344.71603 449.38852 346.21863ZM459.77417 340.38498L460.4923 341.10315L456.47064 345.12482Q456.20547 344.85965 456.03976 344.51715Q455.78564 343.95367 455.71933 343.22446Q455.6641 342.48422 455.78564 341.32413Q455.9624 339.51215 455.82983 338.69458Q455.70828 337.86594 455.28845 337.44608Q454.8465 337.00415 454.22778 337.02625Q453.59802 337.0373 453.08978 337.54553Q452.5484 338.08688 452.5484 338.72772Q452.5484 339.36853 453.11188 339.9541L452.2722 340.6391Q451.48776 339.69998 451.55405 338.74982Q451.62033 337.77753 452.49316 336.9047Q453.366 336.03186 454.36038 336.00977Q455.35474 335.98767 456.0729 336.70584Q456.4375 337.07043 456.63638 337.57867Q456.83524 338.0648 456.87943 338.8161Q456.92365 339.54532 456.8021 341.01477Q456.69162 342.2522 456.70267 342.66098Q456.7137 343.0477 456.79105 343.3681L459.77417 340.38498ZM458.52567 337.08148Q457.4429 335.99872 457.01202 335.1259Q456.57007 334.242 456.64743 333.45755Q456.7358 332.66205 457.3987 331.99915Q457.88486 331.513 458.44833 331.3473Q459.02286 331.1705 459.64157 331.3031Q460.24924 331.42462 460.91217 331.8224Q461.57507 332.22012 462.48105 333.1261Q463.55276 334.1978 463.98364 335.07065Q464.4256 335.93243 464.34827 336.73898Q464.2709 337.5234 463.59695 338.1974Q462.72412 339.07022 461.58612 338.94867Q460.2382 338.794 458.52567 337.08148ZM459.28802 336.31912Q460.77957 337.81067 461.6303 337.9543Q462.48105 338.09793 462.9893 337.58972Q463.50858 337.07043 463.35388 336.23074Q463.21027 335.38 461.7187 333.88846Q460.2161 332.38583 459.3764 332.25327Q458.5367 332.09857 458.00638 332.6289Q457.49817 333.13715 457.6197 333.8774Q457.78543 334.81653 459.28802 336.31912Z" fill-rule="nonzero"/><path fill="#000000" d="M476.2088 350.2845L476.92697 351.00266L472.9053 355.02432Q472.64014 354.75916 472.4744 354.41666Q472.22028 353.85318 472.154 353.12396Q472.09875 352.38373 472.22028 351.22363Q472.39706 349.41165 472.26447 348.5941Q472.14294 347.76544 471.72308 347.34558Q471.28116 346.90366 470.66245 346.92575Q470.03265 346.9368 469.52444 347.44504Q468.98306 347.9864 468.98306 348.62723Q468.98306 349.26804 469.54654 349.8536L468.70685 350.5386Q467.9224 349.5995 467.98868 348.64932Q468.055 347.67703 468.92783 346.8042Q469.80066 345.93137 470.795 345.90927Q471.7894 345.88718 472.50754 346.60535Q472.87213 346.96994 473.071 347.47818Q473.2699 347.9643 473.3141 348.7156Q473.35828 349.44482 473.23676 350.91428Q473.12625 352.1517 473.1373 352.5605Q473.14835 352.9472 473.2257 353.2676L476.2088 350.2845ZM474.96033 346.981Q473.87756 345.89822 473.44666 345.0254Q473.00473 344.1415 473.08206 343.35706Q473.17044 342.56155 473.83337 341.89865Q474.3195 341.4125 474.88297 341.2468Q475.4575 341.07 476.07623 341.2026Q476.6839 341.32413 477.3468 341.7219Q478.0097 342.11963 478.9157 343.0256Q479.9874 344.09732 480.4183 344.97015Q480.86023 345.83194 480.7829 346.6385Q480.70557 347.4229 480.0316 348.0969Q479.15875 348.96973 478.02075 348.84818Q476.67285 348.6935 474.96033 346.981ZM475.72266 346.21863Q477.21423 347.71017 478.06497 347.85382Q478.9157 347.99744 479.42392 347.48923Q479.9432 346.96994 479.78854 346.13025Q479.6449 345.2795 478.15335 343.78796Q476.65076 342.28534 475.81107 342.15277Q474.97137 341.99808 474.44104 342.5284Q473.9328 343.03665 474.05435 343.77692Q474.22006 344.71603 475.72266 346.21863ZM486.1083 340.385L486.82645 341.10315L482.80478 345.12482Q482.5396 344.85965 482.3739 344.51715Q482.11978 343.95367 482.0535 343.2245Q481.99823 342.48422 482.11978 341.32413Q482.29654 339.51218 482.16397 338.69458Q482.04245 337.86594 481.6226 337.4461Q481.18063 337.00415 480.56192 337.02625Q479.93216 337.0373 479.42392 337.54553Q478.88254 338.0869 478.88254 338.72772Q478.88254 339.36853 479.446 339.9541L478.60632 340.63913Q477.8219 339.69998 477.88818 338.74982Q477.95447 337.77756 478.8273 336.90472Q479.70013 336.0319 480.69452 336.0098Q481.68887 335.98767 482.40704 336.70584Q482.77164 337.07043 482.97052 337.57867Q483.16937 338.06482 483.2136 338.8161Q483.25778 339.54532 483.13623 341.01477Q483.02576 342.2522 483.0368 342.661Q483.04785 343.0477 483.12518 343.3681L486.1083 340.385ZM490.6603 337.26932L489.92004 338.00958L485.16916 333.2587Q485.14706 333.78903 484.9703 334.49612Q484.79352 335.18115 484.57254 335.64517L483.8544 334.92703Q484.1748 334.01 484.23004 333.13715Q484.28528 332.24222 484.08643 331.6456L484.5615 331.17053L490.6603 337.26932Z" fill-rule="nonzero"/><path fill="#000000" d="M502.54297 350.2845L503.2611 351.00266L499.23944 355.02432Q498.97427 354.75916 498.80856 354.41666Q498.55444 353.85318 498.48816 353.12396Q498.43292 352.3837 498.55444 351.2236Q498.73123 349.41165 498.59863 348.59406Q498.4771 347.7654 498.05725 347.34558Q497.61533 346.90363 496.9966 346.92572Q496.36682 346.93677 495.8586 347.445Q495.31723 347.9864 495.31723 348.6272Q495.31723 349.26804 495.8807 349.8536L495.04102 350.5386Q494.25656 349.5995 494.32285 348.6493Q494.38913 347.67703 495.26196 346.8042Q496.13483 345.93137 497.12918 345.90927Q498.12354 345.88718 498.8417 346.60532Q499.2063 346.96994 499.40518 347.47815Q499.60406 347.9643 499.64825 348.7156Q499.69244 349.4448 499.57092 350.91425Q499.46042 352.1517 499.47147 352.5605Q499.4825 352.94717 499.55988 353.2676L502.54297 350.2845ZM501.2945 346.981Q500.21173 345.89822 499.78082 345.0254Q499.3389 344.1415 499.41623 343.35706Q499.5046 342.56155 500.16754 341.89865Q500.65366 341.4125 501.21713 341.24677Q501.79166 341.07 502.41037 341.20258Q503.01807 341.32413 503.68097 341.72186Q504.34387 342.11963 505.24985 343.0256Q506.32156 344.0973 506.75247 344.97015Q507.1944 345.83194 507.11707 346.63846Q507.03973 347.4229 506.36575 348.09686Q505.49292 348.96973 504.35492 348.84818Q503.00702 348.6935 501.2945 346.981ZM502.05682 346.21863Q503.54837 347.71017 504.3991 347.85382Q505.24985 347.99744 505.7581 347.4892Q506.27737 346.96994 506.12268 346.13025Q505.97906 345.2795 504.48752 343.78793Q502.9849 342.28534 502.14523 342.15277Q501.30554 341.99808 500.7752 342.5284Q500.26697 343.03665 500.3885 343.7769Q500.55423 344.71603 502.05682 346.21863ZM512.44244 340.38498L513.16064 341.10315L509.13895 345.12482Q508.87378 344.85965 508.70807 344.51715Q508.45395 343.95367 508.38763 343.22446Q508.3324 342.48422 508.45395 341.32413Q508.6307 339.51215 508.49814 338.69458Q508.3766 337.86594 507.95676 337.44608Q507.5148 337.00415 506.8961 337.02625Q506.26633 337.0373 505.7581 337.54553Q505.2167 338.08688 505.2167 338.72772Q505.2167 339.36853 505.78018 339.9541L504.9405 340.6391Q504.15607 339.69998 504.22235 338.74982Q504.28864 337.77753 505.16147 336.9047Q506.0343 336.03186 507.0287 336.00977Q508.02304 335.98767 508.7412 336.70584Q509.1058 337.07043 509.3047 337.57867Q509.50354 338.0648 509.54773 338.8161Q509.59195 339.54532 509.4704 341.01477Q509.35992 342.2522 509.37097 342.66098Q509.38202 343.0477 509.45935 343.3681L512.44244 340.38498ZM517.3922 335.43524L518.11035 336.1534L514.0887 340.17508Q513.82355 339.9099 513.6578 339.5674Q513.4037 339.00394 513.3374 338.27472Q513.28217 337.53445 513.4037 336.37436Q513.58044 334.5624 513.4479 333.7448Q513.32635 332.91617 512.9065 332.49634Q512.46454 332.05438 511.84586 332.07648Q511.21606 332.08752 510.70786 332.59576Q510.16647 333.13715 510.16647 333.77795Q510.16647 334.4188 510.72995 335.00436L509.89026 335.68936Q509.1058 334.75024 509.1721 333.80005Q509.23837 332.8278 510.1112 331.95496Q510.98404 331.08212 511.97842 331.06003Q512.9728 331.03793 513.6909 331.75607Q514.05554 332.1207 514.2544 332.6289Q514.4533 333.11505 514.4975 333.86636Q514.5417 334.59555 514.42017 336.065Q514.3097 337.30246 514.32074 337.71124Q514.3318 338.09793 514.4091 338.41837L517.3922 335.43524Z" fill-rule="nonzero"/><path fill="#000000" d="M528.87714 350.2845L529.5953 351.00262L525.5736 355.0243Q525.3085 354.75912 525.1427 354.41663Q524.8886 353.85315 524.8223 353.12396Q524.7671 352.3837 524.8886 351.2236Q525.06537 349.41165 524.9328 348.59406Q524.8113 347.7654 524.3914 347.34555Q523.94946 346.90363 523.33075 346.92572Q522.701 346.93677 522.19275 347.445Q521.65137 347.9864 521.65137 348.6272Q521.65137 349.268 522.21484 349.85358L521.3752 350.5386Q520.5907 349.59946 520.65704 348.6493Q520.7233 347.67703 521.5961 346.8042Q522.469 345.93137 523.4633 345.90924Q524.4577 345.88715 525.17584 346.60532Q525.54047 346.9699 525.7393 347.47815Q525.93823 347.9643 525.9824 348.71558Q526.0266 349.4448 525.9051 350.91425Q525.7946 352.15167 525.80566 352.5605Q525.8167 352.94717 525.89404 353.26758L528.87714 350.2845ZM527.62866 346.98096Q526.5459 345.8982 526.115 345.02536Q525.67303 344.14148 525.75037 343.35706Q525.8388 342.56155 526.5017 341.89862Q526.98785 341.4125 527.55133 341.24677Q528.12585 341.07 528.74457 341.20258Q529.35223 341.3241 530.01514 341.72186Q530.67804 342.1196 531.58405 343.02557Q532.65576 344.0973 533.0866 344.97012Q533.52856 345.8319 533.45123 346.63846Q533.3739 347.4229 532.69995 348.09686Q531.8271 348.9697 530.6891 348.84818Q529.3412 348.69348 527.62866 346.98096ZM528.391 346.21863Q529.88257 347.71017 530.7333 347.8538Q531.58405 347.99744 532.0923 347.4892Q532.6115 346.9699 532.45685 346.13022Q532.31323 345.27948 530.82166 343.78793Q529.3191 342.28534 528.4794 342.15274Q527.6397 341.99808 527.1094 342.5284Q526.60114 343.03662 526.72266 343.7769Q526.88837 344.716 528.391 346.21863ZM538.7766 340.38498L539.49475 341.10315L535.4731 345.12482Q535.20795 344.85965 535.04224 344.51715Q534.7881 343.95367 534.7218 343.22446Q534.66656 342.4842 534.7881 341.3241Q534.9649 339.51215 534.8323 338.69455Q534.71075 337.8659 534.2909 337.44608Q533.849 337.00412 533.2303 337.0262Q532.60046 337.03726 532.0923 337.5455Q531.5509 338.08688 531.5509 338.7277Q531.5509 339.36853 532.1144 339.9541L531.27466 340.6391Q530.49023 339.69998 530.5565 338.7498Q530.6228 337.77753 531.4956 336.9047Q532.36847 336.03186 533.36285 336.00977Q534.3572 335.98767 535.0754 336.7058Q535.43994 337.07043 535.63885 337.57864Q535.8377 338.0648 535.8819 338.8161Q535.9261 339.5453 535.80457 341.01474Q535.6941 342.2522 535.70514 342.66098Q535.7162 343.04767 535.7935 343.3681L538.7766 340.38498ZM538.9202 338.47357L539.57214 337.62283Q540.3234 338.13107 540.92004 338.10898Q541.5056 338.07584 541.9476 337.63388Q542.4779 337.10358 542.4779 336.37436Q542.4779 335.64517 541.9365 335.1038Q541.4283 334.59555 540.75433 334.6066Q540.0804 334.59555 539.5611 335.11484Q539.35114 335.32474 539.11914 335.73355L538.5446 334.98224Q538.633 334.91595 538.6772 334.87177Q539.1523 334.39667 539.28485 333.77795Q539.4174 333.13715 538.89813 332.61786Q538.4894 332.20908 537.948 332.22012Q537.39557 332.22012 536.9536 332.66205Q536.5227 333.09296 536.5006 333.66748Q536.48956 334.23096 536.9536 334.84967L536.0697 335.46838Q535.46204 334.59555 535.5394 333.70062Q535.6057 332.79465 536.32385 332.07648Q536.82104 331.57928 537.46185 331.38043Q538.0916 331.1705 538.6772 331.31412Q539.26276 331.45776 539.6826 331.8776Q540.0693 332.2643 540.19086 332.8057Q540.30133 333.336 540.0804 333.93265Q540.73224 333.52383 541.4283 333.62326Q542.1133 333.71167 542.7099 334.3083Q543.50543 335.1038 543.4722 336.2418Q543.45013 337.36874 542.5663 338.25262Q541.77075 339.0481 540.7654 339.10336Q539.7489 339.14755 538.9202 338.47357Z" fill-rule="nonzero"/><path fill="#000000" d="M555.21124 350.28452L555.9294 351.00266L551.9077 355.02432Q551.6426 354.7592 551.47687 354.41666Q551.2227 353.85318 551.15643 353.124Q551.1012 352.38373 551.2227 351.22363Q551.3995 349.41168 551.2669 348.5941Q551.1454 347.76544 550.7255 347.3456Q550.28357 346.90366 549.66486 346.92575Q549.0351 346.9368 548.52686 347.44504Q547.9855 347.98642 547.9855 348.62723Q547.9855 349.26804 548.54895 349.8536L547.7093 350.53864Q546.92487 349.5995 546.99115 348.64932Q547.05743 347.67706 547.93024 346.80423Q548.8031 345.9314 549.7975 345.9093Q550.7918 345.88718 551.51 346.60535Q551.8746 346.96994 552.0735 347.47818Q552.27234 347.96432 552.3165 348.7156Q552.3607 349.44482 552.2392 350.91428Q552.1287 352.1517 552.1398 352.56052Q552.1508 352.9472 552.22815 353.2676L555.21124 350.28452ZM553.96277 346.981Q552.88 345.89822 552.4491 345.0254Q552.0072 344.1415 552.08453 343.3571Q552.1729 342.56158 552.8358 341.89865Q553.32196 341.41254 553.88544 341.2468Q554.45996 341.07004 555.0787 341.2026Q555.68634 341.32413 556.34924 341.7219Q557.01215 342.11963 557.91815 343.0256Q558.98987 344.09732 559.4207 344.97015Q559.8627 345.83194 559.78534 346.6385Q559.708 347.42294 559.03406 348.0969Q558.1612 348.96973 557.0232 348.8482Q555.6753 348.6935 553.96277 346.981ZM554.7251 346.21866Q556.2167 347.7102 557.0674 347.85382Q557.91815 347.99747 558.4264 347.48923Q558.9457 346.96994 558.79095 346.13025Q558.64734 345.2795 557.1558 343.78796Q555.6532 342.28537 554.8135 342.15277Q553.9738 341.9981 553.4435 342.52844Q552.93524 343.03665 553.05676 343.77692Q553.22253 344.71603 554.7251 346.21866ZM565.1107 340.385L565.8289 341.10318L561.80725 345.12485Q561.54205 344.85968 561.37634 344.51718Q561.1222 343.9537 561.0559 343.2245Q561.0007 342.48425 561.1222 341.32413Q561.299 339.51218 561.16644 338.69458Q561.04486 337.86594 560.62506 337.4461Q560.1831 337.00415 559.5644 337.02625Q558.93463 337.0373 558.4264 337.54553Q557.885 338.0869 557.885 338.72772Q557.885 339.36856 558.4485 339.95413L557.60876 340.63913Q556.82434 339.7 556.8906 338.74982Q556.9569 337.77756 557.8298 336.90472Q558.7026 336.0319 559.69696 336.0098Q560.69135 335.9877 561.4095 336.70584Q561.7741 337.07047 561.97296 337.57867Q562.1718 338.06482 562.216 338.81613Q562.2602 339.54532 562.1387 341.01477Q562.0282 342.25223 562.03925 342.661Q562.0503 343.04773 562.1276 343.36813L565.1107 340.385ZM569.2429 337.68918L567.7845 336.23077L565.15497 338.86032L564.4699 338.1753L563.3098 331.46884L563.9175 330.86118L567.85077 334.79446L568.6684 333.97687L569.3534 334.66187L568.53577 335.47946L569.9942 336.93787L569.2429 337.68918ZM567.0995 335.54575L564.3705 332.81677L565.19916 337.4461L567.0995 335.54575Z" fill-rule="nonzero"/><path fill="#757575" d="M20.096874 37.55L20.096874 23.2375L25.4875 23.2375Q26.925 23.2375 27.675 23.3625Q28.721874 23.55 29.440624 24.05Q30.159374 24.534374 30.58125 25.425Q31.01875 26.315624 31.01875 27.378124Q31.01875 29.20625 29.846874 30.471874Q28.690624 31.721874 25.659374 31.721874L21.9875 31.721874L21.9875 37.55L20.096874 37.55ZM21.9875 30.034374L25.690624 30.034374Q27.51875 30.034374 28.284374 29.3625Q29.065624 28.675 29.065624 27.425Q29.065624 26.534374 28.6125 25.89375Q28.159374 25.253124 27.425 25.05Q26.940624 24.925 25.64375 24.925L21.9875 24.925L21.9875 30.034374ZM39.64375 36.26875Q38.659374 37.096874 37.753124 37.440624Q36.846874 37.784374 35.815624 37.784374Q34.1125 37.784374 33.190624 36.95625Q32.26875 36.1125 32.26875 34.815624Q32.26875 34.05 32.6125 33.425Q32.971874 32.8 33.534374 32.425Q34.096874 32.034374 34.8 31.83125Q35.315624 31.70625 36.3625 31.565624Q38.4875 31.315624 39.4875 30.971874Q39.503124 30.6125 39.503124 30.503124Q39.503124 29.440624 39.003124 28.9875Q38.33125 28.39375 37.003124 28.39375Q35.753124 28.39375 35.159374 28.83125Q34.58125 29.26875 34.3 30.378124L32.58125 30.14375Q32.815624 29.034374 33.346874 28.3625Q33.878124 27.675 34.89375 27.315624Q35.909374 26.940624 37.253124 26.940624Q38.58125 26.940624 39.409374 27.253124Q40.2375 27.565624 40.628124 28.05Q41.01875 28.51875 41.175 29.2375Q41.26875 29.690624 41.26875 30.8625L41.26875 33.20625Q41.26875 35.659374 41.378124 36.315624Q41.4875 36.95625 41.83125 37.55L39.9875 37.55Q39.721874 37.003124 39.64375 36.26875ZM39.4875 32.346874Q38.534374 32.7375 36.6125 33.003124Q35.534374 33.159374 35.08125 33.3625Q34.64375 33.55 34.39375 33.925Q34.14375 34.3 34.14375 34.76875Q34.14375 35.471874 34.675 35.940624Q35.20625 36.409374 36.2375 36.409374Q37.253124 36.409374 38.034374 35.971874Q38.83125 35.51875 39.20625 34.753124Q39.4875 34.14375 39.4875 32.9875L39.4875 32.346874ZM43.8625 41.51875L43.8625 27.175L45.471874 27.175L45.471874 28.51875Q46.034374 27.7375 46.7375 27.346874Q47.45625 26.940624 48.471874 26.940624Q49.8 26.940624 50.815624 27.628124Q51.83125 28.315624 52.346874 29.565624Q52.878124 30.8 52.878124 32.284374Q52.878124 33.878124 52.3 35.159374Q51.7375 36.425 50.64375 37.1125Q49.55 37.784374 48.346874 37.784374Q47.471874 37.784374 46.76875 37.409374Q46.08125 37.034374 45.628124 36.471874L45.628124 41.51875L43.8625 41.51875ZM45.45625 32.425Q45.45625 34.425 46.26875 35.378124Q47.08125 36.33125 48.2375 36.33125Q49.409374 36.33125 50.2375 35.346874Q51.08125 34.3625 51.08125 32.26875Q51.08125 30.3 50.253124 29.315624Q49.440624 28.315624 48.315624 28.315624Q47.190624 28.315624 46.315624 29.378124Q45.45625 30.425 45.45625 32.425ZM61.971874 34.20625L63.784374 34.440624Q63.3625 36.01875 62.190624 36.909374Q61.034374 37.784374 59.221874 37.784374Q56.95625 37.784374 55.6125 36.39375Q54.284374 34.9875 54.284374 32.45625Q54.284374 29.83125 55.628124 28.39375Q56.971874 26.940624 59.128124 26.940624Q61.20625 26.940624 62.51875 28.3625Q63.846874 29.76875 63.846874 32.346874Q63.846874 32.503124 63.83125 32.815624L56.096874 32.815624Q56.190624 34.51875 57.065624 35.425Q57.940624 36.33125 59.2375 36.33125Q60.20625 36.33125 60.878124 35.83125Q61.565624 35.315624 61.971874 34.20625ZM56.190624 31.3625L61.9875 31.3625Q61.878124 30.065624 61.33125 29.409374Q60.4875 28.39375 59.14375 28.39375Q57.940624 28.39375 57.1125 29.20625Q56.284374 30.003124 56.190624 31.3625ZM65.84688 37.55L65.84688 27.175L67.425 27.175L67.425 28.753124Q68.03438 27.64375 68.55 27.3Q69.06563 26.940624 69.675 26.940624Q70.56563 26.940624 71.4875 27.503124L70.87813 29.14375Q70.2375 28.753124 69.59688 28.753124Q69.01875 28.753124 68.55 29.1125Q68.09688 29.45625 67.89375 30.065624Q67.6125 31.003124 67.6125 32.1125L67.6125 37.55L65.84688 37.55ZM72.15938 34.45625L73.90938 34.175Q74.05 35.221874 74.72188 35.784374Q75.39375 36.33125 76.59688 36.33125Q77.8 36.33125 78.37813 35.846874Q78.97188 35.346874 78.97188 34.690624Q78.97188 34.096874 78.45625 33.753124Q78.09688 33.51875 76.65938 33.159374Q74.72188 32.659374 73.97188 32.315624Q73.2375 31.95625 72.84688 31.33125Q72.45625 30.690624 72.45625 29.925Q72.45625 29.2375 72.76875 28.64375Q73.09688 28.05 73.64375 27.659374Q74.05 27.3625 74.75313 27.159374Q75.47188 26.940624 76.28438 26.940624Q77.50313 26.940624 78.425 27.3Q79.34688 27.64375 79.78438 28.253124Q80.22188 28.846874 80.39375 29.846874L78.675 30.08125Q78.55 29.284374 77.9875 28.846874Q77.425 28.39375 76.40938 28.39375Q75.19063 28.39375 74.675 28.8Q74.15938 29.190624 74.15938 29.721874Q74.15938 30.065624 74.37813 30.346874Q74.58125 30.628124 75.05 30.815624Q75.31563 30.909374 76.59688 31.253124Q78.47188 31.753124 79.20625 32.08125Q79.94063 32.39375 80.3625 33.003124Q80.78438 33.596874 80.78438 34.503124Q80.78438 35.378124 80.26875 36.159374Q79.75313 36.940624 78.78438 37.3625Q77.81563 37.784374 76.59688 37.784374Q74.58125 37.784374 73.51875 36.940624Q72.45625 36.096874 72.15938 34.45625ZM90.4875 37.55L88.8625 37.55L88.8625 23.2375L90.6125 23.2375L90.6125 28.346874Q91.7375 26.940624 93.45625 26.940624Q94.40938 26.940624 95.26875 27.33125Q96.12813 27.721874 96.675 28.425Q97.22188 29.1125 97.53438 30.096874Q97.84688 31.08125 97.84688 32.20625Q97.84688 34.878124 96.53438 36.33125Q95.22188 37.784374 93.37813 37.784374Q91.53438 37.784374 90.4875 36.253124L90.4875 37.55ZM90.47188 32.284374Q90.47188 34.14375 90.97188 34.9875Q91.81563 36.33125 93.22188 36.33125Q94.37813 36.33125 95.20625 35.33125Q96.05 34.33125 96.05 32.346874Q96.05 30.315624 95.2375 29.3625Q94.44063 28.39375 93.3 28.39375Q92.14375 28.39375 91.3 29.39375Q90.47188 30.39375 90.47188 32.284374ZM99.78438 41.55L99.59688 39.89375Q100.175 40.05 100.59688 40.05Q101.19063 40.05 101.53438 39.846874Q101.89375 39.659374 102.1125 39.315624Q102.28438 39.05 102.65938 38.003124Q102.70625 37.846874 102.81563 37.565624L98.87813 27.175L100.76875 27.175L102.925 33.190624Q103.34688 34.33125 103.675 35.58125Q103.9875 34.378124 104.39375 33.221874L106.6125 27.175L108.37813 27.175L104.425 37.721874Q103.8 39.440624 103.44063 40.08125Q102.97188 40.95625 102.3625 41.346874Q101.76875 41.753124 100.925 41.753124Q100.40938 41.753124 99.78438 41.55ZM115.8625 41.51875L115.8625 27.175L117.47188 27.175L117.47188 28.51875Q118.03438 27.7375 118.7375 27.346874Q119.45625 26.940624 120.47188 26.940624Q121.8 26.940624 122.81563 27.628124Q123.83125 28.315624 124.34688 29.565624Q124.87813 30.8 124.87813 32.284374Q124.87813 33.878124 124.3 35.159374Q123.7375 36.425 122.64375 37.1125Q121.55 37.784374 120.34688 37.784374Q119.47188 37.784374 118.76875 37.409374Q118.08125 37.034374 117.62813 36.471874L117.62813 41.51875L115.8625 41.51875ZM117.45625 32.425Q117.45625 34.425 118.26875 35.378124Q119.08125 36.33125 120.2375 36.33125Q121.40938 36.33125 122.2375 35.346874Q123.08125 34.3625 123.08125 32.26875Q123.08125 30.3 122.25313 29.315624Q121.44063 28.315624 120.31563 28.315624Q119.19063 28.315624 118.31563 29.378124Q117.45625 30.425 117.45625 32.425ZM133.65938 37.55L133.65938 36.01875Q132.45625 37.784374 130.37813 37.784374Q129.45625 37.784374 128.65938 37.440624Q127.8625 37.08125 127.47188 36.55Q127.09688 36.01875 126.94063 35.2375Q126.83125 34.721874 126.83125 33.596874L126.83125 27.175L128.58125 27.175L128.58125 32.925Q128.58125 34.3 128.69063 34.784374Q128.8625 35.471874 129.39375 35.878124Q129.94063 36.26875 130.72188 36.26875Q131.51875 36.26875 132.20625 35.8625Q132.90938 35.45625 133.19063 34.76875Q133.4875 34.065624 133.4875 32.7375L133.4875 27.175L135.2375 27.175L135.2375 37.55L133.65938 37.55ZM138.4875 37.55L136.8625 37.55L136.8625 23.2375L138.6125 23.2375L138.6125 28.346874Q139.7375 26.940624 141.45625 26.940624Q142.40938 26.940624 143.26875 27.33125Q144.12813 27.721874 144.675 28.425Q145.22188 29.1125 145.53438 30.096874Q145.84688 31.08125 145.84688 32.20625Q145.84688 34.878124 144.53438 36.33125Q143.22188 37.784374 141.37813 37.784374Q139.53438 37.784374 138.4875 36.253124L138.4875 37.55ZM138.47188 32.284374Q138.47188 34.14375 138.97188 34.9875Q139.81563 36.33125 141.22188 36.33125Q142.37813 36.33125 143.20625 35.33125Q144.05 34.33125 144.05 32.346874Q144.05 30.315624 143.2375 29.3625Q142.44063 28.39375 141.3 28.39375Q140.14375 28.39375 139.3 29.39375Q138.47188 30.39375 138.47188 32.284374ZM147.83125 37.55L147.83125 23.2375L149.58125 23.2375L149.58125 37.55L147.83125 37.55ZM151.87813 25.253124L151.87813 23.2375L153.64375 23.2375L153.64375 25.253124L151.87813 25.253124ZM151.87813 37.55L151.87813 27.175L153.64375 27.175L153.64375 37.55L151.87813 37.55ZM162.64375 33.753124L164.3625 33.971874Q164.08125 35.76875 162.90938 36.784374Q161.75313 37.784374 160.05 37.784374Q157.925 37.784374 156.62813 36.39375Q155.33125 35.003124 155.33125 32.409374Q155.33125 30.721874 155.87813 29.471874Q156.44063 28.20625 157.58125 27.58125Q158.72188 26.940624 160.06563 26.940624Q161.75313 26.940624 162.81563 27.8Q163.89375 28.659374 164.20625 30.221874L162.4875 30.4875Q162.25313 29.440624 161.62813 28.925Q161.00313 28.39375 160.12813 28.39375Q158.8 28.39375 157.97188 29.346874Q157.14375 30.3 157.14375 32.346874Q157.14375 34.440624 157.94063 35.39375Q158.7375 36.33125 160.03438 36.33125Q161.06563 36.33125 161.75313 35.70625Q162.45625 35.065624 162.64375 33.753124ZM172.64375 36.26875Q171.65938 37.096874 170.75313 37.440624Q169.84688 37.784374 168.81563 37.784374Q167.1125 37.784374 166.19063 36.95625Q165.26875 36.1125 165.26875 34.815624Q165.26875 34.05 165.6125 33.425Q165.97188 32.8 166.53438 32.425Q167.09688 32.034374 167.8 31.83125Q168.31563 31.70625 169.3625 31.565624Q171.4875 31.315624 172.4875 30.971874Q172.50313 30.6125 172.50313 30.503124Q172.50313 29.440624 172.00313 28.9875Q171.33125 28.39375 170.00313 28.39375Q168.75313 28.39375 168.15938 28.83125Q167.58125 29.26875 167.3 30.378124L165.58125 30.14375Q165.81563 29.034374 166.34688 28.3625Q166.87813 27.675 167.89375 27.315624Q168.90938 26.940624 170.25313 26.940624Q171.58125 26.940624 172.40938 27.253124Q173.2375 27.565624 173.62813 28.05Q174.01875 28.51875 174.175 29.2375Q174.26875 29.690624 174.26875 30.8625L174.26875 33.20625Q174.26875 35.659374 174.37813 36.315624Q174.4875 36.95625 174.83125 37.55L172.9875 37.55Q172.72188 37.003124 172.64375 36.26875ZM172.4875 32.346874Q171.53438 32.7375 169.6125 33.003124Q168.53438 33.159374 168.08125 33.3625Q167.64375 33.55 167.39375 33.925Q167.14375 34.3 167.14375 34.76875Q167.14375 35.471874 167.675 35.940624Q168.20625 36.409374 169.2375 36.409374Q170.25313 36.409374 171.03438 35.971874Q171.83125 35.51875 172.20625 34.753124Q172.4875 34.14375 172.4875 32.9875L172.4875 32.346874ZM180.70625 35.971874L180.95625 37.534374Q180.22188 37.690624 179.62813 37.690624Q178.675 37.690624 178.14375 37.39375Q177.62813 37.08125 177.40938 36.596874Q177.19063 36.096874 177.19063 34.51875L177.19063 28.55L175.90938 28.55L175.90938 27.175L177.19063 27.175L177.19063 24.6125L178.94063 23.55L178.94063 27.175L180.70625 27.175L180.70625 28.55L178.94063 28.55L178.94063 34.6125Q178.94063 35.3625 179.03438 35.58125Q179.12813 35.784374 179.33125 35.925Q179.55 36.05 179.94063 36.05Q180.22188 36.05 180.70625 35.971874ZM182.87813 25.253124L182.87813 23.2375L184.64375 23.2375L184.64375 25.253124L182.87813 25.253124ZM182.87813 37.55L182.87813 27.175L184.64375 27.175L184.64375 37.55L182.87813 37.55ZM186.22188 32.3625Q186.22188 29.4875 187.81563 28.096874Q189.15938 26.940624 191.08125 26.940624Q193.22188 26.940624 194.56563 28.346874Q195.925 29.753124 195.925 32.221874Q195.925 34.221874 195.33125 35.378124Q194.7375 36.51875 193.58125 37.159374Q192.44063 37.784374 191.08125 37.784374Q188.89375 37.784374 187.55 36.39375Q186.22188 34.9875 186.22188 32.3625ZM188.01875 32.3625Q188.01875 34.3625 188.87813 35.346874Q189.75313 36.33125 191.08125 36.33125Q192.39375 36.33125 193.25313 35.346874Q194.12813 34.346874 194.12813 32.3Q194.12813 30.378124 193.25313 29.39375Q192.37813 28.39375 191.08125 28.39375Q189.75313 28.39375 188.87813 29.39375Q188.01875 30.378124 188.01875 32.3625ZM197.8625 37.55L197.8625 27.175L199.45625 27.175L199.45625 28.659374Q200.59688 26.940624 202.75313 26.940624Q203.69063 26.940624 204.47188 27.284374Q205.26875 27.6125 205.65938 28.159374Q206.05 28.70625 206.20625 29.45625Q206.3 29.95625 206.3 31.175L206.3 37.55L204.53438 37.55L204.53438 31.2375Q204.53438 30.159374 204.33125 29.628124Q204.12813 29.096874 203.59688 28.784374Q203.08125 28.471874 202.37813 28.471874Q201.25313 28.471874 200.44063 29.190624Q199.62813 29.89375 199.62813 31.878124L199.62813 37.55L197.8625 37.55ZM213.78438 41.55L213.59688 39.89375Q214.175 40.05 214.59688 40.05Q215.19063 40.05 215.53438 39.846874Q215.89375 39.659374 216.1125 39.315624Q216.28438 39.05 216.65938 38.003124Q216.70625 37.846874 216.81563 37.565624L212.87813 27.175L214.76875 27.175L216.925 33.190624Q217.34688 34.33125 217.675 35.58125Q217.9875 34.378124 218.39375 33.221874L220.6125 27.175L222.37813 27.175L218.425 37.721874Q217.8 39.440624 217.44063 40.08125Q216.97188 40.95625 216.3625 41.346874Q215.76875 41.753124 214.925 41.753124Q214.40938 41.753124 213.78438 41.55ZM230.97188 34.20625L232.78438 34.440624Q232.3625 36.01875 231.19063 36.909374Q230.03438 37.784374 228.22188 37.784374Q225.95625 37.784374 224.6125 36.39375Q223.28438 34.9875 223.28438 32.45625Q223.28438 29.83125 224.62813 28.39375Q225.97188 26.940624 228.12813 26.940624Q230.20625 26.940624 231.51875 28.3625Q232.84688 29.76875 232.84688 32.346874Q232.84688 32.503124 232.83125 32.815624L225.09688 32.815624Q225.19063 34.51875 226.06563 35.425Q226.94063 36.33125 228.2375 36.33125Q229.20625 36.33125 229.87813 35.83125Q230.56563 35.315624 230.97188 34.20625ZM225.19063 31.3625L230.9875 31.3625Q230.87813 30.065624 230.33125 29.409374Q229.4875 28.39375 228.14375 28.39375Q226.94063 28.39375 226.1125 29.20625Q225.28438 30.003124 225.19063 31.3625ZM241.64375 36.26875Q240.65938 37.096874 239.75313 37.440624Q238.84688 37.784374 237.81563 37.784374Q236.1125 37.784374 235.19063 36.95625Q234.26875 36.1125 234.26875 34.815624Q234.26875 34.05 234.6125 33.425Q234.97188 32.8 235.53438 32.425Q236.09688 32.034374 236.8 31.83125Q237.31563 31.70625 238.3625 31.565624Q240.4875 31.315624 241.4875 30.971874Q241.50313 30.6125 241.50313 30.503124Q241.50313 29.440624 241.00313 28.9875Q240.33125 28.39375 239.00313 28.39375Q237.75313 28.39375 237.15938 28.83125Q236.58125 29.26875 236.3 30.378124L234.58125 30.14375Q234.81563 29.034374 235.34688 28.3625Q235.87813 27.675 236.89375 27.315624Q237.90938 26.940624 239.25313 26.940624Q240.58125 26.940624 241.40938 27.253124Q242.2375 27.565624 242.62813 28.05Q243.01875 28.51875 243.175 29.2375Q243.26875 29.690624 243.26875 30.8625L243.26875 33.20625Q243.26875 35.659374 243.37813 36.315624Q243.4875 36.95625 243.83125 37.55L241.9875 37.55Q241.72188 37.003124 241.64375 36.26875ZM241.4875 32.346874Q240.53438 32.7375 238.6125 33.003124Q237.53438 33.159374 237.08125 33.3625Q236.64375 33.55 236.39375 33.925Q236.14375 34.3 236.14375 34.76875Q236.14375 35.471874 236.675 35.940624Q237.20625 36.409374 238.2375 36.409374Q239.25313 36.409374 240.03438 35.971874Q240.83125 35.51875 241.20625 34.753124Q241.4875 34.14375 241.4875 32.9875L241.4875 32.346874ZM245.84688 37.55L245.84688 27.175L247.425 27.175L247.425 28.753124Q248.03438 27.64375 248.55 27.3Q249.06563 26.940624 249.675 26.940624Q250.56563 26.940624 251.4875 27.503124L250.87813 29.14375Q250.2375 28.753124 249.59688 28.753124Q249.01875 28.753124 248.55 29.1125Q248.09688 29.45625 247.89375 30.065624Q247.6125 31.003124 247.6125 32.1125L247.6125 37.55L245.84688 37.55Z" fill-rule="nonzero"/></svg>