<?xml version="1.0" standalone="no"?><!-- Generator: Gravit.io --><svg xmlns="http://www.w3.org/2000/svg" xmlns:xlink="http://www.w3.org/1999/xlink" style="isolation:isolate" viewBox="0 0 595.276 841.89" width="595.276" height="841.89"><defs><clipPath id="_clipPath_gcIfak1F38R2WjO3vOTjHc9rL6GAtgSG"><rect width="595.276" height="841.89"/></clipPath></defs><g clip-path="url(#_clipPath_gcIfak1F38R2WjO3vOTjHc9rL6GAtgSG)"><rect x="-487.313" y="-363.864" width="1569.901" height="1552.991" transform="matrix(1,0,0,1,0,0)" fill="rgb(53,153,111)"/><g id="Group"/><g id="Group"><g id="Group"><rect x="256.992" y="282.756" width="60.024" height="42.52" transform="matrix(1,0,0,1,0,0)" fill="rgb(255,255,255)"/><path d="M 278.338 282.756 L 448.403 282.756 C 460.136 282.756 469.662 292.282 469.662 304.016 L 469.662 304.016 C 469.662 315.749 460.136 325.276 448.403 325.276 L 278.338 325.276 C 266.604 325.276 257.078 315.749 257.078 304.016 L 257.078 304.016 C 257.078 292.282 266.604 282.756 278.338 282.756 Z" style="stroke:none;fill:#FFFFFF;stroke-miterlimit:10;"/><path d=" M 338.4 325.276 C 320.463 299.58 290.677 282.756 256.992 282.756 C 202.235 282.756 157.779 327.212 157.779 381.969 L 157.779 381.969 C 157.779 436.725 202.235 481.181 256.992 481.181 C 290.677 481.181 320.463 464.357 338.4 438.661 L 256.992 438.661 C 225.702 438.661 200.299 413.258 200.299 381.969 L 200.299 381.969 C 200.299 350.679 225.702 325.276 256.992 325.276 L 338.4 325.276 Z " fill-rule="evenodd" fill="rgb(255,255,255)"/><rect x="257.078" y="438.661" width="43.207" height="42.52" transform="matrix(1,0,0,1,0,0)" fill="rgb(255,255,255)"/><path d="M 278.338 438.661 L 335.031 438.661 C 346.764 438.661 356.29 448.188 356.29 459.921 L 356.29 459.921 C 356.29 471.655 346.764 481.181 335.031 481.181 L 278.338 481.181 C 266.604 481.181 257.078 471.655 257.078 459.921 L 257.078 459.921 C 257.078 448.188 266.604 438.661 278.338 438.661 Z" style="stroke:none;fill:#FFFFFF;stroke-miterlimit:10;"/><rect x="278.26" y="516.614" width="60.024" height="42.52" transform="matrix(-1,0,0,-1,616.543,1075.748)" fill="rgb(255,255,255)"/><path d="M 317.024 559.134 L 146.943 559.134 C 135.209 559.134 125.683 549.608 125.683 537.874 L 125.683 537.874 C 125.683 526.14 135.209 516.614 146.943 516.614 L 317.024 516.614 C 328.758 516.614 338.284 526.14 338.284 537.874 L 338.284 537.874 C 338.284 549.608 328.758 559.134 317.024 559.134 Z" style="stroke:none;fill:#FFFFFF;stroke-miterlimit:10;"/><path d=" M 256.875 516.614 C 274.812 542.31 304.599 559.134 338.284 559.134 C 393.041 559.134 437.496 514.678 437.496 459.921 L 437.496 459.921 C 437.496 405.164 393.041 360.709 338.284 360.709 C 304.599 360.709 274.812 377.532 256.875 403.228 L 338.284 403.228 C 369.573 403.228 394.977 428.632 394.977 459.921 L 394.977 459.921 C 394.977 491.211 369.573 516.614 338.284 516.614 L 256.875 516.614 Z " fill-rule="evenodd" fill="rgb(255,255,255)"/><rect x="294.991" y="360.709" width="43.207" height="42.52" transform="matrix(-1,0,0,-1,633.189,763.937)" fill="rgb(255,255,255)"/><path d="M 316.938 403.228 L 260.245 403.228 C 248.511 403.228 238.985 393.702 238.985 381.969 L 238.985 381.969 C 238.985 370.235 248.511 360.709 260.245 360.709 L 316.938 360.709 C 328.672 360.709 338.198 370.235 338.198 381.969 L 338.198 381.969 C 338.198 393.702 328.672 403.228 316.938 403.228 Z" style="stroke:none;fill:#FFFFFF;stroke-miterlimit:10;"/></g></g></g></svg>