<svg version="1.1" viewBox="0.0 0.0 600.0 371.0" fill="none" stroke="none" stroke-linecap="square" stroke-miterlimit="10" width="600" height="371" xmlns:xlink="http://www.w3.org/1999/xlink" xmlns="http://www.w3.org/2000/svg"><path fill="#ffffff" d="M0 0L600.0 0L600.0 371.0L0 371.0L0 0Z" fill-rule="nonzero"/><path stroke="#333333" stroke-width="1.0" stroke-linecap="butt" d="M45.5 332.5L581.5 332.5" fill-rule="nonzero"/><path stroke="#cccccc" stroke-width="1.0" stroke-linecap="butt" d="M45.5 264.5L581.5 264.5" fill-rule="nonzero"/><path stroke="#cccccc" stroke-width="1.0" stroke-linecap="butt" d="M45.5 197.5L581.5 197.5" fill-rule="nonzero"/><path stroke="#cccccc" stroke-width="1.0" stroke-linecap="butt" d="M45.5 129.5L581.5 129.5" fill-rule="nonzero"/><path stroke="#cccccc" stroke-width="1.0" stroke-linecap="butt" d="M45.5 61.5L581.5 61.5" fill-rule="nonzero"/><clipPath id="id_0"><path d="M45.55 61.916668L581.45 61.916668L581.45 332.45L45.55 332.45L45.55 61.916668Z" clip-rule="nonzero"/></clipPath><path stroke="#000000" stroke-width="2.0" stroke-linecap="butt" stroke-opacity="0.0" clip-path="url(#id_0)" d="M131.0 332.0L76.0 332.0L76.0 264.0C76.0 262.89542 76.89543 262.0 78.0 262.0L129.0 262.0C130.10457 262.0 131.0 262.89542 131.0 264.0Z" fill-rule="nonzero"/><path fill="#5891ad" clip-path="url(#id_0)" d="M131.0 332.0L76.0 332.0L76.0 264.0C76.0 262.89542 76.89543 262.0 78.0 262.0L129.0 262.0C130.10457 262.0 131.0 262.89542 131.0 264.0Z" fill-rule="nonzero"/><path stroke="#000000" stroke-width="2.0" stroke-linecap="butt" stroke-opacity="0.0" clip-path="url(#id_0)" d="M215.0 332.0L160.0 332.0L160.0 205.0C160.0 203.89543 160.89543 203.0 162.0 203.0L213.0 203.0C214.10457 203.0 215.0 203.89543 215.0 205.0Z" fill-rule="nonzero"/><path fill="#5891ad" clip-path="url(#id_0)" d="M215.0 332.0L160.0 332.0L160.0 205.0C160.0 203.89543 160.89543 203.0 162.0 203.0L213.0 203.0C214.10457 203.0 215.0 203.89543 215.0 205.0Z" fill-rule="nonzero"/><path stroke="#000000" stroke-width="2.0" stroke-linecap="butt" stroke-opacity="0.0" clip-path="url(#id_0)" d="M299.0 332.0L244.0 332.0L244.0 226.0C244.0 224.89543 244.89543 224.0 246.0 224.0L297.0 224.0C298.10458 224.0 299.0 224.89543 299.0 226.0Z" fill-rule="nonzero"/><path fill="#5891ad" clip-path="url(#id_0)" d="M299.0 332.0L244.0 332.0L244.0 226.0C244.0 224.89543 244.89543 224.0 246.0 224.0L297.0 224.0C298.10458 224.0 299.0 224.89543 299.0 226.0Z" fill-rule="nonzero"/><path stroke="#000000" stroke-width="2.0" stroke-linecap="butt" stroke-opacity="0.0" clip-path="url(#id_0)" d="M384.0 332.0L329.0 332.0L329.0 178.0C329.0 176.89543 329.89542 176.0 331.0 176.0L382.0 176.0C383.10458 176.0 384.0 176.89543 384.0 178.0Z" fill-rule="nonzero"/><path fill="#5891ad" clip-path="url(#id_0)" d="M384.0 332.0L329.0 332.0L329.0 178.0C329.0 176.89543 329.89542 176.0 331.0 176.0L382.0 176.0C383.10458 176.0 384.0 176.89543 384.0 178.0Z" fill-rule="nonzero"/><path stroke="#000000" stroke-width="2.0" stroke-linecap="butt" stroke-opacity="0.0" clip-path="url(#id_0)" d="M468.0 332.0L413.0 332.0L413.0 113.0C413.0 111.89543 413.89542 111.0 415.0 111.0L466.0 111.0C467.10458 111.0 468.0 111.89543 468.0 113.0Z" fill-rule="nonzero"/><path fill="#5891ad" clip-path="url(#id_0)" d="M468.0 332.0L413.0 332.0L413.0 113.0C413.0 111.89543 413.89542 111.0 415.0 111.0L466.0 111.0C467.10458 111.0 468.0 111.89543 468.0 113.0Z" fill-rule="nonzero"/><path stroke="#000000" stroke-width="2.0" stroke-linecap="butt" stroke-opacity="0.0" clip-path="url(#id_0)" d="M552.0 332.0L497.0 332.0L497.0 202.0C497.0 200.89543 497.89542 200.0 499.0 200.0L550.0 200.0C551.10455 200.0 552.0 200.89543 552.0 202.0Z" fill-rule="nonzero"/><path fill="#5891ad" clip-path="url(#id_0)" d="M552.0 332.0L497.0 332.0L497.0 202.0C497.0 200.89543 497.89542 200.0 499.0 200.0L550.0 200.0C551.10455 200.0 552.0 200.89543 552.0 202.0Z" fill-rule="nonzero"/><path fill="#000000" d="M33.05 332.21564Q33.05 330.6844 33.3625 329.7625Q33.675 328.825 34.284374 328.325Q34.909374 327.825 35.846874 327.825Q36.534374 327.825 37.05 328.10626Q37.58125 328.3875 37.925 328.91876Q38.26875 329.4344 38.45625 330.1844Q38.64375 330.9344 38.64375 332.21564Q38.64375 333.73126 38.33125 334.65314Q38.034374 335.575 37.409374 336.09064Q36.8 336.59064 35.846874 336.59064Q34.6125 336.59064 33.89375 335.7Q33.05 334.6375 33.05 332.21564ZM34.128124 332.21564Q34.128124 334.325 34.628124 335.02814Q35.128124 335.73126 35.846874 335.73126Q36.58125 335.73126 37.065624 335.02814Q37.565624 334.325 37.565624 332.21564Q37.565624 330.09064 37.065624 329.40314Q36.58125 328.7 35.83125 328.7Q35.1125 328.7 34.675 329.3094Q34.128124 330.09064 34.128124 332.21564Z" fill-rule="nonzero"/><path fill="#000000" d="M31.596874 267.80106L31.596874 268.81668L25.909374 268.81668Q25.909374 268.44168 26.034374 268.0823Q26.253124 267.50418 26.721874 266.94168Q27.20625 266.37918 28.1125 265.6448Q29.51875 264.48856 30.003124 263.81668Q30.503124 263.1448 30.503124 262.55106Q30.503124 261.92606 30.05 261.50418Q29.596874 261.06668 28.878124 261.06668Q28.1125 261.06668 27.659374 261.5198Q27.20625 261.97293 27.190624 262.78543L26.1125 262.67606Q26.221874 261.4573 26.940624 260.8323Q27.675 260.19168 28.909374 260.19168Q30.14375 260.19168 30.8625 260.87918Q31.58125 261.56668 31.58125 262.5823Q31.58125 263.09793 31.3625 263.59793Q31.159374 264.0823 30.659374 264.6448Q30.175 265.19168 29.05 266.1448Q28.096874 266.94168 27.815624 267.23856Q27.55 267.5198 27.378124 267.80106L31.596874 267.80106ZM33.05 266.56668L34.159374 266.47293Q34.284374 267.28543 34.721874 267.69168Q35.175 268.09793 35.815624 268.09793Q36.565624 268.09793 37.096874 267.5198Q37.628124 266.94168 37.628124 266.00418Q37.628124 265.09793 37.1125 264.5823Q36.6125 264.05106 35.784374 264.05106Q35.284374 264.05106 34.8625 264.28543Q34.45625 264.5198 34.221874 264.87918L33.2375 264.75418L34.065624 260.34793L38.346874 260.34793L38.346874 261.34793L34.909374 261.34793L34.45625 263.66043Q35.221874 263.11356 36.065624 263.11356Q37.190624 263.11356 37.95625 263.8948Q38.7375 264.67606 38.7375 265.91043Q38.7375 267.06668 38.065624 267.92606Q37.2375 268.9573 35.815624 268.9573Q34.64375 268.9573 33.89375 268.30106Q33.159374 267.6448 33.05 266.56668Z" fill-rule="nonzero"/><path fill="#000000" d="M26.05 198.93333L27.159374 198.83958Q27.284374 199.65208 27.721874 200.05833Q28.175 200.46458 28.815624 200.46458Q29.565624 200.46458 30.096874 199.88646Q30.628124 199.30833 30.628124 198.37083Q30.628124 197.46458 30.1125 196.94896Q29.6125 196.41771 28.784374 196.41771Q28.284374 196.41771 27.8625 196.65208Q27.45625 196.88646 27.221874 197.24583L26.2375 197.12083L27.065624 192.71458L31.346874 192.71458L31.346874 193.71458L27.909374 193.71458L27.45625 196.02708Q28.221874 195.48021 29.065624 195.48021Q30.190624 195.48021 30.95625 196.26146Q31.7375 197.04271 31.7375 198.27708Q31.7375 199.43333 31.065624 200.29271Q30.2375 201.32396 28.815624 201.32396Q27.64375 201.32396 26.89375 200.66771Q26.159374 200.01146 26.05 198.93333ZM33.05 196.94896Q33.05 195.41771 33.3625 194.49583Q33.675 193.55833 34.284374 193.05833Q34.909374 192.55833 35.846874 192.55833Q36.534374 192.55833 37.05 192.83958Q37.58125 193.12083 37.925 193.65208Q38.26875 194.16771 38.45625 194.91771Q38.64375 195.66771 38.64375 196.94896Q38.64375 198.46458 38.33125 199.38646Q38.034374 200.30833 37.409374 200.82396Q36.8 201.32396 35.846874 201.32396Q34.6125 201.32396 33.89375 200.43333Q33.05 199.37083 33.05 196.94896ZM34.128124 196.94896Q34.128124 199.05833 34.628124 199.76146Q35.128124 200.46458 35.846874 200.46458Q36.58125 200.46458 37.065624 199.76146Q37.565624 199.05833 37.565624 196.94896Q37.565624 194.82396 37.065624 194.13646Q36.58125 193.43333 35.83125 193.43333Q35.1125 193.43333 34.675 194.04271Q34.128124 194.82396 34.128124 196.94896Z" fill-rule="nonzero"/><path fill="#000000" d="M26.1125 126.08125L26.1125 125.06563L31.675 125.06563L31.675 125.89375Q30.8625 126.76875 30.05 128.22188Q29.253124 129.65938 28.815624 131.19063Q28.4875 132.26875 28.409374 133.55L27.315624 133.55Q27.33125 132.53438 27.70625 131.09688Q28.096874 129.65938 28.8 128.33125Q29.51875 127.00313 30.33125 126.08125L26.1125 126.08125ZM33.05 131.3L34.159374 131.20625Q34.284374 132.01875 34.721874 132.425Q35.175 132.83125 35.815624 132.83125Q36.565624 132.83125 37.096874 132.25313Q37.628124 131.675 37.628124 130.7375Q37.628124 129.83125 37.1125 129.31563Q36.6125 128.78438 35.784374 128.78438Q35.284374 128.78438 34.8625 129.01875Q34.45625 129.25313 34.221874 129.6125L33.2375 129.4875L34.065624 125.08125L38.346874 125.08125L38.346874 126.08125L34.909374 126.08125L34.45625 128.39375Q35.221874 127.84688 36.065624 127.84688Q37.190624 127.84688 37.95625 128.62813Q38.7375 129.40938 38.7375 130.64375Q38.7375 131.8 38.065624 132.65938Q37.2375 133.69063 35.815624 133.69063Q34.64375 133.69063 33.89375 133.03438Q33.159374 132.37813 33.05 131.3Z" fill-rule="nonzero"/><path fill="#000000" d="M23.01875 65.916664L21.971874 65.916664L21.971874 59.197914Q21.58125 59.55729 20.95625 59.93229Q20.346874 60.291664 19.8625 60.46354L19.8625 59.447914Q20.7375 59.02604 21.39375 58.447914Q22.065624 57.854164 22.346874 57.291664L23.01875 57.291664L23.01875 65.916664ZM26.05 61.68229Q26.05 60.15104 26.3625 59.229164Q26.675 58.291664 27.284374 57.791664Q27.909374 57.291664 28.846874 57.291664Q29.534374 57.291664 30.05 57.572914Q30.58125 57.854164 30.925 58.385414Q31.26875 58.90104 31.45625 59.65104Q31.64375 60.40104 31.64375 61.68229Q31.64375 63.197914 31.33125 64.11979Q31.034374 65.041664 30.409374 65.55729Q29.8 66.05729 28.846874 66.05729Q27.6125 66.05729 26.89375 65.166664Q26.05 64.104164 26.05 61.68229ZM27.128124 61.68229Q27.128124 63.791664 27.628124 64.49479Q28.128124 65.197914 28.846874 65.197914Q29.58125 65.197914 30.065624 64.49479Q30.565624 63.791664 30.565624 61.68229Q30.565624 59.55729 30.065624 58.86979Q29.58125 58.166664 28.83125 58.166664Q28.1125 58.166664 27.675 58.77604Q27.128124 59.55729 27.128124 61.68229ZM33.05 61.68229Q33.05 60.15104 33.3625 59.229164Q33.675 58.291664 34.284374 57.791664Q34.909374 57.291664 35.846874 57.291664Q36.534374 57.291664 37.05 57.572914Q37.58125 57.854164 37.925 58.385414Q38.26875 58.90104 38.45625 59.65104Q38.64375 60.40104 38.64375 61.68229Q38.64375 63.197914 38.33125 64.11979Q38.034374 65.041664 37.409374 65.55729Q36.8 66.05729 35.846874 66.05729Q34.6125 66.05729 33.89375 65.166664Q33.05 64.104164 33.05 61.68229ZM34.128124 61.68229Q34.128124 63.791664 34.628124 64.49479Q35.128124 65.197914 35.846874 65.197914Q36.58125 65.197914 37.065624 64.49479Q37.565624 63.791664 37.565624 61.68229Q37.565624 59.55729 37.065624 58.86979Q36.58125 58.166664 35.83125 58.166664Q35.1125 58.166664 34.675 58.77604Q34.128124 59.55729 34.128124 61.68229Z" fill-rule="nonzero"/><path fill="#000000" d="M94.56262 348.4344L94.56262 349.45L88.87512 349.45Q88.87512 349.075 89.00012 348.71564Q89.21887 348.1375 89.68762 347.575Q90.172 347.0125 91.07825 346.27814Q92.4845 345.1219 92.96887 344.45Q93.46887 343.77814 93.46887 343.1844Q93.46887 342.5594 93.01575 342.1375Q92.56262 341.7 91.84387 341.7Q91.07825 341.7 90.62512 342.15314Q90.172 342.60626 90.15637 343.41876L89.07825 343.3094Q89.18762 342.09064 89.90637 341.46564Q90.64075 340.825 91.87512 340.825Q93.1095 340.825 93.82825 341.5125Q94.547 342.2 94.547 343.21564Q94.547 343.73126 94.32825 344.23126Q94.12512 344.71564 93.62512 345.27814Q93.14075 345.825 92.01575 346.77814Q91.06262 347.575 90.78137 347.8719Q90.51575 348.15314 90.34387 348.4344L94.56262 348.4344ZM96.01575 345.21564Q96.01575 343.6844 96.32825 342.7625Q96.64075 341.825 97.25012 341.325Q97.87512 340.825 98.81262 340.825Q99.50012 340.825 100.01575 341.10626Q100.547 341.3875 100.89075 341.91876Q101.2345 342.4344 101.422 343.1844Q101.6095 343.9344 101.6095 345.21564Q101.6095 346.73126 101.297 347.65314Q101.00012 348.575 100.37512 349.09064Q99.76575 349.59064 98.81262 349.59064Q97.57825 349.59064 96.8595 348.7Q96.01575 347.6375 96.01575 345.21564ZM97.09387 345.21564Q97.09387 347.325 97.59387 348.02814Q98.09387 348.73126 98.81262 348.73126Q99.547 348.73126 100.03137 348.02814Q100.53137 347.325 100.53137 345.21564Q100.53137 343.09064 100.03137 342.40314Q99.547 341.7 98.797 341.7Q98.07825 341.7 97.64075 342.3094Q97.09387 343.09064 97.09387 345.21564ZM106.9845 349.45L105.93762 349.45L105.93762 342.73126Q105.547 343.09064 104.922 343.46564Q104.31262 343.825 103.82825 343.9969L103.82825 342.98126Q104.70325 342.5594 105.3595 341.98126Q106.03137 341.3875 106.31262 340.825L106.9845 340.825L106.9845 349.45ZM111.64075 344.79376Q110.9845 344.54376 110.65637 344.10626Q110.34387 343.65314 110.34387 343.04376Q110.34387 342.10626 111.01575 341.46564Q111.70325 340.825 112.81262 340.825Q113.93762 340.825 114.62512 341.48126Q115.31262 342.1375 115.31262 343.075Q115.31262 343.66876 115.00012 344.10626Q114.68762 344.54376 114.047 344.79376Q114.84387 345.04376 115.25012 345.6219Q115.65637 346.2 115.65637 346.9969Q115.65637 348.09064 114.87512 348.84064Q114.1095 349.59064 112.82825 349.59064Q111.56262 349.59064 110.78137 348.84064Q110.00012 348.09064 110.00012 346.96564Q110.00012 346.1219 110.422 345.5594Q110.8595 344.9969 111.64075 344.79376ZM111.422 342.9969Q111.422 343.60626 111.81262 343.9969Q112.21887 344.3875 112.84387 344.3875Q113.45325 344.3875 113.84387 344.0125Q114.2345 343.6219 114.2345 343.0594Q114.2345 342.48126 113.82825 342.09064Q113.422 341.6844 112.82825 341.6844Q112.21887 341.6844 111.81262 342.075Q111.422 342.46564 111.422 342.9969ZM111.09387 346.96564Q111.09387 347.41876 111.297 347.84064Q111.51575 348.2625 111.93762 348.4969Q112.3595 348.73126 112.84387 348.73126Q113.59387 348.73126 114.07825 348.2469Q114.57825 347.7625 114.57825 347.0125Q114.57825 346.2469 114.07825 345.7469Q113.57825 345.2469 112.81262 345.2469Q112.06262 345.2469 111.57825 345.7469Q111.09387 346.23126 111.09387 346.96564Z" fill-rule="nonzero"/><path fill="#000000" d="M178.95633 348.4344L178.95633 349.45L173.26883 349.45Q173.26883 349.075 173.39383 348.71564Q173.61258 348.1375 174.08133 347.575Q174.5657 347.0125 175.47195 346.27814Q176.8782 345.1219 177.36258 344.45Q177.86258 343.77814 177.86258 343.1844Q177.86258 342.5594 177.40945 342.1375Q176.95633 341.7 176.23758 341.7Q175.47195 341.7 175.01883 342.15314Q174.5657 342.60626 174.55008 343.41876L173.47195 343.3094Q173.58133 342.09064 174.30008 341.46564Q175.03445 340.825 176.26883 340.825Q177.5032 340.825 178.22195 341.5125Q178.9407 342.2 178.9407 343.21564Q178.9407 343.73126 178.72195 344.23126Q178.51883 344.71564 178.01883 345.27814Q177.53445 345.825 176.40945 346.77814Q175.45633 347.575 175.17508 347.8719Q174.90945 348.15314 174.73758 348.4344L178.95633 348.4344ZM180.40945 345.21564Q180.40945 343.6844 180.72195 342.7625Q181.03445 341.825 181.64383 341.325Q182.26883 340.825 183.20633 340.825Q183.89383 340.825 184.40945 341.10626Q184.9407 341.3875 185.28445 341.91876Q185.6282 342.4344 185.8157 343.1844Q186.0032 343.9344 186.0032 345.21564Q186.0032 346.73126 185.6907 347.65314Q185.39383 348.575 184.76883 349.09064Q184.15945 349.59064 183.20633 349.59064Q181.97195 349.59064 181.2532 348.7Q180.40945 347.6375 180.40945 345.21564ZM181.48758 345.21564Q181.48758 347.325 181.98758 348.02814Q182.48758 348.73126 183.20633 348.73126Q183.9407 348.73126 184.42508 348.02814Q184.92508 347.325 184.92508 345.21564Q184.92508 343.09064 184.42508 342.40314Q183.9407 341.7 183.1907 341.7Q182.47195 341.7 182.03445 342.3094Q181.48758 343.09064 181.48758 345.21564ZM191.3782 349.45L190.33133 349.45L190.33133 342.73126Q189.9407 343.09064 189.3157 343.46564Q188.70633 343.825 188.22195 343.9969L188.22195 342.98126Q189.09695 342.5594 189.7532 341.98126Q190.42508 341.3875 190.70633 340.825L191.3782 340.825L191.3782 349.45ZM194.5657 347.46564L195.58133 347.3719Q195.70633 348.09064 196.0657 348.41876Q196.4407 348.73126 197.0032 348.73126Q197.48758 348.73126 197.84695 348.5125Q198.22195 348.27814 198.45633 347.91876Q198.6907 347.54376 198.84695 346.91876Q199.0032 346.27814 199.0032 345.6219Q199.0032 345.54376 199.0032 345.40314Q198.6907 345.90314 198.14383 346.23126Q197.59695 346.54376 196.95633 346.54376Q195.8782 346.54376 195.14383 345.77814Q194.40945 344.9969 194.40945 343.73126Q194.40945 342.41876 195.17508 341.6219Q195.95633 340.825 197.11258 340.825Q197.9407 340.825 198.6282 341.27814Q199.33133 341.73126 199.6907 342.575Q200.05008 343.40314 200.05008 344.98126Q200.05008 346.6219 199.6907 347.60626Q199.34695 348.575 198.6282 349.09064Q197.92508 349.59064 196.98758 349.59064Q195.97195 349.59064 195.33133 349.04376Q194.6907 348.48126 194.5657 347.46564ZM198.8782 343.66876Q198.8782 342.7625 198.39383 342.23126Q197.92508 341.7 197.23758 341.7Q196.53445 341.7 196.0032 342.27814Q195.48758 342.84064 195.48758 343.7625Q195.48758 344.575 195.98758 345.09064Q196.48758 345.60626 197.20633 345.60626Q197.9407 345.60626 198.40945 345.09064Q198.8782 344.575 198.8782 343.66876Z" fill-rule="nonzero"/><path fill="#000000" d="M263.35004 348.4344L263.35004 349.45L257.66254 349.45Q257.66254 349.075 257.78754 348.71564Q258.0063 348.1375 258.47504 347.575Q258.9594 347.0125 259.86566 346.27814Q261.2719 345.1219 261.7563 344.45Q262.2563 343.77814 262.2563 343.1844Q262.2563 342.5594 261.80316 342.1375Q261.35004 341.7 260.6313 341.7Q259.86566 341.7 259.41254 342.15314Q258.9594 342.60626 258.9438 343.41876L257.86566 343.3094Q257.97504 342.09064 258.6938 341.46564Q259.42816 340.825 260.66254 340.825Q261.8969 340.825 262.61566 341.5125Q263.3344 342.2 263.3344 343.21564Q263.3344 343.73126 263.11566 344.23126Q262.91254 344.71564 262.41254 345.27814Q261.92816 345.825 260.80316 346.77814Q259.85004 347.575 259.5688 347.8719Q259.30316 348.15314 259.1313 348.4344L263.35004 348.4344ZM264.80316 345.21564Q264.80316 343.6844 265.11566 342.7625Q265.42816 341.825 266.03754 341.325Q266.66254 340.825 267.60004 340.825Q268.28754 340.825 268.80316 341.10626Q269.3344 341.3875 269.67816 341.91876Q270.0219 342.4344 270.2094 343.1844Q270.3969 343.9344 270.3969 345.21564Q270.3969 346.73126 270.0844 347.65314Q269.78754 348.575 269.16254 349.09064Q268.55316 349.59064 267.60004 349.59064Q266.36566 349.59064 265.6469 348.7Q264.80316 347.6375 264.80316 345.21564ZM265.8813 345.21564Q265.8813 347.325 266.3813 348.02814Q266.8813 348.73126 267.60004 348.73126Q268.3344 348.73126 268.8188 348.02814Q269.3188 347.325 269.3188 345.21564Q269.3188 343.09064 268.8188 342.40314Q268.3344 341.7 267.5844 341.7Q266.86566 341.7 266.42816 342.3094Q265.8813 343.09064 265.8813 345.21564ZM277.35004 348.4344L277.35004 349.45L271.66254 349.45Q271.66254 349.075 271.78754 348.71564Q272.0063 348.1375 272.47504 347.575Q272.9594 347.0125 273.86566 346.27814Q275.2719 345.1219 275.7563 344.45Q276.2563 343.77814 276.2563 343.1844Q276.2563 342.5594 275.80316 342.1375Q275.35004 341.7 274.6313 341.7Q273.86566 341.7 273.41254 342.15314Q272.9594 342.60626 272.9438 343.41876L271.86566 343.3094Q271.97504 342.09064 272.6938 341.46564Q273.42816 340.825 274.66254 340.825Q275.8969 340.825 276.61566 341.5125Q277.3344 342.2 277.3344 343.21564Q277.3344 343.73126 277.11566 344.23126Q276.91254 344.71564 276.41254 345.27814Q275.92816 345.825 274.80316 346.77814Q273.85004 347.575 273.5688 347.8719Q273.30316 348.15314 273.1313 348.4344L277.35004 348.4344ZM278.80316 345.21564Q278.80316 343.6844 279.11566 342.7625Q279.42816 341.825 280.03754 341.325Q280.66254 340.825 281.60004 340.825Q282.28754 340.825 282.80316 341.10626Q283.3344 341.3875 283.67816 341.91876Q284.0219 342.4344 284.2094 343.1844Q284.3969 343.9344 284.3969 345.21564Q284.3969 346.73126 284.0844 347.65314Q283.78754 348.575 283.16254 349.09064Q282.55316 349.59064 281.60004 349.59064Q280.36566 349.59064 279.6469 348.7Q278.80316 347.6375 278.80316 345.21564ZM279.8813 345.21564Q279.8813 347.325 280.3813 348.02814Q280.8813 348.73126 281.60004 348.73126Q282.3344 348.73126 282.8188 348.02814Q283.3188 347.325 283.3188 345.21564Q283.3188 343.09064 282.8188 342.40314Q282.3344 341.7 281.5844 341.7Q280.86566 341.7 280.42816 342.3094Q279.8813 343.09064 279.8813 345.21564Z" fill-rule="nonzero"/><path fill="#000000" d="M347.7437 348.4344L347.7437 349.45L342.0562 349.45Q342.0562 349.075 342.1812 348.71564Q342.39996 348.1375 342.8687 347.575Q343.3531 347.0125 344.25934 346.27814Q345.6656 345.1219 346.14996 344.45Q346.64996 343.77814 346.64996 343.1844Q346.64996 342.5594 346.19684 342.1375Q345.7437 341.7 345.02496 341.7Q344.25934 341.7 343.8062 342.15314Q343.3531 342.60626 343.33746 343.41876L342.25934 343.3094Q342.3687 342.09064 343.08746 341.46564Q343.82184 340.825 345.0562 340.825Q346.2906 340.825 347.00934 341.5125Q347.7281 342.2 347.7281 343.21564Q347.7281 343.73126 347.50934 344.23126Q347.3062 344.71564 346.8062 345.27814Q346.32184 345.825 345.19684 346.77814Q344.2437 347.575 343.96246 347.8719Q343.69684 348.15314 343.52496 348.4344L347.7437 348.4344ZM349.19684 345.21564Q349.19684 343.6844 349.50934 342.7625Q349.82184 341.825 350.4312 341.325Q351.0562 340.825 351.9937 340.825Q352.6812 340.825 353.19684 341.10626Q353.7281 341.3875 354.07184 341.91876Q354.4156 342.4344 354.6031 343.1844Q354.7906 343.9344 354.7906 345.21564Q354.7906 346.73126 354.4781 347.65314Q354.1812 348.575 353.5562 349.09064Q352.94684 349.59064 351.9937 349.59064Q350.75934 349.59064 350.0406 348.7Q349.19684 347.6375 349.19684 345.21564ZM350.27496 345.21564Q350.27496 347.325 350.77496 348.02814Q351.27496 348.73126 351.9937 348.73126Q352.7281 348.73126 353.21246 348.02814Q353.71246 347.325 353.71246 345.21564Q353.71246 343.09064 353.21246 342.40314Q352.7281 341.7 351.9781 341.7Q351.25934 341.7 350.82184 342.3094Q350.27496 343.09064 350.27496 345.21564ZM361.7437 348.4344L361.7437 349.45L356.0562 349.45Q356.0562 349.075 356.1812 348.71564Q356.39996 348.1375 356.8687 347.575Q357.3531 347.0125 358.25934 346.27814Q359.6656 345.1219 360.14996 344.45Q360.64996 343.77814 360.64996 343.1844Q360.64996 342.5594 360.19684 342.1375Q359.7437 341.7 359.02496 341.7Q358.25934 341.7 357.8062 342.15314Q357.3531 342.60626 357.33746 343.41876L356.25934 343.3094Q356.3687 342.09064 357.08746 341.46564Q357.82184 340.825 359.0562 340.825Q360.2906 340.825 361.00934 341.5125Q361.7281 342.2 361.7281 343.21564Q361.7281 343.73126 361.50934 344.23126Q361.3062 344.71564 360.8062 345.27814Q360.32184 345.825 359.19684 346.77814Q358.2437 347.575 357.96246 347.8719Q357.69684 348.15314 357.52496 348.4344L361.7437 348.4344ZM367.1656 349.45L366.1187 349.45L366.1187 342.73126Q365.7281 343.09064 365.1031 343.46564Q364.4937 343.825 364.00934 343.9969L364.00934 342.98126Q364.88434 342.5594 365.5406 341.98126Q366.21246 341.3875 366.4937 340.825L367.1656 340.825L367.1656 349.45Z" fill-rule="nonzero"/><path fill="#000000" d="M432.13742 348.4344L432.13742 349.45L426.44992 349.45Q426.44992 349.075 426.57492 348.71564Q426.79367 348.1375 427.26242 347.575Q427.7468 347.0125 428.65305 346.27814Q430.0593 345.1219 430.54367 344.45Q431.04367 343.77814 431.04367 343.1844Q431.04367 342.5594 430.59055 342.1375Q430.13742 341.7 429.41867 341.7Q428.65305 341.7 428.19992 342.15314Q427.7468 342.60626 427.73117 343.41876L426.65305 343.3094Q426.76242 342.09064 427.48117 341.46564Q428.21555 340.825 429.44992 340.825Q430.6843 340.825 431.40305 341.5125Q432.1218 342.2 432.1218 343.21564Q432.1218 343.73126 431.90305 344.23126Q431.69992 344.71564 431.19992 345.27814Q430.71555 345.825 429.59055 346.77814Q428.63742 347.575 428.35617 347.8719Q428.09055 348.15314 427.91867 348.4344L432.13742 348.4344ZM433.59055 345.21564Q433.59055 343.6844 433.90305 342.7625Q434.21555 341.825 434.82492 341.325Q435.44992 340.825 436.38742 340.825Q437.07492 340.825 437.59055 341.10626Q438.1218 341.3875 438.46555 341.91876Q438.8093 342.4344 438.9968 343.1844Q439.1843 343.9344 439.1843 345.21564Q439.1843 346.73126 438.8718 347.65314Q438.57492 348.575 437.94992 349.09064Q437.34055 349.59064 436.38742 349.59064Q435.15305 349.59064 434.4343 348.7Q433.59055 347.6375 433.59055 345.21564ZM434.66867 345.21564Q434.66867 347.325 435.16867 348.02814Q435.66867 348.73126 436.38742 348.73126Q437.1218 348.73126 437.60617 348.02814Q438.10617 347.325 438.10617 345.21564Q438.10617 343.09064 437.60617 342.40314Q437.1218 341.7 436.3718 341.7Q435.65305 341.7 435.21555 342.3094Q434.66867 343.09064 434.66867 345.21564ZM446.13742 348.4344L446.13742 349.45L440.44992 349.45Q440.44992 349.075 440.57492 348.71564Q440.79367 348.1375 441.26242 347.575Q441.7468 347.0125 442.65305 346.27814Q444.0593 345.1219 444.54367 344.45Q445.04367 343.77814 445.04367 343.1844Q445.04367 342.5594 444.59055 342.1375Q444.13742 341.7 443.41867 341.7Q442.65305 341.7 442.19992 342.15314Q441.7468 342.60626 441.73117 343.41876L440.65305 343.3094Q440.76242 342.09064 441.48117 341.46564Q442.21555 340.825 443.44992 340.825Q444.6843 340.825 445.40305 341.5125Q446.1218 342.2 446.1218 343.21564Q446.1218 343.73126 445.90305 344.23126Q445.69992 344.71564 445.19992 345.27814Q444.71555 345.825 443.59055 346.77814Q442.63742 347.575 442.35617 347.8719Q442.09055 348.15314 441.91867 348.4344L446.13742 348.4344ZM453.13742 348.4344L453.13742 349.45L447.44992 349.45Q447.44992 349.075 447.57492 348.71564Q447.79367 348.1375 448.26242 347.575Q448.7468 347.0125 449.65305 346.27814Q451.0593 345.1219 451.54367 344.45Q452.04367 343.77814 452.04367 343.1844Q452.04367 342.5594 451.59055 342.1375Q451.13742 341.7 450.41867 341.7Q449.65305 341.7 449.19992 342.15314Q448.7468 342.60626 448.73117 343.41876L447.65305 343.3094Q447.76242 342.09064 448.48117 341.46564Q449.21555 340.825 450.44992 340.825Q451.6843 340.825 452.40305 341.5125Q453.1218 342.2 453.1218 343.21564Q453.1218 343.73126 452.90305 344.23126Q452.69992 344.71564 452.19992 345.27814Q451.71555 345.825 450.59055 346.77814Q449.63742 347.575 449.35617 347.8719Q449.09055 348.15314 448.91867 348.4344L453.13742 348.4344Z" fill-rule="nonzero"/><path fill="#000000" d="M516.5311 348.4344L516.5311 349.45L510.84363 349.45Q510.84363 349.075 510.96863 348.71564Q511.18738 348.1375 511.65613 347.575Q512.1405 347.0125 513.04675 346.27814Q514.453 345.1219 514.9374 344.45Q515.4374 343.77814 515.4374 343.1844Q515.4374 342.5594 514.98425 342.1375Q514.5311 341.7 513.8124 341.7Q513.04675 341.7 512.5936 342.15314Q512.1405 342.60626 512.1249 343.41876L511.04675 343.3094Q511.15613 342.09064 511.87488 341.46564Q512.60925 340.825 513.8436 340.825Q515.078 340.825 515.79675 341.5125Q516.5155 342.2 516.5155 343.21564Q516.5155 343.73126 516.29675 344.23126Q516.0936 344.71564 515.5936 345.27814Q515.10925 345.825 513.98425 346.77814Q513.0311 347.575 512.7499 347.8719Q512.48425 348.15314 512.3124 348.4344L516.5311 348.4344ZM517.98425 345.21564Q517.98425 343.6844 518.29675 342.7625Q518.60925 341.825 519.2186 341.325Q519.8436 340.825 520.7811 340.825Q521.4686 340.825 521.98425 341.10626Q522.5155 341.3875 522.85925 341.91876Q523.203 342.4344 523.3905 343.1844Q523.578 343.9344 523.578 345.21564Q523.578 346.73126 523.2655 347.65314Q522.9686 348.575 522.3436 349.09064Q521.73425 349.59064 520.7811 349.59064Q519.54675 349.59064 518.828 348.7Q517.98425 347.6375 517.98425 345.21564ZM519.0624 345.21564Q519.0624 347.325 519.5624 348.02814Q520.0624 348.73126 520.7811 348.73126Q521.5155 348.73126 521.9999 348.02814Q522.4999 347.325 522.4999 345.21564Q522.4999 343.09064 521.9999 342.40314Q521.5155 341.7 520.7655 341.7Q520.04675 341.7 519.60925 342.3094Q519.0624 343.09064 519.0624 345.21564ZM530.5311 348.4344L530.5311 349.45L524.8436 349.45Q524.8436 349.075 524.9686 348.71564Q525.1874 348.1375 525.6561 347.575Q526.1405 347.0125 527.04675 346.27814Q528.453 345.1219 528.9374 344.45Q529.4374 343.77814 529.4374 343.1844Q529.4374 342.5594 528.98425 342.1375Q528.5311 341.7 527.8124 341.7Q527.04675 341.7 526.5936 342.15314Q526.1405 342.60626 526.1249 343.41876L525.04675 343.3094Q525.1561 342.09064 525.8749 341.46564Q526.60925 340.825 527.8436 340.825Q529.078 340.825 529.79675 341.5125Q530.5155 342.2 530.5155 343.21564Q530.5155 343.73126 530.29675 344.23126Q530.0936 344.71564 529.5936 345.27814Q529.10925 345.825 527.98425 346.77814Q527.0311 347.575 526.7499 347.8719Q526.48425 348.15314 526.3124 348.4344L530.5311 348.4344ZM531.98425 347.1844L533.04675 347.04376Q533.2186 347.9344 533.6561 348.34064Q534.0936 348.73126 534.7186 348.73126Q535.4686 348.73126 535.98425 348.21564Q536.4999 347.7 536.4999 346.9344Q536.4999 346.21564 536.0155 345.7469Q535.54675 345.2625 534.8124 345.2625Q534.5155 345.2625 534.0624 345.3875L534.1874 344.45Q534.29675 344.46564 534.35925 344.46564Q535.0311 344.46564 535.5624 344.1219Q536.10925 343.7625 536.10925 343.02814Q536.10925 342.45 535.7186 342.075Q535.328 341.6844 534.703 341.6844Q534.0936 341.6844 533.67175 342.075Q533.2655 342.46564 533.1561 343.23126L532.0936 343.04376Q532.2811 341.9969 532.9686 341.41876Q533.6561 340.825 534.67175 340.825Q535.3749 340.825 535.9686 341.1375Q536.5624 341.4344 536.8749 341.95Q537.1874 342.46564 537.1874 343.0594Q537.1874 343.60626 536.8905 344.075Q536.5936 344.52814 536.0155 344.79376Q536.7655 344.96564 537.1874 345.52814Q537.60925 346.075 537.60925 346.91876Q537.60925 348.04376 536.7811 348.825Q535.9686 349.60626 534.7186 349.60626Q533.5936 349.60626 532.8436 348.9344Q532.0936 348.2469 531.98425 347.1844Z" fill-rule="nonzero"/><path fill="#757575" d="M20.096874 37.55L20.096874 23.2375L25.4875 23.2375Q26.925 23.2375 27.675 23.3625Q28.721874 23.55 29.440624 24.05Q30.159374 24.534374 30.58125 25.425Q31.01875 26.315624 31.01875 27.378124Q31.01875 29.20625 29.846874 30.471874Q28.690624 31.721874 25.659374 31.721874L21.9875 31.721874L21.9875 37.55L20.096874 37.55ZM21.9875 30.034374L25.690624 30.034374Q27.51875 30.034374 28.284374 29.3625Q29.065624 28.675 29.065624 27.425Q29.065624 26.534374 28.6125 25.89375Q28.159374 25.253124 27.425 25.05Q26.940624 24.925 25.64375 24.925L21.9875 24.925L21.9875 30.034374ZM39.64375 36.26875Q38.659374 37.096874 37.753124 37.440624Q36.846874 37.784374 35.815624 37.784374Q34.1125 37.784374 33.190624 36.95625Q32.26875 36.1125 32.26875 34.815624Q32.26875 34.05 32.6125 33.425Q32.971874 32.8 33.534374 32.425Q34.096874 32.034374 34.8 31.83125Q35.315624 31.70625 36.3625 31.565624Q38.4875 31.315624 39.4875 30.971874Q39.503124 30.6125 39.503124 30.503124Q39.503124 29.440624 39.003124 28.9875Q38.33125 28.39375 37.003124 28.39375Q35.753124 28.39375 35.159374 28.83125Q34.58125 29.26875 34.3 30.378124L32.58125 30.14375Q32.815624 29.034374 33.346874 28.3625Q33.878124 27.675 34.89375 27.315624Q35.909374 26.940624 37.253124 26.940624Q38.58125 26.940624 39.409374 27.253124Q40.2375 27.565624 40.628124 28.05Q41.01875 28.51875 41.175 29.2375Q41.26875 29.690624 41.26875 30.8625L41.26875 33.20625Q41.26875 35.659374 41.378124 36.315624Q41.4875 36.95625 41.83125 37.55L39.9875 37.55Q39.721874 37.003124 39.64375 36.26875ZM39.4875 32.346874Q38.534374 32.7375 36.6125 33.003124Q35.534374 33.159374 35.08125 33.3625Q34.64375 33.55 34.39375 33.925Q34.14375 34.3 34.14375 34.76875Q34.14375 35.471874 34.675 35.940624Q35.20625 36.409374 36.2375 36.409374Q37.253124 36.409374 38.034374 35.971874Q38.83125 35.51875 39.20625 34.753124Q39.4875 34.14375 39.4875 32.9875L39.4875 32.346874ZM43.8625 41.51875L43.8625 27.175L45.471874 27.175L45.471874 28.51875Q46.034374 27.7375 46.7375 27.346874Q47.45625 26.940624 48.471874 26.940624Q49.8 26.940624 50.815624 27.628124Q51.83125 28.315624 52.346874 29.565624Q52.878124 30.8 52.878124 32.284374Q52.878124 33.878124 52.3 35.159374Q51.7375 36.425 50.64375 37.1125Q49.55 37.784374 48.346874 37.784374Q47.471874 37.784374 46.76875 37.409374Q46.08125 37.034374 45.628124 36.471874L45.628124 41.51875L43.8625 41.51875ZM45.45625 32.425Q45.45625 34.425 46.26875 35.378124Q47.08125 36.33125 48.2375 36.33125Q49.409374 36.33125 50.2375 35.346874Q51.08125 34.3625 51.08125 32.26875Q51.08125 30.3 50.253124 29.315624Q49.440624 28.315624 48.315624 28.315624Q47.190624 28.315624 46.315624 29.378124Q45.45625 30.425 45.45625 32.425ZM61.971874 34.20625L63.784374 34.440624Q63.3625 36.01875 62.190624 36.909374Q61.034374 37.784374 59.221874 37.784374Q56.95625 37.784374 55.6125 36.39375Q54.284374 34.9875 54.284374 32.45625Q54.284374 29.83125 55.628124 28.39375Q56.971874 26.940624 59.128124 26.940624Q61.20625 26.940624 62.51875 28.3625Q63.846874 29.76875 63.846874 32.346874Q63.846874 32.503124 63.83125 32.815624L56.096874 32.815624Q56.190624 34.51875 57.065624 35.425Q57.940624 36.33125 59.2375 36.33125Q60.20625 36.33125 60.878124 35.83125Q61.565624 35.315624 61.971874 34.20625ZM56.190624 31.3625L61.9875 31.3625Q61.878124 30.065624 61.33125 29.409374Q60.4875 28.39375 59.14375 28.39375Q57.940624 28.39375 57.1125 29.20625Q56.284374 30.003124 56.190624 31.3625ZM65.84688 37.55L65.84688 27.175L67.425 27.175L67.425 28.753124Q68.03438 27.64375 68.55 27.3Q69.06563 26.940624 69.675 26.940624Q70.56563 26.940624 71.4875 27.503124L70.87813 29.14375Q70.2375 28.753124 69.59688 28.753124Q69.01875 28.753124 68.55 29.1125Q68.09688 29.45625 67.89375 30.065624Q67.6125 31.003124 67.6125 32.1125L67.6125 37.55L65.84688 37.55ZM72.15938 34.45625L73.90938 34.175Q74.05 35.221874 74.72188 35.784374Q75.39375 36.33125 76.59688 36.33125Q77.8 36.33125 78.37813 35.846874Q78.97188 35.346874 78.97188 34.690624Q78.97188 34.096874 78.45625 33.753124Q78.09688 33.51875 76.65938 33.159374Q74.72188 32.659374 73.97188 32.315624Q73.2375 31.95625 72.84688 31.33125Q72.45625 30.690624 72.45625 29.925Q72.45625 29.2375 72.76875 28.64375Q73.09688 28.05 73.64375 27.659374Q74.05 27.3625 74.75313 27.159374Q75.47188 26.940624 76.28438 26.940624Q77.50313 26.940624 78.425 27.3Q79.34688 27.64375 79.78438 28.253124Q80.22188 28.846874 80.39375 29.846874L78.675 30.08125Q78.55 29.284374 77.9875 28.846874Q77.425 28.39375 76.40938 28.39375Q75.19063 28.39375 74.675 28.8Q74.15938 29.190624 74.15938 29.721874Q74.15938 30.065624 74.37813 30.346874Q74.58125 30.628124 75.05 30.815624Q75.31563 30.909374 76.59688 31.253124Q78.47188 31.753124 79.20625 32.08125Q79.94063 32.39375 80.3625 33.003124Q80.78438 33.596874 80.78438 34.503124Q80.78438 35.378124 80.26875 36.159374Q79.75313 36.940624 78.78438 37.3625Q77.81563 37.784374 76.59688 37.784374Q74.58125 37.784374 73.51875 36.940624Q72.45625 36.096874 72.15938 34.45625ZM88.84688 37.55L88.84688 27.175L90.425 27.175L90.425 28.753124Q91.03438 27.64375 91.55 27.3Q92.06563 26.940624 92.675 26.940624Q93.56563 26.940624 94.4875 27.503124L93.87813 29.14375Q93.2375 28.753124 92.59688 28.753124Q92.01875 28.753124 91.55 29.1125Q91.09688 29.45625 90.89375 30.065624Q90.6125 31.003124 90.6125 32.1125L90.6125 37.55L88.84688 37.55ZM102.97188 34.20625L104.78438 34.440624Q104.3625 36.01875 103.19063 36.909374Q102.03438 37.784374 100.22188 37.784374Q97.95625 37.784374 96.6125 36.39375Q95.28438 34.9875 95.28438 32.45625Q95.28438 29.83125 96.62813 28.39375Q97.97188 26.940624 100.12813 26.940624Q102.20625 26.940624 103.51875 28.3625Q104.84688 29.76875 104.84688 32.346874Q104.84688 32.503124 104.83125 32.815624L97.09688 32.815624Q97.19063 34.51875 98.06563 35.425Q98.94063 36.33125 100.2375 36.33125Q101.20625 36.33125 101.87813 35.83125Q102.56563 35.315624 102.97188 34.20625ZM97.19063 31.3625L102.9875 31.3625Q102.87813 30.065624 102.33125 29.409374Q101.4875 28.39375 100.14375 28.39375Q98.94063 28.39375 98.1125 29.20625Q97.28438 30.003124 97.19063 31.3625ZM113.64375 36.26875Q112.65938 37.096874 111.75313 37.440624Q110.84688 37.784374 109.81563 37.784374Q108.1125 37.784374 107.19063 36.95625Q106.26875 36.1125 106.26875 34.815624Q106.26875 34.05 106.6125 33.425Q106.97188 32.8 107.53438 32.425Q108.09688 32.034374 108.8 31.83125Q109.31563 31.70625 110.3625 31.565624Q112.4875 31.315624 113.4875 30.971874Q113.50313 30.6125 113.50313 30.503124Q113.50313 29.440624 113.00313 28.9875Q112.33125 28.39375 111.00313 28.39375Q109.75313 28.39375 109.15938 28.83125Q108.58125 29.26875 108.3 30.378124L106.58125 30.14375Q106.81563 29.034374 107.34688 28.3625Q107.87813 27.675 108.89375 27.315624Q109.90938 26.940624 111.25313 26.940624Q112.58125 26.940624 113.40938 27.253124Q114.2375 27.565624 114.62813 28.05Q115.01875 28.51875 115.175 29.2375Q115.26875 29.690624 115.26875 30.8625L115.26875 33.20625Q115.26875 35.659374 115.37813 36.315624Q115.4875 36.95625 115.83125 37.55L113.9875 37.55Q113.72188 37.003124 113.64375 36.26875ZM113.4875 32.346874Q112.53438 32.7375 110.6125 33.003124Q109.53438 33.159374 109.08125 33.3625Q108.64375 33.55 108.39375 33.925Q108.14375 34.3 108.14375 34.76875Q108.14375 35.471874 108.675 35.940624Q109.20625 36.409374 110.2375 36.409374Q111.25313 36.409374 112.03438 35.971874Q112.83125 35.51875 113.20625 34.753124Q113.4875 34.14375 113.4875 32.9875L113.4875 32.346874ZM124.59688 37.55L124.59688 36.2375Q123.6125 37.784374 121.69063 37.784374Q120.45625 37.784374 119.40938 37.096874Q118.37813 36.409374 117.8 35.190624Q117.2375 33.971874 117.2375 32.378124Q117.2375 30.815624 117.75313 29.55Q118.26875 28.284374 119.3 27.6125Q120.34688 26.940624 121.6125 26.940624Q122.55 26.940624 123.28438 27.346874Q124.01875 27.7375 124.4875 28.3625L124.4875 23.2375L126.22188 23.2375L126.22188 37.55L124.59688 37.55ZM119.03438 32.378124Q119.03438 34.3625 119.87813 35.346874Q120.72188 36.33125 121.8625 36.33125Q123.01875 36.33125 123.81563 35.39375Q124.62813 34.45625 124.62813 32.51875Q124.62813 30.39375 123.8 29.39375Q122.9875 28.39375 121.78438 28.39375Q120.6125 28.39375 119.81563 29.3625Q119.03438 30.315624 119.03438 32.378124ZM141.97188 34.20625L143.78438 34.440624Q143.3625 36.01875 142.19063 36.909374Q141.03438 37.784374 139.22188 37.784374Q136.95625 37.784374 135.6125 36.39375Q134.28438 34.9875 134.28438 32.45625Q134.28438 29.83125 135.62813 28.39375Q136.97188 26.940624 139.12813 26.940624Q141.20625 26.940624 142.51875 28.3625Q143.84688 29.76875 143.84688 32.346874Q143.84688 32.503124 143.83125 32.815624L136.09688 32.815624Q136.19063 34.51875 137.06563 35.425Q137.94063 36.33125 139.2375 36.33125Q140.20625 36.33125 140.87813 35.83125Q141.56563 35.315624 141.97188 34.20625ZM136.19063 31.3625L141.9875 31.3625Q141.87813 30.065624 141.33125 29.409374Q140.4875 28.39375 139.14375 28.39375Q137.94063 28.39375 137.1125 29.20625Q136.28438 30.003124 136.19063 31.3625ZM152.64375 36.26875Q151.65938 37.096874 150.75313 37.440624Q149.84688 37.784374 148.81563 37.784374Q147.1125 37.784374 146.19063 36.95625Q145.26875 36.1125 145.26875 34.815624Q145.26875 34.05 145.6125 33.425Q145.97188 32.8 146.53438 32.425Q147.09688 32.034374 147.8 31.83125Q148.31563 31.70625 149.3625 31.565624Q151.4875 31.315624 152.4875 30.971874Q152.50313 30.6125 152.50313 30.503124Q152.50313 29.440624 152.00313 28.9875Q151.33125 28.39375 150.00313 28.39375Q148.75313 28.39375 148.15938 28.83125Q147.58125 29.26875 147.3 30.378124L145.58125 30.14375Q145.81563 29.034374 146.34688 28.3625Q146.87813 27.675 147.89375 27.315624Q148.90938 26.940624 150.25313 26.940624Q151.58125 26.940624 152.40938 27.253124Q153.2375 27.565624 153.62813 28.05Q154.01875 28.51875 154.175 29.2375Q154.26875 29.690624 154.26875 30.8625L154.26875 33.20625Q154.26875 35.659374 154.37813 36.315624Q154.4875 36.95625 154.83125 37.55L152.9875 37.55Q152.72188 37.003124 152.64375 36.26875ZM152.4875 32.346874Q151.53438 32.7375 149.6125 33.003124Q148.53438 33.159374 148.08125 33.3625Q147.64375 33.55 147.39375 33.925Q147.14375 34.3 147.14375 34.76875Q147.14375 35.471874 147.675 35.940624Q148.20625 36.409374 149.2375 36.409374Q150.25313 36.409374 151.03438 35.971874Q151.83125 35.51875 152.20625 34.753124Q152.4875 34.14375 152.4875 32.9875L152.4875 32.346874ZM163.64375 33.753124L165.3625 33.971874Q165.08125 35.76875 163.90938 36.784374Q162.75313 37.784374 161.05 37.784374Q158.925 37.784374 157.62813 36.39375Q156.33125 35.003124 156.33125 32.409374Q156.33125 30.721874 156.87813 29.471874Q157.44063 28.20625 158.58125 27.58125Q159.72188 26.940624 161.06563 26.940624Q162.75313 26.940624 163.81563 27.8Q164.89375 28.659374 165.20625 30.221874L163.4875 30.4875Q163.25313 29.440624 162.62813 28.925Q162.00313 28.39375 161.12813 28.39375Q159.8 28.39375 158.97188 29.346874Q158.14375 30.3 158.14375 32.346874Q158.14375 34.440624 158.94063 35.39375Q159.7375 36.33125 161.03438 36.33125Q162.06563 36.33125 162.75313 35.70625Q163.45625 35.065624 163.64375 33.753124ZM166.8625 37.55L166.8625 23.2375L168.62813 23.2375L168.62813 28.3625Q169.8625 26.940624 171.7375 26.940624Q172.87813 26.940624 173.72188 27.39375Q174.58125 27.846874 174.94063 28.659374Q175.31563 29.45625 175.31563 30.971874L175.31563 37.55L173.56563 37.55L173.56563 30.971874Q173.56563 29.659374 172.9875 29.065624Q172.40938 28.45625 171.37813 28.45625Q170.59688 28.45625 169.89375 28.8625Q169.20625 29.26875 168.90938 29.971874Q168.62813 30.659374 168.62813 31.878124L168.62813 37.55L166.8625 37.55ZM182.78438 41.55L182.59688 39.89375Q183.175 40.05 183.59688 40.05Q184.19063 40.05 184.53438 39.846874Q184.89375 39.659374 185.1125 39.315624Q185.28438 39.05 185.65938 38.003124Q185.70625 37.846874 185.81563 37.565624L181.87813 27.175L183.76875 27.175L185.925 33.190624Q186.34688 34.33125 186.675 35.58125Q186.9875 34.378124 187.39375 33.221874L189.6125 27.175L191.37813 27.175L187.425 37.721874Q186.8 39.440624 186.44063 40.08125Q185.97188 40.95625 185.3625 41.346874Q184.76875 41.753124 183.925 41.753124Q183.40938 41.753124 182.78438 41.55ZM199.97188 34.20625L201.78438 34.440624Q201.3625 36.01875 200.19063 36.909374Q199.03438 37.784374 197.22188 37.784374Q194.95625 37.784374 193.6125 36.39375Q192.28438 34.9875 192.28438 32.45625Q192.28438 29.83125 193.62813 28.39375Q194.97188 26.940624 197.12813 26.940624Q199.20625 26.940624 200.51875 28.3625Q201.84688 29.76875 201.84688 32.346874Q201.84688 32.503124 201.83125 32.815624L194.09688 32.815624Q194.19063 34.51875 195.06563 35.425Q195.94063 36.33125 197.2375 36.33125Q198.20625 36.33125 198.87813 35.83125Q199.56563 35.315624 199.97188 34.20625ZM194.19063 31.3625L199.9875 31.3625Q199.87813 30.065624 199.33125 29.409374Q198.4875 28.39375 197.14375 28.39375Q195.94063 28.39375 195.1125 29.20625Q194.28438 30.003124 194.19063 31.3625ZM210.64375 36.26875Q209.65938 37.096874 208.75313 37.440624Q207.84688 37.784374 206.81563 37.784374Q205.1125 37.784374 204.19063 36.95625Q203.26875 36.1125 203.26875 34.815624Q203.26875 34.05 203.6125 33.425Q203.97188 32.8 204.53438 32.425Q205.09688 32.034374 205.8 31.83125Q206.31563 31.70625 207.3625 31.565624Q209.4875 31.315624 210.4875 30.971874Q210.50313 30.6125 210.50313 30.503124Q210.50313 29.440624 210.00313 28.9875Q209.33125 28.39375 208.00313 28.39375Q206.75313 28.39375 206.15938 28.83125Q205.58125 29.26875 205.3 30.378124L203.58125 30.14375Q203.81563 29.034374 204.34688 28.3625Q204.87813 27.675 205.89375 27.315624Q206.90938 26.940624 208.25313 26.940624Q209.58125 26.940624 210.40938 27.253124Q211.2375 27.565624 211.62813 28.05Q212.01875 28.51875 212.175 29.2375Q212.26875 29.690624 212.26875 30.8625L212.26875 33.20625Q212.26875 35.659374 212.37813 36.315624Q212.4875 36.95625 212.83125 37.55L210.9875 37.55Q210.72188 37.003124 210.64375 36.26875ZM210.4875 32.346874Q209.53438 32.7375 207.6125 33.003124Q206.53438 33.159374 206.08125 33.3625Q205.64375 33.55 205.39375 33.925Q205.14375 34.3 205.14375 34.76875Q205.14375 35.471874 205.675 35.940624Q206.20625 36.409374 207.2375 36.409374Q208.25313 36.409374 209.03438 35.971874Q209.83125 35.51875 210.20625 34.753124Q210.4875 34.14375 210.4875 32.9875L210.4875 32.346874ZM214.84688 37.55L214.84688 27.175L216.425 27.175L216.425 28.753124Q217.03438 27.64375 217.55 27.3Q218.06563 26.940624 218.675 26.940624Q219.56563 26.940624 220.4875 27.503124L219.87813 29.14375Q219.2375 28.753124 218.59688 28.753124Q218.01875 28.753124 217.55 29.1125Q217.09688 29.45625 216.89375 30.065624Q216.6125 31.003124 216.6125 32.1125L216.6125 37.55L214.84688 37.55Z" fill-rule="nonzero"/></svg>