<svg version="1.1" viewBox="0.0 0.0 600.0 371.0" fill="none" stroke="none" stroke-linecap="square" stroke-miterlimit="10" width="600" height="371" xmlns:xlink="http://www.w3.org/1999/xlink" xmlns="http://www.w3.org/2000/svg"><path fill="#ffffff" d="M0 0L600.0 0L600.0 371.0L0 371.0L0 0Z" fill-rule="nonzero"/><path stroke="#333333" stroke-width="1.0" stroke-linecap="butt" d="M45.5 291.5L581.5 291.5" fill-rule="nonzero"/><path stroke="#cccccc" stroke-width="1.0" stroke-linecap="butt" d="M45.5 233.5L581.5 233.5" fill-rule="nonzero"/><path stroke="#cccccc" stroke-width="1.0" stroke-linecap="butt" d="M45.5 176.5L581.5 176.5" fill-rule="nonzero"/><path stroke="#cccccc" stroke-width="1.0" stroke-linecap="butt" d="M45.5 119.5L581.5 119.5" fill-rule="nonzero"/><path stroke="#cccccc" stroke-width="1.0" stroke-linecap="butt" d="M45.5 61.5L581.5 61.5" fill-rule="nonzero"/><clipPath id="id_0"><path d="M45.55 61.916668L581.45 61.916668L581.45 291.2957L45.55 291.2957L45.55 61.916668Z" clip-rule="nonzero"/></clipPath><path stroke="#000000" stroke-width="2.0" stroke-linecap="butt" stroke-opacity="0.0" clip-path="url(#id_0)" d="M86.0 291.0L60.0 291.0L60.0 118.0C60.0 116.89543 60.89543 116.0 62.0 116.0L84.0 116.0C85.10457 116.0 86.0 116.89543 86.0 118.0Z" fill-rule="nonzero"/><path fill="#5891ad" clip-path="url(#id_0)" d="M86.0 291.0L60.0 291.0L60.0 118.0C60.0 116.89543 60.89543 116.0 62.0 116.0L84.0 116.0C85.10457 116.0 86.0 116.89543 86.0 118.0Z" fill-rule="nonzero"/><path stroke="#000000" stroke-width="2.0" stroke-linecap="butt" stroke-opacity="0.0" clip-path="url(#id_0)" d="M126.0 291.0L100.0 291.0L100.0 147.0C100.0 145.89543 100.89543 145.0 102.0 145.0L124.0 145.0C125.10457 145.0 126.0 145.89543 126.0 147.0Z" fill-rule="nonzero"/><path fill="#5891ad" clip-path="url(#id_0)" d="M126.0 291.0L100.0 291.0L100.0 147.0C100.0 145.89543 100.89543 145.0 102.0 145.0L124.0 145.0C125.10457 145.0 126.0 145.89543 126.0 147.0Z" fill-rule="nonzero"/><path stroke="#000000" stroke-width="2.0" stroke-linecap="butt" stroke-opacity="0.0" clip-path="url(#id_0)" d="M166.0 291.0L140.0 291.0L140.0 179.0C140.0 177.89543 140.89543 177.0 142.0 177.0L164.0 177.0C165.10457 177.0 166.0 177.89543 166.0 179.0Z" fill-rule="nonzero"/><path fill="#5891ad" clip-path="url(#id_0)" d="M166.0 291.0L140.0 291.0L140.0 179.0C140.0 177.89543 140.89543 177.0 142.0 177.0L164.0 177.0C165.10457 177.0 166.0 177.89543 166.0 179.0Z" fill-rule="nonzero"/><path stroke="#000000" stroke-width="2.0" stroke-linecap="butt" stroke-opacity="0.0" clip-path="url(#id_0)" d="M206.0 291.0L180.0 291.0L180.0 227.0C180.0 225.89543 180.89543 225.0 182.0 225.0L204.0 225.0C205.10457 225.0 206.0 225.89543 206.0 227.0Z" fill-rule="nonzero"/><path fill="#5891ad" clip-path="url(#id_0)" d="M206.0 291.0L180.0 291.0L180.0 227.0C180.0 225.89543 180.89543 225.0 182.0 225.0L204.0 225.0C205.10457 225.0 206.0 225.89543 206.0 227.0Z" fill-rule="nonzero"/><path stroke="#000000" stroke-width="2.0" stroke-linecap="butt" stroke-opacity="0.0" clip-path="url(#id_0)" d="M246.0 291.0L220.0 291.0L220.0 262.0C220.0 260.89542 220.89543 260.0 222.0 260.0L244.0 260.0C245.10457 260.0 246.0 260.89542 246.0 262.0Z" fill-rule="nonzero"/><path fill="#5891ad" clip-path="url(#id_0)" d="M246.0 291.0L220.0 291.0L220.0 262.0C220.0 260.89542 220.89543 260.0 222.0 260.0L244.0 260.0C245.10457 260.0 246.0 260.89542 246.0 262.0Z" fill-rule="nonzero"/><path stroke="#000000" stroke-width="2.0" stroke-linecap="butt" stroke-opacity="0.0" clip-path="url(#id_0)" d="M286.0 291.0L260.0 291.0L260.0 279.0C260.0 277.89542 260.89542 277.0 262.0 277.0L284.0 277.0C285.10458 277.0 286.0 277.89542 286.0 279.0Z" fill-rule="nonzero"/><path fill="#5891ad" clip-path="url(#id_0)" d="M286.0 291.0L260.0 291.0L260.0 279.0C260.0 277.89542 260.89542 277.0 262.0 277.0L284.0 277.0C285.10458 277.0 286.0 277.89542 286.0 279.0Z" fill-rule="nonzero"/><path stroke="#000000" stroke-width="2.0" stroke-linecap="butt" stroke-opacity="0.0" clip-path="url(#id_0)" d="M327.0 291.0L301.0 291.0L301.0 279.0C301.0 277.89542 301.89542 277.0 303.0 277.0L325.0 277.0C326.10458 277.0 327.0 277.89542 327.0 279.0Z" fill-rule="nonzero"/><path fill="#5891ad" clip-path="url(#id_0)" d="M327.0 291.0L301.0 291.0L301.0 279.0C301.0 277.89542 301.89542 277.0 303.0 277.0L325.0 277.0C326.10458 277.0 327.0 277.89542 327.0 279.0Z" fill-rule="nonzero"/><path stroke="#000000" stroke-width="2.0" stroke-linecap="butt" stroke-opacity="0.0" clip-path="url(#id_0)" d="M367.0 291.0L341.0 291.0L341.0 279.0C341.0 277.89542 341.89542 277.0 343.0 277.0L365.0 277.0C366.10458 277.0 367.0 277.89542 367.0 279.0Z" fill-rule="nonzero"/><path fill="#5891ad" clip-path="url(#id_0)" d="M367.0 291.0L341.0 291.0L341.0 279.0C341.0 277.89542 341.89542 277.0 343.0 277.0L365.0 277.0C366.10458 277.0 367.0 277.89542 367.0 279.0Z" fill-rule="nonzero"/><path stroke="#000000" stroke-width="2.0" stroke-linecap="butt" stroke-opacity="0.0" clip-path="url(#id_0)" d="M407.0 291.0L381.0 291.0L381.0 282.0C381.0 280.89542 381.89542 280.0 383.0 280.0L405.0 280.0C406.10458 280.0 407.0 280.89542 407.0 282.0Z" fill-rule="nonzero"/><path fill="#5891ad" clip-path="url(#id_0)" d="M407.0 291.0L381.0 291.0L381.0 282.0C381.0 280.89542 381.89542 280.0 383.0 280.0L405.0 280.0C406.10458 280.0 407.0 280.89542 407.0 282.0Z" fill-rule="nonzero"/><path stroke="#000000" stroke-width="2.0" stroke-linecap="butt" stroke-opacity="0.0" clip-path="url(#id_0)" d="M447.0 291.0L421.0 291.0L421.0 282.0C421.0 280.89542 421.89542 280.0 423.0 280.0L445.0 280.0C446.10458 280.0 447.0 280.89542 447.0 282.0Z" fill-rule="nonzero"/><path fill="#5891ad" clip-path="url(#id_0)" d="M447.0 291.0L421.0 291.0L421.0 282.0C421.0 280.89542 421.89542 280.0 423.0 280.0L445.0 280.0C446.10458 280.0 447.0 280.89542 447.0 282.0Z" fill-rule="nonzero"/><path stroke="#000000" stroke-width="2.0" stroke-linecap="butt" stroke-opacity="0.0" clip-path="url(#id_0)" d="M487.0 291.0L461.0 291.0L461.0 285.0C461.0 283.89542 461.89542 283.0 463.0 283.0L485.0 283.0C486.10458 283.0 487.0 283.89542 487.0 285.0Z" fill-rule="nonzero"/><path fill="#5891ad" clip-path="url(#id_0)" d="M487.0 291.0L461.0 291.0L461.0 285.0C461.0 283.89542 461.89542 283.0 463.0 283.0L485.0 283.0C486.10458 283.0 487.0 283.89542 487.0 285.0Z" fill-rule="nonzero"/><path stroke="#000000" stroke-width="2.0" stroke-linecap="butt" stroke-opacity="0.0" clip-path="url(#id_0)" d="M527.0 291.0L501.0 291.0L501.0 285.0C501.0 283.89542 501.89542 283.0 503.0 283.0L525.0 283.0C526.10455 283.0 527.0 283.89542 527.0 285.0Z" fill-rule="nonzero"/><path fill="#5891ad" clip-path="url(#id_0)" d="M527.0 291.0L501.0 291.0L501.0 285.0C501.0 283.89542 501.89542 283.0 503.0 283.0L525.0 283.0C526.10455 283.0 527.0 283.89542 527.0 285.0Z" fill-rule="nonzero"/><path stroke="#000000" stroke-width="2.0" stroke-linecap="butt" stroke-opacity="0.0" clip-path="url(#id_0)" d="M567.0 291.0L541.0 291.0L541.0 285.0C541.0 283.89542 541.89545 283.0 543.0 283.0L565.0 283.0C566.10455 283.0 567.0 283.89542 567.0 285.0Z" fill-rule="nonzero"/><path fill="#5891ad" clip-path="url(#id_0)" d="M567.0 291.0L541.0 291.0L541.0 285.0C541.0 283.89542 541.89545 283.0 543.0 283.0L565.0 283.0C566.10455 283.0 567.0 283.89542 567.0 285.0Z" fill-rule="nonzero"/><path fill="#000000" d="M33.05 291.0613Q33.05 289.53006 33.3625 288.6082Q33.675 287.6707 34.284374 287.1707Q34.909374 286.6707 35.846874 286.6707Q36.534374 286.6707 37.05 286.95193Q37.58125 287.2332 37.925 287.76443Q38.26875 288.28006 38.45625 289.03006Q38.64375 289.78006 38.64375 291.0613Q38.64375 292.57693 38.33125 293.4988Q38.034374 294.4207 37.409374 294.9363Q36.8 295.4363 35.846874 295.4363Q34.6125 295.4363 33.89375 294.5457Q33.05 293.4832 33.05 291.0613ZM34.128124 291.0613Q34.128124 293.1707 34.628124 293.8738Q35.128124 294.57693 35.846874 294.57693Q36.58125 294.57693 37.065624 293.8738Q37.565624 293.1707 37.565624 291.0613Q37.565624 288.9363 37.065624 288.2488Q36.58125 287.5457 35.83125 287.5457Q35.1125 287.5457 34.675 288.15506Q34.128124 288.9363 34.128124 291.0613Z" fill-rule="nonzero"/><path fill="#000000" d="M31.596874 236.93529L31.596874 237.95091L25.909374 237.95091Q25.909374 237.57591 26.034374 237.21654Q26.253124 236.63841 26.721874 236.07591Q27.20625 235.51341 28.1125 234.77904Q29.51875 233.62279 30.003124 232.95091Q30.503124 232.27904 30.503124 231.68529Q30.503124 231.06029 30.05 230.63841Q29.596874 230.20091 28.878124 230.20091Q28.1125 230.20091 27.659374 230.65404Q27.20625 231.10716 27.190624 231.91966L26.1125 231.81029Q26.221874 230.59154 26.940624 229.96654Q27.675 229.32591 28.909374 229.32591Q30.14375 229.32591 30.8625 230.01341Q31.58125 230.70091 31.58125 231.71654Q31.58125 232.23216 31.3625 232.73216Q31.159374 233.21654 30.659374 233.77904Q30.175 234.32591 29.05 235.27904Q28.096874 236.07591 27.815624 236.37279Q27.55 236.65404 27.378124 236.93529L31.596874 236.93529ZM33.05 233.71654Q33.05 232.18529 33.3625 231.26341Q33.675 230.32591 34.284374 229.82591Q34.909374 229.32591 35.846874 229.32591Q36.534374 229.32591 37.05 229.60716Q37.58125 229.88841 37.925 230.41966Q38.26875 230.93529 38.45625 231.68529Q38.64375 232.43529 38.64375 233.71654Q38.64375 235.23216 38.33125 236.15404Q38.034374 237.07591 37.409374 237.59154Q36.8 238.09154 35.846874 238.09154Q34.6125 238.09154 33.89375 237.20091Q33.05 236.13841 33.05 233.71654ZM34.128124 233.71654Q34.128124 235.82591 34.628124 236.52904Q35.128124 237.23216 35.846874 237.23216Q36.58125 237.23216 37.065624 236.52904Q37.565624 235.82591 37.565624 233.71654Q37.565624 231.59154 37.065624 230.90404Q36.58125 230.20091 35.83125 230.20091Q35.1125 230.20091 34.675 230.81029Q34.128124 231.59154 34.128124 233.71654Z" fill-rule="nonzero"/><path fill="#000000" d="M29.425 180.60617L29.425 178.54367L25.70625 178.54367L25.70625 177.57492L29.628124 172.01242L30.4875 172.01242L30.4875 177.57492L31.64375 177.57492L31.64375 178.54367L30.4875 178.54367L30.4875 180.60617L29.425 180.60617ZM29.425 177.57492L29.425 173.71555L26.7375 177.57492L29.425 177.57492ZM33.05 176.3718Q33.05 174.84055 33.3625 173.91867Q33.675 172.98117 34.284374 172.48117Q34.909374 171.98117 35.846874 171.98117Q36.534374 171.98117 37.05 172.26242Q37.58125 172.54367 37.925 173.07492Q38.26875 173.59055 38.45625 174.34055Q38.64375 175.09055 38.64375 176.3718Q38.64375 177.88742 38.33125 178.8093Q38.034374 179.73117 37.409374 180.2468Q36.8 180.7468 35.846874 180.7468Q34.6125 180.7468 33.89375 179.85617Q33.05 178.79367 33.05 176.3718ZM34.128124 176.3718Q34.128124 178.48117 34.628124 179.1843Q35.128124 179.88742 35.846874 179.88742Q36.58125 179.88742 37.065624 179.1843Q37.565624 178.48117 37.565624 176.3718Q37.565624 174.2468 37.065624 173.5593Q36.58125 172.85617 35.83125 172.85617Q35.1125 172.85617 34.675 173.46555Q34.128124 174.2468 34.128124 176.3718Z" fill-rule="nonzero"/><path fill="#000000" d="M31.51875 116.77705L30.471874 116.85517Q30.33125 116.23017 30.08125 115.94892Q29.64375 115.4958 29.01875 115.4958Q28.51875 115.4958 28.128124 115.77705Q27.64375 116.15205 27.346874 116.85517Q27.065624 117.54267 27.05 118.82392Q27.425 118.2458 27.971874 117.96455Q28.534374 117.6833 29.14375 117.6833Q30.190624 117.6833 30.925 118.46455Q31.675 119.2458 31.675 120.46455Q31.675 121.27705 31.315624 121.98017Q30.971874 122.66767 30.3625 123.04267Q29.753124 123.40205 28.9875 123.40205Q27.659374 123.40205 26.83125 122.4333Q26.003124 121.46455 26.003124 119.2458Q26.003124 116.7458 26.925 115.6208Q27.721874 114.63642 29.08125 114.63642Q30.096874 114.63642 30.7375 115.21455Q31.39375 115.77705 31.51875 116.77705ZM27.221874 120.48017Q27.221874 121.02705 27.440624 121.52705Q27.675 122.01142 28.08125 122.27705Q28.503124 122.54267 28.971874 122.54267Q29.628124 122.54267 30.1125 122.01142Q30.596874 121.46455 30.596874 120.54267Q30.596874 119.65205 30.1125 119.13642Q29.64375 118.6208 28.925 118.6208Q28.20625 118.6208 27.70625 119.13642Q27.221874 119.65205 27.221874 120.48017ZM33.05 119.02705Q33.05 117.4958 33.3625 116.57392Q33.675 115.63642 34.284374 115.13642Q34.909374 114.63642 35.846874 114.63642Q36.534374 114.63642 37.05 114.91767Q37.58125 115.19892 37.925 115.73017Q38.26875 116.2458 38.45625 116.9958Q38.64375 117.7458 38.64375 119.02705Q38.64375 120.54267 38.33125 121.46455Q38.034374 122.38642 37.409374 122.90205Q36.8 123.40205 35.846874 123.40205Q34.6125 123.40205 33.89375 122.51142Q33.05 121.44892 33.05 119.02705ZM34.128124 119.02705Q34.128124 121.13642 34.628124 121.83955Q35.128124 122.54267 35.846874 122.54267Q36.58125 122.54267 37.065624 121.83955Q37.565624 121.13642 37.565624 119.02705Q37.565624 116.90205 37.065624 116.21455Q36.58125 115.51142 35.83125 115.51142Q35.1125 115.51142 34.675 116.1208Q34.128124 116.90205 34.128124 119.02705Z" fill-rule="nonzero"/><path fill="#000000" d="M27.675 61.260414Q27.01875 61.010414 26.690624 60.572914Q26.378124 60.11979 26.378124 59.510414Q26.378124 58.572914 27.05 57.93229Q27.7375 57.291664 28.846874 57.291664Q29.971874 57.291664 30.659374 57.947914Q31.346874 58.604164 31.346874 59.541664Q31.346874 60.135414 31.034374 60.572914Q30.721874 61.010414 30.08125 61.260414Q30.878124 61.510414 31.284374 62.08854Q31.690624 62.666664 31.690624 63.46354Q31.690624 64.55729 30.909374 65.30729Q30.14375 66.05729 28.8625 66.05729Q27.596874 66.05729 26.815624 65.30729Q26.034374 64.55729 26.034374 63.43229Q26.034374 62.58854 26.45625 62.02604Q26.89375 61.46354 27.675 61.260414ZM27.45625 59.46354Q27.45625 60.072914 27.846874 60.46354Q28.253124 60.854164 28.878124 60.854164Q29.4875 60.854164 29.878124 60.479164Q30.26875 60.08854 30.26875 59.52604Q30.26875 58.947914 29.8625 58.55729Q29.45625 58.15104 28.8625 58.15104Q28.253124 58.15104 27.846874 58.541664Q27.45625 58.93229 27.45625 59.46354ZM27.128124 63.43229Q27.128124 63.885414 27.33125 64.30729Q27.55 64.729164 27.971874 64.96354Q28.39375 65.197914 28.878124 65.197914Q29.628124 65.197914 30.1125 64.71354Q30.6125 64.229164 30.6125 63.479164Q30.6125 62.71354 30.1125 62.21354Q29.6125 61.71354 28.846874 61.71354Q28.096874 61.71354 27.6125 62.21354Q27.128124 62.697914 27.128124 63.43229ZM33.05 61.68229Q33.05 60.15104 33.3625 59.229164Q33.675 58.291664 34.284374 57.791664Q34.909374 57.291664 35.846874 57.291664Q36.534374 57.291664 37.05 57.572914Q37.58125 57.854164 37.925 58.385414Q38.26875 58.90104 38.45625 59.65104Q38.64375 60.40104 38.64375 61.68229Q38.64375 63.197914 38.33125 64.11979Q38.034374 65.041664 37.409374 65.55729Q36.8 66.05729 35.846874 66.05729Q34.6125 66.05729 33.89375 65.166664Q33.05 64.104164 33.05 61.68229ZM34.128124 61.68229Q34.128124 63.791664 34.628124 64.49479Q35.128124 65.197914 35.846874 65.197914Q36.58125 65.197914 37.065624 64.49479Q37.565624 63.791664 37.565624 61.68229Q37.565624 59.55729 37.065624 58.86979Q36.58125 58.166664 35.83125 58.166664Q35.1125 58.166664 34.675 58.77604Q34.128124 59.55729 34.128124 61.68229Z" fill-rule="nonzero"/><path fill="#000000" d="M48.549187 336.94888L42.47249 330.8722L43.29008 330.0546L51.25608 331.63455L46.48311 326.86157L47.256508 326.08817L53.333206 332.16486L52.504566 332.9935L44.538567 331.41357L49.311535 336.18655L48.549187 336.94888ZM56.415752 326.2539L57.27754 325.56888Q57.774723 326.41962 57.65319 327.29245Q57.531654 328.16528 56.769306 328.92764Q55.808083 329.88885 54.636936 329.86676Q53.47684 329.83362 52.405132 328.7619Q51.300278 327.65707 51.26713 326.47485Q51.22294 325.28162 52.128918 324.37564Q53.012802 323.49176 54.16185 323.53595Q55.321945 323.5691 56.415752 324.6629Q56.482044 324.7292 56.614628 324.8618L53.33321 328.1432Q54.106606 328.82822 54.857906 328.8503Q55.59816 328.86136 56.15059 328.30893Q56.559383 327.90012 56.636723 327.40295Q56.71406 326.88367 56.415752 326.2539ZM52.769733 327.49133L55.22251 325.03854Q54.61484 324.5193 54.106606 324.47507Q53.31111 324.40878 52.747635 324.97226Q52.228355 325.49155 52.217304 326.1876Q52.217304 326.87262 52.769733 327.49133ZM62.65818 322.8399L62.006317 322.18802Q62.238335 323.45862 61.35445 324.3425Q60.96775 324.7292 60.481617 324.92807Q59.99548 325.10486 59.60878 325.0496Q59.211033 324.9833 58.813286 324.71814Q58.55917 324.55243 58.073032 324.06628L55.35509 321.34833L56.10639 320.59705L58.548122 323.03876Q59.122646 323.61328 59.376762 323.77902Q59.730316 324.0 60.128063 323.9558Q60.52581 323.8895 60.868317 323.547Q61.19977 323.21555 61.321304 322.76254Q61.44284 322.28748 61.266064 321.8676Q61.100334 321.43674 60.536858 320.87326L58.183517 318.51993L58.92377 317.77966L63.32109 322.17697L62.65818 322.8399ZM64.71321 320.78488L60.315887 316.38754L60.98985 315.7136L61.652763 316.3765Q61.44284 315.65836 61.509132 315.30478Q61.57542 314.92914 61.840588 314.66397Q62.216236 314.28833 62.834957 314.13364L63.276897 315.08383Q62.834957 315.1943 62.56979 315.45947Q62.315674 315.7136 62.27148 316.06714Q62.227287 316.3986 62.41511 316.7411Q62.680275 317.27142 63.144314 317.73547L65.45346 320.04462L64.71321 320.78488ZM67.784706 317.71338L61.708004 311.63666L62.503498 310.8412L68.5802 316.91788L67.784706 317.71338ZM69.76239 315.7357L63.685696 309.659L65.98379 307.3609Q66.580414 306.76425 66.95606 306.4991Q67.48639 306.12344 67.99463 306.03506Q68.51391 305.93564 69.06634 306.1345Q69.629814 306.32233 70.0828 306.7753Q70.8562 307.5487 70.90039 308.58728Q70.94459 309.60373 69.65191 310.89642L68.09406 312.45425L70.56894 314.92914L69.76239 315.7357ZM67.386955 311.74716L68.95585 310.17825Q69.740295 309.39383 69.773445 308.78616Q69.80659 308.15637 69.27626 307.62604Q68.900604 307.2504 68.43657 307.1841Q67.97253 307.09573 67.57478 307.31668Q67.309616 307.47137 66.768234 308.01276L65.210396 309.5706L67.386955 311.74716ZM73.19849 308.3884L73.8835 307.5708Q74.40278 307.9796 74.888916 308.068Q75.37505 308.15637 75.97167 307.93542Q76.5683 307.69235 77.08758 307.17307Q77.540565 306.72006 77.761536 306.23395Q77.97146 305.73676 77.90517 305.339Q77.838875 304.91916 77.56267 304.64294Q77.275406 304.35568 76.89975 304.3115Q76.513054 304.25626 75.993774 304.48825Q75.64022 304.64294 74.601654 305.28375Q73.57414 305.9135 73.06591 306.0682Q72.391945 306.27814 71.85057 306.1566Q71.29814 306.02402 70.878296 305.60416Q70.42531 305.15118 70.28168 304.49933Q70.13805 303.82535 70.436356 303.1293Q70.734665 302.41113 71.34233 301.80347Q72.0163 301.12952 72.756546 300.8312Q73.48575 300.52185 74.192856 300.6765Q74.888916 300.82016 75.441345 301.32837L74.72319 302.157Q74.082375 301.6488 73.43051 301.72614Q72.77865 301.78137 72.08259 302.47742Q71.353386 303.20663 71.287094 303.80325Q71.2208 304.39987 71.59645 304.7755Q71.92791 305.107 72.36985 305.0849Q72.81179 305.06277 74.005035 304.3115Q75.20933 303.54913 75.739655 303.35025Q76.5241 303.07407 77.15387 303.1956Q77.77259 303.30606 78.26977 303.80325Q78.755905 304.2894 78.91058 304.9965Q79.054214 305.69257 78.77801 306.4549Q78.490746 307.2062 77.838875 307.85806Q77.01024 308.6867 76.214745 309.01816Q75.41925 309.3275 74.6127 309.1618Q73.81721 308.98502 73.19849 308.3884Z" fill-rule="nonzero"/><path fill="#000000" d="M101.563065 324.07733L95.48637 318.00064L96.28186 317.20514L102.35856 323.28183L101.563065 324.07733ZM105.75046 315.6252L106.755875 315.0396Q107.485085 316.27707 107.3525 317.4482Q107.21992 318.61935 106.269745 319.56952Q105.28642 320.55286 104.26996 320.77383Q103.25349 320.99478 102.18178 320.5639Q101.09902 320.12195 100.22619 319.2491Q99.27602 318.29895 98.93351 317.22723Q98.591 316.15552 98.88931 315.12802Q99.19868 314.08945 100.00522 313.2829Q100.9112 312.37692 101.99396 312.22226Q103.08776 312.05652 104.17052 312.65314L103.56285 313.63647Q102.69001 313.18347 101.98291 313.29395Q101.2758 313.38235 100.66813 313.99002Q99.97207 314.68607 99.83949 315.50366Q99.70691 316.29916 100.07151 317.06152Q100.44716 317.8128 101.05483 318.42047Q101.828224 319.19388 102.623726 319.54742Q103.43027 319.88992 104.19262 319.70212Q104.95496 319.51428 105.51844 318.9508Q106.192406 318.27686 106.269745 317.42612Q106.35813 316.56433 105.75046 315.6252ZM109.87157 315.76883L103.79487 309.69214L104.60141 308.8856L109.95995 314.24414L112.95411 311.24997L113.672264 311.96814L109.87157 315.76883ZM114.86551 310.7749L108.78881 304.69818L111.48466 302.00235Q112.302246 301.18475 112.88782 300.93063Q113.47339 300.6765 114.147354 300.84225Q114.810265 300.99692 115.30745 301.4941Q115.95931 302.14597 115.981415 303.00775Q116.00351 303.86954 115.252205 304.86392Q115.727295 304.69818 116.03665 304.6761Q116.71062 304.64294 117.50611 304.81973L120.22405 305.41635L119.20759 306.4328L117.15256 305.96878Q116.246574 305.7699 115.727295 305.71466Q115.21906 305.64838 114.92075 305.7257Q114.622444 305.78094 114.37937 305.91354Q114.22469 306.02402 113.91534 306.33337L112.976204 307.2725L115.67205 309.96835L114.86551 310.7749ZM112.28015 306.57645L114.01477 304.84183Q114.55615 304.30045 114.75502 303.88058Q114.953896 303.43866 114.86551 303.0409Q114.77712 302.62106 114.47881 302.32275Q114.04791 301.89185 113.451294 301.93607Q112.86572 301.9692 112.191765 302.64316L110.26932 304.5656L112.28015 306.57645Z" fill-rule="nonzero"/><path fill="#000000" d="M141.70538 324.07733L135.62868 318.00064L136.42418 317.20514L142.50087 323.28183L141.70538 324.07733ZM145.89278 315.6252L146.8982 315.03964Q147.6274 316.27707 147.49481 317.4482Q147.36224 318.61935 146.41206 319.56952Q145.42874 320.55286 144.41228 320.77383Q143.39581 320.99478 142.3241 320.5639Q141.24135 320.12195 140.36852 319.2491Q139.41833 318.29895 139.07584 317.22723Q138.73332 316.15552 139.03163 315.12802Q139.34099 314.08945 140.14754 313.2829Q141.05351 312.37692 142.13628 312.22226Q143.23009 312.05652 144.31284 312.65314L143.70517 313.63647Q142.83234 313.18347 142.12523 313.29395Q141.41812 313.38235 140.81046 313.99002Q140.1144 314.68607 139.98181 315.50366Q139.84923 316.29916 140.21382 317.06152Q140.58948 317.8128 141.19714 318.42047Q141.97055 319.19388 142.76604 319.54742Q143.57259 319.88995 144.33493 319.70212Q145.09729 319.51428 145.66077 318.9508Q146.33472 318.27686 146.41206 317.42612Q146.50044 316.56433 145.89278 315.6252ZM150.02493 315.75778L143.94824 309.6811L145.16357 308.46576L150.89777 311.32733Q151.70432 311.7361 152.09102 311.94604Q151.859 311.51514 151.43915 310.65335L148.66597 304.96335L149.74872 303.88058L155.82542 309.9573L155.05202 310.73068L149.9697 305.64838L153.28426 312.49847L152.55505 313.22766L145.62761 309.81366L150.79834 314.98438L150.02493 315.75778ZM156.37785 309.40488L150.30115 303.3282L151.1077 302.52164L156.46623 307.88016L159.46039 304.88602L160.17854 305.6042L156.37785 309.40488Z" fill-rule="nonzero"/><path fill="#000000" d="M180.37825 321.28204L181.38367 320.69647Q182.11288 321.9339 181.9803 323.10507Q181.84772 324.2762 180.89754 325.22638Q179.91422 326.2097 178.89775 326.43066Q177.88129 326.65164 176.80957 326.22073Q175.72682 325.7788 174.85399 324.90598Q173.90381 323.95578 173.56131 322.8841Q173.2188 321.81238 173.5171 320.78485Q173.82648 319.7463 174.63301 318.93976Q175.539 318.03378 176.62175 317.8791Q177.71556 317.71338 178.79831 318.31L178.19064 319.2933Q177.31781 318.84033 176.6107 318.9508Q175.9036 319.03918 175.29593 319.64685Q174.59987 320.34293 174.46729 321.16052Q174.3347 321.956 174.69931 322.71835Q175.07495 323.46967 175.68263 324.07733Q176.45602 324.85074 177.25153 325.20428Q178.05806 325.54678 178.8204 325.35895Q179.58276 325.17114 180.14624 324.60767Q180.82019 323.9337 180.89754 323.08295Q180.98593 322.22116 180.37825 321.28204ZM186.26714 319.6579L177.8371 315.93454L178.70993 315.0617L184.70929 317.90118Q185.42744 318.24368 186.02406 318.57516Q185.6705 317.93433 185.36115 317.24933L182.57692 311.19473L183.39452 310.37714L187.09576 318.82928L186.26714 319.6579ZM189.48225 316.44278L183.40556 310.3661L185.70366 308.068Q186.30028 307.47137 186.67592 307.2062Q187.20625 306.83057 187.7145 306.74216Q188.23376 306.64273 188.7862 306.8416Q189.34967 307.02942 189.80266 307.48242Q190.57607 308.25583 190.62025 309.29437Q190.66444 310.31085 189.37177 311.60352L187.81392 313.16138L190.2888 315.63623L189.48225 316.44278ZM187.10683 312.45425L188.6757 310.88538Q189.46016 310.10092 189.4933 309.49326Q189.52644 308.8635 188.99612 308.33316Q188.62047 307.9575 188.15643 307.8912Q187.6924 307.80283 187.29465 308.0238Q187.02948 308.17847 186.4881 308.71985L184.93025 310.2777L187.10683 312.45425ZM195.15016 310.77487L189.07346 304.69818L191.7693 302.00235Q192.5869 301.18475 193.17247 300.93063Q193.75804 300.6765 194.432 300.84225Q195.09491 300.99692 195.5921 301.4941Q196.24396 302.14597 196.26607 303.00775Q196.28816 303.86954 195.53687 304.86392Q196.01195 304.69818 196.3213 304.6761Q196.99527 304.64294 197.79076 304.81973L200.5087 305.41635L199.49223 306.4328L197.43721 305.96878Q196.53122 305.7699 196.01195 305.71466Q195.50371 305.64835 195.2054 305.7257Q194.90709 305.78094 194.66402 305.9135Q194.50934 306.02402 194.19998 306.33337L193.26086 307.2725L195.9567 309.96835L195.15016 310.77487ZM192.5648 306.57645L194.29942 304.84183Q194.8408 304.30045 195.03967 303.88058Q195.23854 303.43866 195.15016 303.0409Q195.06177 302.62106 194.76346 302.32275Q194.33257 301.89185 193.73595 301.93604Q193.15038 301.9692 192.47641 302.64316L190.55397 304.5656L192.5648 306.57645Z" fill-rule="nonzero"/><path fill="#000000" d="M221.99004 324.07733L215.91333 318.00064L216.70883 317.20514L222.78552 323.28183L221.99004 324.07733ZM226.17743 315.62518L227.18285 315.0396Q227.91205 316.27707 227.77946 317.4482Q227.64688 318.61935 226.69672 319.56952Q225.7134 320.55286 224.69693 320.7738Q223.68047 320.99478 222.60875 320.5639Q221.526 320.12195 220.65315 319.2491Q219.70299 318.29895 219.36047 317.22723Q219.01797 316.15552 219.31628 315.12802Q219.62564 314.08945 220.43219 313.2829Q221.33817 312.37692 222.42093 312.22223Q223.51472 312.05652 224.59749 312.65314L223.98982 313.63644Q223.11699 313.18347 222.40988 313.29395Q221.70277 313.38235 221.0951 313.99002Q220.39905 314.68607 220.26646 315.50366Q220.13388 316.29916 220.49847 317.0615Q220.87413 317.8128 221.4818 318.42047Q222.2552 319.19388 223.05069 319.54742Q223.85724 319.88992 224.61958 319.70212Q225.38193 319.51428 225.9454 318.9508Q226.61937 318.27686 226.69672 317.42612Q226.7851 316.56433 226.17743 315.62518ZM232.5414 309.26123L233.54681 308.67566Q234.27602 309.9131 234.14343 311.08426Q234.01085 312.2554 233.06067 313.20557Q232.07735 314.18887 231.06088 314.40985Q230.04442 314.63083 228.97272 314.19992Q227.88995 313.758 227.01712 312.88516Q226.06694 311.93497 225.72444 310.86328Q225.38193 309.79156 225.68025 308.76404Q225.98961 307.7255 226.79614 306.91895Q227.70213 306.01297 228.78488 305.85828Q229.8787 305.69257 230.96146 306.28918L230.35378 307.2725Q229.48094 306.81952 228.77383 306.93Q228.06673 307.01837 227.45906 307.62604Q226.763 308.3221 226.63042 309.1397Q226.49783 309.93518 226.86244 310.69754Q227.23808 311.44885 227.84576 312.05652Q228.61916 312.82993 229.41466 313.18347Q230.22119 313.52597 230.98355 313.33813Q231.7459 313.15033 232.30937 312.58685Q232.98334 311.91287 233.06067 311.06213Q233.14906 310.20035 232.5414 309.26123ZM238.43028 307.6371L230.00023 303.91373L230.87308 303.0409L236.87244 305.88037Q237.59059 306.22287 238.18721 306.55432Q237.83365 305.9135 237.52429 305.22852L234.74007 299.1739L235.55765 298.35632L239.25891 306.80844L238.43028 307.6371Z" fill-rule="nonzero"/><path fill="#000000" d="M258.47528 327.7344L252.39859 321.6577L256.78485 317.27142L257.50302 317.9896L253.92328 321.5693L255.77943 323.42548L259.13818 320.0667L259.85635 320.78488L256.4976 324.14362L258.56366 326.20972L262.28702 322.48636L263.0052 323.2045L258.47528 327.7344ZM266.31976 315.62518L267.32516 315.0396Q268.05438 316.27707 267.92178 317.4482Q267.7892 318.61935 266.83902 319.56952Q265.8557 320.55286 264.83923 320.77383Q263.82278 320.99478 262.75107 320.5639Q261.6683 320.12195 260.79547 319.2491Q259.8453 318.29895 259.5028 317.22723Q259.1603 316.15552 259.45862 315.12802Q259.76797 314.08945 260.5745 313.2829Q261.4805 312.37692 262.56323 312.22226Q263.65704 312.05652 264.7398 312.65314L264.13214 313.63647Q263.2593 313.18347 262.5522 313.29395Q261.8451 313.38235 261.23743 313.99002Q260.54135 314.68607 260.40878 315.50366Q260.27618 316.29916 260.6408 317.06152Q261.01645 317.8128 261.6241 318.42047Q262.39752 319.19388 263.19302 319.54742Q263.99954 319.88992 264.7619 319.70212Q265.52426 319.51428 266.08774 318.9508Q266.7617 318.27686 266.83902 317.42612Q266.92743 316.56433 266.31976 315.62518ZM272.68372 309.26123L273.68912 308.67566Q274.41833 309.9131 274.28574 311.08426Q274.15317 312.2554 273.203 313.20557Q272.21967 314.18887 271.20322 314.40985Q270.18674 314.63083 269.11502 314.19992Q268.0323 313.758 267.15945 312.88516Q266.20926 311.935 265.86676 310.86328Q265.52426 309.79156 265.82257 308.76404Q266.13193 307.7255 266.93848 306.91895Q267.84445 306.01297 268.92722 305.85828Q270.02103 305.69257 271.10376 306.28918L270.4961 307.2725Q269.62326 306.81952 268.91617 306.93Q268.20905 307.01837 267.60138 307.62604Q266.90533 308.3221 266.77274 309.1397Q266.64017 309.9352 267.00476 310.69754Q267.3804 311.44885 267.98807 312.05652Q268.76147 312.82993 269.55698 313.18347Q270.36353 313.52597 271.12585 313.33813Q271.8882 313.15033 272.4517 312.58685Q273.12564 311.91287 273.203 311.06216Q273.29138 310.20035 272.68372 309.26123ZM278.57257 307.63712L270.14255 303.91373L271.01538 303.0409L277.01474 305.88037Q277.7329 306.2229 278.32953 306.55435Q277.97595 305.9135 277.6666 305.22852L274.8824 299.17392L275.69995 298.35632L279.4012 306.80847L278.57257 307.63712Z" fill-rule="nonzero"/><path fill="#000000" d="M288.0331 338.3189L284.28766 329.91095L285.14944 329.04916L293.71207 332.63995L292.8061 333.54593L290.24283 332.41898L287.7127 334.9491L288.88385 337.46817L288.0331 338.3189ZM287.29285 334.06522L289.3479 332.0102L287.03873 330.96057Q285.9781 330.49652 285.34833 330.13193Q285.81235 330.83902 286.17694 331.62347L287.29285 334.06522ZM293.7894 332.5626L287.7127 326.4859L288.5082 325.6904L294.5849 331.76712L293.7894 332.5626ZM293.54633 328.8945L294.23135 328.0769Q294.7506 328.4857 295.23676 328.5741Q295.7229 328.66248 296.31952 328.4415Q296.91614 328.19843 297.43542 327.67914Q297.8884 327.22617 298.10938 326.74002Q298.3193 326.24283 298.25302 325.8451Q298.1867 325.42526 297.91052 325.14905Q297.62326 324.8618 297.2476 324.81757Q296.8609 324.76233 296.3416 324.99435Q295.98807 325.14905 294.9495 325.78986Q293.922 326.41962 293.41376 326.5743Q292.73978 326.7842 292.19843 326.6627Q291.646 326.5301 291.22614 326.11026Q290.77316 325.65726 290.62952 325.0054Q290.4859 324.33145 290.7842 323.63538Q291.08252 322.91724 291.6902 322.30957Q292.36414 321.6356 293.1044 321.33728Q293.8336 321.02792 294.5407 321.18262Q295.23676 321.32623 295.78918 321.83447L295.07104 322.66312Q294.4302 322.15488 293.77835 322.2322Q293.1265 322.28748 292.43042 322.98352Q291.70123 323.71274 291.63495 324.30936Q291.56863 324.90598 291.9443 325.28162Q292.27576 325.61307 292.71768 325.59097Q293.15964 325.56888 294.35287 324.81757Q295.55716 324.05524 296.0875 323.85635Q296.87195 323.58014 297.5017 323.70166Q298.12042 323.81216 298.6176 324.30936Q299.10376 324.79547 299.25842 325.5026Q299.40207 326.19864 299.12585 326.961Q298.8386 327.7123 298.1867 328.36417Q297.3581 329.1928 296.5626 329.52426Q295.7671 329.83362 294.96054 329.66788Q294.16504 329.49112 293.54633 328.8945ZM302.97073 323.38126L297.61218 318.02274L295.6124 320.02252L294.89426 319.30435L299.71143 314.48718L300.42957 315.20535L298.41873 317.2162L303.77728 322.57474L302.97073 323.38126ZM305.7108 320.64124L301.96533 312.23328L302.82712 311.3715L311.38974 314.96228L310.48376 315.86826L307.9205 314.7413L305.39038 317.27142L306.56152 319.7905L305.7108 320.64124ZM304.97052 316.38754L307.02554 314.33252L304.7164 313.2829Q303.65576 312.81885 303.02597 312.45425Q303.49002 313.16138 303.8546 313.9458L304.97052 316.38754ZM312.87024 313.48178L307.5117 308.12323L305.5119 310.12302L304.79376 309.40485L309.6109 304.5877L310.32907 305.30585L308.31824 307.31668L313.6768 312.67523L312.87024 313.48178ZM314.05243 308.3884L314.73743 307.5708Q315.2567 307.97958 315.74286 308.068Q316.229 308.15637 316.82562 307.9354Q317.42224 307.69232 317.94153 307.17307Q318.3945 306.72006 318.61548 306.23392Q318.8254 305.73676 318.7591 305.339Q318.6928 304.91916 318.4166 304.64294Q318.12933 304.35568 317.7537 304.3115Q317.367 304.25623 316.84772 304.48825Q316.49417 304.64294 315.4556 305.28375Q314.42807 305.9135 313.91986 306.0682Q313.24588 306.2781 312.7045 306.1566Q312.15207 306.02402 311.73224 305.60416Q311.27924 305.15118 311.13562 304.4993Q310.99197 303.82535 311.29028 303.12927Q311.5886 302.41113 312.1963 301.80347Q312.87024 301.1295 313.61047 300.83118Q314.3397 300.52182 315.04678 300.6765Q315.74286 300.82013 316.2953 301.32837L315.57712 302.157Q314.9363 301.64877 314.28445 301.72614Q313.6326 301.78137 312.93652 302.47742Q312.20734 303.20663 312.14102 303.80325Q312.07474 304.39987 312.45038 304.7755Q312.78186 305.10696 313.2238 305.08487Q313.66574 305.06277 314.85898 304.3115Q316.06326 303.54913 316.5936 303.35025Q317.37805 303.07404 318.0078 303.1956Q318.62653 303.30606 319.12372 303.80325Q319.60983 304.2894 319.76453 304.9965Q319.90817 305.69254 319.63196 306.4549Q319.3447 307.2062 318.6928 307.85806Q317.86417 308.6867 317.0687 309.01816Q316.2732 309.3275 315.46664 309.1618Q314.67114 308.98502 314.05243 308.3884Z" fill-rule="nonzero"/><path fill="#000000" d="M311.20486 355.28946L307.4594 346.88153L308.3212 346.01974L316.88382 349.61053L315.9778 350.5165L313.41455 349.38956L310.88446 351.91968L312.0556 354.43872L311.20486 355.28946ZM310.4646 351.0358L312.51962 348.98074L310.21048 347.93115Q309.14984 347.4671 308.52005 347.1025Q308.9841 347.8096 309.3487 348.59406L310.4646 351.0358ZM316.96115 349.53317L310.88446 343.45648L311.67993 342.66098L317.75665 348.7377L316.96115 349.53317ZM323.303 342.10855Q323.23672 342.88196 322.99365 343.4123Q322.76163 343.93158 322.3197 344.3735Q321.59048 345.10272 320.85022 345.13586Q320.11 345.169 319.55756 344.61658Q319.23715 344.29617 319.1156 343.8874Q318.98303 343.46753 319.0714 343.0698Q319.14877 342.66098 319.36972 342.28534Q319.51337 342.00912 319.9111 341.5009Q320.7066 340.50653 320.98282 339.92096Q320.82812 339.76627 320.79498 339.73312Q320.33096 339.26907 319.9332 339.29117Q319.40286 339.3354 318.8394 339.89886Q318.32013 340.41812 318.2538 340.86008Q318.17648 341.29095 318.51898 341.87656L317.69034 342.50632Q317.32574 341.94284 317.2705 341.42355Q317.21527 340.90427 317.4915 340.3187Q317.7677 339.73312 318.33118 339.16965Q318.89465 338.60617 319.38077 338.3852Q319.8669 338.16425 320.2315 338.1974Q320.59613 338.23053 320.97177 338.4736Q321.19275 338.62827 321.6899 339.12546L322.6843 340.1198Q323.72287 341.1584 324.04327 341.3904Q324.37473 341.6114 324.77246 341.72186L323.988 342.50632Q323.6455 342.38477 323.303 342.10855ZM321.5684 340.50653Q321.32532 341.08105 320.64032 342.00912Q320.24255 342.53946 320.14313 342.81567Q320.03265 343.08084 320.07684 343.346Q320.13208 343.60013 320.33096 343.79898Q320.62927 344.0973 321.0491 344.0752Q321.48 344.04205 321.9109 343.61118Q322.3418 343.18027 322.4854 342.66098Q322.6401 342.13065 322.46332 341.64453Q322.33075 341.26886 321.8446 340.78275L321.5684 340.50653ZM325.9215 340.5728L321.5242 336.1755L322.1871 335.51257L322.80582 336.1313Q322.57382 334.927 323.49084 334.00998Q323.88858 333.61224 324.36368 333.4244Q324.8498 333.22552 325.24756 333.2918Q325.6453 333.35812 326.02097 333.6012Q326.264 333.77795 326.7833 334.29724L329.4902 337.00412L328.74994 337.7444L326.0762 335.07065Q325.61215 334.6066 325.3028 334.47403Q324.99344 334.34143 324.6399 334.4298Q324.27527 334.50717 323.97696 334.80548Q323.5019 335.28055 323.4577 335.94348Q323.41348 336.5843 324.25317 337.42398L326.66177 339.83255L325.9215 340.5728ZM333.7218 332.77255L333.16937 332.22012Q333.40137 333.2918 332.59485 334.09836Q332.0645 334.6287 331.3353 334.7834Q330.59506 334.927 329.8327 334.6508Q329.07034 334.37457 328.3964 333.70062Q327.74454 333.04877 327.4241 332.2864Q327.1037 331.52405 327.26944 330.8059Q327.4241 330.0767 327.96548 329.5353Q328.36325 329.13757 328.83832 328.99393Q329.31342 328.8503 329.77747 328.9166L327.6009 326.74005L328.34116 325.9998L334.41785 332.07648L333.7218 332.77255ZM329.1698 332.92722Q330.02054 333.77795 330.7939 333.84424Q331.55627 333.8995 332.04242 333.41336Q332.52853 332.92722 332.4733 332.18698Q332.41806 331.44672 331.60046 330.62912Q330.6945 329.72314 329.92108 329.65686Q329.15875 329.5795 328.6505 330.08774Q328.15332 330.58493 328.23065 331.3252Q328.29697 332.05438 329.1698 332.92722ZM338.05283 328.44153L331.9761 322.3648L336.3624 317.97855L337.08054 318.6967L333.50082 322.27643L335.35696 324.13257L338.71573 320.77383L339.4339 321.49197L336.07513 324.85074L338.1412 326.9168L341.86456 323.19345L342.58273 323.91162L338.05283 328.44153ZM344.5604 320.6081L345.32275 321.14948Q345.06863 321.53616 344.82556 321.77924Q344.41678 322.18805 344.07428 322.28748Q343.72073 322.37585 343.41135 322.26538Q343.11304 322.14383 342.4391 321.46988L339.90897 318.93976L339.36758 319.48114L338.79306 318.90662L339.33444 318.36523L338.24063 317.27142L338.53894 316.08923L340.0747 317.625L340.826 316.8737L341.4005 317.4482L340.64923 318.19952L343.22354 320.77383Q343.54395 321.09424 343.66547 321.14948Q343.79807 321.19366 343.94168 321.16052Q344.08533 321.12738 344.25104 320.96164Q344.38364 320.82907 344.5604 320.6081ZM345.72052 320.77383L339.6438 314.6971L340.38406 313.95688L342.5606 316.13342Q342.48328 315.01755 343.27878 314.22205Q343.77597 313.72485 344.3284 313.57016Q344.88083 313.3934 345.378 313.5812Q345.86414 313.758 346.516 314.40985L349.30023 317.1941L348.55997 317.93436L345.77576 315.15012Q345.21228 314.58664 344.7151 314.5756Q344.2179 314.56454 343.77597 315.00647Q343.44452 315.33795 343.32297 315.81302Q343.20145 316.26602 343.36716 316.6969Q343.5329 317.1057 344.0522 317.625L346.46075 320.03357L345.72052 320.77383ZM345.45535 310.60916L344.59357 309.74738L345.34485 308.99606L346.20663 309.85785L345.45535 310.60916ZM350.67026 315.82407L346.27292 311.42676L347.02423 310.67545L351.42154 315.07278L350.67026 315.82407ZM354.05112 309.21704L354.87976 308.58728Q355.50952 309.4601 355.44324 310.38818Q355.37692 311.31628 354.65878 312.03442Q353.7528 312.9404 352.6148 312.90726Q351.4768 312.85202 350.37195 311.74716Q349.66483 311.04007 349.36652 310.2777Q349.0682 309.49326 349.27814 308.75302Q349.4991 308.0017 350.07364 307.4272Q350.78073 306.72006 351.59833 306.63168Q352.41592 306.5212 353.22247 307.0626L352.60376 307.90228Q352.06238 307.55975 351.57623 307.60397Q351.07904 307.63712 350.7034 308.01276Q350.13992 308.57623 350.19516 309.3386Q350.23935 310.08987 351.11218 310.9627Q352.00714 311.85764 352.74738 311.9129Q353.48764 311.96814 354.02902 311.42676Q354.47095 310.9848 354.49304 310.43237Q354.52618 309.8689 354.05112 309.21704ZM355.4211 308.44366L356.03986 307.60397Q356.54807 307.9796 357.0563 307.93542Q357.5756 307.8802 358.09488 307.3609Q358.60312 306.85266 358.6473 306.4107Q358.6915 305.9467 358.40424 305.65942Q358.15012 305.4053 357.78552 305.48264Q357.5314 305.53787 356.76904 305.99088Q355.74155 306.59854 355.2775 306.77533Q354.81345 306.93 354.38257 306.83057Q353.95166 306.73114 353.6202 306.39966Q353.33295 306.1124 353.21143 305.7257Q353.08987 305.33902 353.1562 304.94125Q353.21143 304.64294 353.42133 304.25626Q353.63126 303.86954 353.9848 303.516Q354.49304 303.00775 355.03442 302.77576Q355.5758 302.52164 356.01776 302.58792Q356.4597 302.6542 356.94583 303.00775L356.31607 303.8364Q355.9404 303.54913 355.50952 303.6044Q355.0786 303.63754 354.6367 304.07947Q354.12845 304.5877 354.08426 304.98544Q354.02902 305.37216 354.26102 305.6042Q354.40466 305.7478 354.60355 305.7699Q354.8245 305.792 355.08966 305.68152Q355.24435 305.61523 355.9404 305.20642Q356.95688 304.6319 357.3988 304.45514Q357.84076 304.27835 358.27164 304.35568Q358.70255 304.433 359.08923 304.81973Q359.4649 305.19537 359.57538 305.7478Q359.68585 306.27814 359.4649 306.87476Q359.23288 307.46033 358.7136 307.9796Q357.8518 308.8414 357.04526 308.94083Q356.2387 309.0182 355.4211 308.44366Z" fill-rule="nonzero"/><path fill="#000000" d="M381.13406 325.5026L375.7755 320.14404L373.77573 322.14383L373.0576 321.4257L377.87473 316.60852L378.5929 317.32666L376.58206 319.3375L381.9406 324.69604L381.13406 325.5026ZM384.51492 322.12173L378.4382 316.04504L379.65356 314.8297L385.38776 317.69128Q386.1943 318.10007 386.581 318.31Q386.34897 317.8791 385.92914 317.0173L383.15594 311.3273L384.2387 310.24457L390.3154 316.32126L389.542 317.09467L384.4597 312.01233L387.77423 318.86243L387.04504 319.5916L380.11758 316.1776L385.2883 321.34833L384.51492 322.12173ZM390.86783 315.76883L384.79114 309.69214L385.59766 308.8856L390.9562 314.24414L393.95038 311.24997L394.66852 311.96814L390.86783 315.76883ZM395.86176 310.77487L389.78506 304.69818L392.48093 302.00235Q393.2985 301.18475 393.88406 300.93063Q394.46967 300.6765 395.14362 300.84225Q395.80652 300.99692 396.3037 301.4941Q396.95557 302.14597 396.97766 303.00775Q396.99976 303.86954 396.24847 304.86392Q396.72354 304.69818 397.03293 304.6761Q397.70688 304.64294 398.50238 304.81973L401.2203 305.41635L400.20386 306.4328L398.1488 305.96878Q397.24283 305.7699 396.72354 305.71466Q396.21533 305.64835 395.91702 305.7257Q395.6187 305.78094 395.37564 305.9135Q395.22095 306.02402 394.9116 306.33337L393.97247 307.2725L396.6683 309.96835L395.86176 310.77487ZM393.2764 306.57645L395.01102 304.84183Q395.5524 304.30045 395.75128 303.88058Q395.95016 303.43866 395.86176 303.0409Q395.77338 302.62106 395.47507 302.32275Q395.0442 301.89185 394.44754 301.93604Q393.86197 301.9692 393.18802 302.64316L391.26556 304.5656L393.2764 306.57645Z" fill-rule="nonzero"/><path fill="#000000" d="M424.7235 322.05545L420.97806 313.64752L421.83984 312.78574L430.40247 316.3765L429.4965 317.2825L426.93323 316.15555L424.4031 318.68567L425.57425 321.2047L424.7235 322.05545ZM423.98328 317.80176L426.0383 315.74673L423.72916 314.69714Q422.6685 314.2331 422.03873 313.8685Q422.50275 314.5756 422.86737 315.36005L423.98328 317.80176ZM429.67325 317.1057L425.9278 308.69778L426.78958 307.836L435.3522 311.42676L434.44623 312.33273L431.88297 311.20578L429.35284 313.7359L430.524 316.25497L429.67325 317.1057ZM428.933 312.85202L430.98804 310.797L428.6789 309.74738Q427.61823 309.28336 426.98846 308.91873Q427.4525 309.62585 427.8171 310.4103L428.933 312.85202ZM434.62302 312.15598L430.87756 303.74802L431.73935 302.88623L440.30197 306.47702L439.39597 307.383L436.8327 306.25604L434.3026 308.78616L435.47375 311.30524L434.62302 312.15598ZM433.88275 307.90228L435.93777 305.84726L433.62863 304.79764Q432.568 304.3336 431.9382 303.969Q432.40225 304.6761 432.76685 305.46054L433.88275 307.90228ZM440.3793 306.3997L434.3026 300.32297L435.09808 299.52747L441.1748 305.6042L440.3793 306.3997Z" fill-rule="nonzero"/><path fill="#000000" d="M466.9761 307.79178L467.78265 306.98523L471.2961 310.4987Q472.21313 311.4157 472.5446 312.167Q472.865 312.90726 472.6661 313.79114Q472.4562 314.66397 471.58337 315.5368Q470.73264 316.38754 469.89294 316.6527Q469.05325 316.89578 468.2688 316.57538Q467.4733 316.24393 466.5121 315.28268L462.99863 311.76926L463.80518 310.9627L467.3076 314.4651Q468.10306 315.2606 468.62234 315.4926Q469.15268 315.7136 469.71616 315.56995Q470.27963 315.40424 470.79892 314.88495Q471.6828 314.00107 471.6607 313.22766Q471.62756 312.4432 470.47852 311.29416L466.9761 307.79178ZM474.76535 312.15594L471.0199 303.74802L471.88168 302.88623L480.4443 306.47702L479.5383 307.383L476.97504 306.25604L474.44495 308.78616L475.6161 311.3052L474.76535 312.15594ZM474.0251 307.90225L476.0801 305.84723L473.77097 304.79764Q472.7103 304.3336 472.08054 303.969Q472.5446 304.6761 472.90918 305.46054L474.0251 307.90225ZM480.52164 306.39966L474.44495 300.32297L475.24042 299.52747L481.31714 305.60416L480.52164 306.39966Z" fill-rule="nonzero"/><path fill="#000000" d="M502.82056 324.24307L496.74384 318.16638L497.9592 316.95105L503.6934 319.81262Q504.4999 320.2214 504.88663 320.43134Q504.6546 320.00043 504.23474 319.13864L501.46158 313.44864L502.54434 312.3659L508.62103 318.4426L507.84763 319.216L502.7653 314.13367L506.07986 320.98376L505.35065 321.71295L498.42322 318.29895L503.59393 323.46967L502.82056 324.24307ZM509.35022 317.71338L503.27353 311.6367L504.06903 310.8412L510.14572 316.91788L509.35022 317.71338ZM511.3279 315.7357L505.25122 309.659L507.35043 307.55978Q508.05756 306.85266 508.52158 306.5654Q509.1624 306.16766 509.83636 306.11243Q510.7313 306.03506 511.60413 306.44388Q512.477 306.83057 513.2835 307.63712Q513.97955 308.33316 514.3442 309.02924Q514.71985 309.71423 514.8193 310.3219Q514.9187 310.9296 514.8082 311.4378Q514.7088 311.935 514.3994 312.46533Q514.079 312.98462 513.52655 313.53705L511.3279 315.7357ZM511.41632 314.211L512.709 312.9183Q513.31665 312.31064 513.5487 311.85767Q513.7807 311.40466 513.76965 310.99588Q513.7807 310.4324 513.4492 309.7916Q513.12885 309.1397 512.44385 308.4547Q511.49365 307.50455 510.665 307.3167Q509.83636 307.10678 509.21765 307.37195Q508.76465 307.58188 508.05756 308.28897L506.7759 309.57062L511.41632 314.211ZM517.65875 309.40488L511.58203 303.3282L512.3886 302.52164L517.74713 307.8802L520.7413 304.88602L521.4594 305.6042L517.65875 309.40488Z" fill-rule="nonzero"/><path fill="#000000" d="M538.73126 325.02753L539.361 324.19888Q540.0792 324.87283 540.56537 324.89493Q541.05145 324.91702 541.4713 324.4972Q541.76965 324.19888 541.85803 323.8453Q541.93536 323.4807 541.7807 323.17136Q541.626 322.8399 541.1067 322.32062L536.9193 318.1332L537.71484 317.33774L541.85803 321.48093Q542.62036 322.2433 542.8524 322.85095Q543.09546 323.44757 542.9187 324.06628Q542.73083 324.67395 542.18945 325.21533Q541.394 326.01083 540.5101 325.98874Q539.6262 325.94455 538.73126 325.02753ZM545.08417 322.12173L539.0075 316.04504L540.22284 314.8297L545.95703 317.69128Q546.76355 318.10007 547.15027 318.31Q546.9183 317.87912 546.4984 317.01733L543.7252 311.32733L544.808 310.24457L550.8847 316.32126L550.11127 317.09467L545.02893 312.01233L548.3435 318.86243L547.6143 319.59164L540.6869 316.17764L545.8576 321.34836L545.08417 322.12173ZM551.43713 315.76883L545.3604 309.69214L546.16693 308.8856L551.5255 314.24414L554.51965 311.24997L555.2378 311.96814L551.43713 315.76883ZM556.431 310.7749L550.3544 304.69818L553.0502 302.00235Q553.8678 301.18475 554.45337 300.93063Q555.03894 300.6765 555.7129 300.84225Q556.3758 300.99692 556.873 301.4941Q557.52484 302.14597 557.54694 303.00778Q557.56903 303.86957 556.81775 304.86392Q557.29285 304.69818 557.6022 304.6761Q558.2762 304.64294 559.07166 304.81973L561.7896 305.41635L560.77313 306.43283L558.7181 305.96878Q557.81213 305.7699 557.29285 305.71466Q556.7846 305.64838 556.48627 305.7257Q556.188 305.78094 555.9449 305.91354Q555.7902 306.02402 555.4809 306.33337L554.54175 307.2725L557.2376 309.96835L556.431 310.7749ZM553.8457 306.57645L555.5803 304.84183Q556.1217 304.30045 556.32056 303.8806Q556.5194 303.43866 556.431 303.04092Q556.34265 302.62106 556.0444 302.32275Q555.61346 301.89188 555.01685 301.93607Q554.4313 301.9692 553.7573 302.64316L551.83484 304.5656L553.8457 306.57645Z" fill-rule="nonzero"/><path fill="#757575" d="M20.096874 37.55L20.096874 23.2375L25.4875 23.2375Q26.925 23.2375 27.675 23.3625Q28.721874 23.55 29.440624 24.05Q30.159374 24.534374 30.58125 25.425Q31.01875 26.315624 31.01875 27.378124Q31.01875 29.20625 29.846874 30.471874Q28.690624 31.721874 25.659374 31.721874L21.9875 31.721874L21.9875 37.55L20.096874 37.55ZM21.9875 30.034374L25.690624 30.034374Q27.51875 30.034374 28.284374 29.3625Q29.065624 28.675 29.065624 27.425Q29.065624 26.534374 28.6125 25.89375Q28.159374 25.253124 27.425 25.05Q26.940624 24.925 25.64375 24.925L21.9875 24.925L21.9875 30.034374ZM39.64375 36.26875Q38.659374 37.096874 37.753124 37.440624Q36.846874 37.784374 35.815624 37.784374Q34.1125 37.784374 33.190624 36.95625Q32.26875 36.1125 32.26875 34.815624Q32.26875 34.05 32.6125 33.425Q32.971874 32.8 33.534374 32.425Q34.096874 32.034374 34.8 31.83125Q35.315624 31.70625 36.3625 31.565624Q38.4875 31.315624 39.4875 30.971874Q39.503124 30.6125 39.503124 30.503124Q39.503124 29.440624 39.003124 28.9875Q38.33125 28.39375 37.003124 28.39375Q35.753124 28.39375 35.159374 28.83125Q34.58125 29.26875 34.3 30.378124L32.58125 30.14375Q32.815624 29.034374 33.346874 28.3625Q33.878124 27.675 34.89375 27.315624Q35.909374 26.940624 37.253124 26.940624Q38.58125 26.940624 39.409374 27.253124Q40.2375 27.565624 40.628124 28.05Q41.01875 28.51875 41.175 29.2375Q41.26875 29.690624 41.26875 30.8625L41.26875 33.20625Q41.26875 35.659374 41.378124 36.315624Q41.4875 36.95625 41.83125 37.55L39.9875 37.55Q39.721874 37.003124 39.64375 36.26875ZM39.4875 32.346874Q38.534374 32.7375 36.6125 33.003124Q35.534374 33.159374 35.08125 33.3625Q34.64375 33.55 34.39375 33.925Q34.14375 34.3 34.14375 34.76875Q34.14375 35.471874 34.675 35.940624Q35.20625 36.409374 36.2375 36.409374Q37.253124 36.409374 38.034374 35.971874Q38.83125 35.51875 39.20625 34.753124Q39.4875 34.14375 39.4875 32.9875L39.4875 32.346874ZM43.8625 41.51875L43.8625 27.175L45.471874 27.175L45.471874 28.51875Q46.034374 27.7375 46.7375 27.346874Q47.45625 26.940624 48.471874 26.940624Q49.8 26.940624 50.815624 27.628124Q51.83125 28.315624 52.346874 29.565624Q52.878124 30.8 52.878124 32.284374Q52.878124 33.878124 52.3 35.159374Q51.7375 36.425 50.64375 37.1125Q49.55 37.784374 48.346874 37.784374Q47.471874 37.784374 46.76875 37.409374Q46.08125 37.034374 45.628124 36.471874L45.628124 41.51875L43.8625 41.51875ZM45.45625 32.425Q45.45625 34.425 46.26875 35.378124Q47.08125 36.33125 48.2375 36.33125Q49.409374 36.33125 50.2375 35.346874Q51.08125 34.3625 51.08125 32.26875Q51.08125 30.3 50.253124 29.315624Q49.440624 28.315624 48.315624 28.315624Q47.190624 28.315624 46.315624 29.378124Q45.45625 30.425 45.45625 32.425ZM61.971874 34.20625L63.784374 34.440624Q63.3625 36.01875 62.190624 36.909374Q61.034374 37.784374 59.221874 37.784374Q56.95625 37.784374 55.6125 36.39375Q54.284374 34.9875 54.284374 32.45625Q54.284374 29.83125 55.628124 28.39375Q56.971874 26.940624 59.128124 26.940624Q61.20625 26.940624 62.51875 28.3625Q63.846874 29.76875 63.846874 32.346874Q63.846874 32.503124 63.83125 32.815624L56.096874 32.815624Q56.190624 34.51875 57.065624 35.425Q57.940624 36.33125 59.2375 36.33125Q60.20625 36.33125 60.878124 35.83125Q61.565624 35.315624 61.971874 34.20625ZM56.190624 31.3625L61.9875 31.3625Q61.878124 30.065624 61.33125 29.409374Q60.4875 28.39375 59.14375 28.39375Q57.940624 28.39375 57.1125 29.20625Q56.284374 30.003124 56.190624 31.3625ZM65.84688 37.55L65.84688 27.175L67.425 27.175L67.425 28.753124Q68.03438 27.64375 68.55 27.3Q69.06563 26.940624 69.675 26.940624Q70.56563 26.940624 71.4875 27.503124L70.87813 29.14375Q70.2375 28.753124 69.59688 28.753124Q69.01875 28.753124 68.55 29.1125Q68.09688 29.45625 67.89375 30.065624Q67.6125 31.003124 67.6125 32.1125L67.6125 37.55L65.84688 37.55ZM72.15938 34.45625L73.90938 34.175Q74.05 35.221874 74.72188 35.784374Q75.39375 36.33125 76.59688 36.33125Q77.8 36.33125 78.37813 35.846874Q78.97188 35.346874 78.97188 34.690624Q78.97188 34.096874 78.45625 33.753124Q78.09688 33.51875 76.65938 33.159374Q74.72188 32.659374 73.97188 32.315624Q73.2375 31.95625 72.84688 31.33125Q72.45625 30.690624 72.45625 29.925Q72.45625 29.2375 72.76875 28.64375Q73.09688 28.05 73.64375 27.659374Q74.05 27.3625 74.75313 27.159374Q75.47188 26.940624 76.28438 26.940624Q77.50313 26.940624 78.425 27.3Q79.34688 27.64375 79.78438 28.253124Q80.22188 28.846874 80.39375 29.846874L78.675 30.08125Q78.55 29.284374 77.9875 28.846874Q77.425 28.39375 76.40938 28.39375Q75.19063 28.39375 74.675 28.8Q74.15938 29.190624 74.15938 29.721874Q74.15938 30.065624 74.37813 30.346874Q74.58125 30.628124 75.05 30.815624Q75.31563 30.909374 76.59688 31.253124Q78.47188 31.753124 79.20625 32.08125Q79.94063 32.39375 80.3625 33.003124Q80.78438 33.596874 80.78438 34.503124Q80.78438 35.378124 80.26875 36.159374Q79.75313 36.940624 78.78438 37.3625Q77.81563 37.784374 76.59688 37.784374Q74.58125 37.784374 73.51875 36.940624Q72.45625 36.096874 72.15938 34.45625ZM90.4875 37.55L88.8625 37.55L88.8625 23.2375L90.6125 23.2375L90.6125 28.346874Q91.7375 26.940624 93.45625 26.940624Q94.40938 26.940624 95.26875 27.33125Q96.12813 27.721874 96.675 28.425Q97.22188 29.1125 97.53438 30.096874Q97.84688 31.08125 97.84688 32.20625Q97.84688 34.878124 96.53438 36.33125Q95.22188 37.784374 93.37813 37.784374Q91.53438 37.784374 90.4875 36.253124L90.4875 37.55ZM90.47188 32.284374Q90.47188 34.14375 90.97188 34.9875Q91.81563 36.33125 93.22188 36.33125Q94.37813 36.33125 95.20625 35.33125Q96.05 34.33125 96.05 32.346874Q96.05 30.315624 95.2375 29.3625Q94.44063 28.39375 93.3 28.39375Q92.14375 28.39375 91.3 29.39375Q90.47188 30.39375 90.47188 32.284374ZM99.78438 41.55L99.59688 39.89375Q100.175 40.05 100.59688 40.05Q101.19063 40.05 101.53438 39.846874Q101.89375 39.659374 102.1125 39.315624Q102.28438 39.05 102.65938 38.003124Q102.70625 37.846874 102.81563 37.565624L98.87813 27.175L100.76875 27.175L102.925 33.190624Q103.34688 34.33125 103.675 35.58125Q103.9875 34.378124 104.39375 33.221874L106.6125 27.175L108.37813 27.175L104.425 37.721874Q103.8 39.440624 103.44063 40.08125Q102.97188 40.95625 102.3625 41.346874Q101.76875 41.753124 100.925 41.753124Q100.40938 41.753124 99.78438 41.55ZM118.75313 37.55L114.8 27.175L116.65938 27.175L118.89375 33.39375Q119.25313 34.39375 119.55 35.471874Q119.78438 34.659374 120.20625 33.503124L122.50313 27.175L124.31563 27.175L120.39375 37.55L118.75313 37.55ZM131.97188 34.20625L133.78438 34.440624Q133.3625 36.01875 132.19063 36.909374Q131.03438 37.784374 129.22188 37.784374Q126.95625 37.784374 125.6125 36.39375Q124.28438 34.9875 124.28438 32.45625Q124.28438 29.83125 125.62813 28.39375Q126.97188 26.940624 129.12813 26.940624Q131.20625 26.940624 132.51875 28.3625Q133.84688 29.76875 133.84688 32.346874Q133.84688 32.503124 133.83125 32.815624L126.09688 32.815624Q126.19063 34.51875 127.06563 35.425Q127.94063 36.33125 129.2375 36.33125Q130.20625 36.33125 130.87813 35.83125Q131.56563 35.315624 131.97188 34.20625ZM126.19063 31.3625L131.9875 31.3625Q131.87813 30.065624 131.33125 29.409374Q130.4875 28.39375 129.14375 28.39375Q127.94063 28.39375 127.1125 29.20625Q126.28438 30.003124 126.19063 31.3625ZM135.8625 37.55L135.8625 27.175L137.45625 27.175L137.45625 28.659374Q138.59688 26.940624 140.75313 26.940624Q141.69063 26.940624 142.47188 27.284374Q143.26875 27.6125 143.65938 28.159374Q144.05 28.70625 144.20625 29.45625Q144.3 29.95625 144.3 31.175L144.3 37.55L142.53438 37.55L142.53438 31.2375Q142.53438 30.159374 142.33125 29.628124Q142.12813 29.096874 141.59688 28.784374Q141.08125 28.471874 140.37813 28.471874Q139.25313 28.471874 138.44063 29.190624Q137.62813 29.89375 137.62813 31.878124L137.62813 37.55L135.8625 37.55ZM152.65938 37.55L152.65938 36.01875Q151.45625 37.784374 149.37813 37.784374Q148.45625 37.784374 147.65938 37.440624Q146.8625 37.08125 146.47188 36.55Q146.09688 36.01875 145.94063 35.2375Q145.83125 34.721874 145.83125 33.596874L145.83125 27.175L147.58125 27.175L147.58125 32.925Q147.58125 34.3 147.69063 34.784374Q147.8625 35.471874 148.39375 35.878124Q148.94063 36.26875 149.72188 36.26875Q150.51875 36.26875 151.20625 35.8625Q151.90938 35.45625 152.19063 34.76875Q152.4875 34.065624 152.4875 32.7375L152.4875 27.175L154.2375 27.175L154.2375 37.55L152.65938 37.55ZM162.97188 34.20625L164.78438 34.440624Q164.3625 36.01875 163.19063 36.909374Q162.03438 37.784374 160.22188 37.784374Q157.95625 37.784374 156.6125 36.39375Q155.28438 34.9875 155.28438 32.45625Q155.28438 29.83125 156.62813 28.39375Q157.97188 26.940624 160.12813 26.940624Q162.20625 26.940624 163.51875 28.3625Q164.84688 29.76875 164.84688 32.346874Q164.84688 32.503124 164.83125 32.815624L157.09688 32.815624Q157.19063 34.51875 158.06563 35.425Q158.94063 36.33125 160.2375 36.33125Q161.20625 36.33125 161.87813 35.83125Q162.56563 35.315624 162.97188 34.20625ZM157.19063 31.3625L162.9875 31.3625Q162.87813 30.065624 162.33125 29.409374Q161.4875 28.39375 160.14375 28.39375Q158.94063 28.39375 158.1125 29.20625Q157.28438 30.003124 157.19063 31.3625ZM176.22188 41.753124Q174.76875 39.925 173.76875 37.471874Q172.76875 35.003124 172.76875 32.3625Q172.76875 30.034374 173.51875 27.909374Q174.39375 25.440624 176.22188 22.9875L177.4875 22.9875Q176.3 25.01875 175.925 25.89375Q175.33125 27.2375 174.9875 28.70625Q174.56563 30.534374 174.56563 32.378124Q174.56563 37.065624 177.4875 41.753124L176.22188 41.753124ZM186.64375 36.26875Q185.65938 37.096874 184.75313 37.440624Q183.84688 37.784374 182.81563 37.784374Q181.1125 37.784374 180.19063 36.95625Q179.26875 36.1125 179.26875 34.815624Q179.26875 34.05 179.6125 33.425Q179.97188 32.8 180.53438 32.425Q181.09688 32.034374 181.8 31.83125Q182.31563 31.70625 183.3625 31.565624Q185.4875 31.315624 186.4875 30.971874Q186.50313 30.6125 186.50313 30.503124Q186.50313 29.440624 186.00313 28.9875Q185.33125 28.39375 184.00313 28.39375Q182.75313 28.39375 182.15938 28.83125Q181.58125 29.26875 181.3 30.378124L179.58125 30.14375Q179.81563 29.034374 180.34688 28.3625Q180.87813 27.675 181.89375 27.315624Q182.90938 26.940624 184.25313 26.940624Q185.58125 26.940624 186.40938 27.253124Q187.2375 27.565624 187.62813 28.05Q188.01875 28.51875 188.175 29.2375Q188.26875 29.690624 188.26875 30.8625L188.26875 33.20625Q188.26875 35.659374 188.37813 36.315624Q188.4875 36.95625 188.83125 37.55L186.9875 37.55Q186.72188 37.003124 186.64375 36.26875ZM186.4875 32.346874Q185.53438 32.7375 183.6125 33.003124Q182.53438 33.159374 182.08125 33.3625Q181.64375 33.55 181.39375 33.925Q181.14375 34.3 181.14375 34.76875Q181.14375 35.471874 181.675 35.940624Q182.20625 36.409374 183.2375 36.409374Q184.25313 36.409374 185.03438 35.971874Q185.83125 35.51875 186.20625 34.753124Q186.4875 34.14375 186.4875 32.9875L186.4875 32.346874ZM194.70625 35.971874L194.95625 37.534374Q194.22188 37.690624 193.62813 37.690624Q192.675 37.690624 192.14375 37.39375Q191.62813 37.08125 191.40938 36.596874Q191.19063 36.096874 191.19063 34.51875L191.19063 28.55L189.90938 28.55L189.90938 27.175L191.19063 27.175L191.19063 24.6125L192.94063 23.55L192.94063 27.175L194.70625 27.175L194.70625 28.55L192.94063 28.55L192.94063 34.6125Q192.94063 35.3625 193.03438 35.58125Q193.12813 35.784374 193.33125 35.925Q193.55 36.05 193.94063 36.05Q194.22188 36.05 194.70625 35.971874ZM202.83125 37.55L202.83125 23.2375L204.58125 23.2375L204.58125 37.55L202.83125 37.55ZM213.97188 34.20625L215.78438 34.440624Q215.3625 36.01875 214.19063 36.909374Q213.03438 37.784374 211.22188 37.784374Q208.95625 37.784374 207.6125 36.39375Q206.28438 34.9875 206.28438 32.45625Q206.28438 29.83125 207.62813 28.39375Q208.97188 26.940624 211.12813 26.940624Q213.20625 26.940624 214.51875 28.3625Q215.84688 29.76875 215.84688 32.346874Q215.84688 32.503124 215.83125 32.815624L208.09688 32.815624Q208.19063 34.51875 209.06563 35.425Q209.94063 36.33125 211.2375 36.33125Q212.20625 36.33125 212.87813 35.83125Q213.56563 35.315624 213.97188 34.20625ZM208.19063 31.3625L213.9875 31.3625Q213.87813 30.065624 213.33125 29.409374Q212.4875 28.39375 211.14375 28.39375Q209.94063 28.39375 209.1125 29.20625Q208.28438 30.003124 208.19063 31.3625ZM224.64375 36.26875Q223.65938 37.096874 222.75313 37.440624Q221.84688 37.784374 220.81563 37.784374Q219.1125 37.784374 218.19063 36.95625Q217.26875 36.1125 217.26875 34.815624Q217.26875 34.05 217.6125 33.425Q217.97188 32.8 218.53438 32.425Q219.09688 32.034374 219.8 31.83125Q220.31563 31.70625 221.3625 31.565624Q223.4875 31.315624 224.4875 30.971874Q224.50313 30.6125 224.50313 30.503124Q224.50313 29.440624 224.00313 28.9875Q223.33125 28.39375 222.00313 28.39375Q220.75313 28.39375 220.15938 28.83125Q219.58125 29.26875 219.3 30.378124L217.58125 30.14375Q217.81563 29.034374 218.34688 28.3625Q218.87813 27.675 219.89375 27.315624Q220.90938 26.940624 222.25313 26.940624Q223.58125 26.940624 224.40938 27.253124Q225.2375 27.565624 225.62813 28.05Q226.01875 28.51875 226.175 29.2375Q226.26875 29.690624 226.26875 30.8625L226.26875 33.20625Q226.26875 35.659374 226.37813 36.315624Q226.4875 36.95625 226.83125 37.55L224.9875 37.55Q224.72188 37.003124 224.64375 36.26875ZM224.4875 32.346874Q223.53438 32.7375 221.6125 33.003124Q220.53438 33.159374 220.08125 33.3625Q219.64375 33.55 219.39375 33.925Q219.14375 34.3 219.14375 34.76875Q219.14375 35.471874 219.675 35.940624Q220.20625 36.409374 221.2375 36.409374Q222.25313 36.409374 223.03438 35.971874Q223.83125 35.51875 224.20625 34.753124Q224.4875 34.14375 224.4875 32.9875L224.4875 32.346874ZM228.15938 34.45625L229.90938 34.175Q230.05 35.221874 230.72188 35.784374Q231.39375 36.33125 232.59688 36.33125Q233.8 36.33125 234.37813 35.846874Q234.97188 35.346874 234.97188 34.690624Q234.97188 34.096874 234.45625 33.753124Q234.09688 33.51875 232.65938 33.159374Q230.72188 32.659374 229.97188 32.315624Q229.2375 31.95625 228.84688 31.33125Q228.45625 30.690624 228.45625 29.925Q228.45625 29.2375 228.76875 28.64375Q229.09688 28.05 229.64375 27.659374Q230.05 27.3625 230.75313 27.159374Q231.47188 26.940624 232.28438 26.940624Q233.50313 26.940624 234.425 27.3Q235.34688 27.64375 235.78438 28.253124Q236.22188 28.846874 236.39375 29.846874L234.675 30.08125Q234.55 29.284374 233.9875 28.846874Q233.425 28.39375 232.40938 28.39375Q231.19063 28.39375 230.675 28.8Q230.15938 29.190624 230.15938 29.721874Q230.15938 30.065624 230.37813 30.346874Q230.58125 30.628124 231.05 30.815624Q231.31563 30.909374 232.59688 31.253124Q234.47188 31.753124 235.20625 32.08125Q235.94063 32.39375 236.3625 33.003124Q236.78438 33.596874 236.78438 34.503124Q236.78438 35.378124 236.26875 36.159374Q235.75313 36.940624 234.78438 37.3625Q233.81563 37.784374 232.59688 37.784374Q230.58125 37.784374 229.51875 36.940624Q228.45625 36.096874 228.15938 34.45625ZM242.70625 35.971874L242.95625 37.534374Q242.22188 37.690624 241.62813 37.690624Q240.675 37.690624 240.14375 37.39375Q239.62813 37.08125 239.40938 36.596874Q239.19063 36.096874 239.19063 34.51875L239.19063 28.55L237.90938 28.55L237.90938 27.175L239.19063 27.175L239.19063 24.6125L240.94063 23.55L240.94063 27.175L242.70625 27.175L242.70625 28.55L240.94063 28.55L240.94063 34.6125Q240.94063 35.3625 241.03438 35.58125Q241.12813 35.784374 241.33125 35.925Q241.55 36.05 241.94063 36.05Q242.22188 36.05 242.70625 35.971874ZM250.39375 33.76875L252.14375 33.534374Q252.45625 35.034374 253.175 35.690624Q253.90938 36.346874 254.95625 36.346874Q256.1906 36.346874 257.03436 35.4875Q257.89374 34.628124 257.89374 33.3625Q257.89374 32.14375 257.09686 31.3625Q256.3156 30.58125 255.09688 30.58125Q254.59688 30.58125 253.8625 30.76875L254.05 29.221874Q254.22188 29.253124 254.33125 29.253124Q255.45625 29.253124 256.34686 28.675Q257.2531 28.08125 257.2531 26.8625Q257.2531 25.89375 256.59686 25.253124Q255.94063 24.6125 254.90938 24.6125Q253.89375 24.6125 253.20625 25.26875Q252.51875 25.909374 252.33125 27.190624L250.56563 26.878124Q250.89375 25.1125 252.03438 24.14375Q253.175 23.175 254.87813 23.175Q256.05 23.175 257.03436 23.675Q258.01874 24.175 258.53436 25.05Q259.0656 25.925 259.0656 26.89375Q259.0656 27.815624 258.5656 28.58125Q258.0656 29.346874 257.09686 29.8Q258.3625 30.08125 259.0656 31.01875Q259.76874 31.940624 259.76874 33.315624Q259.76874 35.190624 258.39374 36.503124Q257.03436 37.8 254.94063 37.8Q253.05 37.8 251.8 36.675Q250.56563 35.55 250.39375 33.76875ZM267.8625 41.51875L267.8625 27.175L269.47186 27.175L269.47186 28.51875Q270.03436 27.7375 270.7375 27.346874Q271.45624 26.940624 272.47186 26.940624Q273.8 26.940624 274.8156 27.628124Q275.83124 28.315624 276.34686 29.565624Q276.8781 30.8 276.8781 32.284374Q276.8781 33.878124 276.3 35.159374Q275.7375 36.425 274.64374 37.1125Q273.55 37.784374 272.34686 37.784374Q271.47186 37.784374 270.76874 37.409374Q270.08124 37.034374 269.6281 36.471874L269.6281 41.51875L267.8625 41.51875ZM269.45624 32.425Q269.45624 34.425 270.26874 35.378124Q271.08124 36.33125 272.2375 36.33125Q273.40936 36.33125 274.2375 35.346874Q275.08124 34.3625 275.08124 32.26875Q275.08124 30.3 274.2531 29.315624Q273.4406 28.315624 272.3156 28.315624Q271.1906 28.315624 270.3156 29.378124Q269.45624 30.425 269.45624 32.425ZM285.64374 36.26875Q284.65936 37.096874 283.7531 37.440624Q282.84686 37.784374 281.8156 37.784374Q280.1125 37.784374 279.1906 36.95625Q278.26874 36.1125 278.26874 34.815624Q278.26874 34.05 278.6125 33.425Q278.97186 32.8 279.53436 32.425Q280.09686 32.034374 280.8 31.83125Q281.3156 31.70625 282.3625 31.565624Q284.4875 31.315624 285.4875 30.971874Q285.5031 30.6125 285.5031 30.503124Q285.5031 29.440624 285.0031 28.9875Q284.33124 28.39375 283.0031 28.39375Q281.7531 28.39375 281.15936 28.83125Q280.58124 29.26875 280.3 30.378124L278.58124 30.14375Q278.8156 29.034374 279.34686 28.3625Q279.8781 27.675 280.89374 27.315624Q281.90936 26.940624 283.2531 26.940624Q284.58124 26.940624 285.40936 27.253124Q286.2375 27.565624 286.6281 28.05Q287.01874 28.51875 287.175 29.2375Q287.26874 29.690624 287.26874 30.8625L287.26874 33.20625Q287.26874 35.659374 287.3781 36.315624Q287.4875 36.95625 287.83124 37.55L285.9875 37.55Q285.72186 37.003124 285.64374 36.26875ZM285.4875 32.346874Q284.53436 32.7375 282.6125 33.003124Q281.53436 33.159374 281.08124 33.3625Q280.64374 33.55 280.39374 33.925Q280.14374 34.3 280.14374 34.76875Q280.14374 35.471874 280.675 35.940624Q281.20624 36.409374 282.2375 36.409374Q283.2531 36.409374 284.03436 35.971874Q284.83124 35.51875 285.20624 34.753124Q285.4875 34.14375 285.4875 32.9875L285.4875 32.346874ZM289.8625 41.51875L289.8625 27.175L291.47186 27.175L291.47186 28.51875Q292.03436 27.7375 292.7375 27.346874Q293.45624 26.940624 294.47186 26.940624Q295.8 26.940624 296.8156 27.628124Q297.83124 28.315624 298.34686 29.565624Q298.8781 30.8 298.8781 32.284374Q298.8781 33.878124 298.3 35.159374Q297.7375 36.425 296.64374 37.1125Q295.55 37.784374 294.34686 37.784374Q293.47186 37.784374 292.76874 37.409374Q292.08124 37.034374 291.6281 36.471874L291.6281 41.51875L289.8625 41.51875ZM291.45624 32.425Q291.45624 34.425 292.26874 35.378124Q293.08124 36.33125 294.2375 36.33125Q295.40936 36.33125 296.2375 35.346874Q297.08124 34.3625 297.08124 32.26875Q297.08124 30.3 296.2531 29.315624Q295.4406 28.315624 294.3156 28.315624Q293.1906 28.315624 292.3156 29.378124Q291.45624 30.425 291.45624 32.425ZM307.97186 34.20625L309.78436 34.440624Q309.3625 36.01875 308.1906 36.909374Q307.03436 37.784374 305.22186 37.784374Q302.95624 37.784374 301.6125 36.39375Q300.28436 34.9875 300.28436 32.45625Q300.28436 29.83125 301.6281 28.39375Q302.97186 26.940624 305.1281 26.940624Q307.20624 26.940624 308.51874 28.3625Q309.84686 29.76875 309.84686 32.346874Q309.84686 32.503124 309.83124 32.815624L302.09686 32.815624Q302.1906 34.51875 303.0656 35.425Q303.9406 36.33125 305.2375 36.33125Q306.20624 36.33125 306.8781 35.83125Q307.5656 35.315624 307.97186 34.20625ZM302.1906 31.3625L307.9875 31.3625Q307.8781 30.065624 307.33124 29.409374Q306.4875 28.39375 305.14374 28.39375Q303.9406 28.39375 303.1125 29.20625Q302.28436 30.003124 302.1906 31.3625ZM311.84686 37.55L311.84686 27.175L313.425 27.175L313.425 28.753124Q314.03436 27.64375 314.55 27.3Q315.0656 26.940624 315.675 26.940624Q316.5656 26.940624 317.4875 27.503124L316.8781 29.14375Q316.2375 28.753124 315.59686 28.753124Q315.01874 28.753124 314.55 29.1125Q314.09686 29.45625 313.89374 30.065624Q313.6125 31.003124 313.6125 32.1125L313.6125 37.55L311.84686 37.55ZM318.15936 34.45625L319.90936 34.175Q320.05 35.221874 320.72186 35.784374Q321.39374 36.33125 322.59686 36.33125Q323.8 36.33125 324.3781 35.846874Q324.97186 35.346874 324.97186 34.690624Q324.97186 34.096874 324.45624 33.753124Q324.09686 33.51875 322.65936 33.159374Q320.72186 32.659374 319.97186 32.315624Q319.2375 31.95625 318.84686 31.33125Q318.45624 30.690624 318.45624 29.925Q318.45624 29.2375 318.76874 28.64375Q319.09686 28.05 319.64374 27.659374Q320.05 27.3625 320.7531 27.159374Q321.47186 26.940624 322.28436 26.940624Q323.5031 26.940624 324.425 27.3Q325.34686 27.64375 325.78436 28.253124Q326.22186 28.846874 326.39374 29.846874L324.675 30.08125Q324.55 29.284374 323.9875 28.846874Q323.425 28.39375 322.40936 28.39375Q321.1906 28.39375 320.675 28.8Q320.15936 29.190624 320.15936 29.721874Q320.15936 30.065624 320.3781 30.346874Q320.58124 30.628124 321.05 30.815624Q321.3156 30.909374 322.59686 31.253124Q324.47186 31.753124 325.20624 32.08125Q325.9406 32.39375 326.3625 33.003124Q326.78436 33.596874 326.78436 34.503124Q326.78436 35.378124 326.26874 36.159374Q325.7531 36.940624 324.78436 37.3625Q323.8156 37.784374 322.59686 37.784374Q320.58124 37.784374 319.51874 36.940624Q318.45624 36.096874 318.15936 34.45625ZM330.01874 41.753124L328.76874 41.753124Q331.675 37.065624 331.675 32.378124Q331.675 30.534374 331.26874 28.7375Q330.925 27.26875 330.33124 25.925Q329.95624 25.034374 328.76874 22.9875L330.01874 22.9875Q331.8625 25.440624 332.7375 27.909374Q333.4875 30.034374 333.4875 32.3625Q333.4875 35.003124 332.47186 37.471874Q331.47186 39.925 330.01874 41.753124Z" fill-rule="nonzero"/></svg>