<svg version="1.1" viewBox="0.0 0.0 600.0 371.0" fill="none" stroke="none" stroke-linecap="square" stroke-miterlimit="10" width="600" height="371" xmlns:xlink="http://www.w3.org/1999/xlink" xmlns="http://www.w3.org/2000/svg"><path fill="#ffffff" d="M0 0L600.0 0L600.0 371.0L0 371.0L0 0Z" fill-rule="nonzero"/><path stroke="#333333" stroke-width="1.0" stroke-linecap="butt" d="M45.5 321.5L581.5 321.5" fill-rule="nonzero"/><path stroke="#cccccc" stroke-width="1.0" stroke-linecap="butt" d="M45.5 256.5L581.5 256.5" fill-rule="nonzero"/><path stroke="#cccccc" stroke-width="1.0" stroke-linecap="butt" d="M45.5 191.5L581.5 191.5" fill-rule="nonzero"/><path stroke="#cccccc" stroke-width="1.0" stroke-linecap="butt" d="M45.5 126.5L581.5 126.5" fill-rule="nonzero"/><path stroke="#cccccc" stroke-width="1.0" stroke-linecap="butt" d="M45.5 61.5L581.5 61.5" fill-rule="nonzero"/><clipPath id="id_0"><path d="M45.55 61.916668L581.45 61.916668L581.45 321.70126L45.55 321.70126L45.55 61.916668Z" clip-rule="nonzero"/></clipPath><path stroke="#000000" stroke-width="2.0" stroke-linecap="butt" stroke-opacity="0.0" clip-path="url(#id_0)" d="M73.0 322.0L55.0 322.0L55.0 320.0C55.0 318.89542 55.89543 318.0 57.0 318.0L71.0 318.0C72.10457 318.0 73.0 318.89542 73.0 320.0Z" fill-rule="nonzero"/><path fill="#5891ad" clip-path="url(#id_0)" d="M73.0 322.0L55.0 322.0L55.0 320.0C55.0 318.89542 55.89543 318.0 57.0 318.0L71.0 318.0C72.10457 318.0 73.0 318.89542 73.0 320.0Z" fill-rule="nonzero"/><path stroke="#000000" stroke-width="2.0" stroke-linecap="butt" stroke-opacity="0.0" clip-path="url(#id_0)" d="M101.0 322.0L83.0 322.0L83.0 320.0C83.0 318.89542 83.89543 318.0 85.0 318.0L99.0 318.0C100.10457 318.0 101.0 318.89542 101.0 320.0Z" fill-rule="nonzero"/><path fill="#5891ad" clip-path="url(#id_0)" d="M101.0 322.0L83.0 322.0L83.0 320.0C83.0 318.89542 83.89543 318.0 85.0 318.0L99.0 318.0C100.10457 318.0 101.0 318.89542 101.0 320.0Z" fill-rule="nonzero"/><path stroke="#000000" stroke-width="2.0" stroke-linecap="butt" stroke-opacity="0.0" clip-path="url(#id_0)" d="M129.0 322.0L111.0 322.0L111.0 322.0L129.0 322.0Z" fill-rule="nonzero"/><path fill="#5891ad" clip-path="url(#id_0)" d="M129.0 322.0L111.0 322.0L111.0 322.0L129.0 322.0Z" fill-rule="nonzero"/><path stroke="#000000" stroke-width="2.0" stroke-linecap="butt" stroke-opacity="0.0" clip-path="url(#id_0)" d="M156.0 322.0L138.0 322.0L138.0 322.0L156.0 322.0Z" fill-rule="nonzero"/><path fill="#5891ad" clip-path="url(#id_0)" d="M156.0 322.0L138.0 322.0L138.0 322.0L156.0 322.0Z" fill-rule="nonzero"/><path stroke="#000000" stroke-width="2.0" stroke-linecap="butt" stroke-opacity="0.0" clip-path="url(#id_0)" d="M184.0 322.0L166.0 322.0L166.0 322.0L184.0 322.0Z" fill-rule="nonzero"/><path fill="#5891ad" clip-path="url(#id_0)" d="M184.0 322.0L166.0 322.0L166.0 322.0L184.0 322.0Z" fill-rule="nonzero"/><path stroke="#000000" stroke-width="2.0" stroke-linecap="butt" stroke-opacity="0.0" clip-path="url(#id_0)" d="M212.0 322.0L194.0 322.0L194.0 320.0C194.0 318.89542 194.89543 318.0 196.0 318.0L210.0 318.0C211.10457 318.0 212.0 318.89542 212.0 320.0Z" fill-rule="nonzero"/><path fill="#5891ad" clip-path="url(#id_0)" d="M212.0 322.0L194.0 322.0L194.0 320.0C194.0 318.89542 194.89543 318.0 196.0 318.0L210.0 318.0C211.10457 318.0 212.0 318.89542 212.0 320.0Z" fill-rule="nonzero"/><path stroke="#000000" stroke-width="2.0" stroke-linecap="butt" stroke-opacity="0.0" clip-path="url(#id_0)" d="M239.0 322.0L221.0 322.0L221.0 314.0C221.0 312.89542 221.89543 312.0 223.0 312.0L237.0 312.0C238.10457 312.0 239.0 312.89542 239.0 314.0Z" fill-rule="nonzero"/><path fill="#5891ad" clip-path="url(#id_0)" d="M239.0 322.0L221.0 322.0L221.0 314.0C221.0 312.89542 221.89543 312.0 223.0 312.0L237.0 312.0C238.10457 312.0 239.0 312.89542 239.0 314.0Z" fill-rule="nonzero"/><path stroke="#000000" stroke-width="2.0" stroke-linecap="butt" stroke-opacity="0.0" clip-path="url(#id_0)" d="M267.0 322.0L249.0 322.0L249.0 322.0L267.0 322.0Z" fill-rule="nonzero"/><path fill="#5891ad" clip-path="url(#id_0)" d="M267.0 322.0L249.0 322.0L249.0 322.0L267.0 322.0Z" fill-rule="nonzero"/><path stroke="#000000" stroke-width="2.0" stroke-linecap="butt" stroke-opacity="0.0" clip-path="url(#id_0)" d="M295.0 322.0L277.0 322.0L277.0 322.0L295.0 322.0Z" fill-rule="nonzero"/><path fill="#5891ad" clip-path="url(#id_0)" d="M295.0 322.0L277.0 322.0L277.0 322.0L295.0 322.0Z" fill-rule="nonzero"/><path stroke="#000000" stroke-width="2.0" stroke-linecap="butt" stroke-opacity="0.0" clip-path="url(#id_0)" d="M323.0 322.0L305.0 322.0L305.0 317.0C305.0 315.89542 305.89542 315.0 307.0 315.0L321.0 315.0C322.10458 315.0 323.0 315.89542 323.0 317.0Z" fill-rule="nonzero"/><path fill="#5891ad" clip-path="url(#id_0)" d="M323.0 322.0L305.0 322.0L305.0 317.0C305.0 315.89542 305.89542 315.0 307.0 315.0L321.0 315.0C322.10458 315.0 323.0 315.89542 323.0 317.0Z" fill-rule="nonzero"/><path stroke="#000000" stroke-width="2.0" stroke-linecap="butt" stroke-opacity="0.0" clip-path="url(#id_0)" d="M350.0 322.0L332.0 322.0L332.0 307.0C332.0 305.89542 332.89542 305.0 334.0 305.0L348.0 305.0C349.10458 305.0 350.0 305.89542 350.0 307.0Z" fill-rule="nonzero"/><path fill="#5891ad" clip-path="url(#id_0)" d="M350.0 322.0L332.0 322.0L332.0 307.0C332.0 305.89542 332.89542 305.0 334.0 305.0L348.0 305.0C349.10458 305.0 350.0 305.89542 350.0 307.0Z" fill-rule="nonzero"/><path stroke="#000000" stroke-width="2.0" stroke-linecap="butt" stroke-opacity="0.0" clip-path="url(#id_0)" d="M378.0 322.0L360.0 322.0L360.0 301.0C360.0 299.89542 360.89542 299.0 362.0 299.0L376.0 299.0C377.10458 299.0 378.0 299.89542 378.0 301.0Z" fill-rule="nonzero"/><path fill="#5891ad" clip-path="url(#id_0)" d="M378.0 322.0L360.0 322.0L360.0 301.0C360.0 299.89542 360.89542 299.0 362.0 299.0L376.0 299.0C377.10458 299.0 378.0 299.89542 378.0 301.0Z" fill-rule="nonzero"/><path stroke="#000000" stroke-width="2.0" stroke-linecap="butt" stroke-opacity="0.0" clip-path="url(#id_0)" d="M406.0 322.0L388.0 322.0L388.0 291.0C388.0 289.89542 388.89542 289.0 390.0 289.0L404.0 289.0C405.10458 289.0 406.0 289.89542 406.0 291.0Z" fill-rule="nonzero"/><path fill="#5891ad" clip-path="url(#id_0)" d="M406.0 322.0L388.0 322.0L388.0 291.0C388.0 289.89542 388.89542 289.0 390.0 289.0L404.0 289.0C405.10458 289.0 406.0 289.89542 406.0 291.0Z" fill-rule="nonzero"/><path stroke="#000000" stroke-width="2.0" stroke-linecap="butt" stroke-opacity="0.0" clip-path="url(#id_0)" d="M433.0 322.0L415.0 322.0L415.0 194.0C415.0 192.89543 415.89542 192.0 417.0 192.0L431.0 192.0C432.10458 192.0 433.0 192.89543 433.0 194.0Z" fill-rule="nonzero"/><path fill="#5891ad" clip-path="url(#id_0)" d="M433.0 322.0L415.0 322.0L415.0 194.0C415.0 192.89543 415.89542 192.0 417.0 192.0L431.0 192.0C432.10458 192.0 433.0 192.89543 433.0 194.0Z" fill-rule="nonzero"/><path stroke="#000000" stroke-width="2.0" stroke-linecap="butt" stroke-opacity="0.0" clip-path="url(#id_0)" d="M461.0 322.0L443.0 322.0L443.0 200.0C443.0 198.89543 443.89542 198.0 445.0 198.0L459.0 198.0C460.10458 198.0 461.0 198.89543 461.0 200.0Z" fill-rule="nonzero"/><path fill="#5891ad" clip-path="url(#id_0)" d="M461.0 322.0L443.0 322.0L443.0 200.0C443.0 198.89543 443.89542 198.0 445.0 198.0L459.0 198.0C460.10458 198.0 461.0 198.89543 461.0 200.0Z" fill-rule="nonzero"/><path stroke="#000000" stroke-width="2.0" stroke-linecap="butt" stroke-opacity="0.0" clip-path="url(#id_0)" d="M489.0 322.0L471.0 322.0L471.0 158.0C471.0 156.89543 471.89542 156.0 473.0 156.0L487.0 156.0C488.10458 156.0 489.0 156.89543 489.0 158.0Z" fill-rule="nonzero"/><path fill="#5891ad" clip-path="url(#id_0)" d="M489.0 322.0L471.0 322.0L471.0 158.0C471.0 156.89543 471.89542 156.0 473.0 156.0L487.0 156.0C488.10458 156.0 489.0 156.89543 489.0 158.0Z" fill-rule="nonzero"/><path stroke="#000000" stroke-width="2.0" stroke-linecap="butt" stroke-opacity="0.0" clip-path="url(#id_0)" d="M516.0 322.0L498.0 322.0L498.0 109.0C498.0 107.89543 498.89542 107.0 500.0 107.0L514.0 107.0C515.10455 107.0 516.0 107.89543 516.0 109.0Z" fill-rule="nonzero"/><path fill="#5891ad" clip-path="url(#id_0)" d="M516.0 322.0L498.0 322.0L498.0 109.0C498.0 107.89543 498.89542 107.0 500.0 107.0L514.0 107.0C515.10455 107.0 516.0 107.89543 516.0 109.0Z" fill-rule="nonzero"/><path stroke="#000000" stroke-width="2.0" stroke-linecap="butt" stroke-opacity="0.0" clip-path="url(#id_0)" d="M544.0 322.0L526.0 322.0L526.0 148.0C526.0 146.89543 526.89545 146.0 528.0 146.0L542.0 146.0C543.10455 146.0 544.0 146.89543 544.0 148.0Z" fill-rule="nonzero"/><path fill="#5891ad" clip-path="url(#id_0)" d="M544.0 322.0L526.0 322.0L526.0 148.0C526.0 146.89543 526.89545 146.0 528.0 146.0L542.0 146.0C543.10455 146.0 544.0 146.89543 544.0 148.0Z" fill-rule="nonzero"/><path stroke="#000000" stroke-width="2.0" stroke-linecap="butt" stroke-opacity="0.0" clip-path="url(#id_0)" d="M572.0 322.0L554.0 322.0L554.0 243.0C554.0 241.89543 554.89545 241.0 556.0 241.0L570.0 241.0C571.10455 241.0 572.0 241.89543 572.0 243.0Z" fill-rule="nonzero"/><path fill="#5891ad" clip-path="url(#id_0)" d="M572.0 322.0L554.0 322.0L554.0 243.0C554.0 241.89543 554.89545 241.0 556.0 241.0L570.0 241.0C571.10455 241.0 572.0 241.89543 572.0 243.0Z" fill-rule="nonzero"/><path fill="#000000" d="M33.05 321.4669Q33.05 319.93564 33.3625 319.01376Q33.675 318.07626 34.284374 317.57626Q34.909374 317.07626 35.846874 317.07626Q36.534374 317.07626 37.05 317.3575Q37.58125 317.63876 37.925 318.17Q38.26875 318.68564 38.45625 319.43564Q38.64375 320.18564 38.64375 321.4669Q38.64375 322.9825 38.33125 323.9044Q38.034374 324.82626 37.409374 325.3419Q36.8 325.8419 35.846874 325.8419Q34.6125 325.8419 33.89375 324.95126Q33.05 323.88876 33.05 321.4669ZM34.128124 321.4669Q34.128124 323.57626 34.628124 324.2794Q35.128124 324.9825 35.846874 324.9825Q36.58125 324.9825 37.065624 324.2794Q37.565624 323.57626 37.565624 321.4669Q37.565624 319.3419 37.065624 318.6544Q36.58125 317.95126 35.83125 317.95126Q35.1125 317.95126 34.675 318.56064Q34.128124 319.3419 34.128124 321.4669Z" fill-rule="nonzero"/><path fill="#000000" d="M31.596874 259.7395L31.596874 260.75513L25.909374 260.75513Q25.909374 260.38013 26.034374 260.02075Q26.253124 259.44263 26.721874 258.88013Q27.20625 258.31763 28.1125 257.58325Q29.51875 256.427 30.003124 255.75513Q30.503124 255.08325 30.503124 254.4895Q30.503124 253.8645 30.05 253.44263Q29.596874 253.00513 28.878124 253.00513Q28.1125 253.00513 27.659374 253.45825Q27.20625 253.91138 27.190624 254.72388L26.1125 254.6145Q26.221874 253.39575 26.940624 252.77075Q27.675 252.13013 28.909374 252.13013Q30.14375 252.13013 30.8625 252.81763Q31.58125 253.50513 31.58125 254.52075Q31.58125 255.03638 31.3625 255.53638Q31.159374 256.02075 30.659374 256.58325Q30.175 257.13013 29.05 258.08325Q28.096874 258.88013 27.815624 259.177Q27.55 259.45825 27.378124 259.7395L31.596874 259.7395ZM33.05 256.52075Q33.05 254.9895 33.3625 254.06763Q33.675 253.13013 34.284374 252.63013Q34.909374 252.13013 35.846874 252.13013Q36.534374 252.13013 37.05 252.41138Q37.58125 252.69263 37.925 253.22388Q38.26875 253.7395 38.45625 254.4895Q38.64375 255.2395 38.64375 256.52075Q38.64375 258.03638 38.33125 258.95825Q38.034374 259.88013 37.409374 260.39575Q36.8 260.89575 35.846874 260.89575Q34.6125 260.89575 33.89375 260.00513Q33.05 258.94263 33.05 256.52075ZM34.128124 256.52075Q34.128124 258.63013 34.628124 259.33325Q35.128124 260.03638 35.846874 260.03638Q36.58125 260.03638 37.065624 259.33325Q37.565624 258.63013 37.565624 256.52075Q37.565624 254.39575 37.065624 253.70825Q36.58125 253.00513 35.83125 253.00513Q35.1125 253.00513 34.675 253.6145Q34.128124 254.39575 34.128124 256.52075Z" fill-rule="nonzero"/><path fill="#000000" d="M29.425 195.80896L29.425 193.74646L25.70625 193.74646L25.70625 192.77771L29.628124 187.21521L30.4875 187.21521L30.4875 192.77771L31.64375 192.77771L31.64375 193.74646L30.4875 193.74646L30.4875 195.80896L29.425 195.80896ZM29.425 192.77771L29.425 188.91833L26.7375 192.77771L29.425 192.77771ZM33.05 191.57458Q33.05 190.04333 33.3625 189.12146Q33.675 188.18396 34.284374 187.68396Q34.909374 187.18396 35.846874 187.18396Q36.534374 187.18396 37.05 187.46521Q37.58125 187.74646 37.925 188.27771Q38.26875 188.79333 38.45625 189.54333Q38.64375 190.29333 38.64375 191.57458Q38.64375 193.09021 38.33125 194.01208Q38.034374 194.93396 37.409374 195.44958Q36.8 195.94958 35.846874 195.94958Q34.6125 195.94958 33.89375 195.05896Q33.05 193.99646 33.05 191.57458ZM34.128124 191.57458Q34.128124 193.68396 34.628124 194.38708Q35.128124 195.09021 35.846874 195.09021Q36.58125 195.09021 37.065624 194.38708Q37.565624 193.68396 37.565624 191.57458Q37.565624 189.44958 37.065624 188.76208Q36.58125 188.05896 35.83125 188.05896Q35.1125 188.05896 34.675 188.66833Q34.128124 189.44958 34.128124 191.57458Z" fill-rule="nonzero"/><path fill="#000000" d="M31.51875 124.37843L30.471874 124.45656Q30.33125 123.83156 30.08125 123.55031Q29.64375 123.09718 29.01875 123.09718Q28.51875 123.09718 28.128124 123.37843Q27.64375 123.75343 27.346874 124.45656Q27.065624 125.14406 27.05 126.42531Q27.425 125.84718 27.971874 125.56593Q28.534374 125.28468 29.14375 125.28468Q30.190624 125.28468 30.925 126.06593Q31.675 126.84718 31.675 128.06593Q31.675 128.87843 31.315624 129.58156Q30.971874 130.26906 30.3625 130.64406Q29.753124 131.00343 28.9875 131.00343Q27.659374 131.00343 26.83125 130.03468Q26.003124 129.06593 26.003124 126.84718Q26.003124 124.34718 26.925 123.22218Q27.721874 122.23781 29.08125 122.23781Q30.096874 122.23781 30.7375 122.81593Q31.39375 123.37843 31.51875 124.37843ZM27.221874 128.08156Q27.221874 128.62843 27.440624 129.12843Q27.675 129.61281 28.08125 129.87843Q28.503124 130.14406 28.971874 130.14406Q29.628124 130.14406 30.1125 129.61281Q30.596874 129.06593 30.596874 128.14406Q30.596874 127.25343 30.1125 126.73781Q29.64375 126.22218 28.925 126.22218Q28.20625 126.22218 27.70625 126.73781Q27.221874 127.25343 27.221874 128.08156ZM33.05 126.62843Q33.05 125.09718 33.3625 124.17531Q33.675 123.23781 34.284374 122.73781Q34.909374 122.23781 35.846874 122.23781Q36.534374 122.23781 37.05 122.51906Q37.58125 122.80031 37.925 123.33156Q38.26875 123.84718 38.45625 124.59718Q38.64375 125.34718 38.64375 126.62843Q38.64375 128.14406 38.33125 129.06593Q38.034374 129.98781 37.409374 130.50343Q36.8 131.00343 35.846874 131.00343Q34.6125 131.00343 33.89375 130.11281Q33.05 129.05031 33.05 126.62843ZM34.128124 126.62843Q34.128124 128.73781 34.628124 129.44093Q35.128124 130.14406 35.846874 130.14406Q36.58125 130.14406 37.065624 129.44093Q37.565624 128.73781 37.565624 126.62843Q37.565624 124.50343 37.065624 123.81593Q36.58125 123.11281 35.83125 123.11281Q35.1125 123.11281 34.675 123.72218Q34.128124 124.50343 34.128124 126.62843Z" fill-rule="nonzero"/><path fill="#000000" d="M27.675 61.260414Q27.01875 61.010414 26.690624 60.572914Q26.378124 60.11979 26.378124 59.510414Q26.378124 58.572914 27.05 57.93229Q27.7375 57.291664 28.846874 57.291664Q29.971874 57.291664 30.659374 57.947914Q31.346874 58.604164 31.346874 59.541664Q31.346874 60.135414 31.034374 60.572914Q30.721874 61.010414 30.08125 61.260414Q30.878124 61.510414 31.284374 62.08854Q31.690624 62.666664 31.690624 63.46354Q31.690624 64.55729 30.909374 65.30729Q30.14375 66.05729 28.8625 66.05729Q27.596874 66.05729 26.815624 65.30729Q26.034374 64.55729 26.034374 63.43229Q26.034374 62.58854 26.45625 62.02604Q26.89375 61.46354 27.675 61.260414ZM27.45625 59.46354Q27.45625 60.072914 27.846874 60.46354Q28.253124 60.854164 28.878124 60.854164Q29.4875 60.854164 29.878124 60.479164Q30.26875 60.08854 30.26875 59.52604Q30.26875 58.947914 29.8625 58.55729Q29.45625 58.15104 28.8625 58.15104Q28.253124 58.15104 27.846874 58.541664Q27.45625 58.93229 27.45625 59.46354ZM27.128124 63.43229Q27.128124 63.885414 27.33125 64.30729Q27.55 64.729164 27.971874 64.96354Q28.39375 65.197914 28.878124 65.197914Q29.628124 65.197914 30.1125 64.71354Q30.6125 64.229164 30.6125 63.479164Q30.6125 62.71354 30.1125 62.21354Q29.6125 61.71354 28.846874 61.71354Q28.096874 61.71354 27.6125 62.21354Q27.128124 62.697914 27.128124 63.43229ZM33.05 61.68229Q33.05 60.15104 33.3625 59.229164Q33.675 58.291664 34.284374 57.791664Q34.909374 57.291664 35.846874 57.291664Q36.534374 57.291664 37.05 57.572914Q37.58125 57.854164 37.925 58.385414Q38.26875 58.90104 38.45625 59.65104Q38.64375 60.40104 38.64375 61.68229Q38.64375 63.197914 38.33125 64.11979Q38.034374 65.041664 37.409374 65.55729Q36.8 66.05729 35.846874 66.05729Q34.6125 66.05729 33.89375 65.166664Q33.05 64.104164 33.05 61.68229ZM34.128124 61.68229Q34.128124 63.791664 34.628124 64.49479Q35.128124 65.197914 35.846874 65.197914Q36.58125 65.197914 37.065624 64.49479Q37.565624 63.791664 37.565624 61.68229Q37.565624 59.55729 37.065624 58.86979Q36.58125 58.166664 35.83125 58.166664Q35.1125 58.166664 34.675 58.77604Q34.128124 59.55729 34.128124 61.68229Z" fill-rule="nonzero"/><path fill="#000000" d="M55.781006 350.2845L56.49916 351.00266L52.477493 355.02432Q52.212326 354.75916 52.0466 354.41666Q51.79248 353.85318 51.726192 353.12396Q51.670948 352.38373 51.79248 351.22363Q51.969257 349.41165 51.836678 348.59406Q51.71514 347.7654 51.295296 347.34558Q50.853355 346.90363 50.23464 346.92575Q49.60487 346.9368 49.096638 347.445Q48.55526 347.9864 48.55526 348.6272Q48.55526 349.26804 49.118736 349.8536L48.279045 350.5386Q47.4946 349.5995 47.56089 348.64932Q47.627182 347.67703 48.500015 346.8042Q49.372852 345.93137 50.367218 345.90927Q51.361588 345.88718 52.079742 346.60532Q52.444347 346.96994 52.64322 347.47815Q52.842094 347.9643 52.886288 348.7156Q52.93048 349.4448 52.80895 350.91425Q52.698463 352.1517 52.70951 352.5605Q52.72056 352.9472 52.7979 353.2676L55.781006 350.2845ZM54.53252 346.981Q53.449764 345.89822 53.01887 345.0254Q52.576927 344.1415 52.65427 343.35706Q52.742657 342.56155 53.40557 341.89865Q53.891705 341.4125 54.45518 341.2468Q55.029705 341.07 55.648422 341.20258Q56.256092 341.32413 56.919006 341.72186Q57.58192 342.11963 58.4879 343.0256Q59.55961 344.09732 59.9905 344.97015Q60.43244 345.83194 60.355103 346.6385Q60.277763 347.4229 59.6038 348.0969Q58.73097 348.96973 57.592968 348.84818Q56.245045 348.6935 54.53252 346.981ZM55.29487 346.21863Q56.786423 347.71017 57.63716 347.85382Q58.4879 347.99744 58.99613 347.4892Q59.515415 346.96994 59.360733 346.13025Q59.217102 345.2795 57.72555 343.78796Q56.222946 342.28534 55.38326 342.15277Q54.543568 341.99808 54.01324 342.5284Q53.505005 343.03665 53.62654 343.7769Q53.792267 344.71603 55.29487 346.21863ZM59.48227 342.03122Q58.39951 340.9485 57.968616 340.07565Q57.526676 339.19174 57.604015 338.40732Q57.692406 337.61182 58.355316 336.9489Q58.841454 336.46277 59.40493 336.29703Q59.979454 336.12027 60.59817 336.25284Q61.20584 336.3744 61.868755 336.77213Q62.531666 337.16986 63.437645 338.07587Q64.50935 339.14755 64.94025 340.0204Q65.38219 340.88217 65.30485 341.68872Q65.22751 342.47318 64.55355 343.14713Q63.680714 344.01996 62.542713 343.89844Q61.194794 343.74374 59.48227 342.03122ZM60.244617 341.2689Q61.73617 342.76044 62.58691 342.90405Q63.437645 343.0477 63.94588 342.53946Q64.465164 342.02017 64.31048 341.18048Q64.16685 340.32974 62.675297 338.8382Q61.172695 337.3356 60.333008 337.203Q59.493317 337.04834 58.962986 337.57867Q58.454754 338.0869 58.576286 338.82715Q58.742016 339.76627 60.244617 341.2689ZM65.83518 338.48465L66.55334 337.6339Q67.21625 338.12006 67.81287 338.09796Q68.42054 338.06482 68.87353 337.61182Q69.40386 337.08148 69.37071 336.29703Q69.33757 335.5126 68.67466 334.84967Q68.033844 334.20886 67.304634 334.20886Q66.57543 334.18677 65.98986 334.77234Q65.63631 335.1259 65.50372 335.58994Q65.38219 336.0429 65.47058 336.46277L64.686134 337.07043L62.156017 333.36917L65.18332 330.34186L65.89043 331.04898L63.459743 333.47964L64.77452 335.43524Q64.9292 334.50717 65.52582 333.91055Q66.32132 333.11505 67.41512 333.1261Q68.51997 333.1261 69.392815 333.99893Q70.2104 334.81653 70.34299 335.8993Q70.48662 337.21408 69.4812 338.21948Q68.65256 339.04813 67.65819 339.1144Q66.67487 339.16965 65.83518 338.48465Z" fill-rule="nonzero"/><path fill="#000000" d="M83.4761 350.2845L84.19425 351.00266L80.172585 355.02432Q79.90742 354.75916 79.74169 354.41666Q79.48757 353.85318 79.42128 353.12396Q79.366035 352.38373 79.48757 351.22363Q79.66435 349.41165 79.53177 348.59406Q79.41023 347.7654 78.99039 347.34558Q78.54845 346.90363 77.929726 346.92575Q77.299965 346.9368 76.791725 347.445Q76.25035 347.9864 76.25035 348.6272Q76.25035 349.26804 76.81383 349.8536L75.97414 350.5386Q75.18969 349.5995 75.25598 348.64932Q75.32227 347.67703 76.19511 346.8042Q77.06794 345.93137 78.06231 345.90927Q79.05668 345.88718 79.77483 346.60532Q80.139435 346.96994 80.33831 347.47815Q80.537186 347.9643 80.581375 348.7156Q80.62557 349.4448 80.504036 350.91425Q80.393555 352.1517 80.4046 352.5605Q80.41565 352.9472 80.49299 353.2676L83.4761 350.2845ZM82.227615 346.981Q81.14485 345.89822 80.71396 345.0254Q80.27202 344.1415 80.34936 343.35706Q80.437744 342.56155 81.10066 341.89865Q81.5868 341.4125 82.15027 341.2468Q82.72479 341.07 83.34351 341.20258Q83.95119 341.32413 84.6141 341.72186Q85.27701 342.11963 86.18299 343.0256Q87.2547 344.09732 87.68559 344.97015Q88.12753 345.83194 88.05019 346.63846Q87.972855 347.4229 87.2989 348.0969Q86.426056 348.96973 85.288055 348.84818Q83.94014 348.6935 82.227615 346.981ZM82.98996 346.21863Q84.481514 347.71017 85.33225 347.85382Q86.18299 347.99744 86.69122 347.4892Q87.2105 346.96994 87.055824 346.13025Q86.91219 345.2795 85.42064 343.78796Q83.91804 342.28534 83.07835 342.15277Q82.23866 341.99808 81.70833 342.5284Q81.200096 343.03665 81.32163 343.7769Q81.48736 344.71603 82.98996 346.21863ZM87.17736 342.03122Q86.094604 340.9485 85.66371 340.07565Q85.22176 339.19174 85.29911 338.40732Q85.3875 337.61182 86.05041 336.9489Q86.536545 336.46277 87.10002 336.29703Q87.674545 336.12027 88.29326 336.25284Q88.90093 336.3744 89.56384 336.77213Q90.22676 337.16986 91.13274 338.07587Q92.204445 339.14755 92.63534 340.0204Q93.07728 340.88217 92.99994 341.68872Q92.9226 342.47318 92.24864 343.14713Q91.37581 344.01996 90.23781 343.89844Q88.889885 343.74374 87.17736 342.03122ZM87.93971 341.2689Q89.43126 342.76044 90.282 342.90405Q91.13274 343.0477 91.64097 342.53946Q92.160255 342.02017 92.00557 341.18048Q91.86194 340.32974 90.37039 338.8382Q88.86778 337.3356 88.0281 337.203Q87.18841 337.04834 86.65808 337.57867Q86.14984 338.0869 86.27138 338.82715Q86.4371 339.76627 87.93971 341.2689ZM94.40311 331.6235L93.718094 332.419Q93.17672 332.0765 92.80107 332.05438Q92.1713 332.04333 91.72936 332.4853Q91.37581 332.83884 91.29847 333.31393Q91.22112 333.9216 91.508385 334.6287Q91.79565 335.31372 92.69058 336.23074Q92.54695 335.5568 92.73478 334.97122Q92.93365 334.3746 93.36454 333.9437Q94.1048 333.20343 95.176506 333.2366Q96.25926 333.2587 97.12105 334.12048Q97.69557 334.695 97.93864 335.4463Q98.18171 336.1755 98.01598 336.87155Q97.8392 337.55658 97.29783 338.09796Q96.358696 339.03708 95.08812 338.93765Q93.817535 338.8382 92.24864 337.26932Q90.48087 335.50156 90.33724 334.05417Q90.20466 332.79465 91.165886 331.83344Q91.88404 331.11526 92.74583 331.07108Q93.60761 331.0048 94.40311 331.6235ZM93.98326 337.28036Q94.369965 337.66705 94.8782 337.86594Q95.38643 338.0427 95.86151 337.94327Q96.34765 337.8328 96.67911 337.50134Q97.14314 337.0373 97.11 336.31912Q97.0658 335.58994 96.41394 334.93808Q95.78417 334.3083 95.077065 334.2862Q94.38101 334.25305 93.87278 334.7613Q93.36454 335.26953 93.375595 335.98767Q93.39769 336.6948 93.98326 337.28036Z" fill-rule="nonzero"/><path fill="#000000" d="M111.17119 350.2845L111.88934 351.00266L107.867676 355.02432Q107.60251 354.75916 107.43678 354.41666Q107.18266 353.85318 107.11637 353.12396Q107.06113 352.38373 107.18266 351.22363Q107.35944 349.41165 107.22686 348.59406Q107.10532 347.7654 106.68548 347.34558Q106.24354 346.90363 105.62482 346.92572Q104.995056 346.9368 104.48682 347.445Q103.94544 347.9864 103.94544 348.6272Q103.94544 349.26804 104.50892 349.8536L103.66923 350.5386Q102.88478 349.5995 102.95107 348.64932Q103.017365 347.67703 103.8902 346.8042Q104.76303 345.93137 105.7574 345.90927Q106.75177 345.88718 107.469925 346.60532Q107.834526 346.96994 108.0334 347.47815Q108.23228 347.9643 108.27647 348.7156Q108.32066 349.4448 108.19913 350.91425Q108.088646 352.1517 108.09969 352.5605Q108.11074 352.9472 108.18808 353.2676L111.17119 350.2845ZM109.92271 346.981Q108.83994 345.89822 108.40905 345.0254Q107.96711 344.1415 108.04445 343.35706Q108.132835 342.56155 108.79575 341.89865Q109.28189 341.4125 109.84536 341.2468Q110.41988 341.07 111.038605 341.20258Q111.64628 341.32413 112.30919 341.72186Q112.9721 342.11963 113.87808 343.0256Q114.94979 344.09732 115.380684 344.97015Q115.822624 345.83194 115.745285 346.63846Q115.667946 347.4229 114.99399 348.0969Q114.12115 348.96973 112.98315 348.84818Q111.63522 348.6935 109.92271 346.981ZM110.68505 346.21863Q112.176605 347.71017 113.02734 347.85382Q113.87808 347.99744 114.386314 347.4892Q114.905594 346.96994 114.750916 346.13025Q114.607285 345.2795 113.11573 343.78793Q111.61313 342.28534 110.77344 342.15277Q109.933754 341.99808 109.40342 342.5284Q108.89519 343.03665 109.01672 343.7769Q109.18245 344.71603 110.68505 346.21863ZM114.87245 342.03122Q113.789696 340.9485 113.3588 340.07565Q112.916855 339.19174 112.9942 338.40732Q113.08259 337.61182 113.7455 336.9489Q114.231636 336.46277 114.79511 336.29703Q115.36964 336.12027 115.98835 336.25284Q116.59602 336.3744 117.258934 336.77213Q117.921844 337.16986 118.82783 338.07587Q119.899536 339.14755 120.33043 340.0204Q120.77237 340.88217 120.69503 341.68872Q120.61769 342.47318 119.94373 343.14713Q119.0709 344.01996 117.9329 343.89844Q116.58498 343.74374 114.87245 342.03122ZM115.634796 341.2689Q117.12635 342.76044 117.97709 342.90405Q118.82783 343.0477 119.33606 342.53946Q119.85535 342.02017 119.70066 341.18048Q119.55703 340.32974 118.06548 338.8382Q116.562874 337.3356 115.72319 337.203Q114.8835 337.04834 114.35317 337.57867Q113.84493 338.0869 113.96647 338.82715Q114.132195 339.76627 115.634796 341.2689ZM117.579346 334.75024L116.86119 334.03207L120.79447 330.09882L121.38004 330.6844Q121.42424 331.87762 121.87723 333.47964Q122.330215 335.0596 123.103615 336.45172Q123.63394 337.44608 124.48468 338.40732L123.71129 339.1807Q123.00418 338.4515 122.25288 337.16986Q121.51263 335.8772 121.07069 334.4409Q120.63979 332.99353 120.56245 331.76712L117.579346 334.75024Z" fill-rule="nonzero"/><path fill="#000000" d="M138.86627 350.2845L139.58443 351.00266L135.56276 355.02432Q135.29759 354.75916 135.13187 354.41666Q134.87775 353.85318 134.81146 353.12396Q134.75621 352.38373 134.87775 351.22363Q135.05452 349.41165 134.92195 348.59406Q134.80042 347.76544 134.38057 347.34558Q133.93863 346.90366 133.3199 346.92575Q132.69014 346.9368 132.1819 347.445Q131.64053 347.9864 131.64053 348.62723Q131.64053 349.26804 132.204 349.8536L131.36432 350.5386Q130.57986 349.5995 130.64616 348.64932Q130.71245 347.67703 131.58528 346.8042Q132.45811 345.93137 133.45248 345.90927Q134.44685 345.88718 135.16501 346.60535Q135.52962 346.96994 135.72849 347.47818Q135.92737 347.9643 135.97156 348.7156Q136.01575 349.4448 135.89421 350.91428Q135.78374 352.1517 135.79478 352.5605Q135.80583 352.9472 135.88316 353.2676L138.86627 350.2845ZM137.61778 346.981Q136.53503 345.89822 136.10414 345.0254Q135.6622 344.1415 135.73953 343.35706Q135.82793 342.56155 136.49083 341.89865Q136.97697 341.4125 137.54045 341.2468Q138.11497 341.07 138.73369 341.2026Q139.34135 341.32413 140.00427 341.72186Q140.66719 342.11963 141.57317 343.0256Q142.64488 344.09732 143.07578 344.97015Q143.51772 345.83194 143.44037 346.6385Q143.36304 347.4229 142.68907 348.0969Q141.81624 348.96973 140.67824 348.84818Q139.3303 348.6935 137.61778 346.981ZM138.38014 346.21863Q139.87169 347.71017 140.72243 347.85382Q141.57317 347.99744 142.0814 347.48923Q142.60068 346.96994 142.446 346.13025Q142.30237 345.2795 140.81082 343.78796Q139.30821 342.28534 138.46852 342.15277Q137.62883 341.99808 137.09851 342.5284Q136.59027 343.03665 136.7118 343.77692Q136.87753 344.71603 138.38014 346.21863ZM142.56754 342.03125Q141.48477 340.9485 141.05388 340.07565Q140.61194 339.19177 140.68929 338.40732Q140.77768 337.61182 141.44058 336.9489Q141.92673 336.46277 142.49019 336.29703Q143.06473 336.12027 143.68344 336.25284Q144.2911 336.3744 144.95403 336.77213Q145.61693 337.16986 146.52292 338.07587Q147.59462 339.14755 148.02551 340.0204Q148.46745 340.88217 148.39012 341.68872Q148.31277 342.47318 147.63882 343.14713Q146.76598 344.01996 145.62798 343.89844Q144.28006 343.74377 142.56754 342.03125ZM143.32988 341.2689Q144.82144 342.76044 145.67218 342.90408Q146.52292 343.0477 147.03114 342.53946Q147.55043 342.02017 147.39575 341.1805Q147.25212 340.32977 145.76056 338.8382Q144.25797 337.3356 143.41827 337.20303Q142.57858 337.04834 142.04825 337.57867Q141.54002 338.0869 141.66156 338.82715Q141.82729 339.7663 143.32988 341.2689ZM148.36803 335.63412Q147.7272 335.9214 147.18582 335.84406Q146.64445 335.74463 146.21356 335.31372Q145.55064 334.65082 145.57274 333.72272Q145.60588 332.7836 146.39034 331.99915Q147.18582 331.20367 148.136 331.18158Q149.08618 331.15945 149.74908 331.8224Q150.16893 332.24222 150.25732 332.77255Q150.3457 333.3029 150.0695 333.93265Q150.80975 333.54596 151.50581 333.66748Q152.20186 333.78903 152.76534 334.3525Q153.53874 335.1259 153.51665 336.20865Q153.5056 337.28036 152.59961 338.18634Q151.70468 339.08127 150.62192 339.10336Q149.53917 339.12546 148.74367 338.33Q148.14705 337.73334 148.0476 337.0373Q147.95923 336.3302 148.36803 335.63412ZM146.94276 334.51822Q147.37366 334.94913 147.92609 334.94913Q148.48955 334.93808 148.9315 334.49612Q149.3624 334.06525 149.37344 333.52386Q149.37344 332.97144 148.9757 332.57367Q148.5669 332.1649 148.00342 332.17593Q147.4289 332.17593 147.00905 332.59576Q146.57816 333.02667 146.56711 333.59015Q146.56711 334.14258 146.94276 334.51822ZM149.51707 337.55658Q149.83748 337.87698 150.27942 338.03168Q150.7324 338.1753 151.19644 338.04272Q151.66049 337.91013 152.00299 337.56763Q152.53333 337.0373 152.53333 336.3523Q152.54437 335.65622 152.01404 335.1259Q151.47266 334.5845 150.76555 334.5845Q150.05844 334.5845 149.51707 335.1259Q148.98674 335.65622 148.99779 336.3523Q148.99779 337.0373 149.51707 337.55658Z" fill-rule="nonzero"/><path fill="#000000" d="M166.56137 350.2845L167.27953 351.00266L163.25786 355.02432Q162.99269 354.75916 162.82697 354.41666Q162.57285 353.85318 162.50656 353.12396Q162.45131 352.38373 162.57285 351.2236Q162.74962 349.41165 162.61703 348.59406Q162.4955 347.7654 162.07567 347.34558Q161.63371 346.90363 161.015 346.92572Q160.38524 346.93677 159.877 347.445Q159.33562 347.9864 159.33562 348.6272Q159.33562 349.26804 159.8991 349.8536L159.0594 350.5386Q158.27496 349.5995 158.34125 348.6493Q158.40755 347.67703 159.28038 346.8042Q160.15321 345.93137 161.14758 345.90927Q162.14195 345.88718 162.8601 346.60532Q163.22472 346.96994 163.42358 347.47815Q163.62245 347.9643 163.66666 348.7156Q163.71085 349.4448 163.58931 350.91425Q163.47882 352.1517 163.48987 352.5605Q163.50093 352.9472 163.57826 353.2676L166.56137 350.2845ZM165.31288 346.981Q164.23013 345.89822 163.79924 345.0254Q163.3573 344.1415 163.43463 343.35706Q163.52303 342.56155 164.18593 341.89865Q164.67207 341.4125 165.23555 341.2468Q165.81007 341.07 166.42879 341.20258Q167.03645 341.32413 167.69937 341.72186Q168.36229 342.11963 169.26826 343.0256Q170.33997 344.09732 170.77086 344.97015Q171.21281 345.83194 171.13547 346.63846Q171.05812 347.4229 170.38417 348.0969Q169.51134 348.96973 168.37334 348.84818Q167.0254 348.6935 165.31288 346.981ZM166.07524 346.21863Q167.56679 347.71017 168.41753 347.85382Q169.26826 347.99744 169.77649 347.4892Q170.29578 346.96994 170.1411 346.13025Q169.99747 345.2795 168.50592 343.78793Q167.00331 342.28534 166.16362 342.15277Q165.32393 341.99808 164.79361 342.5284Q164.28537 343.03665 164.4069 343.7769Q164.57263 344.71603 166.07524 346.21863ZM170.26263 342.03122Q169.17987 340.9485 168.74898 340.07562Q168.30704 339.19174 168.38438 338.40732Q168.47276 337.61182 169.13568 336.9489Q169.62181 336.46277 170.18529 336.29703Q170.75981 336.12027 171.37854 336.25284Q171.9862 336.3744 172.64912 336.77213Q173.31203 337.16986 174.21802 338.07584Q175.28972 339.14755 175.72061 340.0204Q176.16255 340.88217 176.08522 341.68872Q176.00787 342.47318 175.33391 343.14713Q174.46107 344.01996 173.32307 343.89844Q171.97516 343.74374 170.26263 342.03122ZM171.02498 341.2689Q172.51654 342.76044 173.36728 342.90405Q174.21802 343.0477 174.72624 342.53946Q175.24553 342.02017 175.09085 341.18048Q174.94722 340.32974 173.45566 338.8382Q171.95306 337.3356 171.11337 337.203Q170.27368 337.04834 169.74335 337.57867Q169.23512 338.0869 169.35666 338.82715Q169.52238 339.76627 171.02498 341.2689ZM176.91385 338.56198L177.56572 337.77753Q178.16234 338.1974 178.64848 338.1753Q179.13461 338.1311 179.53236 337.73334Q179.87486 337.39084 179.9743 336.98206Q180.07375 336.55115 179.98535 336.13132Q179.88591 335.7004 179.55446 335.14798Q179.21196 334.5845 178.74791 334.12048Q178.69267 334.06522 178.59323 333.9658Q178.72581 334.5403 178.57114 335.15903Q178.40541 335.7667 177.95242 336.2197Q177.19006 336.98206 176.12941 336.95996Q175.0577 336.9268 174.16277 336.03186Q173.2347 335.1038 173.2126 333.99893Q173.20154 332.88303 174.01913 332.06543Q174.6047 331.47986 175.41125 331.31415Q176.22885 331.13736 177.07959 331.47986Q177.91927 331.81134 179.03517 332.92722Q180.19527 334.08734 180.6372 335.0375Q181.07916 335.96558 180.93553 336.8384Q180.7919 337.68915 180.12898 338.35205Q179.41083 339.07022 178.57114 339.1365Q177.7204 339.19174 176.91385 338.56198ZM177.27846 332.8278Q176.63763 332.18698 175.91948 332.15384Q175.21239 332.10965 174.72624 332.59576Q174.22906 333.09296 174.2622 333.8774Q174.29535 334.63974 174.94722 335.29163Q175.52174 335.86615 176.2399 335.8772Q176.95805 335.88824 177.46628 335.38Q177.98557 334.86072 177.95242 334.16467Q177.91927 333.4686 177.27846 332.8278Z" fill-rule="nonzero"/><path fill="#000000" d="M194.25645 350.2845L194.97461 351.00266L190.95294 355.02432Q190.68777 354.75916 190.52205 354.41666Q190.26793 353.85318 190.20164 353.12396Q190.1464 352.38373 190.26793 351.22363Q190.4447 349.41165 190.31212 348.59406Q190.1906 347.76544 189.77075 347.34558Q189.32881 346.90366 188.71008 346.92575Q188.08032 346.9368 187.57208 347.445Q187.03072 347.9864 187.03072 348.62723Q187.03072 349.26804 187.59418 349.8536L186.7545 350.5386Q185.97005 349.5995 186.03635 348.64932Q186.10263 347.67703 186.97546 346.8042Q187.8483 345.93137 188.84267 345.90927Q189.83704 345.88718 190.55519 346.60532Q190.9198 346.96994 191.11867 347.47818Q191.31755 347.9643 191.36174 348.7156Q191.40593 349.4448 191.2844 350.91428Q191.17392 352.1517 191.18497 352.5605Q191.19601 352.9472 191.27335 353.2676L194.25645 350.2845ZM193.00797 346.981Q191.92522 345.89822 191.49432 345.0254Q191.05238 344.1415 191.12971 343.35706Q191.21811 342.56155 191.88101 341.89865Q192.36716 341.4125 192.93063 341.2468Q193.50516 341.07 194.12387 341.2026Q194.73154 341.32413 195.39445 341.72186Q196.05737 342.11963 196.96335 343.0256Q198.03506 344.09732 198.46596 344.97015Q198.9079 345.83194 198.83055 346.6385Q198.75322 347.4229 198.07925 348.0969Q197.20642 348.96973 196.06842 348.84818Q194.72049 348.6935 193.00797 346.981ZM193.77032 346.21863Q195.26187 347.71017 196.11261 347.85382Q196.96335 347.99744 197.47159 347.48923Q197.99086 346.96994 197.83618 346.13025Q197.69255 345.2795 196.201 343.78796Q194.6984 342.28534 193.8587 342.15277Q193.01901 341.99808 192.4887 342.5284Q191.98045 343.03665 192.10199 343.77692Q192.26772 344.71603 193.77032 346.21863ZM203.75821 342.21906L203.01794 342.95932L198.26707 338.20844Q198.24498 338.73877 198.0682 339.44586Q197.89143 340.1309 197.67046 340.5949L196.9523 339.87677Q197.2727 338.95975 197.32796 338.0869Q197.3832 337.192 197.18433 336.59534L197.65941 336.12027L203.75821 342.21906ZM202.90747 337.08148Q201.8247 335.99872 201.39381 335.1259Q200.95187 334.242 201.02922 333.45755Q201.1176 332.66208 201.78052 331.99915Q202.26665 331.51303 202.83012 331.3473Q203.40465 331.1705 204.02336 331.3031Q204.63104 331.42462 205.29395 331.8224Q205.95686 332.22012 206.86284 333.1261Q207.93456 334.1978 208.36545 335.07065Q208.80739 335.93243 208.73004 336.73898Q208.65271 337.52344 207.97874 338.1974Q207.10591 339.07022 205.96791 338.9487Q204.62 338.794 202.90747 337.08148ZM203.66982 336.31912Q205.16136 337.8107 206.0121 337.9543Q206.86284 338.09796 207.37108 337.58972Q207.89037 337.07043 207.73567 336.23074Q207.59204 335.38 206.1005 333.88846Q204.59789 332.38586 203.75821 332.25327Q202.91852 332.0986 202.38818 332.62894Q201.87994 333.13715 202.00148 333.8774Q202.1672 334.81653 203.66982 336.31912Z" fill-rule="nonzero"/><path fill="#000000" d="M221.95155 350.2845L222.66971 351.00266L218.64804 355.02432Q218.38287 354.75916 218.21715 354.41666Q217.96303 353.85318 217.89674 353.12396Q217.84149 352.38373 217.96303 351.2236Q218.1398 349.41165 218.00722 348.59406Q217.88568 347.7654 217.46585 347.34558Q217.0239 346.90363 216.40518 346.92572Q215.77542 346.93677 215.26718 347.445Q214.7258 347.9864 214.7258 348.6272Q214.7258 349.26804 215.28928 349.8536L214.44958 350.5386Q213.66515 349.5995 213.73143 348.6493Q213.79773 347.67703 214.67056 346.8042Q215.5434 345.93137 216.53777 345.90927Q217.53214 345.88718 218.25029 346.60532Q218.6149 346.96994 218.81377 347.47815Q219.01263 347.9643 219.05684 348.7156Q219.10103 349.4448 218.97949 350.91425Q218.869 352.1517 218.88005 352.5605Q218.89111 352.94717 218.96844 353.2676L221.95155 350.2845ZM220.70306 346.981Q219.62032 345.89822 219.18942 345.0254Q218.74747 344.1415 218.82481 343.35706Q218.91321 342.56155 219.57611 341.89865Q220.06226 341.4125 220.62573 341.2468Q221.20026 341.07 221.81897 341.20258Q222.42664 341.32413 223.08955 341.72186Q223.75247 342.11963 224.65845 343.0256Q225.73015 344.09732 226.16104 344.97015Q226.60298 345.83194 226.52565 346.63846Q226.4483 347.4229 225.77435 348.0969Q224.90152 348.96973 223.76352 348.84818Q222.41559 348.6935 220.70306 346.981ZM221.46542 346.21863Q222.95697 347.71017 223.80771 347.85382Q224.65845 347.99744 225.16667 347.4892Q225.68596 346.96994 225.53128 346.13025Q225.38765 345.2795 223.8961 343.78793Q222.3935 342.28534 221.5538 342.15277Q220.71411 341.99808 220.18379 342.5284Q219.67555 343.03665 219.79709 343.7769Q219.96281 344.71603 221.46542 346.21863ZM231.4533 342.21906L230.71304 342.95932L225.96217 338.20844Q225.94008 338.73877 225.7633 339.44586Q225.58652 340.1309 225.36555 340.5949L224.6474 339.87677Q224.9678 338.95975 225.02304 338.08688Q225.0783 337.19196 224.87941 336.59534L225.3545 336.12027L231.4533 342.21906ZM236.40303 337.26932L235.6628 338.00955L230.91193 333.2587Q230.88982 333.789 230.71304 334.49612Q230.53627 335.18112 230.31529 335.64517L229.59714 334.927Q229.91756 334.00998 229.9728 333.13715Q230.02803 332.24222 229.82916 331.6456L230.30424 331.17053L236.40303 337.26932Z" fill-rule="nonzero"/><path fill="#000000" d="M249.64664 350.2845L250.36479 351.00266L246.34312 355.02432Q246.07796 354.75916 245.91223 354.41666Q245.65811 353.85318 245.59183 353.12396Q245.53658 352.38373 245.65811 351.22363Q245.83488 349.41165 245.7023 348.59406Q245.58078 347.76544 245.16093 347.34558Q244.719 346.90363 244.10027 346.92575Q243.4705 346.9368 242.96227 347.445Q242.42088 347.9864 242.42088 348.62723Q242.42088 349.26804 242.98436 349.8536L242.14468 350.5386Q241.36023 349.5995 241.42653 348.64932Q241.49281 347.67703 242.36565 346.8042Q243.23848 345.93137 244.23285 345.90927Q245.22722 345.88718 245.94537 346.60532Q246.30998 346.96994 246.50885 347.47815Q246.70772 347.9643 246.75192 348.7156Q246.79611 349.4448 246.67458 350.91428Q246.56409 352.1517 246.57515 352.5605Q246.5862 352.9472 246.66353 353.2676L249.64664 350.2845ZM248.39815 346.981Q247.3154 345.89822 246.8845 345.0254Q246.44257 344.1415 246.5199 343.35706Q246.60829 342.56155 247.2712 341.89865Q247.75734 341.4125 248.32082 341.2468Q248.89534 341.07 249.51405 341.2026Q250.12172 341.32413 250.78464 341.72186Q251.44756 342.11963 252.35353 343.0256Q253.42525 344.09732 253.85614 344.97015Q254.29808 345.83194 254.22073 346.6385Q254.1434 347.4229 253.46944 348.0969Q252.5966 348.96973 251.4586 348.84818Q250.11067 348.6935 248.39815 346.981ZM249.1605 346.21863Q250.65205 347.71017 251.50279 347.85382Q252.35353 347.99744 252.86177 347.48923Q253.38104 346.96994 253.22636 346.13025Q253.08273 345.2795 251.59119 343.78796Q250.08858 342.28534 249.24889 342.15277Q248.4092 341.99808 247.87888 342.5284Q247.37064 343.03665 247.49217 343.77692Q247.6579 344.71603 249.1605 346.21863ZM259.14838 342.21906L258.40814 342.95932L253.65726 338.20844Q253.63516 338.73877 253.45839 339.44586Q253.28162 340.1309 253.06064 340.5949L252.34248 339.87677Q252.66289 338.95975 252.71814 338.0869Q252.77338 337.19196 252.57451 336.59534L253.04959 336.12027L259.14838 342.21906ZM264.49588 335.43524L265.21405 336.1534L261.19235 340.17508Q260.92722 339.9099 260.76147 339.5674Q260.50735 339.00394 260.44107 338.27472Q260.38583 337.5345 260.50735 336.3744Q260.68414 334.5624 260.55154 333.7448Q260.43002 332.9162 260.01016 332.49634Q259.56824 332.0544 258.94952 332.0765Q258.31973 332.08755 257.81152 332.59576Q257.27014 333.13715 257.27014 333.77798Q257.27014 334.4188 257.83362 335.00436L256.99393 335.68936Q256.20947 334.75024 256.27576 333.80008Q256.34204 332.8278 257.2149 331.95496Q258.08774 331.08212 259.0821 331.06003Q260.07648 331.03793 260.79462 331.75607Q261.1592 332.1207 261.3581 332.62894Q261.55698 333.11505 261.60117 333.86636Q261.64536 334.59555 261.52383 336.06503Q261.41333 337.30246 261.42438 337.71124Q261.43542 338.09796 261.5128 338.41837L264.49588 335.43524Z" fill-rule="nonzero"/><path fill="#000000" d="M277.34174 350.2845L278.05988 351.00266L274.0382 355.02432Q273.77304 354.75916 273.60733 354.41666Q273.3532 353.85318 273.28693 353.12396Q273.2317 352.3837 273.3532 351.2236Q273.53 349.41165 273.3974 348.59406Q273.27588 347.7654 272.85602 347.34558Q272.4141 346.90363 271.79538 346.92572Q271.1656 346.93677 270.65738 347.445Q270.116 347.9864 270.116 348.6272Q270.116 349.26804 270.67947 349.8536L269.83978 350.5386Q269.05533 349.5995 269.1216 348.6493Q269.1879 347.67703 270.06073 346.8042Q270.9336 345.93137 271.92795 345.90927Q272.9223 345.88718 273.64047 346.60532Q274.00507 346.96994 274.20395 347.47815Q274.40283 347.9643 274.44702 348.7156Q274.4912 349.4448 274.3697 350.91425Q274.2592 352.1517 274.27023 352.5605Q274.28128 352.94717 274.35864 353.2676L277.34174 350.2845ZM276.09326 346.981Q275.0105 345.89822 274.5796 345.0254Q274.13766 344.1415 274.215 343.35706Q274.30338 342.56155 274.9663 341.89865Q275.45242 341.4125 276.0159 341.24677Q276.59042 341.07 277.20914 341.20258Q277.81683 341.32413 278.47974 341.72186Q279.14264 342.11963 280.0486 343.0256Q281.12033 344.0973 281.55124 344.97015Q281.99316 345.83194 281.91583 346.63846Q281.8385 347.4229 281.16452 348.09686Q280.2917 348.96973 279.1537 348.84818Q277.8058 348.6935 276.09326 346.981ZM276.8556 346.21863Q278.34714 347.71017 279.19788 347.85382Q280.0486 347.99744 280.55685 347.4892Q281.07614 346.96994 280.92145 346.13025Q280.77783 345.2795 279.2863 343.78793Q277.78366 342.28534 276.944 342.15277Q276.1043 341.99808 275.57397 342.5284Q275.06573 343.03665 275.18726 343.7769Q275.353 344.71603 276.8556 346.21863ZM286.84348 342.21906L286.10324 342.9593L281.35236 338.20844Q281.33026 338.73877 281.15347 339.44586Q280.9767 340.1309 280.75574 340.5949L280.03757 339.87677Q280.358 338.95972 280.41324 338.08688Q280.46848 337.19196 280.2696 336.59534L280.7447 336.12027L286.84348 342.21906ZM287.38486 338.4736L288.0367 337.62286Q288.78802 338.1311 289.38464 338.109Q289.9702 338.07584 290.41217 337.6339Q290.9425 337.10358 290.9425 336.37436Q290.9425 335.64517 290.40112 335.1038Q289.89288 334.59555 289.21893 334.6066Q288.54495 334.59555 288.02567 335.11484Q287.81577 335.32477 287.58374 335.73355L287.00922 334.98227Q287.0976 334.91595 287.14178 334.87177Q287.61688 334.3967 287.74945 333.77795Q287.88205 333.13715 287.36276 332.61786Q286.95398 332.20908 286.4126 332.22012Q285.86017 332.22012 285.4182 332.66205Q284.98734 333.09296 284.96524 333.66748Q284.9542 334.23096 285.4182 334.84967L284.53433 335.46838Q283.92667 334.59555 284.004 333.70062Q284.07028 332.79465 284.78845 332.07648Q285.28564 331.5793 285.92645 331.38043Q286.5562 331.1705 287.14178 331.31415Q287.72736 331.45776 288.14722 331.87762Q288.5339 332.2643 288.65546 332.8057Q288.76593 333.33603 288.54495 333.93265Q289.1968 333.52383 289.89288 333.6233Q290.57788 333.71167 291.1745 334.3083Q291.97 335.1038 291.93686 336.2418Q291.91476 337.36874 291.03088 338.25262Q290.23538 339.04813 289.22998 339.10336Q288.2135 339.14755 287.38486 338.4736Z" fill-rule="nonzero"/><path fill="#000000" d="M305.03683 350.2845L305.75497 351.00262L301.7333 355.02432Q301.46814 354.75916 301.30243 354.41663Q301.0483 353.85315 300.98203 353.12396Q300.92676 352.3837 301.0483 351.2236Q301.2251 349.41165 301.0925 348.59406Q300.97098 347.7654 300.55112 347.34558Q300.1092 346.90363 299.49045 346.92572Q298.8607 346.93677 298.35245 347.445Q297.8111 347.9864 297.8111 348.6272Q297.8111 349.268 298.37457 349.85358L297.53488 350.5386Q296.75043 349.5995 296.8167 348.6493Q296.883 347.67703 297.75583 346.8042Q298.62866 345.93137 299.62305 345.90927Q300.6174 345.88718 301.33557 346.60532Q301.70016 346.9699 301.89905 347.47815Q302.09793 347.9643 302.14212 348.71558Q302.1863 349.4448 302.06476 350.91425Q301.95428 352.15167 301.96533 352.5605Q301.97638 352.94717 302.0537 353.26758L305.03683 350.2845ZM303.78833 346.98096Q302.7056 345.89822 302.2747 345.0254Q301.83276 344.14148 301.9101 343.35706Q301.99847 342.56155 302.6614 341.89865Q303.14752 341.4125 303.711 341.24677Q304.28552 341.07 304.90424 341.20258Q305.51193 341.32413 306.17484 341.72186Q306.83774 342.1196 307.7437 343.0256Q308.81543 344.0973 309.24634 344.97012Q309.68826 345.8319 309.61093 346.63846Q309.5336 347.4229 308.85962 348.09686Q307.9868 348.9697 306.8488 348.84818Q305.50085 348.69348 303.78833 346.98096ZM304.5507 346.21863Q306.04224 347.71017 306.89297 347.8538Q307.7437 347.99744 308.25195 347.4892Q308.77124 346.9699 308.61655 346.13022Q308.47293 345.27948 306.98138 343.78793Q305.47876 342.28534 304.63907 342.15274Q303.7994 341.99808 303.26907 342.5284Q302.76083 343.03665 302.88235 343.7769Q303.0481 344.716 304.5507 346.21863ZM314.53857 342.21906L313.79834 342.9593L309.04745 338.20844Q309.02536 338.73877 308.84857 339.44586Q308.6718 340.13086 308.45084 340.5949L307.73267 339.87677Q308.05307 338.95972 308.10834 338.08688Q308.16357 337.19196 307.9647 336.59534L308.4398 336.12024L314.53857 342.21906ZM319.06848 337.68915L317.61008 336.23074L314.98053 338.8603L314.2955 338.1753L313.1354 331.4688L313.74307 330.86115L317.67636 334.79443L318.49396 333.97684L319.17896 334.66183L318.3614 335.47943L319.8198 336.93784L319.06848 337.68915ZM316.92505 335.54572L314.19608 332.81674L315.02472 337.44608L316.92505 335.54572Z" fill-rule="nonzero"/><path fill="#000000" d="M332.7319 350.2845L333.45007 351.00266L329.4284 355.02432Q329.16324 354.75916 328.9975 354.41666Q328.74338 353.85318 328.6771 353.12396Q328.62186 352.38373 328.74338 351.22363Q328.92017 349.41165 328.78757 348.5941Q328.66605 347.76544 328.2462 347.34558Q327.80426 346.90366 327.18555 346.92575Q326.55576 346.9368 326.04755 347.44504Q325.50616 347.9864 325.50616 348.62723Q325.50616 349.26804 326.06964 349.8536L325.22995 350.5386Q324.4455 349.5995 324.51178 348.64932Q324.5781 347.67703 325.45093 346.8042Q326.32376 345.93137 327.3181 345.90927Q328.3125 345.88718 329.03064 346.60535Q329.39523 346.96994 329.59412 347.47818Q329.793 347.9643 329.8372 348.7156Q329.88138 349.44482 329.75986 350.91428Q329.64935 352.1517 329.6604 352.5605Q329.67145 352.9472 329.7488 353.2676L332.7319 350.2845ZM331.48343 346.981Q330.40067 345.89822 329.96976 345.0254Q329.52783 344.1415 329.60516 343.35706Q329.69354 342.56155 330.35648 341.89865Q330.8426 341.4125 331.40607 341.2468Q331.9806 341.07 332.59933 341.2026Q333.207 341.32413 333.8699 341.72186Q334.5328 342.11963 335.4388 343.0256Q336.5105 344.09732 336.9414 344.97015Q337.38333 345.83194 337.306 346.6385Q337.22867 347.4229 336.5547 348.0969Q335.68185 348.96973 334.54385 348.84818Q333.19595 348.6935 331.48343 346.981ZM332.24576 346.21863Q333.73734 347.71017 334.58807 347.85382Q335.4388 347.99744 335.94702 347.48923Q336.4663 346.96994 336.31165 346.13025Q336.168 345.2795 334.67645 343.78796Q333.17386 342.28534 332.33417 342.15277Q331.49448 341.99808 330.96414 342.5284Q330.4559 343.03665 330.57745 343.77692Q330.74316 344.71603 332.24576 346.21863ZM342.23364 342.21906L341.4934 342.95932L336.74252 338.20844Q336.72043 338.73877 336.54364 339.4459Q336.36688 340.1309 336.1459 340.59494L335.42776 339.87677Q335.74817 338.95975 335.8034 338.0869Q335.85864 337.192 335.65976 336.59537L336.13486 336.12027L342.23364 342.21906ZM342.78607 338.48465L343.50424 337.6339Q344.16714 338.12006 344.76376 338.09796Q345.37143 338.06482 345.82443 337.61182Q346.35477 337.08148 346.32162 336.29703Q346.28848 335.5126 345.62555 334.84967Q344.98474 334.20886 344.25552 334.20886Q343.52634 334.18677 342.94077 334.77234Q342.58722 335.1259 342.45462 335.58994Q342.3331 336.04294 342.42148 336.46277L341.63702 337.07043L339.1069 333.36917L342.13422 330.3419L342.8413 331.04898L340.41064 333.47968L341.72543 335.43524Q341.8801 334.50717 342.4767 333.91055Q343.27222 333.11505 344.36603 333.1261Q345.4709 333.1261 346.34372 333.99893Q347.16132 334.81653 347.29388 335.8993Q347.43753 337.21408 346.4321 338.21948Q345.60345 339.04813 344.6091 339.1144Q343.62576 339.16968 342.78607 338.48465Z" fill-rule="nonzero"/><path fill="#000000" d="M360.427 350.2845L361.14517 351.00266L357.12347 355.02432Q356.85834 354.75916 356.6926 354.41666Q356.43848 353.85318 356.3722 353.12396Q356.31696 352.38373 356.43848 351.22363Q356.61526 349.41165 356.48267 348.59406Q356.36115 347.7654 355.94128 347.34558Q355.49936 346.90363 354.88065 346.92572Q354.25085 346.9368 353.74265 347.445Q353.20126 347.9864 353.20126 348.6272Q353.20126 349.26804 353.76474 349.8536L352.92505 350.5386Q352.1406 349.5995 352.20688 348.64932Q352.27316 347.67703 353.14603 346.8042Q354.01886 345.93137 355.0132 345.90927Q356.0076 345.88718 356.72574 346.60532Q357.09033 346.96994 357.2892 347.47815Q357.4881 347.9643 357.5323 348.7156Q357.57648 349.4448 357.45496 350.91425Q357.34445 352.1517 357.3555 352.5605Q357.36655 352.9472 357.4439 353.2676L360.427 350.2845ZM359.17853 346.981Q358.09576 345.89822 357.66486 345.0254Q357.22293 344.1415 357.30026 343.35706Q357.38864 342.56155 358.05157 341.89865Q358.5377 341.4125 359.10117 341.2468Q359.6757 341.07 360.29443 341.20258Q360.9021 341.32413 361.565 341.72186Q362.2279 342.11963 363.13388 343.0256Q364.2056 344.09732 364.6365 344.97015Q365.07843 345.83194 365.0011 346.63846Q364.92377 347.4229 364.2498 348.0969Q363.37695 348.96973 362.23895 348.84818Q360.89105 348.6935 359.17853 346.981ZM359.94086 346.21863Q361.43243 347.71017 362.28314 347.85382Q363.13388 347.99744 363.64212 347.4892Q364.1614 346.96994 364.00674 346.13025Q363.8631 345.2795 362.37155 343.78796Q360.86896 342.28534 360.02927 342.15277Q359.18958 341.99808 358.65924 342.5284Q358.151 343.03665 358.27252 343.7769Q358.43826 344.71603 359.94086 346.21863ZM369.92874 342.21906L369.1885 342.95932L364.43762 338.20844Q364.41553 338.73877 364.23874 339.44586Q364.06198 340.1309 363.841 340.5949L363.12283 339.87677Q363.44327 338.95975 363.4985 338.0869Q363.55374 337.19196 363.35486 336.59534L363.82996 336.12027L369.92874 342.21906ZM371.354 331.6235L370.669 332.419Q370.12762 332.0765 369.75198 332.05438Q369.1222 332.04333 368.68027 332.4853Q368.32672 332.83884 368.24936 333.31393Q368.17203 333.9216 368.4593 334.6287Q368.74655 335.31372 369.64148 336.23074Q369.49786 335.5568 369.68567 334.97122Q369.88455 334.3746 370.31546 333.9437Q371.0557 333.20343 372.1274 333.2366Q373.21017 333.2587 374.07196 334.12048Q374.64648 334.695 374.88956 335.4463Q375.1326 336.1755 374.9669 336.87155Q374.7901 337.55658 374.24872 338.09796Q373.3096 339.03708 372.03903 338.93765Q370.76843 338.8382 369.19955 337.26932Q367.4318 335.50156 367.28815 334.05417Q367.15558 332.79465 368.1168 331.83344Q368.83493 331.11526 369.69672 331.07108Q370.5585 331.0048 371.354 331.6235ZM370.93417 337.28036Q371.32086 337.66705 371.8291 337.86594Q372.33734 338.0427 372.8124 337.94327Q373.29855 337.8328 373.63 337.50134Q374.09406 337.0373 374.0609 336.31912Q374.01672 335.58994 373.36484 334.93808Q372.73508 334.3083 372.02798 334.2862Q371.3319 334.25305 370.82367 334.7613Q370.31546 335.26953 370.3265 335.98767Q370.3486 336.6948 370.93417 337.28036Z" fill-rule="nonzero"/><path fill="#000000" d="M388.1221 350.2845L388.84024 351.00266L384.81857 355.02432Q384.5534 354.75916 384.3877 354.41666Q384.13358 353.85318 384.0673 353.12396Q384.01205 352.3837 384.13358 351.2236Q384.31036 349.41165 384.17776 348.59406Q384.05624 347.7654 383.63638 347.34558Q383.19446 346.90363 382.57574 346.92572Q381.94595 346.93677 381.43774 347.445Q380.89636 347.9864 380.89636 348.6272Q380.89636 349.268 381.45984 349.8536L380.62015 350.5386Q379.8357 349.5995 379.90198 348.6493Q379.96826 347.67703 380.8411 346.8042Q381.71393 345.93137 382.7083 345.90927Q383.70267 345.88718 384.42084 346.60532Q384.78543 346.9699 384.9843 347.47815Q385.1832 347.9643 385.2274 348.7156Q385.27158 349.4448 385.15005 350.91425Q385.03955 352.1517 385.0506 352.5605Q385.06165 352.94717 385.13898 353.26758L388.1221 350.2845ZM386.87363 346.98096Q385.79086 345.89822 385.35995 345.0254Q384.91803 344.1415 384.99536 343.35706Q385.08374 342.56155 385.74667 341.89865Q386.2328 341.4125 386.79626 341.24677Q387.3708 341.07 387.9895 341.20258Q388.5972 341.32413 389.2601 341.72186Q389.923 342.1196 390.82898 343.0256Q391.9007 344.0973 392.3316 344.97012Q392.77353 345.8319 392.6962 346.63846Q392.61887 347.4229 391.9449 348.09686Q391.07205 348.9697 389.93405 348.84818Q388.58615 348.69348 386.87363 346.98096ZM387.63596 346.21863Q389.1275 347.71017 389.97824 347.85382Q390.82898 347.99744 391.33722 347.4892Q391.8565 346.9699 391.7018 346.13025Q391.5582 345.2795 390.06665 343.78793Q388.56403 342.28534 387.72437 342.15277Q386.88467 341.99808 386.35434 342.5284Q385.8461 343.03665 385.96762 343.7769Q386.13336 344.71603 387.63596 346.21863ZM397.62384 342.21906L396.8836 342.9593L392.13272 338.20844Q392.11063 338.73877 391.93384 339.44586Q391.75708 340.1309 391.5361 340.5949L390.81793 339.87677Q391.13834 338.95972 391.1936 338.08688Q391.24884 337.19196 391.04996 336.59534L391.52505 336.12024L397.62384 342.21906ZM394.53024 334.75024L393.8121 334.03207L397.7454 330.0988L398.33096 330.68436Q398.37515 331.87762 398.82812 333.47964Q399.28113 335.0596 400.05453 336.45172Q400.58487 337.44608 401.4356 338.4073L400.6622 339.1807Q399.95508 338.4515 399.2038 337.16986Q398.46353 335.8772 398.0216 334.4409Q397.5907 332.99353 397.51337 331.76712L394.53024 334.75024Z" fill-rule="nonzero"/><path fill="#000000" d="M415.81717 350.28452L416.53534 351.00266L412.51367 355.02432Q412.2485 354.75916 412.08276 354.41666Q411.82864 353.85318 411.76236 353.124Q411.70712 352.38373 411.82864 351.22363Q412.00543 349.41168 411.87283 348.5941Q411.7513 347.76544 411.33145 347.34558Q410.88953 346.90366 410.2708 346.92575Q409.64105 346.9368 409.1328 347.44504Q408.59143 347.98642 408.59143 348.62723Q408.59143 349.26804 409.1549 349.8536L408.31522 350.5386Q407.53076 349.5995 407.59705 348.64932Q407.66336 347.67703 408.5362 346.8042Q409.40903 345.93137 410.40338 345.90927Q411.39777 345.88718 412.1159 346.60535Q412.4805 346.96994 412.67938 347.47818Q412.87827 347.9643 412.92245 348.7156Q412.96664 349.44482 412.84512 350.91428Q412.73462 352.1517 412.74567 352.56052Q412.7567 352.9472 412.83408 353.2676L415.81717 350.28452ZM414.5687 346.981Q413.48593 345.89822 413.05502 345.0254Q412.6131 344.1415 412.69043 343.35706Q412.7788 342.56158 413.44174 341.89865Q413.9279 341.41254 414.49133 341.2468Q415.06586 341.07 415.6846 341.2026Q416.29227 341.32413 416.95517 341.7219Q417.61807 342.11963 418.52408 343.0256Q419.59576 344.09732 420.02667 344.97015Q420.4686 345.83194 420.39127 346.6385Q420.31393 347.42294 419.63998 348.0969Q418.76712 348.96973 417.62912 348.8482Q416.28122 348.6935 414.5687 346.981ZM415.33102 346.21863Q416.8226 347.7102 417.67334 347.85382Q418.52408 347.99747 419.0323 347.48923Q419.55157 346.96994 419.3969 346.13025Q419.25327 345.2795 417.76172 343.78796Q416.25912 342.28537 415.41943 342.15277Q414.57974 341.9981 414.0494 342.5284Q413.54117 343.03665 413.66272 343.77692Q413.82843 344.71603 415.33102 346.21863ZM425.3189 342.21906L424.57867 342.95932L419.8278 338.20844Q419.8057 338.73877 419.6289 339.4459Q419.45215 340.1309 419.23117 340.59494L418.51303 339.87677Q418.83344 338.95975 418.88867 338.0869Q418.9439 337.192 418.74503 336.59537L419.22012 336.12027L425.3189 342.21906ZM425.3189 335.63412Q424.6781 335.9214 424.13672 335.84406Q423.59534 335.74463 423.16446 335.31372Q422.50156 334.65082 422.52365 333.72275Q422.5568 332.7836 423.34122 331.99918Q424.13672 331.20367 425.0869 331.18158Q426.03708 331.1595 426.69998 331.8224Q427.11984 332.24222 427.20822 332.77255Q427.2966 333.3029 427.0204 333.93265Q427.76065 333.54596 428.4567 333.66748Q429.15277 333.78903 429.71625 334.3525Q430.48962 335.12592 430.46753 336.20865Q430.45648 337.28036 429.5505 338.18634Q428.65558 339.08127 427.5728 339.10336Q426.49005 339.1255 425.69458 338.33Q425.09796 337.73337 424.9985 337.0373Q424.91013 336.3302 425.3189 335.63412ZM423.89365 334.51822Q424.32455 334.94913 424.87698 334.94913Q425.44046 334.93808 425.8824 334.49612Q426.3133 334.06525 426.32434 333.52386Q426.32434 332.97144 425.9266 332.5737Q425.5178 332.1649 424.9543 332.17593Q424.3798 332.17593 423.95996 332.5958Q423.52905 333.02667 423.518 333.59015Q423.518 334.14258 423.89365 334.51822ZM426.46796 337.55658Q426.7884 337.87698 427.23032 338.03168Q427.68332 338.1753 428.14734 338.04272Q428.6114 337.91013 428.9539 337.56763Q429.48422 337.0373 429.48422 336.3523Q429.49527 335.65622 428.96494 335.12592Q428.42355 334.58453 427.71646 334.58453Q427.00934 334.58453 426.46796 335.12592Q425.93765 335.65622 425.9487 336.3523Q425.9487 337.0373 426.46796 337.55658Z" fill-rule="nonzero"/><path fill="#000000" d="M443.51227 350.2845L444.23044 351.00266L440.20874 355.02432Q439.9436 354.75916 439.77786 354.41666Q439.52374 353.85318 439.45746 353.12396Q439.40222 352.38373 439.52374 351.22363Q439.70053 349.41165 439.56793 348.59406Q439.4464 347.76544 439.02655 347.34558Q438.58463 346.90366 437.9659 346.92575Q437.33612 346.9368 436.8279 347.445Q436.28653 347.9864 436.28653 348.62723Q436.28653 349.26804 436.85 349.8536L436.0103 350.5386Q435.22586 349.5995 435.29214 348.64932Q435.35846 347.67703 436.2313 346.8042Q437.10413 345.93137 438.09848 345.90927Q439.09286 345.88718 439.811 346.60532Q440.1756 346.96994 440.37448 347.47818Q440.57336 347.9643 440.61755 348.7156Q440.66174 349.4448 440.54022 350.91428Q440.42972 352.1517 440.44077 352.5605Q440.4518 352.9472 440.52917 353.2676L443.51227 350.2845ZM442.2638 346.981Q441.18103 345.89822 440.75012 345.0254Q440.3082 344.1415 440.38553 343.35706Q440.4739 342.56155 441.13684 341.89865Q441.62296 341.4125 442.18643 341.2468Q442.76096 341.07 443.3797 341.2026Q443.98737 341.32413 444.65027 341.72186Q445.31317 342.11963 446.21918 343.0256Q447.29086 344.09732 447.72177 344.97015Q448.1637 345.83194 448.08636 346.6385Q448.00903 347.4229 447.33505 348.0969Q446.46222 348.96973 445.32422 348.84818Q443.97632 348.6935 442.2638 346.981ZM443.02612 346.21863Q444.5177 347.71017 445.36844 347.85382Q446.21918 347.99744 446.7274 347.48923Q447.24667 346.96994 447.092 346.13025Q446.94836 345.2795 445.45682 343.78796Q443.95422 342.28534 443.11453 342.15277Q442.27484 341.99808 441.7445 342.5284Q441.23627 343.03665 441.35782 343.77692Q441.52353 344.71603 443.02612 346.21863ZM453.014 342.21906L452.27377 342.95932L447.5229 338.20844Q447.5008 338.73877 447.324 339.44586Q447.14725 340.1309 446.92627 340.5949L446.2081 339.87677Q446.52853 338.95975 446.58377 338.0869Q446.639 337.192 446.44012 336.59534L446.91522 336.12027L453.014 342.21906ZM453.86475 338.56198L454.51663 337.77756Q455.11325 338.1974 455.59937 338.1753Q456.0855 338.1311 456.48325 337.73334Q456.82578 337.39084 456.9252 336.98206Q457.02463 336.55115 456.93625 336.13132Q456.83682 335.7004 456.50537 335.14798Q456.16284 334.5845 455.69882 334.12048Q455.6436 334.06525 455.54413 333.9658Q455.67673 334.5403 455.52203 335.15903Q455.35632 335.76672 454.90332 336.2197Q454.14096 336.98206 453.08032 336.95996Q452.0086 336.92682 451.11368 336.03186Q450.18558 335.1038 450.16348 333.99893Q450.15244 332.88303 450.97003 332.06546Q451.5556 331.4799 452.36215 331.31415Q453.17975 331.13736 454.0305 331.4799Q454.87018 331.81134 455.98608 332.92725Q457.14618 334.08734 457.5881 335.0375Q458.03006 335.96558 457.8864 336.8384Q457.7428 337.68915 457.0799 338.35208Q456.36172 339.07022 455.52203 339.1365Q454.6713 339.19177 453.86475 338.56198ZM454.22937 332.8278Q453.58853 332.18698 452.8704 332.15384Q452.16327 332.10965 451.67715 332.59576Q451.17996 333.09296 451.2131 333.8774Q451.24625 334.63977 451.8981 335.29163Q452.47263 335.86615 453.1908 335.8772Q453.90894 335.88824 454.41718 335.38Q454.93646 334.86072 454.90332 334.16467Q454.87018 333.46863 454.22937 332.8278Z" fill-rule="nonzero"/><path fill="#000000" d="M471.20737 350.2845L471.9255 351.00266L467.90384 355.02432Q467.63867 354.75916 467.47296 354.41666Q467.21884 353.85318 467.15256 353.12396Q467.09732 352.38373 467.21884 351.2236Q467.39563 349.41165 467.26303 348.59406Q467.1415 347.7654 466.72165 347.34558Q466.27972 346.90363 465.661 346.92572Q465.03122 346.93677 464.523 347.445Q463.98163 347.9864 463.98163 348.6272Q463.98163 349.26804 464.5451 349.8536L463.7054 350.5386Q462.92096 349.5995 462.98724 348.6493Q463.05353 347.67703 463.92636 346.8042Q464.79922 345.93137 465.79358 345.90927Q466.78793 345.88718 467.5061 346.60532Q467.8707 346.96994 468.06958 347.47815Q468.26846 347.9643 468.31265 348.7156Q468.35684 349.4448 468.23532 350.91425Q468.12482 352.1517 468.13586 352.5605Q468.1469 352.94717 468.22427 353.2676L471.20737 350.2845ZM469.9589 346.981Q468.87613 345.89822 468.44522 345.0254Q468.0033 344.1415 468.08063 343.35706Q468.169 342.56155 468.83194 341.89865Q469.31805 341.4125 469.88153 341.2468Q470.45605 341.07 471.0748 341.20258Q471.68246 341.32413 472.34537 341.72186Q473.00827 342.11963 473.91425 343.0256Q474.98596 344.09732 475.41687 344.97015Q475.8588 345.83194 475.78146 346.63846Q475.70413 347.4229 475.03015 348.0969Q474.15732 348.96973 473.01932 348.84818Q471.67142 348.6935 469.9589 346.981ZM470.72122 346.21863Q472.21277 347.71017 473.0635 347.85382Q473.91425 347.99744 474.4225 347.4892Q474.94177 346.96994 474.78708 346.13025Q474.64346 345.2795 473.15192 343.78793Q471.64932 342.28534 470.80963 342.15277Q469.96994 341.99808 469.4396 342.5284Q468.93137 343.03665 469.0529 343.7769Q469.21863 344.71603 470.72122 346.21863ZM481.10687 340.385L481.825 341.10315L477.80334 345.12482Q477.53818 344.85965 477.37247 344.51715Q477.11835 343.95367 477.05203 343.22446Q476.9968 342.48422 477.11835 341.32413Q477.2951 339.51215 477.16254 338.69458Q477.041 337.86594 476.62115 337.44608Q476.1792 337.00415 475.5605 337.02625Q474.93073 337.0373 474.4225 337.54553Q473.8811 338.08688 473.8811 338.72772Q473.8811 339.36853 474.44458 339.9541L473.6049 340.6391Q472.82047 339.69998 472.88675 338.74982Q472.95303 337.77753 473.82587 336.9047Q474.6987 336.03186 475.69308 336.00977Q476.68744 335.98767 477.4056 336.70584Q477.7702 337.07043 477.9691 337.57867Q478.16794 338.0648 478.21213 338.8161Q478.25635 339.54532 478.1348 341.01477Q478.02432 342.2522 478.03537 342.66098Q478.04642 343.0477 478.12375 343.3681L481.10687 340.385ZM479.85837 337.08148Q478.7756 335.99872 478.34473 335.1259Q477.90277 334.242 477.98013 333.45755Q478.0685 332.66205 478.7314 331.99915Q479.21756 331.513 479.78104 331.3473Q480.35556 331.1705 480.97427 331.3031Q481.58194 331.42462 482.24487 331.8224Q482.90778 332.22012 483.81375 333.1261Q484.88547 334.1978 485.31635 335.07065Q485.7583 335.93243 485.68097 336.73898Q485.6036 337.52344 484.92966 338.1974Q484.05682 339.07022 482.91882 338.94867Q481.5709 338.794 479.85837 337.08148ZM480.62073 336.31912Q482.11227 337.8107 482.963 337.9543Q483.81375 338.09796 484.322 337.58972Q484.84128 337.07043 484.68658 336.23074Q484.54297 335.38 483.0514 333.88846Q481.5488 332.38586 480.7091 332.25327Q479.86942 332.0986 479.33908 332.6289Q478.83087 333.13715 478.9524 333.8774Q479.11813 334.81653 480.62073 336.31912Z" fill-rule="nonzero"/><path fill="#000000" d="M498.90247 350.2845L499.6206 351.00262L495.59894 355.02432Q495.33377 354.75916 495.16806 354.41663Q494.91394 353.85315 494.84766 353.12396Q494.79242 352.3837 494.91394 351.2236Q495.09073 349.41165 494.95813 348.59406Q494.8366 347.7654 494.41675 347.34558Q493.97482 346.90363 493.35608 346.92572Q492.72632 346.93677 492.21808 347.445Q491.67673 347.9864 491.67673 348.6272Q491.67673 349.268 492.2402 349.85358L491.4005 350.5386Q490.61606 349.5995 490.68234 348.6493Q490.74863 347.67703 491.62146 346.8042Q492.4943 345.93137 493.48868 345.90927Q494.48303 345.88718 495.2012 346.60532Q495.5658 346.9699 495.76468 347.47815Q495.96356 347.9643 496.00775 348.71558Q496.05194 349.4448 495.9304 350.91425Q495.81992 352.1517 495.83096 352.5605Q495.842 352.94717 495.91934 353.26758L498.90247 350.2845ZM497.654 346.98096Q496.57123 345.89822 496.14032 345.0254Q495.6984 344.14148 495.77573 343.35706Q495.8641 342.56155 496.52704 341.89865Q497.01315 341.4125 497.57663 341.24677Q498.15115 341.07 498.76987 341.20258Q499.37756 341.32413 500.04047 341.72186Q500.70337 342.1196 501.60934 343.0256Q502.68106 344.0973 503.11197 344.97012Q503.5539 345.8319 503.47656 346.63846Q503.39923 347.4229 502.72525 348.09686Q501.85242 348.9697 500.71442 348.84818Q499.36652 348.69348 497.654 346.98096ZM498.41632 346.21863Q499.90787 347.71017 500.7586 347.8538Q501.60934 347.99744 502.11758 347.4892Q502.63687 346.9699 502.48218 346.13022Q502.33856 345.27948 500.84702 343.78793Q499.3444 342.28534 498.5047 342.15277Q497.66504 341.99808 497.1347 342.5284Q496.62646 343.03665 496.748 343.7769Q496.91373 344.716 498.41632 346.21863ZM508.80197 340.38498L509.5201 341.10315L505.49844 345.12482Q505.23328 344.85965 505.06754 344.51715Q504.81345 343.95367 504.74713 343.22446Q504.6919 342.48422 504.81345 341.32413Q504.9902 339.51215 504.85764 338.69455Q504.73608 337.86594 504.31625 337.44608Q503.8743 337.00412 503.25558 337.02625Q502.62582 337.0373 502.11758 337.5455Q501.5762 338.08688 501.5762 338.72772Q501.5762 339.36853 502.13968 339.9541L501.3 340.6391Q500.51556 339.69998 500.58185 338.74982Q500.64813 337.77753 501.52097 336.9047Q502.3938 336.03186 503.38818 336.00977Q504.38254 335.98767 505.1007 336.7058Q505.4653 337.07043 505.66418 337.57867Q505.86304 338.0648 505.90723 338.8161Q505.95145 339.5453 505.8299 341.01477Q505.71942 342.2522 505.73047 342.66098Q505.74152 343.0477 505.81885 343.3681L508.80197 340.38498ZM513.35394 337.2693L512.6137 338.00955L507.86282 333.25867Q507.84073 333.789 507.66397 334.49612Q507.48718 335.18112 507.2662 335.64517L506.54807 334.927Q506.86847 334.00998 506.9237 333.13715Q506.97894 332.24222 506.78006 331.6456L507.25516 331.1705L513.35394 337.2693Z" fill-rule="nonzero"/><path fill="#000000" d="M526.59753 350.2845L527.3157 351.00266L523.294 355.02432Q523.0289 354.75916 522.86316 354.41666Q522.609 353.85318 522.5427 353.12396Q522.4875 352.38373 522.609 351.22363Q522.78577 349.41165 522.6532 348.5941Q522.5317 347.76544 522.1118 347.34558Q521.66986 346.90366 521.05115 346.92575Q520.4214 346.9368 519.91315 347.44504Q519.37177 347.9864 519.37177 348.62723Q519.37177 349.26804 519.93524 349.8536L519.0956 350.5386Q518.31116 349.5995 518.37744 348.64932Q518.4437 347.67703 519.3165 346.8042Q520.1894 345.93137 521.1838 345.90927Q522.1781 345.88718 522.8963 346.60535Q523.26086 346.96994 523.4598 347.47818Q523.6586 347.9643 523.7028 348.7156Q523.747 349.44482 523.6255 350.91428Q523.515 352.1517 523.52606 352.5605Q523.5371 352.9472 523.61444 353.2676L526.59753 350.2845ZM525.34906 346.981Q524.2663 345.89822 523.8354 345.0254Q523.39343 344.1415 523.4708 343.35706Q523.5592 342.56155 524.2221 341.89865Q524.70825 341.4125 525.2717 341.2468Q525.84625 341.07 526.46497 341.2026Q527.07263 341.32413 527.73553 341.7219Q528.39844 342.11963 529.30444 343.0256Q530.37616 344.09732 530.807 344.97015Q531.24896 345.83194 531.17163 346.6385Q531.0943 347.4229 530.42035 348.0969Q529.5475 348.96973 528.4095 348.84818Q527.0616 348.6935 525.34906 346.981ZM526.1114 346.21863Q527.60297 347.71017 528.4537 347.85382Q529.30444 347.99744 529.8127 347.48923Q530.332 346.96994 530.17725 346.13025Q530.0336 345.2795 528.54205 343.78796Q527.0395 342.28534 526.19977 342.15277Q525.3601 341.99808 524.8298 342.5284Q524.32153 343.03665 524.44305 343.77692Q524.6088 344.71603 526.1114 346.21863ZM536.497 340.385L537.2152 341.10315L533.19354 345.12482Q532.92834 344.85968 532.76263 344.51715Q532.5085 343.95367 532.4422 343.2245Q532.38696 342.48422 532.5085 341.32413Q532.6853 339.51218 532.5527 338.69458Q532.43115 337.86594 532.01135 337.4461Q531.5694 337.00415 530.9507 337.02625Q530.3209 337.0373 529.8127 337.54553Q529.2713 338.0869 529.2713 338.72772Q529.2713 339.36853 529.8348 339.9541L528.99506 340.63913Q528.21063 339.69998 528.2769 338.74982Q528.3432 337.77756 529.21606 336.90472Q530.08887 336.0319 531.08325 336.0098Q532.07764 335.98767 532.7958 336.70584Q533.1604 337.07043 533.35925 337.57867Q533.5581 338.06482 533.6023 338.8161Q533.6465 339.54532 533.52496 341.01477Q533.4145 342.2522 533.42554 342.661Q533.4366 343.0477 533.5139 343.3681L536.497 340.385ZM541.4468 335.43527L542.1649 336.1534L538.14325 340.17508Q537.8781 339.9099 537.7124 339.5674Q537.45825 339.00394 537.39197 338.27472Q537.33673 337.5345 537.45825 336.3744Q537.635 334.5624 537.50244 333.74484Q537.3809 332.9162 536.96106 332.49634Q536.5191 332.0544 535.9004 332.0765Q535.2706 332.08755 534.7624 332.5958Q534.221 333.13715 534.221 333.77798Q534.221 334.4188 534.7845 335.00436L533.9448 335.68936Q533.1604 334.75024 533.2267 333.80008Q533.29297 332.8278 534.1658 331.95496Q535.03864 331.08212 536.033 331.06003Q537.02734 331.03793 537.74554 331.7561Q538.1101 332.1207 538.309 332.62894Q538.5079 333.11505 538.55206 333.86636Q538.59625 334.59558 538.47473 336.06503Q538.36426 337.30246 538.3753 337.71124Q538.38635 338.09796 538.4637 338.41837L541.4468 335.43527Z" fill-rule="nonzero"/><path fill="#000000" d="M554.29266 350.2845L555.0108 351.00262L550.98914 355.0243Q550.724 354.75912 550.5582 354.41663Q550.30414 353.85315 550.23785 353.12396Q550.1826 352.3837 550.30414 351.2236Q550.4809 349.41165 550.3483 348.59406Q550.2268 347.7654 549.80695 347.34555Q549.365 346.90363 548.7463 346.92572Q548.1165 346.93677 547.6083 347.445Q547.0669 347.9864 547.0669 348.6272Q547.0669 349.268 547.6304 349.85358L546.7907 350.53857Q546.0062 349.59946 546.0725 348.6493Q546.13885 347.677 547.01166 346.80417Q547.8845 345.93134 548.87885 345.90924Q549.8732 345.88715 550.5914 346.60532Q550.956 346.9699 551.15485 347.47815Q551.35376 347.96426 551.39795 348.71558Q551.44214 349.4448 551.3206 350.91425Q551.2101 352.15167 551.2211 352.5605Q551.23224 352.94717 551.3096 353.26758L554.29266 350.2845ZM553.0442 346.98096Q551.9614 345.8982 551.5305 345.02536Q551.08856 344.14148 551.1659 343.35703Q551.25433 342.56155 551.91724 341.89862Q552.4034 341.4125 552.96686 341.24677Q553.5414 341.06998 554.1601 341.20258Q554.76776 341.3241 555.43066 341.72186Q556.09357 342.1196 556.9996 343.02557Q558.0712 344.0973 558.50214 344.97012Q558.9441 345.8319 558.86676 346.63846Q558.7894 347.4229 558.1155 348.09686Q557.2426 348.9697 556.1046 348.84818Q554.7567 348.69348 553.0442 346.98096ZM553.8065 346.2186Q555.2981 347.71017 556.1488 347.8538Q556.9996 347.99744 557.50775 347.4892Q558.02704 346.9699 557.8724 346.13022Q557.72876 345.27948 556.2372 343.78793Q554.7346 342.28534 553.8949 342.15274Q553.05524 341.99808 552.5249 342.52838Q552.01666 343.03662 552.1382 343.7769Q552.3039 344.716 553.8065 346.2186ZM564.19214 340.38498L564.9103 341.10312L560.8886 345.12482Q560.6235 344.85965 560.45776 344.51712Q560.2036 343.95364 560.1373 343.22446Q560.0821 342.4842 560.2036 341.3241Q560.38043 339.51215 560.2478 338.69455Q560.1263 337.8659 559.7064 337.44608Q559.2645 337.00412 558.64575 337.0262Q558.016 337.03726 557.50775 337.5455Q556.96643 338.08688 556.96643 338.7277Q556.96643 339.3685 557.5299 339.95407L556.6902 340.6391Q555.90576 339.69998 555.97205 338.7498Q556.0383 337.77753 556.91113 336.9047Q557.784 336.03186 558.7784 336.00977Q559.7727 335.98767 560.4909 336.7058Q560.85547 337.0704 561.0544 337.57864Q561.25323 338.0648 561.2974 338.81607Q561.3416 339.5453 561.2201 341.01474Q561.1096 342.25217 561.12067 342.66098Q561.1317 343.04767 561.20905 343.36807L564.19214 340.38498ZM564.33575 338.47357L564.9877 337.62283Q565.73895 338.13107 566.3356 338.10898Q566.92114 338.07584 567.3631 337.63388Q567.89343 337.10355 567.89343 336.37436Q567.89343 335.64514 567.35205 335.10376Q566.8438 334.59555 566.16986 334.6066Q565.49585 334.59555 564.9766 335.1148Q564.76666 335.32474 564.53467 335.73355L563.96014 334.98224Q564.0485 334.91595 564.0927 334.87177Q564.5678 334.39667 564.7004 333.77795Q564.83295 333.13715 564.31366 332.61786Q563.9049 332.20905 563.3635 332.2201Q562.8111 332.2201 562.36914 332.66205Q561.93823 333.09293 561.91614 333.66745Q561.9051 334.23093 562.36914 334.84967L561.4852 335.46838Q560.87756 334.59555 560.95496 333.70062Q561.02124 332.79462 561.7394 332.07648Q562.2366 331.57928 562.8774 331.3804Q563.50714 331.1705 564.0927 331.31412Q564.6783 331.45776 565.09814 331.8776Q565.4848 332.2643 565.6064 332.80566Q565.71686 333.336 565.49585 333.93262Q566.14777 333.52383 566.8438 333.62326Q567.5288 333.71167 568.1254 334.3083Q568.9209 335.10376 568.88776 336.24176Q568.86566 337.3687 567.9818 338.2526Q567.1863 339.0481 566.1809 339.10333Q565.1644 339.14755 564.33575 338.47357Z" fill-rule="nonzero"/><path fill="#757575" d="M20.096874 37.55L20.096874 23.2375L25.4875 23.2375Q26.925 23.2375 27.675 23.3625Q28.721874 23.55 29.440624 24.05Q30.159374 24.534374 30.58125 25.425Q31.01875 26.315624 31.01875 27.378124Q31.01875 29.20625 29.846874 30.471874Q28.690624 31.721874 25.659374 31.721874L21.9875 31.721874L21.9875 37.55L20.096874 37.55ZM21.9875 30.034374L25.690624 30.034374Q27.51875 30.034374 28.284374 29.3625Q29.065624 28.675 29.065624 27.425Q29.065624 26.534374 28.6125 25.89375Q28.159374 25.253124 27.425 25.05Q26.940624 24.925 25.64375 24.925L21.9875 24.925L21.9875 30.034374ZM39.64375 36.26875Q38.659374 37.096874 37.753124 37.440624Q36.846874 37.784374 35.815624 37.784374Q34.1125 37.784374 33.190624 36.95625Q32.26875 36.1125 32.26875 34.815624Q32.26875 34.05 32.6125 33.425Q32.971874 32.8 33.534374 32.425Q34.096874 32.034374 34.8 31.83125Q35.315624 31.70625 36.3625 31.565624Q38.4875 31.315624 39.4875 30.971874Q39.503124 30.6125 39.503124 30.503124Q39.503124 29.440624 39.003124 28.9875Q38.33125 28.39375 37.003124 28.39375Q35.753124 28.39375 35.159374 28.83125Q34.58125 29.26875 34.3 30.378124L32.58125 30.14375Q32.815624 29.034374 33.346874 28.3625Q33.878124 27.675 34.89375 27.315624Q35.909374 26.940624 37.253124 26.940624Q38.58125 26.940624 39.409374 27.253124Q40.2375 27.565624 40.628124 28.05Q41.01875 28.51875 41.175 29.2375Q41.26875 29.690624 41.26875 30.8625L41.26875 33.20625Q41.26875 35.659374 41.378124 36.315624Q41.4875 36.95625 41.83125 37.55L39.9875 37.55Q39.721874 37.003124 39.64375 36.26875ZM39.4875 32.346874Q38.534374 32.7375 36.6125 33.003124Q35.534374 33.159374 35.08125 33.3625Q34.64375 33.55 34.39375 33.925Q34.14375 34.3 34.14375 34.76875Q34.14375 35.471874 34.675 35.940624Q35.20625 36.409374 36.2375 36.409374Q37.253124 36.409374 38.034374 35.971874Q38.83125 35.51875 39.20625 34.753124Q39.4875 34.14375 39.4875 32.9875L39.4875 32.346874ZM43.8625 41.51875L43.8625 27.175L45.471874 27.175L45.471874 28.51875Q46.034374 27.7375 46.7375 27.346874Q47.45625 26.940624 48.471874 26.940624Q49.8 26.940624 50.815624 27.628124Q51.83125 28.315624 52.346874 29.565624Q52.878124 30.8 52.878124 32.284374Q52.878124 33.878124 52.3 35.159374Q51.7375 36.425 50.64375 37.1125Q49.55 37.784374 48.346874 37.784374Q47.471874 37.784374 46.76875 37.409374Q46.08125 37.034374 45.628124 36.471874L45.628124 41.51875L43.8625 41.51875ZM45.45625 32.425Q45.45625 34.425 46.26875 35.378124Q47.08125 36.33125 48.2375 36.33125Q49.409374 36.33125 50.2375 35.346874Q51.08125 34.3625 51.08125 32.26875Q51.08125 30.3 50.253124 29.315624Q49.440624 28.315624 48.315624 28.315624Q47.190624 28.315624 46.315624 29.378124Q45.45625 30.425 45.45625 32.425ZM61.971874 34.20625L63.784374 34.440624Q63.3625 36.01875 62.190624 36.909374Q61.034374 37.784374 59.221874 37.784374Q56.95625 37.784374 55.6125 36.39375Q54.284374 34.9875 54.284374 32.45625Q54.284374 29.83125 55.628124 28.39375Q56.971874 26.940624 59.128124 26.940624Q61.20625 26.940624 62.51875 28.3625Q63.846874 29.76875 63.846874 32.346874Q63.846874 32.503124 63.83125 32.815624L56.096874 32.815624Q56.190624 34.51875 57.065624 35.425Q57.940624 36.33125 59.2375 36.33125Q60.20625 36.33125 60.878124 35.83125Q61.565624 35.315624 61.971874 34.20625ZM56.190624 31.3625L61.9875 31.3625Q61.878124 30.065624 61.33125 29.409374Q60.4875 28.39375 59.14375 28.39375Q57.940624 28.39375 57.1125 29.20625Q56.284374 30.003124 56.190624 31.3625ZM65.84688 37.55L65.84688 27.175L67.425 27.175L67.425 28.753124Q68.03438 27.64375 68.55 27.3Q69.06563 26.940624 69.675 26.940624Q70.56563 26.940624 71.4875 27.503124L70.87813 29.14375Q70.2375 28.753124 69.59688 28.753124Q69.01875 28.753124 68.55 29.1125Q68.09688 29.45625 67.89375 30.065624Q67.6125 31.003124 67.6125 32.1125L67.6125 37.55L65.84688 37.55ZM72.15938 34.45625L73.90938 34.175Q74.05 35.221874 74.72188 35.784374Q75.39375 36.33125 76.59688 36.33125Q77.8 36.33125 78.37813 35.846874Q78.97188 35.346874 78.97188 34.690624Q78.97188 34.096874 78.45625 33.753124Q78.09688 33.51875 76.65938 33.159374Q74.72188 32.659374 73.97188 32.315624Q73.2375 31.95625 72.84688 31.33125Q72.45625 30.690624 72.45625 29.925Q72.45625 29.2375 72.76875 28.64375Q73.09688 28.05 73.64375 27.659374Q74.05 27.3625 74.75313 27.159374Q75.47188 26.940624 76.28438 26.940624Q77.50313 26.940624 78.425 27.3Q79.34688 27.64375 79.78438 28.253124Q80.22188 28.846874 80.39375 29.846874L78.675 30.08125Q78.55 29.284374 77.9875 28.846874Q77.425 28.39375 76.40938 28.39375Q75.19063 28.39375 74.675 28.8Q74.15938 29.190624 74.15938 29.721874Q74.15938 30.065624 74.37813 30.346874Q74.58125 30.628124 75.05 30.815624Q75.31563 30.909374 76.59688 31.253124Q78.47188 31.753124 79.20625 32.08125Q79.94063 32.39375 80.3625 33.003124Q80.78438 33.596874 80.78438 34.503124Q80.78438 35.378124 80.26875 36.159374Q79.75313 36.940624 78.78438 37.3625Q77.81563 37.784374 76.59688 37.784374Q74.58125 37.784374 73.51875 36.940624Q72.45625 36.096874 72.15938 34.45625ZM90.4875 37.55L88.8625 37.55L88.8625 23.2375L90.6125 23.2375L90.6125 28.346874Q91.7375 26.940624 93.45625 26.940624Q94.40938 26.940624 95.26875 27.33125Q96.12813 27.721874 96.675 28.425Q97.22188 29.1125 97.53438 30.096874Q97.84688 31.08125 97.84688 32.20625Q97.84688 34.878124 96.53438 36.33125Q95.22188 37.784374 93.37813 37.784374Q91.53438 37.784374 90.4875 36.253124L90.4875 37.55ZM90.47188 32.284374Q90.47188 34.14375 90.97188 34.9875Q91.81563 36.33125 93.22188 36.33125Q94.37813 36.33125 95.20625 35.33125Q96.05 34.33125 96.05 32.346874Q96.05 30.315624 95.2375 29.3625Q94.44063 28.39375 93.3 28.39375Q92.14375 28.39375 91.3 29.39375Q90.47188 30.39375 90.47188 32.284374ZM99.78438 41.55L99.59688 39.89375Q100.175 40.05 100.59688 40.05Q101.19063 40.05 101.53438 39.846874Q101.89375 39.659374 102.1125 39.315624Q102.28438 39.05 102.65938 38.003124Q102.70625 37.846874 102.81563 37.565624L98.87813 27.175L100.76875 27.175L102.925 33.190624Q103.34688 34.33125 103.675 35.58125Q103.9875 34.378124 104.39375 33.221874L106.6125 27.175L108.37813 27.175L104.425 37.721874Q103.8 39.440624 103.44063 40.08125Q102.97188 40.95625 102.3625 41.346874Q101.76875 41.753124 100.925 41.753124Q100.40938 41.753124 99.78438 41.55ZM115.8625 41.51875L115.8625 27.175L117.47188 27.175L117.47188 28.51875Q118.03438 27.7375 118.7375 27.346874Q119.45625 26.940624 120.47188 26.940624Q121.8 26.940624 122.81563 27.628124Q123.83125 28.315624 124.34688 29.565624Q124.87813 30.8 124.87813 32.284374Q124.87813 33.878124 124.3 35.159374Q123.7375 36.425 122.64375 37.1125Q121.55 37.784374 120.34688 37.784374Q119.47188 37.784374 118.76875 37.409374Q118.08125 37.034374 117.62813 36.471874L117.62813 41.51875L115.8625 41.51875ZM117.45625 32.425Q117.45625 34.425 118.26875 35.378124Q119.08125 36.33125 120.2375 36.33125Q121.40938 36.33125 122.2375 35.346874Q123.08125 34.3625 123.08125 32.26875Q123.08125 30.3 122.25313 29.315624Q121.44063 28.315624 120.31563 28.315624Q119.19063 28.315624 118.31563 29.378124Q117.45625 30.425 117.45625 32.425ZM133.65938 37.55L133.65938 36.01875Q132.45625 37.784374 130.37813 37.784374Q129.45625 37.784374 128.65938 37.440624Q127.8625 37.08125 127.47188 36.55Q127.09688 36.01875 126.94063 35.2375Q126.83125 34.721874 126.83125 33.596874L126.83125 27.175L128.58125 27.175L128.58125 32.925Q128.58125 34.3 128.69063 34.784374Q128.8625 35.471874 129.39375 35.878124Q129.94063 36.26875 130.72188 36.26875Q131.51875 36.26875 132.20625 35.8625Q132.90938 35.45625 133.19063 34.76875Q133.4875 34.065624 133.4875 32.7375L133.4875 27.175L135.2375 27.175L135.2375 37.55L133.65938 37.55ZM138.4875 37.55L136.8625 37.55L136.8625 23.2375L138.6125 23.2375L138.6125 28.346874Q139.7375 26.940624 141.45625 26.940624Q142.40938 26.940624 143.26875 27.33125Q144.12813 27.721874 144.675 28.425Q145.22188 29.1125 145.53438 30.096874Q145.84688 31.08125 145.84688 32.20625Q145.84688 34.878124 144.53438 36.33125Q143.22188 37.784374 141.37813 37.784374Q139.53438 37.784374 138.4875 36.253124L138.4875 37.55ZM138.47188 32.284374Q138.47188 34.14375 138.97188 34.9875Q139.81563 36.33125 141.22188 36.33125Q142.37813 36.33125 143.20625 35.33125Q144.05 34.33125 144.05 32.346874Q144.05 30.315624 143.2375 29.3625Q142.44063 28.39375 141.3 28.39375Q140.14375 28.39375 139.3 29.39375Q138.47188 30.39375 138.47188 32.284374ZM147.83125 37.55L147.83125 23.2375L149.58125 23.2375L149.58125 37.55L147.83125 37.55ZM151.87813 25.253124L151.87813 23.2375L153.64375 23.2375L153.64375 25.253124L151.87813 25.253124ZM151.87813 37.55L151.87813 27.175L153.64375 27.175L153.64375 37.55L151.87813 37.55ZM162.64375 33.753124L164.3625 33.971874Q164.08125 35.76875 162.90938 36.784374Q161.75313 37.784374 160.05 37.784374Q157.925 37.784374 156.62813 36.39375Q155.33125 35.003124 155.33125 32.409374Q155.33125 30.721874 155.87813 29.471874Q156.44063 28.20625 157.58125 27.58125Q158.72188 26.940624 160.06563 26.940624Q161.75313 26.940624 162.81563 27.8Q163.89375 28.659374 164.20625 30.221874L162.4875 30.4875Q162.25313 29.440624 161.62813 28.925Q161.00313 28.39375 160.12813 28.39375Q158.8 28.39375 157.97188 29.346874Q157.14375 30.3 157.14375 32.346874Q157.14375 34.440624 157.94063 35.39375Q158.7375 36.33125 160.03438 36.33125Q161.06563 36.33125 161.75313 35.70625Q162.45625 35.065624 162.64375 33.753124ZM172.64375 36.26875Q171.65938 37.096874 170.75313 37.440624Q169.84688 37.784374 168.81563 37.784374Q167.1125 37.784374 166.19063 36.95625Q165.26875 36.1125 165.26875 34.815624Q165.26875 34.05 165.6125 33.425Q165.97188 32.8 166.53438 32.425Q167.09688 32.034374 167.8 31.83125Q168.31563 31.70625 169.3625 31.565624Q171.4875 31.315624 172.4875 30.971874Q172.50313 30.6125 172.50313 30.503124Q172.50313 29.440624 172.00313 28.9875Q171.33125 28.39375 170.00313 28.39375Q168.75313 28.39375 168.15938 28.83125Q167.58125 29.26875 167.3 30.378124L165.58125 30.14375Q165.81563 29.034374 166.34688 28.3625Q166.87813 27.675 167.89375 27.315624Q168.90938 26.940624 170.25313 26.940624Q171.58125 26.940624 172.40938 27.253124Q173.2375 27.565624 173.62813 28.05Q174.01875 28.51875 174.175 29.2375Q174.26875 29.690624 174.26875 30.8625L174.26875 33.20625Q174.26875 35.659374 174.37813 36.315624Q174.4875 36.95625 174.83125 37.55L172.9875 37.55Q172.72188 37.003124 172.64375 36.26875ZM172.4875 32.346874Q171.53438 32.7375 169.6125 33.003124Q168.53438 33.159374 168.08125 33.3625Q167.64375 33.55 167.39375 33.925Q167.14375 34.3 167.14375 34.76875Q167.14375 35.471874 167.675 35.940624Q168.20625 36.409374 169.2375 36.409374Q170.25313 36.409374 171.03438 35.971874Q171.83125 35.51875 172.20625 34.753124Q172.4875 34.14375 172.4875 32.9875L172.4875 32.346874ZM180.70625 35.971874L180.95625 37.534374Q180.22188 37.690624 179.62813 37.690624Q178.675 37.690624 178.14375 37.39375Q177.62813 37.08125 177.40938 36.596874Q177.19063 36.096874 177.19063 34.51875L177.19063 28.55L175.90938 28.55L175.90938 27.175L177.19063 27.175L177.19063 24.6125L178.94063 23.55L178.94063 27.175L180.70625 27.175L180.70625 28.55L178.94063 28.55L178.94063 34.6125Q178.94063 35.3625 179.03438 35.58125Q179.12813 35.784374 179.33125 35.925Q179.55 36.05 179.94063 36.05Q180.22188 36.05 180.70625 35.971874ZM182.87813 25.253124L182.87813 23.2375L184.64375 23.2375L184.64375 25.253124L182.87813 25.253124ZM182.87813 37.55L182.87813 27.175L184.64375 27.175L184.64375 37.55L182.87813 37.55ZM186.22188 32.3625Q186.22188 29.4875 187.81563 28.096874Q189.15938 26.940624 191.08125 26.940624Q193.22188 26.940624 194.56563 28.346874Q195.925 29.753124 195.925 32.221874Q195.925 34.221874 195.33125 35.378124Q194.7375 36.51875 193.58125 37.159374Q192.44063 37.784374 191.08125 37.784374Q188.89375 37.784374 187.55 36.39375Q186.22188 34.9875 186.22188 32.3625ZM188.01875 32.3625Q188.01875 34.3625 188.87813 35.346874Q189.75313 36.33125 191.08125 36.33125Q192.39375 36.33125 193.25313 35.346874Q194.12813 34.346874 194.12813 32.3Q194.12813 30.378124 193.25313 29.39375Q192.37813 28.39375 191.08125 28.39375Q189.75313 28.39375 188.87813 29.39375Q188.01875 30.378124 188.01875 32.3625ZM197.8625 37.55L197.8625 27.175L199.45625 27.175L199.45625 28.659374Q200.59688 26.940624 202.75313 26.940624Q203.69063 26.940624 204.47188 27.284374Q205.26875 27.6125 205.65938 28.159374Q206.05 28.70625 206.20625 29.45625Q206.3 29.95625 206.3 31.175L206.3 37.55L204.53438 37.55L204.53438 31.2375Q204.53438 30.159374 204.33125 29.628124Q204.12813 29.096874 203.59688 28.784374Q203.08125 28.471874 202.37813 28.471874Q201.25313 28.471874 200.44063 29.190624Q199.62813 29.89375 199.62813 31.878124L199.62813 37.55L197.8625 37.55ZM213.78438 41.55L213.59688 39.89375Q214.175 40.05 214.59688 40.05Q215.19063 40.05 215.53438 39.846874Q215.89375 39.659374 216.1125 39.315624Q216.28438 39.05 216.65938 38.003124Q216.70625 37.846874 216.81563 37.565624L212.87813 27.175L214.76875 27.175L216.925 33.190624Q217.34688 34.33125 217.675 35.58125Q217.9875 34.378124 218.39375 33.221874L220.6125 27.175L222.37813 27.175L218.425 37.721874Q217.8 39.440624 217.44063 40.08125Q216.97188 40.95625 216.3625 41.346874Q215.76875 41.753124 214.925 41.753124Q214.40938 41.753124 213.78438 41.55ZM230.97188 34.20625L232.78438 34.440624Q232.3625 36.01875 231.19063 36.909374Q230.03438 37.784374 228.22188 37.784374Q225.95625 37.784374 224.6125 36.39375Q223.28438 34.9875 223.28438 32.45625Q223.28438 29.83125 224.62813 28.39375Q225.97188 26.940624 228.12813 26.940624Q230.20625 26.940624 231.51875 28.3625Q232.84688 29.76875 232.84688 32.346874Q232.84688 32.503124 232.83125 32.815624L225.09688 32.815624Q225.19063 34.51875 226.06563 35.425Q226.94063 36.33125 228.2375 36.33125Q229.20625 36.33125 229.87813 35.83125Q230.56563 35.315624 230.97188 34.20625ZM225.19063 31.3625L230.9875 31.3625Q230.87813 30.065624 230.33125 29.409374Q229.4875 28.39375 228.14375 28.39375Q226.94063 28.39375 226.1125 29.20625Q225.28438 30.003124 225.19063 31.3625ZM241.64375 36.26875Q240.65938 37.096874 239.75313 37.440624Q238.84688 37.784374 237.81563 37.784374Q236.1125 37.784374 235.19063 36.95625Q234.26875 36.1125 234.26875 34.815624Q234.26875 34.05 234.6125 33.425Q234.97188 32.8 235.53438 32.425Q236.09688 32.034374 236.8 31.83125Q237.31563 31.70625 238.3625 31.565624Q240.4875 31.315624 241.4875 30.971874Q241.50313 30.6125 241.50313 30.503124Q241.50313 29.440624 241.00313 28.9875Q240.33125 28.39375 239.00313 28.39375Q237.75313 28.39375 237.15938 28.83125Q236.58125 29.26875 236.3 30.378124L234.58125 30.14375Q234.81563 29.034374 235.34688 28.3625Q235.87813 27.675 236.89375 27.315624Q237.90938 26.940624 239.25313 26.940624Q240.58125 26.940624 241.40938 27.253124Q242.2375 27.565624 242.62813 28.05Q243.01875 28.51875 243.175 29.2375Q243.26875 29.690624 243.26875 30.8625L243.26875 33.20625Q243.26875 35.659374 243.37813 36.315624Q243.4875 36.95625 243.83125 37.55L241.9875 37.55Q241.72188 37.003124 241.64375 36.26875ZM241.4875 32.346874Q240.53438 32.7375 238.6125 33.003124Q237.53438 33.159374 237.08125 33.3625Q236.64375 33.55 236.39375 33.925Q236.14375 34.3 236.14375 34.76875Q236.14375 35.471874 236.675 35.940624Q237.20625 36.409374 238.2375 36.409374Q239.25313 36.409374 240.03438 35.971874Q240.83125 35.51875 241.20625 34.753124Q241.4875 34.14375 241.4875 32.9875L241.4875 32.346874ZM245.84688 37.55L245.84688 27.175L247.425 27.175L247.425 28.753124Q248.03438 27.64375 248.55 27.3Q249.06563 26.940624 249.675 26.940624Q250.56563 26.940624 251.4875 27.503124L250.87813 29.14375Q250.2375 28.753124 249.59688 28.753124Q249.01875 28.753124 248.55 29.1125Q248.09688 29.45625 247.89375 30.065624Q247.6125 31.003124 247.6125 32.1125L247.6125 37.55L245.84688 37.55Z" fill-rule="nonzero"/></svg>