<svg version="1.1" viewBox="0.0 0.0 707.0 438.0" fill="none" stroke="none" stroke-linecap="square" stroke-miterlimit="10" width="707" height="438" xmlns:xlink="http://www.w3.org/1999/xlink" xmlns="http://www.w3.org/2000/svg"><path fill="#ffffff" d="M0 0L707.0 0L707.0 438.0L0 438.0L0 0Z" fill-rule="nonzero"/><path stroke="#333333" stroke-width="1.0" stroke-linecap="butt" d="M48.5 396.5L685.5 396.5" fill-rule="nonzero"/><path stroke="#cccccc" stroke-width="1.0" stroke-linecap="butt" d="M48.5 330.5L685.5 330.5" fill-rule="nonzero"/><path stroke="#cccccc" stroke-width="1.0" stroke-linecap="butt" d="M48.5 264.5L685.5 264.5" fill-rule="nonzero"/><path stroke="#cccccc" stroke-width="1.0" stroke-linecap="butt" d="M48.5 198.5L685.5 198.5" fill-rule="nonzero"/><path stroke="#cccccc" stroke-width="1.0" stroke-linecap="butt" d="M48.5 133.5L685.5 133.5" fill-rule="nonzero"/><path stroke="#cccccc" stroke-width="1.0" stroke-linecap="butt" d="M48.5 67.5L685.5 67.5" fill-rule="nonzero"/><clipPath id="id_0"><path d="M48.9 67.5L685.1 67.5L685.1 396.1L48.9 396.1L48.9 67.5Z" clip-rule="nonzero"/></clipPath><path stroke="#000000" stroke-width="2.0" stroke-linecap="butt" stroke-opacity="0.0" clip-path="url(#id_0)" d="M125.0 396.0L75.0 396.0L75.0 330.0C75.0 328.89542 75.89543 328.0 77.0 328.0L123.0 328.0C124.10457 328.0 125.0 328.89542 125.0 330.0Z" fill-rule="nonzero"/><path fill="#4285f4" clip-path="url(#id_0)" d="M125.0 396.0L75.0 396.0L75.0 330.0C75.0 328.89542 75.89543 328.0 77.0 328.0L123.0 328.0C124.10457 328.0 125.0 328.89542 125.0 330.0Z" fill-rule="nonzero"/><path stroke="#000000" stroke-width="2.0" stroke-linecap="butt" stroke-opacity="0.0" clip-path="url(#id_0)" d="M202.0 396.0L152.0 396.0L152.0 272.0C152.0 270.89542 152.89543 270.0 154.0 270.0L200.0 270.0C201.10457 270.0 202.0 270.89542 202.0 272.0Z" fill-rule="nonzero"/><path fill="#4285f4" clip-path="url(#id_0)" d="M202.0 396.0L152.0 396.0L152.0 272.0C152.0 270.89542 152.89543 270.0 154.0 270.0L200.0 270.0C201.10457 270.0 202.0 270.89542 202.0 272.0Z" fill-rule="nonzero"/><path stroke="#000000" stroke-width="2.0" stroke-linecap="butt" stroke-opacity="0.0" clip-path="url(#id_0)" d="M278.0 396.0L228.0 396.0L228.0 293.0C228.0 291.89542 228.89543 291.0 230.0 291.0L276.0 291.0C277.10458 291.0 278.0 291.89542 278.0 293.0Z" fill-rule="nonzero"/><path fill="#4285f4" clip-path="url(#id_0)" d="M278.0 396.0L228.0 396.0L228.0 293.0C228.0 291.89542 228.89543 291.0 230.0 291.0L276.0 291.0C277.10458 291.0 278.0 291.89542 278.0 293.0Z" fill-rule="nonzero"/><path stroke="#000000" stroke-width="2.0" stroke-linecap="butt" stroke-opacity="0.0" clip-path="url(#id_0)" d="M354.0 396.0L304.0 396.0L304.0 246.0C304.0 244.89543 304.89542 244.0 306.0 244.0L352.0 244.0C353.10458 244.0 354.0 244.89543 354.0 246.0Z" fill-rule="nonzero"/><path fill="#4285f4" clip-path="url(#id_0)" d="M354.0 396.0L304.0 396.0L304.0 246.0C304.0 244.89543 304.89542 244.0 306.0 244.0L352.0 244.0C353.10458 244.0 354.0 244.89543 354.0 246.0Z" fill-rule="nonzero"/><path stroke="#000000" stroke-width="2.0" stroke-linecap="butt" stroke-opacity="0.0" clip-path="url(#id_0)" d="M430.0 396.0L380.0 396.0L380.0 183.0C380.0 181.89543 380.89542 181.0 382.0 181.0L428.0 181.0C429.10458 181.0 430.0 181.89543 430.0 183.0Z" fill-rule="nonzero"/><path fill="#4285f4" clip-path="url(#id_0)" d="M430.0 396.0L380.0 396.0L380.0 183.0C380.0 181.89543 380.89542 181.0 382.0 181.0L428.0 181.0C429.10458 181.0 430.0 181.89543 430.0 183.0Z" fill-rule="nonzero"/><path stroke="#000000" stroke-width="2.0" stroke-linecap="butt" stroke-opacity="0.0" clip-path="url(#id_0)" d="M506.0 396.0L456.0 396.0L456.0 169.0C456.0 167.89543 456.89542 167.0 458.0 167.0L504.0 167.0C505.10458 167.0 506.0 167.89543 506.0 169.0Z" fill-rule="nonzero"/><path fill="#4285f4" clip-path="url(#id_0)" d="M506.0 396.0L456.0 396.0L456.0 169.0C456.0 167.89543 456.89542 167.0 458.0 167.0L504.0 167.0C505.10458 167.0 506.0 167.89543 506.0 169.0Z" fill-rule="nonzero"/><path stroke="#000000" stroke-width="2.0" stroke-linecap="butt" stroke-opacity="0.0" clip-path="url(#id_0)" d="M582.0 396.0L532.0 396.0L532.0 138.0C532.0 136.89543 532.89545 136.0 534.0 136.0L580.0 136.0C581.10455 136.0 582.0 136.89543 582.0 138.0Z" fill-rule="nonzero"/><path fill="#4285f4" clip-path="url(#id_0)" d="M582.0 396.0L532.0 396.0L532.0 138.0C532.0 136.89543 532.89545 136.0 534.0 136.0L580.0 136.0C581.10455 136.0 582.0 136.89543 582.0 138.0Z" fill-rule="nonzero"/><path stroke="#000000" stroke-width="2.0" stroke-linecap="butt" stroke-opacity="0.0" clip-path="url(#id_0)" d="M659.0 396.0L609.0 396.0L609.0 101.0C609.0 99.89543 609.89545 99.0 611.0 99.0L657.0 99.0C658.10455 99.0 659.0 99.89543 659.0 101.0Z" fill-rule="nonzero"/><path fill="#4285f4" clip-path="url(#id_0)" d="M659.0 396.0L609.0 396.0L609.0 101.0C609.0 99.89543 609.89545 99.0 611.0 99.0L657.0 99.0C658.10455 99.0 659.0 99.89543 659.0 101.0Z" fill-rule="nonzero"/><path fill="#000000" d="M36.4 395.86563Q36.4 394.33438 36.7125 393.4125Q37.025 392.475 37.634377 391.975Q38.259377 391.475 39.196877 391.475Q39.884377 391.475 40.4 391.75626Q40.93125 392.0375 41.275 392.56876Q41.61875 393.08438 41.80625 393.83438Q41.99375 394.58438 41.99375 395.86563Q41.99375 397.38126 41.68125 398.30313Q41.384377 399.225 40.759377 399.74063Q40.15 400.24063 39.196877 400.24063Q37.9625 400.24063 37.24375 399.35Q36.4 398.2875 36.4 395.86563ZM37.478127 395.86563Q37.478127 397.975 37.978127 398.67813Q38.478127 399.38126 39.196877 399.38126Q39.93125 399.38126 40.415627 398.67813Q40.915627 397.975 40.915627 395.86563Q40.915627 393.74063 40.415627 393.05313Q39.93125 392.35 39.18125 392.35Q38.4625 392.35 38.025 392.95938Q37.478127 393.74063 37.478127 395.86563Z" fill-rule="nonzero"/><path fill="#000000" d="M34.946877 333.36438L34.946877 334.38L29.259375 334.38Q29.259375 334.005 29.384375 333.64563Q29.603125 333.0675 30.071875 332.505Q30.55625 331.9425 31.4625 331.20813Q32.86875 330.05188 33.353127 329.38Q33.853127 328.70813 33.853127 328.11438Q33.853127 327.48938 33.4 327.0675Q32.946877 326.63 32.228127 326.63Q31.4625 326.63 31.009375 327.08313Q30.55625 327.53625 30.540625 328.34875L29.4625 328.23938Q29.571875 327.02063 30.290625 326.39563Q31.025 325.755 32.259377 325.755Q33.49375 325.755 34.2125 326.4425Q34.93125 327.13 34.93125 328.14563Q34.93125 328.66125 34.7125 329.16125Q34.509377 329.64563 34.009377 330.20813Q33.525 330.755 32.4 331.70813Q31.446875 332.505 31.165625 332.80188Q30.9 333.08313 30.728125 333.36438L34.946877 333.36438ZM36.4 332.13L37.509377 332.03625Q37.634377 332.84875 38.071877 333.255Q38.525 333.66125 39.165627 333.66125Q39.915627 333.66125 40.446877 333.08313Q40.978127 332.505 40.978127 331.5675Q40.978127 330.66125 40.4625 330.14563Q39.9625 329.61438 39.134377 329.61438Q38.634377 329.61438 38.2125 329.84875Q37.80625 330.08313 37.571877 330.4425L36.5875 330.3175L37.415627 325.91125L41.696877 325.91125L41.696877 326.91125L38.259377 326.91125L37.80625 329.22375Q38.571877 328.67688 39.415627 328.67688Q40.540627 328.67688 41.30625 329.45813Q42.0875 330.23938 42.0875 331.47375Q42.0875 332.63 41.415627 333.48938Q40.5875 334.52063 39.165627 334.52063Q37.99375 334.52063 37.24375 333.86438Q36.509377 333.20813 36.4 332.13Z" fill-rule="nonzero"/><path fill="#000000" d="M29.4 266.41L30.509375 266.31625Q30.634375 267.12875 31.071875 267.535Q31.525 267.94125 32.165627 267.94125Q32.915627 267.94125 33.446877 267.36313Q33.978127 266.785 33.978127 265.8475Q33.978127 264.94125 33.4625 264.42563Q32.9625 263.89438 32.134377 263.89438Q31.634375 263.89438 31.2125 264.12875Q30.80625 264.36313 30.571875 264.7225L29.5875 264.5975L30.415625 260.19125L34.696877 260.19125L34.696877 261.19125L31.259375 261.19125L30.80625 263.50375Q31.571875 262.95688 32.415627 262.95688Q33.540627 262.95688 34.30625 263.73813Q35.0875 264.51938 35.0875 265.75375Q35.0875 266.91 34.415627 267.76938Q33.5875 268.80063 32.165627 268.80063Q30.99375 268.80063 30.24375 268.14438Q29.509375 267.48813 29.4 266.41ZM36.4 264.42563Q36.4 262.89438 36.7125 261.9725Q37.025 261.035 37.634377 260.535Q38.259377 260.035 39.196877 260.035Q39.884377 260.035 40.4 260.31625Q40.93125 260.5975 41.275 261.12875Q41.61875 261.64438 41.80625 262.39438Q41.99375 263.14438 41.99375 264.42563Q41.99375 265.94125 41.68125 266.86313Q41.384377 267.785 40.759377 268.30063Q40.15 268.80063 39.196877 268.80063Q37.9625 268.80063 37.24375 267.91Q36.4 266.8475 36.4 264.42563ZM37.478127 264.42563Q37.478127 266.535 37.978127 267.23813Q38.478127 267.94125 39.196877 267.94125Q39.93125 267.94125 40.415627 267.23813Q40.915627 266.535 40.915627 264.42563Q40.915627 262.30063 40.415627 261.61313Q39.93125 260.91 39.18125 260.91Q38.4625 260.91 38.025 261.51938Q37.478127 262.30063 37.478127 264.42563Z" fill-rule="nonzero"/><path fill="#000000" d="M29.4625 195.47125L29.4625 194.45563L35.025 194.45563L35.025 195.28375Q34.2125 196.15875 33.4 197.61188Q32.603127 199.04938 32.165627 200.58063Q31.8375 201.65875 31.759375 202.94L30.665625 202.94Q30.68125 201.92438 31.05625 200.48688Q31.446875 199.04938 32.15 197.72125Q32.86875 196.39313 33.68125 195.47125L29.4625 195.47125ZM36.4 200.69L37.509377 200.59625Q37.634377 201.40875 38.071877 201.815Q38.525 202.22125 39.165627 202.22125Q39.915627 202.22125 40.446877 201.64313Q40.978127 201.065 40.978127 200.1275Q40.978127 199.22125 40.4625 198.70563Q39.9625 198.17438 39.134377 198.17438Q38.634377 198.17438 38.2125 198.40875Q37.80625 198.64313 37.571877 199.0025L36.5875 198.8775L37.415627 194.47125L41.696877 194.47125L41.696877 195.47125L38.259377 195.47125L37.80625 197.78375Q38.571877 197.23688 39.415627 197.23688Q40.540627 197.23688 41.30625 198.01813Q42.0875 198.79938 42.0875 200.03375Q42.0875 201.19 41.415627 202.04938Q40.5875 203.08063 39.165627 203.08063Q37.99375 203.08063 37.24375 202.42438Q36.509377 201.76813 36.4 200.69Z" fill-rule="nonzero"/><path fill="#000000" d="M26.36875 137.22L25.321875 137.22L25.321875 130.50125Q24.93125 130.86063 24.30625 131.23563Q23.696875 131.595 23.2125 131.76688L23.2125 130.75125Q24.0875 130.32938 24.74375 129.75125Q25.415625 129.1575 25.696875 128.595L26.36875 128.595L26.36875 137.22ZM29.4 132.98563Q29.4 131.45438 29.7125 130.5325Q30.025 129.595 30.634375 129.095Q31.259375 128.595 32.196877 128.595Q32.884377 128.595 33.4 128.87625Q33.93125 129.1575 34.275 129.68875Q34.61875 130.20438 34.80625 130.95438Q34.99375 131.70438 34.99375 132.98563Q34.99375 134.50125 34.68125 135.42313Q34.384377 136.345 33.759377 136.86063Q33.15 137.36063 32.196877 137.36063Q30.9625 137.36063 30.24375 136.47Q29.4 135.4075 29.4 132.98563ZM30.478125 132.98563Q30.478125 135.095 30.978125 135.79813Q31.478125 136.50125 32.196877 136.50125Q32.93125 136.50125 33.415627 135.79813Q33.915627 135.095 33.915627 132.98563Q33.915627 130.86063 33.415627 130.17313Q32.93125 129.47 32.18125 129.47Q31.4625 129.47 31.025 130.07938Q30.478125 130.86063 30.478125 132.98563ZM36.4 132.98563Q36.4 131.45438 36.7125 130.5325Q37.025 129.595 37.634377 129.095Q38.259377 128.595 39.196877 128.595Q39.884377 128.595 40.4 128.87625Q40.93125 129.1575 41.275 129.68875Q41.61875 130.20438 41.80625 130.95438Q41.99375 131.70438 41.99375 132.98563Q41.99375 134.50125 41.68125 135.42313Q41.384377 136.345 40.759377 136.86063Q40.15 137.36063 39.196877 137.36063Q37.9625 137.36063 37.24375 136.47Q36.4 135.4075 36.4 132.98563ZM37.478127 132.98563Q37.478127 135.095 37.978127 135.79813Q38.478127 136.50125 39.196877 136.50125Q39.93125 136.50125 40.415627 135.79813Q40.915627 135.095 40.915627 132.98563Q40.915627 130.86063 40.415627 130.17313Q39.93125 129.47 39.18125 129.47Q38.4625 129.47 38.025 130.07938Q37.478127 130.86063 37.478127 132.98563Z" fill-rule="nonzero"/><path fill="#000000" d="M26.36875 71.5L25.321875 71.5L25.321875 64.78125Q24.93125 65.140625 24.30625 65.515625Q23.696875 65.875 23.2125 66.046875L23.2125 65.03125Q24.0875 64.609375 24.74375 64.03125Q25.415625 63.4375 25.696875 62.875L26.36875 62.875L26.36875 71.5ZM34.946877 70.484375L34.946877 71.5L29.259375 71.5Q29.259375 71.125 29.384375 70.765625Q29.603125 70.1875 30.071875 69.625Q30.55625 69.0625 31.4625 68.328125Q32.86875 67.171875 33.353127 66.5Q33.853127 65.828125 33.853127 65.234375Q33.853127 64.609375 33.4 64.1875Q32.946877 63.75 32.228127 63.75Q31.4625 63.75 31.009375 64.203125Q30.55625 64.65625 30.540625 65.46875L29.4625 65.359375Q29.571875 64.140625 30.290625 63.515625Q31.025 62.875 32.259377 62.875Q33.49375 62.875 34.2125 63.5625Q34.93125 64.25 34.93125 65.265625Q34.93125 65.78125 34.7125 66.28125Q34.509377 66.765625 34.009377 67.328125Q33.525 67.875 32.4 68.828125Q31.446875 69.625 31.165625 69.921875Q30.9 70.203125 30.728125 70.484375L34.946877 70.484375ZM36.4 69.25L37.509377 69.15625Q37.634377 69.96875 38.071877 70.375Q38.525 70.78125 39.165627 70.78125Q39.915627 70.78125 40.446877 70.203125Q40.978127 69.625 40.978127 68.6875Q40.978127 67.78125 40.4625 67.265625Q39.9625 66.734375 39.134377 66.734375Q38.634377 66.734375 38.2125 66.96875Q37.80625 67.203125 37.571877 67.5625L36.5875 67.4375L37.415627 63.03125L41.696877 63.03125L41.696877 64.03125L38.259377 64.03125L37.80625 66.34375Q38.571877 65.796875 39.415627 65.796875Q40.540627 65.796875 41.30625 66.578125Q42.0875 67.359375 42.0875 68.59375Q42.0875 69.75 41.415627 70.609375Q40.5875 71.640625 39.165627 71.640625Q37.99375 71.640625 37.24375 70.984375Q36.509377 70.328125 36.4 69.25Z" fill-rule="nonzero"/><path fill="#000000" d="M92.37621 412.08438L92.37621 413.1L86.68871 413.1Q86.68871 412.725 86.81371 412.36563Q87.03246 411.7875 87.50121 411.225Q87.98559 410.6625 88.89184 409.92813Q90.29809 408.77188 90.78246 408.1Q91.28246 407.42813 91.28246 406.83438Q91.28246 406.20938 90.82934 405.7875Q90.37621 405.35 89.65746 405.35Q88.89184 405.35 88.43871 405.80313Q87.98559 406.25626 87.96996 407.06876L86.89184 406.95938Q87.00121 405.74063 87.71996 405.11563Q88.45434 404.475 89.68871 404.475Q90.92309 404.475 91.64184 405.1625Q92.36059 405.85 92.36059 406.86563Q92.36059 407.38126 92.14184 407.88126Q91.93871 408.36563 91.43871 408.92813Q90.95434 409.475 89.82934 410.42813Q88.87621 411.225 88.59496 411.52188Q88.32934 411.80313 88.15746 412.08438L92.37621 412.08438ZM93.82934 408.86563Q93.82934 407.33438 94.14184 406.4125Q94.45434 405.475 95.06371 404.975Q95.68871 404.475 96.62621 404.475Q97.31371 404.475 97.82934 404.75626Q98.36059 405.0375 98.70434 405.56876Q99.04809 406.08438 99.23559 406.83438Q99.42309 407.58438 99.42309 408.86563Q99.42309 410.38126 99.11059 411.30313Q98.81371 412.225 98.18871 412.74063Q97.57934 413.24063 96.62621 413.24063Q95.39184 413.24063 94.67309 412.35Q93.82934 411.2875 93.82934 408.86563ZM94.90746 408.86563Q94.90746 410.975 95.40746 411.67813Q95.90746 412.38126 96.62621 412.38126Q97.36059 412.38126 97.84496 411.67813Q98.34496 410.975 98.34496 408.86563Q98.34496 406.74063 97.84496 406.05313Q97.36059 405.35 96.61059 405.35Q95.89184 405.35 95.45434 405.95938Q94.90746 406.74063 94.90746 408.86563ZM104.79809 413.1L103.75121 413.1L103.75121 406.38126Q103.36059 406.74063 102.73559 407.11563Q102.12621 407.475 101.64184 407.64688L101.64184 406.63126Q102.51684 406.20938 103.17309 405.63126Q103.84496 405.0375 104.12621 404.475L104.79809 404.475L104.79809 413.1ZM109.45434 408.44376Q108.79809 408.19376 108.46996 407.75626Q108.15746 407.30313 108.15746 406.69376Q108.15746 405.75626 108.82934 405.11563Q109.51684 404.475 110.62621 404.475Q111.75121 404.475 112.43871 405.13126Q113.12621 405.7875 113.12621 406.725Q113.12621 407.31876 112.81371 407.75626Q112.50121 408.19376 111.86059 408.44376Q112.65746 408.69376 113.06371 409.27188Q113.46996 409.85 113.46996 410.64688Q113.46996 411.74063 112.68871 412.49063Q111.92309 413.24063 110.64184 413.24063Q109.37621 413.24063 108.59496 412.49063Q107.81371 411.74063 107.81371 410.61563Q107.81371 409.77188 108.23559 409.20938Q108.67309 408.64688 109.45434 408.44376ZM109.23559 406.64688Q109.23559 407.25626 109.62621 407.64688Q110.03246 408.0375 110.65746 408.0375Q111.26684 408.0375 111.65746 407.6625Q112.04809 407.27188 112.04809 406.70938Q112.04809 406.13126 111.64184 405.74063Q111.23559 405.33438 110.64184 405.33438Q110.03246 405.33438 109.62621 405.725Q109.23559 406.11563 109.23559 406.64688ZM108.90746 410.61563Q108.90746 411.06876 109.11059 411.49063Q109.32934 411.9125 109.75121 412.14688Q110.17309 412.38126 110.65746 412.38126Q111.40746 412.38126 111.89184 411.89688Q112.39184 411.4125 112.39184 410.6625Q112.39184 409.89688 111.89184 409.39688Q111.39184 408.89688 110.62621 408.89688Q109.87621 408.89688 109.39184 409.39688Q108.90746 409.88126 108.90746 410.61563Z" fill-rule="nonzero"/><path fill="#000000" d="M168.56784 412.08438L168.56784 413.1L162.88034 413.1Q162.88034 412.725 163.00534 412.36563Q163.22409 411.7875 163.69284 411.225Q164.17722 410.6625 165.08347 409.92813Q166.48972 408.77188 166.97409 408.1Q167.47409 407.42813 167.47409 406.83438Q167.47409 406.20938 167.02097 405.7875Q166.56784 405.35 165.84909 405.35Q165.08347 405.35 164.63034 405.80313Q164.17722 406.25626 164.16159 407.06876L163.08347 406.95938Q163.19284 405.74063 163.91159 405.11563Q164.64597 404.475 165.88034 404.475Q167.11472 404.475 167.83347 405.1625Q168.55222 405.85 168.55222 406.86563Q168.55222 407.38126 168.33347 407.88126Q168.13034 408.36563 167.63034 408.92813Q167.14597 409.475 166.02097 410.42813Q165.06784 411.225 164.78659 411.52188Q164.52097 411.80313 164.34909 412.08438L168.56784 412.08438ZM170.02097 408.86563Q170.02097 407.33438 170.33347 406.4125Q170.64597 405.475 171.25534 404.975Q171.88034 404.475 172.81784 404.475Q173.50534 404.475 174.02097 404.75626Q174.55222 405.0375 174.89597 405.56876Q175.23972 406.08438 175.42722 406.83438Q175.61472 407.58438 175.61472 408.86563Q175.61472 410.38126 175.30222 411.30313Q175.00534 412.225 174.38034 412.74063Q173.77097 413.24063 172.81784 413.24063Q171.58347 413.24063 170.86472 412.35Q170.02097 411.2875 170.02097 408.86563ZM171.09909 408.86563Q171.09909 410.975 171.59909 411.67813Q172.09909 412.38126 172.81784 412.38126Q173.55222 412.38126 174.03659 411.67813Q174.53659 410.975 174.53659 408.86563Q174.53659 406.74063 174.03659 406.05313Q173.55222 405.35 172.80222 405.35Q172.08347 405.35 171.64597 405.95938Q171.09909 406.74063 171.09909 408.86563ZM180.98972 413.1L179.94284 413.1L179.94284 406.38126Q179.55222 406.74063 178.92722 407.11563Q178.31784 407.475 177.83347 407.64688L177.83347 406.63126Q178.70847 406.20938 179.36472 405.63126Q180.03659 405.0375 180.31784 404.475L180.98972 404.475L180.98972 413.1ZM184.17722 411.11563L185.19284 411.02188Q185.31784 411.74063 185.67722 412.06876Q186.05222 412.38126 186.61472 412.38126Q187.09909 412.38126 187.45847 412.1625Q187.83347 411.92813 188.06784 411.56876Q188.30222 411.19376 188.45847 410.56876Q188.61472 409.92813 188.61472 409.27188Q188.61472 409.19376 188.61472 409.05313Q188.30222 409.55313 187.75534 409.88126Q187.20847 410.19376 186.56784 410.19376Q185.48972 410.19376 184.75534 409.42813Q184.02097 408.64688 184.02097 407.38126Q184.02097 406.06876 184.78659 405.27188Q185.56784 404.475 186.72409 404.475Q187.55222 404.475 188.23972 404.92813Q188.94284 405.38126 189.30222 406.225Q189.66159 407.05313 189.66159 408.63126Q189.66159 410.27188 189.30222 411.25626Q188.95847 412.225 188.23972 412.74063Q187.53659 413.24063 186.59909 413.24063Q185.58347 413.24063 184.94284 412.69376Q184.30222 412.13126 184.17722 411.11563ZM188.48972 407.31876Q188.48972 406.4125 188.00534 405.88126Q187.53659 405.35 186.84909 405.35Q186.14597 405.35 185.61472 405.92813Q185.09909 406.49063 185.09909 407.4125Q185.09909 408.225 185.59909 408.74063Q186.09909 409.25626 186.81784 409.25626Q187.55222 409.25626 188.02097 408.74063Q188.48972 408.225 188.48972 407.31876Z" fill-rule="nonzero"/><path fill="#000000" d="M244.75945 412.08438L244.75945 413.1L239.07195 413.1Q239.07195 412.725 239.19695 412.36563Q239.4157 411.7875 239.88445 411.225Q240.36882 410.6625 241.27507 409.92813Q242.68132 408.77188 243.1657 408.1Q243.6657 407.42813 243.6657 406.83438Q243.6657 406.20938 243.21257 405.7875Q242.75945 405.35 242.0407 405.35Q241.27507 405.35 240.82195 405.80313Q240.36882 406.25626 240.3532 407.06876L239.27507 406.95938Q239.38445 405.74063 240.1032 405.11563Q240.83757 404.475 242.07195 404.475Q243.30632 404.475 244.02507 405.1625Q244.74382 405.85 244.74382 406.86563Q244.74382 407.38126 244.52507 407.88126Q244.32195 408.36563 243.82195 408.92813Q243.33757 409.475 242.21257 410.42813Q241.25945 411.225 240.9782 411.52188Q240.71257 411.80313 240.5407 412.08438L244.75945 412.08438ZM246.21257 408.86563Q246.21257 407.33438 246.52507 406.4125Q246.83757 405.475 247.44695 404.975Q248.07195 404.475 249.00945 404.475Q249.69695 404.475 250.21257 404.75626Q250.74382 405.0375 251.08757 405.56876Q251.43132 406.08438 251.61882 406.83438Q251.80632 407.58438 251.80632 408.86563Q251.80632 410.38126 251.49382 411.30313Q251.19695 412.225 250.57195 412.74063Q249.96257 413.24063 249.00945 413.24063Q247.77507 413.24063 247.05632 412.35Q246.21257 411.2875 246.21257 408.86563ZM247.2907 408.86563Q247.2907 410.975 247.7907 411.67813Q248.2907 412.38126 249.00945 412.38126Q249.74382 412.38126 250.2282 411.67813Q250.7282 410.975 250.7282 408.86563Q250.7282 406.74063 250.2282 406.05313Q249.74382 405.35 248.99382 405.35Q248.27507 405.35 247.83757 405.95938Q247.2907 406.74063 247.2907 408.86563ZM258.75946 412.08438L258.75946 413.1L253.07195 413.1Q253.07195 412.725 253.19695 412.36563Q253.4157 411.7875 253.88445 411.225Q254.36882 410.6625 255.27507 409.92813Q256.68134 408.77188 257.1657 408.1Q257.6657 407.42813 257.6657 406.83438Q257.6657 406.20938 257.2126 405.7875Q256.75946 405.35 256.0407 405.35Q255.27507 405.35 254.82195 405.80313Q254.36882 406.25626 254.3532 407.06876L253.27507 406.95938Q253.38445 405.74063 254.1032 405.11563Q254.83757 404.475 256.07196 404.475Q257.30634 404.475 258.0251 405.1625Q258.74384 405.85 258.74384 406.86563Q258.74384 407.38126 258.5251 407.88126Q258.32196 408.36563 257.82196 408.92813Q257.3376 409.475 256.2126 410.42813Q255.25945 411.225 254.9782 411.52188Q254.71257 411.80313 254.5407 412.08438L258.75946 412.08438ZM260.2126 408.86563Q260.2126 407.33438 260.5251 406.4125Q260.8376 405.475 261.44696 404.975Q262.07196 404.475 263.00946 404.475Q263.69696 404.475 264.2126 404.75626Q264.74384 405.0375 265.0876 405.56876Q265.43134 406.08438 265.61884 406.83438Q265.80634 407.58438 265.80634 408.86563Q265.80634 410.38126 265.49384 411.30313Q265.19696 412.225 264.57196 412.74063Q263.9626 413.24063 263.00946 413.24063Q261.7751 413.24063 261.05634 412.35Q260.2126 411.2875 260.2126 408.86563ZM261.2907 408.86563Q261.2907 410.975 261.7907 411.67813Q262.2907 412.38126 263.00946 412.38126Q263.74384 412.38126 264.2282 411.67813Q264.7282 410.975 264.7282 408.86563Q264.7282 406.74063 264.2282 406.05313Q263.74384 405.35 262.99384 405.35Q262.2751 405.35 261.8376 405.95938Q261.2907 406.74063 261.2907 408.86563Z" fill-rule="nonzero"/><path fill="#000000" d="M320.95108 412.08438L320.95108 413.1L315.26358 413.1Q315.26358 412.725 315.38858 412.36563Q315.60733 411.7875 316.07608 411.225Q316.56046 410.6625 317.4667 409.92813Q318.87296 408.77188 319.35733 408.1Q319.85733 407.42813 319.85733 406.83438Q319.85733 406.20938 319.4042 405.7875Q318.95108 405.35 318.23233 405.35Q317.4667 405.35 317.01358 405.80313Q316.56046 406.25626 316.54483 407.06876L315.4667 406.95938Q315.57608 405.74063 316.29483 405.11563Q317.0292 404.475 318.26358 404.475Q319.49796 404.475 320.2167 405.1625Q320.93546 405.85 320.93546 406.86563Q320.93546 407.38126 320.7167 407.88126Q320.51358 408.36563 320.01358 408.92813Q319.5292 409.475 318.4042 410.42813Q317.45108 411.225 317.16983 411.52188Q316.9042 411.80313 316.73233 412.08438L320.95108 412.08438ZM322.4042 408.86563Q322.4042 407.33438 322.7167 406.4125Q323.0292 405.475 323.63858 404.975Q324.26358 404.475 325.20108 404.475Q325.88858 404.475 326.4042 404.75626Q326.93546 405.0375 327.2792 405.56876Q327.62296 406.08438 327.81046 406.83438Q327.99796 407.58438 327.99796 408.86563Q327.99796 410.38126 327.68546 411.30313Q327.38858 412.225 326.76358 412.74063Q326.1542 413.24063 325.20108 413.24063Q323.9667 413.24063 323.24796 412.35Q322.4042 411.2875 322.4042 408.86563ZM323.48233 408.86563Q323.48233 410.975 323.98233 411.67813Q324.48233 412.38126 325.20108 412.38126Q325.93546 412.38126 326.41983 411.67813Q326.91983 410.975 326.91983 408.86563Q326.91983 406.74063 326.41983 406.05313Q325.93546 405.35 325.18546 405.35Q324.4667 405.35 324.0292 405.95938Q323.48233 406.74063 323.48233 408.86563ZM334.95108 412.08438L334.95108 413.1L329.26358 413.1Q329.26358 412.725 329.38858 412.36563Q329.60733 411.7875 330.07608 411.225Q330.56046 410.6625 331.4667 409.92813Q332.87296 408.77188 333.35733 408.1Q333.85733 407.42813 333.85733 406.83438Q333.85733 406.20938 333.4042 405.7875Q332.95108 405.35 332.23233 405.35Q331.4667 405.35 331.01358 405.80313Q330.56046 406.25626 330.54483 407.06876L329.4667 406.95938Q329.57608 405.74063 330.29483 405.11563Q331.0292 404.475 332.26358 404.475Q333.49796 404.475 334.2167 405.1625Q334.93546 405.85 334.93546 406.86563Q334.93546 407.38126 334.7167 407.88126Q334.51358 408.36563 334.01358 408.92813Q333.5292 409.475 332.4042 410.42813Q331.45108 411.225 331.16983 411.52188Q330.9042 411.80313 330.73233 412.08438L334.95108 412.08438ZM340.37296 413.1L339.32608 413.1L339.32608 406.38126Q338.93546 406.74063 338.31046 407.11563Q337.70108 407.475 337.2167 407.64688L337.2167 406.63126Q338.0917 406.20938 338.74796 405.63126Q339.41983 405.0375 339.70108 404.475L340.37296 404.475L340.37296 413.1Z" fill-rule="nonzero"/><path fill="#000000" d="M397.14267 412.08438L397.14267 413.1L391.45517 413.1Q391.45517 412.725 391.58017 412.36563Q391.79892 411.7875 392.26767 411.225Q392.75204 410.6625 393.6583 409.92813Q395.06454 408.77188 395.54892 408.1Q396.04892 407.42813 396.04892 406.83438Q396.04892 406.20938 395.5958 405.7875Q395.14267 405.35 394.42392 405.35Q393.6583 405.35 393.20517 405.80313Q392.75204 406.25626 392.73642 407.06876L391.6583 406.95938Q391.76767 405.74063 392.48642 405.11563Q393.2208 404.475 394.45517 404.475Q395.68954 404.475 396.4083 405.1625Q397.12704 405.85 397.12704 406.86563Q397.12704 407.38126 396.9083 407.88126Q396.70517 408.36563 396.20517 408.92813Q395.7208 409.475 394.5958 410.42813Q393.64267 411.225 393.36142 411.52188Q393.0958 411.80313 392.92392 412.08438L397.14267 412.08438ZM398.5958 408.86563Q398.5958 407.33438 398.9083 406.4125Q399.2208 405.475 399.83017 404.975Q400.45517 404.475 401.39267 404.475Q402.08017 404.475 402.5958 404.75626Q403.12704 405.0375 403.4708 405.56876Q403.81454 406.08438 404.00204 406.83438Q404.18954 407.58438 404.18954 408.86563Q404.18954 410.38126 403.87704 411.30313Q403.58017 412.225 402.95517 412.74063Q402.3458 413.24063 401.39267 413.24063Q400.1583 413.24063 399.43954 412.35Q398.5958 411.2875 398.5958 408.86563ZM399.67392 408.86563Q399.67392 410.975 400.17392 411.67813Q400.67392 412.38126 401.39267 412.38126Q402.12704 412.38126 402.61142 411.67813Q403.11142 410.975 403.11142 408.86563Q403.11142 406.74063 402.61142 406.05313Q402.12704 405.35 401.37704 405.35Q400.6583 405.35 400.2208 405.95938Q399.67392 406.74063 399.67392 408.86563ZM411.14267 412.08438L411.14267 413.1L405.45517 413.1Q405.45517 412.725 405.58017 412.36563Q405.79892 411.7875 406.26767 411.225Q406.75204 410.6625 407.6583 409.92813Q409.06454 408.77188 409.54892 408.1Q410.04892 407.42813 410.04892 406.83438Q410.04892 406.20938 409.5958 405.7875Q409.14267 405.35 408.42392 405.35Q407.6583 405.35 407.20517 405.80313Q406.75204 406.25626 406.73642 407.06876L405.6583 406.95938Q405.76767 405.74063 406.48642 405.11563Q407.2208 404.475 408.45517 404.475Q409.68954 404.475 410.4083 405.1625Q411.12704 405.85 411.12704 406.86563Q411.12704 407.38126 410.9083 407.88126Q410.70517 408.36563 410.20517 408.92813Q409.7208 409.475 408.5958 410.42813Q407.64267 411.225 407.36142 411.52188Q407.0958 411.80313 406.92392 412.08438L411.14267 412.08438ZM418.14267 412.08438L418.14267 413.1L412.45517 413.1Q412.45517 412.725 412.58017 412.36563Q412.79892 411.7875 413.26767 411.225Q413.75204 410.6625 414.6583 409.92813Q416.06454 408.77188 416.54892 408.1Q417.04892 407.42813 417.04892 406.83438Q417.04892 406.20938 416.5958 405.7875Q416.14267 405.35 415.42392 405.35Q414.6583 405.35 414.20517 405.80313Q413.75204 406.25626 413.73642 407.06876L412.6583 406.95938Q412.76767 405.74063 413.48642 405.11563Q414.2208 404.475 415.45517 404.475Q416.68954 404.475 417.4083 405.1625Q418.12704 405.85 418.12704 406.86563Q418.12704 407.38126 417.9083 407.88126Q417.70517 408.36563 417.20517 408.92813Q416.7208 409.475 415.5958 410.42813Q414.64267 411.225 414.36142 411.52188Q414.0958 411.80313 413.92392 412.08438L418.14267 412.08438Z" fill-rule="nonzero"/><path fill="#000000" d="M473.3343 412.08438L473.3343 413.1L467.6468 413.1Q467.6468 412.725 467.7718 412.36563Q467.99054 411.7875 468.4593 411.225Q468.94366 410.6625 469.8499 409.92813Q471.25616 408.77188 471.74054 408.1Q472.24054 407.42813 472.24054 406.83438Q472.24054 406.20938 471.7874 405.7875Q471.3343 405.35 470.61554 405.35Q469.8499 405.35 469.3968 405.80313Q468.94366 406.25626 468.92804 407.06876L467.8499 406.95938Q467.9593 405.74063 468.67804 405.11563Q469.4124 404.475 470.6468 404.475Q471.88116 404.475 472.5999 405.1625Q473.31866 405.85 473.31866 406.86563Q473.31866 407.38126 473.0999 407.88126Q472.8968 408.36563 472.3968 408.92813Q471.9124 409.475 470.7874 410.42813Q469.8343 411.225 469.55304 411.52188Q469.2874 411.80313 469.11554 412.08438L473.3343 412.08438ZM474.7874 408.86563Q474.7874 407.33438 475.0999 406.4125Q475.4124 405.475 476.0218 404.975Q476.6468 404.475 477.5843 404.475Q478.2718 404.475 478.7874 404.75626Q479.31866 405.0375 479.6624 405.56876Q480.00616 406.08438 480.19366 406.83438Q480.38116 407.58438 480.38116 408.86563Q480.38116 410.38126 480.06866 411.30313Q479.7718 412.225 479.1468 412.74063Q478.5374 413.24063 477.5843 413.24063Q476.3499 413.24063 475.63116 412.35Q474.7874 411.2875 474.7874 408.86563ZM475.86554 408.86563Q475.86554 410.975 476.36554 411.67813Q476.86554 412.38126 477.5843 412.38126Q478.31866 412.38126 478.80304 411.67813Q479.30304 410.975 479.30304 408.86563Q479.30304 406.74063 478.80304 406.05313Q478.31866 405.35 477.56866 405.35Q476.8499 405.35 476.4124 405.95938Q475.86554 406.74063 475.86554 408.86563ZM487.3343 412.08438L487.3343 413.1L481.6468 413.1Q481.6468 412.725 481.7718 412.36563Q481.99054 411.7875 482.4593 411.225Q482.94366 410.6625 483.8499 409.92813Q485.25616 408.77188 485.74054 408.1Q486.24054 407.42813 486.24054 406.83438Q486.24054 406.20938 485.7874 405.7875Q485.3343 405.35 484.61554 405.35Q483.8499 405.35 483.3968 405.80313Q482.94366 406.25626 482.92804 407.06876L481.8499 406.95938Q481.9593 405.74063 482.67804 405.11563Q483.4124 404.475 484.6468 404.475Q485.88116 404.475 486.5999 405.1625Q487.31866 405.85 487.31866 406.86563Q487.31866 407.38126 487.0999 407.88126Q486.8968 408.36563 486.3968 408.92813Q485.9124 409.475 484.7874 410.42813Q483.8343 411.225 483.55304 411.52188Q483.2874 411.80313 483.11554 412.08438L487.3343 412.08438ZM488.7874 410.83438L489.8499 410.69376Q490.0218 411.58438 490.4593 411.99063Q490.8968 412.38126 491.5218 412.38126Q492.2718 412.38126 492.7874 411.86563Q493.30304 411.35 493.30304 410.58438Q493.30304 409.86563 492.81866 409.39688Q492.3499 408.9125 491.61554 408.9125Q491.31866 408.9125 490.86554 409.0375L490.99054 408.1Q491.0999 408.11563 491.1624 408.11563Q491.8343 408.11563 492.36554 407.77188Q492.9124 407.4125 492.9124 406.67813Q492.9124 406.1 492.5218 405.725Q492.13116 405.33438 491.50616 405.33438Q490.8968 405.33438 490.4749 405.725Q490.06866 406.11563 489.9593 406.88126L488.8968 406.69376Q489.0843 405.64688 489.7718 405.06876Q490.4593 404.475 491.4749 404.475Q492.17804 404.475 492.7718 404.7875Q493.36554 405.08438 493.67804 405.6Q493.99054 406.11563 493.99054 406.70938Q493.99054 407.25626 493.69366 407.725Q493.3968 408.17813 492.81866 408.44376Q493.56866 408.61563 493.99054 409.17813Q494.4124 409.725 494.4124 410.56876Q494.4124 411.69376 493.5843 412.475Q492.7718 413.25626 491.5218 413.25626Q490.3968 413.25626 489.6468 412.58438Q488.8968 411.89688 488.7874 410.83438Z" fill-rule="nonzero"/><path fill="#000000" d="M549.52594 412.08438L549.52594 413.1L543.83844 413.1Q543.83844 412.725 543.96344 412.36563Q544.1822 411.7875 544.65094 411.225Q545.1353 410.6625 546.04156 409.92813Q547.4478 408.77188 547.9322 408.1Q548.4322 407.42813 548.4322 406.83438Q548.4322 406.20938 547.97906 405.7875Q547.52594 405.35 546.8072 405.35Q546.04156 405.35 545.58844 405.80313Q545.1353 406.25626 545.1197 407.06876L544.04156 406.95938Q544.15094 405.74063 544.8697 405.11563Q545.60406 404.475 546.83844 404.475Q548.0728 404.475 548.79156 405.1625Q549.5103 405.85 549.5103 406.86563Q549.5103 407.38126 549.29156 407.88126Q549.08844 408.36563 548.58844 408.92813Q548.10406 409.475 546.97906 410.42813Q546.02594 411.225 545.7447 411.52188Q545.47906 411.80313 545.3072 412.08438L549.52594 412.08438ZM550.97906 408.86563Q550.97906 407.33438 551.29156 406.4125Q551.60406 405.475 552.21344 404.975Q552.83844 404.475 553.77594 404.475Q554.46344 404.475 554.97906 404.75626Q555.5103 405.0375 555.85406 405.56876Q556.1978 406.08438 556.3853 406.83438Q556.5728 407.58438 556.5728 408.86563Q556.5728 410.38126 556.2603 411.30313Q555.96344 412.225 555.33844 412.74063Q554.72906 413.24063 553.77594 413.24063Q552.54156 413.24063 551.8228 412.35Q550.97906 411.2875 550.97906 408.86563ZM552.0572 408.86563Q552.0572 410.975 552.5572 411.67813Q553.0572 412.38126 553.77594 412.38126Q554.5103 412.38126 554.9947 411.67813Q555.4947 410.975 555.4947 408.86563Q555.4947 406.74063 554.9947 406.05313Q554.5103 405.35 553.7603 405.35Q553.04156 405.35 552.60406 405.95938Q552.0572 406.74063 552.0572 408.86563ZM563.52594 412.08438L563.52594 413.1L557.83844 413.1Q557.83844 412.725 557.96344 412.36563Q558.1822 411.7875 558.65094 411.225Q559.1353 410.6625 560.04156 409.92813Q561.4478 408.77188 561.9322 408.1Q562.4322 407.42813 562.4322 406.83438Q562.4322 406.20938 561.97906 405.7875Q561.52594 405.35 560.8072 405.35Q560.04156 405.35 559.58844 405.80313Q559.1353 406.25626 559.1197 407.06876L558.04156 406.95938Q558.15094 405.74063 558.8697 405.11563Q559.60406 404.475 560.83844 404.475Q562.0728 404.475 562.79156 405.1625Q563.5103 405.85 563.5103 406.86563Q563.5103 407.38126 563.29156 407.88126Q563.08844 408.36563 562.58844 408.92813Q562.10406 409.475 560.97906 410.42813Q560.02594 411.225 559.7447 411.52188Q559.47906 411.80313 559.3072 412.08438L563.52594 412.08438ZM568.35406 413.1L568.35406 411.0375L564.6353 411.0375L564.6353 410.06876L568.5572 404.50626L569.41656 404.50626L569.41656 410.06876L570.5728 410.06876L570.5728 411.0375L569.41656 411.0375L569.41656 413.1L568.35406 413.1ZM568.35406 410.06876L568.35406 406.20938L565.66656 410.06876L568.35406 410.06876Z" fill-rule="nonzero"/><path fill="#000000" d="M625.7175 412.08438L625.7175 413.1L620.03 413.1Q620.03 412.725 620.155 412.36563Q620.3738 411.7875 620.8425 411.225Q621.3269 410.6625 622.23315 409.92813Q623.6394 408.77188 624.1238 408.1Q624.6238 407.42813 624.6238 406.83438Q624.6238 406.20938 624.17065 405.7875Q623.7175 405.35 622.9988 405.35Q622.23315 405.35 621.78 405.80313Q621.3269 406.25626 621.3113 407.06876L620.23315 406.95938Q620.3425 405.74063 621.0613 405.11563Q621.79565 404.475 623.03 404.475Q624.2644 404.475 624.98315 405.1625Q625.7019 405.85 625.7019 406.86563Q625.7019 407.38126 625.48315 407.88126Q625.28 408.36563 624.78 408.92813Q624.29565 409.475 623.17065 410.42813Q622.2175 411.225 621.9363 411.52188Q621.67065 411.80313 621.4988 412.08438L625.7175 412.08438ZM627.17065 408.86563Q627.17065 407.33438 627.48315 406.4125Q627.79565 405.475 628.405 404.975Q629.03 404.475 629.9675 404.475Q630.655 404.475 631.17065 404.75626Q631.7019 405.0375 632.04565 405.56876Q632.3894 406.08438 632.5769 406.83438Q632.7644 407.58438 632.7644 408.86563Q632.7644 410.38126 632.4519 411.30313Q632.155 412.225 631.53 412.74063Q630.92065 413.24063 629.9675 413.24063Q628.73315 413.24063 628.0144 412.35Q627.17065 411.2875 627.17065 408.86563ZM628.2488 408.86563Q628.2488 410.975 628.7488 411.67813Q629.2488 412.38126 629.9675 412.38126Q630.7019 412.38126 631.1863 411.67813Q631.6863 410.975 631.6863 408.86563Q631.6863 406.74063 631.1863 406.05313Q630.7019 405.35 629.9519 405.35Q629.23315 405.35 628.79565 405.95938Q628.2488 406.74063 628.2488 408.86563ZM639.7175 412.08438L639.7175 413.1L634.03 413.1Q634.03 412.725 634.155 412.36563Q634.3738 411.7875 634.8425 411.225Q635.3269 410.6625 636.23315 409.92813Q637.6394 408.77188 638.1238 408.1Q638.6238 407.42813 638.6238 406.83438Q638.6238 406.20938 638.17065 405.7875Q637.7175 405.35 636.9988 405.35Q636.23315 405.35 635.78 405.80313Q635.3269 406.25626 635.3113 407.06876L634.23315 406.95938Q634.3425 405.74063 635.0613 405.11563Q635.79565 404.475 637.03 404.475Q638.2644 404.475 638.98315 405.1625Q639.7019 405.85 639.7019 406.86563Q639.7019 407.38126 639.48315 407.88126Q639.28 408.36563 638.78 408.92813Q638.29565 409.475 637.17065 410.42813Q636.2175 411.225 635.9363 411.52188Q635.67065 411.80313 635.4988 412.08438L639.7175 412.08438ZM641.17065 410.85L642.28 410.75626Q642.405 411.56876 642.8425 411.975Q643.29565 412.38126 643.9363 412.38126Q644.6863 412.38126 645.2175 411.80313Q645.7488 411.225 645.7488 410.2875Q645.7488 409.38126 645.23315 408.86563Q644.73315 408.33438 643.905 408.33438Q643.405 408.33438 642.98315 408.56876Q642.5769 408.80313 642.3425 409.1625L641.35815 409.0375L642.1863 404.63126L646.4675 404.63126L646.4675 405.63126L643.03 405.63126L642.5769 407.94376Q643.3425 407.39688 644.1863 407.39688Q645.3113 407.39688 646.0769 408.17813Q646.85815 408.95938 646.85815 410.19376Q646.85815 411.35 646.1863 412.20938Q645.35815 413.24063 643.9363 413.24063Q642.7644 413.24063 642.0144 412.58438Q641.28 411.92813 641.17065 410.85Z" fill-rule="nonzero"/><path fill="#757575" d="M23.446875 40.9L23.446875 26.587502L28.8375 26.587502Q30.275 26.587502 31.025 26.712502Q32.071877 26.900002 32.790627 27.400002Q33.509377 27.884377 33.93125 28.775002Q34.36875 29.665627 34.36875 30.728127Q34.36875 32.55625 33.196877 33.821877Q32.040627 35.071877 29.009375 35.071877L25.3375 35.071877L25.3375 40.9L23.446875 40.9ZM25.3375 33.384377L29.040625 33.384377Q30.86875 33.384377 31.634375 32.7125Q32.415627 32.025 32.415627 30.775002Q32.415627 29.884377 31.9625 29.243752Q31.509375 28.603127 30.775 28.400002Q30.290625 28.275002 28.99375 28.275002L25.3375 28.275002L25.3375 33.384377ZM42.99375 39.61875Q42.009377 40.446877 41.103127 40.790627Q40.196877 41.134377 39.165627 41.134377Q37.4625 41.134377 36.540627 40.30625Q35.61875 39.4625 35.61875 38.165627Q35.61875 37.4 35.9625 36.775Q36.321877 36.15 36.884377 35.775Q37.446877 35.384377 38.15 35.18125Q38.665627 35.05625 39.7125 34.915627Q41.8375 34.665627 42.8375 34.321877Q42.853127 33.9625 42.853127 33.853127Q42.853127 32.790627 42.353127 32.3375Q41.68125 31.743752 40.353127 31.743752Q39.103127 31.743752 38.509377 32.18125Q37.93125 32.61875 37.65 33.728127L35.93125 33.49375Q36.165627 32.384377 36.696877 31.712502Q37.228127 31.025002 38.24375 30.665627Q39.259377 30.290627 40.603127 30.290627Q41.93125 30.290627 42.759377 30.603127Q43.5875 30.915627 43.978127 31.400002Q44.36875 31.868752 44.525 32.5875Q44.61875 33.040627 44.61875 34.2125L44.61875 36.55625Q44.61875 39.009377 44.728127 39.665627Q44.8375 40.30625 45.18125 40.9L43.3375 40.9Q43.071877 40.353127 42.99375 39.61875ZM42.8375 35.696877Q41.884377 36.0875 39.9625 36.353127Q38.884377 36.509377 38.43125 36.7125Q37.99375 36.9 37.74375 37.275Q37.49375 37.65 37.49375 38.11875Q37.49375 38.821877 38.025 39.290627Q38.55625 39.759377 39.5875 39.759377Q40.603127 39.759377 41.384377 39.321877Q42.18125 38.86875 42.55625 38.103127Q42.8375 37.49375 42.8375 36.3375L42.8375 35.696877ZM47.2125 44.86875L47.2125 30.525002L48.821877 30.525002L48.821877 31.868752Q49.384377 31.087502 50.0875 30.696877Q50.80625 30.290627 51.821877 30.290627Q53.15 30.290627 54.165627 30.978127Q55.18125 31.665627 55.696877 32.915627Q56.228127 34.15 56.228127 35.634377Q56.228127 37.228127 55.65 38.509377Q55.0875 39.775 53.99375 40.4625Q52.9 41.134377 51.696877 41.134377Q50.821877 41.134377 50.11875 40.759377Q49.43125 40.384377 48.978127 39.821877L48.978127 44.86875L47.2125 44.86875ZM48.80625 35.775Q48.80625 37.775 49.61875 38.728127Q50.43125 39.68125 51.5875 39.68125Q52.759377 39.68125 53.5875 38.696877Q54.43125 37.7125 54.43125 35.61875Q54.43125 33.65 53.603127 32.665627Q52.790627 31.665627 51.665627 31.665627Q50.540627 31.665627 49.665627 32.728127Q48.80625 33.775 48.80625 35.775ZM65.32188 37.55625L67.13438 37.790627Q66.7125 39.36875 65.54063 40.259377Q64.38438 41.134377 62.571877 41.134377Q60.30625 41.134377 58.9625 39.74375Q57.634377 38.3375 57.634377 35.80625Q57.634377 33.18125 58.978127 31.743752Q60.321877 30.290627 62.478127 30.290627Q64.55625 30.290627 65.86875 31.712502Q67.19688 33.11875 67.19688 35.696877Q67.19688 35.853127 67.18125 36.165627L59.446877 36.165627Q59.540627 37.86875 60.415627 38.775Q61.290627 39.68125 62.5875 39.68125Q63.55625 39.68125 64.22813 39.18125Q64.91563 38.665627 65.32188 37.55625ZM59.540627 34.7125L65.3375 34.7125Q65.22813 33.415627 64.68125 32.759377Q63.8375 31.743752 62.49375 31.743752Q61.290627 31.743752 60.4625 32.55625Q59.634377 33.353127 59.540627 34.7125ZM69.19688 40.9L69.19688 30.525002L70.775 30.525002L70.775 32.103127Q71.38438 30.993752 71.9 30.650002Q72.41563 30.290627 73.025 30.290627Q73.91563 30.290627 74.8375 30.853127L74.22813 32.49375Q73.5875 32.103127 72.94688 32.103127Q72.36875 32.103127 71.9 32.4625Q71.44688 32.80625 71.24375 33.415627Q70.9625 34.353127 70.9625 35.4625L70.9625 40.9L69.19688 40.9ZM75.50938 37.80625L77.25938 37.525Q77.4 38.571877 78.07188 39.134377Q78.74375 39.68125 79.94688 39.68125Q81.15 39.68125 81.72813 39.196877Q82.32188 38.696877 82.32188 38.040627Q82.32188 37.446877 81.80625 37.103127Q81.44688 36.86875 80.00938 36.509377Q78.07188 36.009377 77.32188 35.665627Q76.5875 35.30625 76.19688 34.68125Q75.80625 34.040627 75.80625 33.275Q75.80625 32.5875 76.11875 31.993752Q76.44688 31.400002 76.99375 31.009377Q77.4 30.712502 78.10313 30.509377Q78.82188 30.290627 79.63438 30.290627Q80.85313 30.290627 81.775 30.650002Q82.69688 30.993752 83.13438 31.603127Q83.57188 32.196877 83.74375 33.196877L82.025 33.43125Q81.9 32.634377 81.3375 32.196877Q80.775 31.743752 79.75938 31.743752Q78.54063 31.743752 78.025 32.15Q77.50938 32.540627 77.50938 33.071877Q77.50938 33.415627 77.72813 33.696877Q77.93125 33.978127 78.4 34.165627Q78.66563 34.259377 79.94688 34.603127Q81.82188 35.103127 82.55625 35.43125Q83.29063 35.74375 83.7125 36.353127Q84.13438 36.946877 84.13438 37.853127Q84.13438 38.728127 83.61875 39.509377Q83.10313 40.290627 82.13438 40.7125Q81.16563 41.134377 79.94688 41.134377Q77.93125 41.134377 76.86875 40.290627Q75.80625 39.446877 75.50938 37.80625ZM92.19688 40.9L92.19688 30.525002L93.775 30.525002L93.775 32.103127Q94.38438 30.993752 94.9 30.650002Q95.41563 30.290627 96.025 30.290627Q96.91563 30.290627 97.8375 30.853127L97.22813 32.49375Q96.5875 32.103127 95.94688 32.103127Q95.36875 32.103127 94.9 32.4625Q94.44688 32.80625 94.24375 33.415627Q93.9625 34.353127 93.9625 35.4625L93.9625 40.9L92.19688 40.9ZM106.32188 37.55625L108.13438 37.790627Q107.7125 39.36875 106.54063 40.259377Q105.38438 41.134377 103.57188 41.134377Q101.30625 41.134377 99.9625 39.74375Q98.63438 38.3375 98.63438 35.80625Q98.63438 33.18125 99.97813 31.743752Q101.32188 30.290627 103.47813 30.290627Q105.55625 30.290627 106.86875 31.712502Q108.19688 33.11875 108.19688 35.696877Q108.19688 35.853127 108.18125 36.165627L100.44688 36.165627Q100.54063 37.86875 101.41563 38.775Q102.29063 39.68125 103.5875 39.68125Q104.55625 39.68125 105.22813 39.18125Q105.91563 38.665627 106.32188 37.55625ZM100.54063 34.7125L106.3375 34.7125Q106.22813 33.415627 105.68125 32.759377Q104.8375 31.743752 103.49375 31.743752Q102.29063 31.743752 101.4625 32.55625Q100.63438 33.353127 100.54063 34.7125ZM116.99375 39.61875Q116.00938 40.446877 115.10313 40.790627Q114.19688 41.134377 113.16563 41.134377Q111.4625 41.134377 110.54063 40.30625Q109.61875 39.4625 109.61875 38.165627Q109.61875 37.4 109.9625 36.775Q110.32188 36.15 110.88438 35.775Q111.44688 35.384377 112.15 35.18125Q112.66563 35.05625 113.7125 34.915627Q115.8375 34.665627 116.8375 34.321877Q116.85313 33.9625 116.85313 33.853127Q116.85313 32.790627 116.35313 32.3375Q115.68125 31.743752 114.35313 31.743752Q113.10313 31.743752 112.50938 32.18125Q111.93125 32.61875 111.65 33.728127L109.93125 33.49375Q110.16563 32.384377 110.69688 31.712502Q111.22813 31.025002 112.24375 30.665627Q113.25938 30.290627 114.60313 30.290627Q115.93125 30.290627 116.75938 30.603127Q117.5875 30.915627 117.97813 31.400002Q118.36875 31.868752 118.525 32.5875Q118.61875 33.040627 118.61875 34.2125L118.61875 36.55625Q118.61875 39.009377 118.72813 39.665627Q118.8375 40.30625 119.18125 40.9L117.3375 40.9Q117.07188 40.353127 116.99375 39.61875ZM116.8375 35.696877Q115.88438 36.0875 113.9625 36.353127Q112.88438 36.509377 112.43125 36.7125Q111.99375 36.9 111.74375 37.275Q111.49375 37.65 111.49375 38.11875Q111.49375 38.821877 112.025 39.290627Q112.55625 39.759377 113.5875 39.759377Q114.60313 39.759377 115.38438 39.321877Q116.18125 38.86875 116.55625 38.103127Q116.8375 37.49375 116.8375 36.3375L116.8375 35.696877ZM127.94688 40.9L127.94688 39.5875Q126.9625 41.134377 125.04063 41.134377Q123.80625 41.134377 122.75938 40.446877Q121.72813 39.759377 121.15 38.540627Q120.5875 37.321877 120.5875 35.728127Q120.5875 34.165627 121.10313 32.9Q121.61875 31.634377 122.65 30.962502Q123.69688 30.290627 124.9625 30.290627Q125.9 30.290627 126.63438 30.696877Q127.36875 31.087502 127.8375 31.712502L127.8375 26.587502L129.57187 26.587502L129.57187 40.9L127.94688 40.9ZM122.38438 35.728127Q122.38438 37.7125 123.22813 38.696877Q124.07188 39.68125 125.2125 39.68125Q126.36875 39.68125 127.16563 38.74375Q127.97813 37.80625 127.97813 35.86875Q127.97813 33.74375 127.15 32.74375Q126.3375 31.743752 125.13438 31.743752Q123.9625 31.743752 123.16563 32.7125Q122.38438 33.665627 122.38438 35.728127ZM145.32187 37.55625L147.13437 37.790627Q146.7125 39.36875 145.54062 40.259377Q144.38437 41.134377 142.57187 41.134377Q140.30624 41.134377 138.9625 39.74375Q137.63437 38.3375 137.63437 35.80625Q137.63437 33.18125 138.97812 31.743752Q140.32187 30.290627 142.47812 30.290627Q144.55624 30.290627 145.86874 31.712502Q147.19687 33.11875 147.19687 35.696877Q147.19687 35.853127 147.18124 36.165627L139.44687 36.165627Q139.54062 37.86875 140.41562 38.775Q141.29062 39.68125 142.5875 39.68125Q143.55624 39.68125 144.22812 39.18125Q144.91562 38.665627 145.32187 37.55625ZM139.54062 34.7125L145.3375 34.7125Q145.22812 33.415627 144.68124 32.759377Q143.8375 31.743752 142.49374 31.743752Q141.29062 31.743752 140.4625 32.55625Q139.63437 33.353127 139.54062 34.7125ZM155.99374 39.61875Q155.00937 40.446877 154.10312 40.790627Q153.19687 41.134377 152.16562 41.134377Q150.4625 41.134377 149.54062 40.30625Q148.61874 39.4625 148.61874 38.165627Q148.61874 37.4 148.9625 36.775Q149.32187 36.15 149.88437 35.775Q150.44687 35.384377 151.15 35.18125Q151.66562 35.05625 152.7125 34.915627Q154.8375 34.665627 155.8375 34.321877Q155.85312 33.9625 155.85312 33.853127Q155.85312 32.790627 155.35312 32.3375Q154.68124 31.743752 153.35312 31.743752Q152.10312 31.743752 151.50937 32.18125Q150.93124 32.61875 150.65 33.728127L148.93124 33.49375Q149.16562 32.384377 149.69687 31.712502Q150.22812 31.025002 151.24374 30.665627Q152.25937 30.290627 153.60312 30.290627Q154.93124 30.290627 155.75937 30.603127Q156.5875 30.915627 156.97812 31.400002Q157.36874 31.868752 157.525 32.5875Q157.61874 33.040627 157.61874 34.2125L157.61874 36.55625Q157.61874 39.009377 157.72812 39.665627Q157.8375 40.30625 158.18124 40.9L156.3375 40.9Q156.07187 40.353127 155.99374 39.61875ZM155.8375 35.696877Q154.88437 36.0875 152.9625 36.353127Q151.88437 36.509377 151.43124 36.7125Q150.99374 36.9 150.74374 37.275Q150.49374 37.65 150.49374 38.11875Q150.49374 38.821877 151.025 39.290627Q151.55624 39.759377 152.5875 39.759377Q153.60312 39.759377 154.38437 39.321877Q155.18124 38.86875 155.55624 38.103127Q155.8375 37.49375 155.8375 36.3375L155.8375 35.696877ZM166.99374 37.103127L168.7125 37.321877Q168.43124 39.11875 167.25937 40.134377Q166.10312 41.134377 164.4 41.134377Q162.275 41.134377 160.97812 39.74375Q159.68124 38.353127 159.68124 35.759377Q159.68124 34.071877 160.22812 32.821877Q160.79062 31.556252 161.93124 30.931252Q163.07187 30.290627 164.41562 30.290627Q166.10312 30.290627 167.16562 31.150002Q168.24374 32.009377 168.55624 33.571877L166.8375 33.8375Q166.60312 32.790627 165.97812 32.275Q165.35312 31.743752 164.47812 31.743752Q163.15 31.743752 162.32187 32.696877Q161.49374 33.65 161.49374 35.696877Q161.49374 37.790627 162.29062 38.74375Q163.0875 39.68125 164.38437 39.68125Q165.41562 39.68125 166.10312 39.05625Q166.80624 38.415627 166.99374 37.103127ZM170.2125 40.9L170.2125 26.587502L171.97812 26.587502L171.97812 31.712502Q173.2125 30.290627 175.0875 30.290627Q176.22812 30.290627 177.07187 30.743752Q177.93124 31.196877 178.29062 32.009377Q178.66562 32.80625 178.66562 34.321877L178.66562 40.9L176.91562 40.9L176.91562 34.321877Q176.91562 33.009377 176.3375 32.415627Q175.75937 31.806252 174.72812 31.806252Q173.94687 31.806252 173.24374 32.2125Q172.55624 32.61875 172.25937 33.321877Q171.97812 34.009377 171.97812 35.228127L171.97812 40.9L170.2125 40.9ZM186.13437 44.9L185.94687 43.24375Q186.525 43.4 186.94687 43.4Q187.54062 43.4 187.88437 43.196877Q188.24374 43.009377 188.4625 42.665627Q188.63437 42.4 189.00937 41.353127Q189.05624 41.196877 189.16562 40.915627L185.22812 30.525002L187.11874 30.525002L189.275 36.540627Q189.69687 37.68125 190.025 38.93125Q190.3375 37.728127 190.74374 36.571877L192.9625 30.525002L194.72812 30.525002L190.775 41.071877Q190.15 42.790627 189.79062 43.43125Q189.32187 44.30625 188.7125 44.696877Q188.11874 45.103127 187.275 45.103127Q186.75937 45.103127 186.13437 44.9ZM203.32187 37.55625L205.13437 37.790627Q204.7125 39.36875 203.54062 40.259377Q202.38437 41.134377 200.57187 41.134377Q198.30624 41.134377 196.9625 39.74375Q195.63437 38.3375 195.63437 35.80625Q195.63437 33.18125 196.97812 31.743752Q198.32187 30.290627 200.47812 30.290627Q202.55624 30.290627 203.86874 31.712502Q205.19687 33.11875 205.19687 35.696877Q205.19687 35.853127 205.18124 36.165627L197.44687 36.165627Q197.54062 37.86875 198.41562 38.775Q199.29062 39.68125 200.5875 39.68125Q201.55624 39.68125 202.22812 39.18125Q202.91562 38.665627 203.32187 37.55625ZM197.54062 34.7125L203.3375 34.7125Q203.22812 33.415627 202.68124 32.759377Q201.8375 31.743752 200.49374 31.743752Q199.29062 31.743752 198.4625 32.55625Q197.63437 33.353127 197.54062 34.7125ZM213.99374 39.61875Q213.00937 40.446877 212.10312 40.790627Q211.19687 41.134377 210.16562 41.134377Q208.4625 41.134377 207.54062 40.30625Q206.61874 39.4625 206.61874 38.165627Q206.61874 37.4 206.9625 36.775Q207.32187 36.15 207.88437 35.775Q208.44687 35.384377 209.15 35.18125Q209.66562 35.05625 210.7125 34.915627Q212.8375 34.665627 213.8375 34.321877Q213.85312 33.9625 213.85312 33.853127Q213.85312 32.790627 213.35312 32.3375Q212.68124 31.743752 211.35312 31.743752Q210.10312 31.743752 209.50937 32.18125Q208.93124 32.61875 208.65 33.728127L206.93124 33.49375Q207.16562 32.384377 207.69687 31.712502Q208.22812 31.025002 209.24374 30.665627Q210.25937 30.290627 211.60312 30.290627Q212.93124 30.290627 213.75937 30.603127Q214.5875 30.915627 214.97812 31.400002Q215.36874 31.868752 215.525 32.5875Q215.61874 33.040627 215.61874 34.2125L215.61874 36.55625Q215.61874 39.009377 215.72812 39.665627Q215.8375 40.30625 216.18124 40.9L214.3375 40.9Q214.07187 40.353127 213.99374 39.61875ZM213.8375 35.696877Q212.88437 36.0875 210.9625 36.353127Q209.88437 36.509377 209.43124 36.7125Q208.99374 36.9 208.74374 37.275Q208.49374 37.65 208.49374 38.11875Q208.49374 38.821877 209.025 39.290627Q209.55624 39.759377 210.5875 39.759377Q211.60312 39.759377 212.38437 39.321877Q213.18124 38.86875 213.55624 38.103127Q213.8375 37.49375 213.8375 36.3375L213.8375 35.696877ZM218.19687 40.9L218.19687 30.525002L219.775 30.525002L219.775 32.103127Q220.38437 30.993752 220.9 30.650002Q221.41562 30.290627 222.025 30.290627Q222.91562 30.290627 223.8375 30.853127L223.22812 32.49375Q222.5875 32.103127 221.94687 32.103127Q221.36874 32.103127 220.9 32.4625Q220.44687 32.80625 220.24374 33.415627Q219.9625 34.353127 219.9625 35.4625L219.9625 40.9L218.19687 40.9Z" fill-rule="nonzero"/></svg>