<svg version="1.1" viewBox="0.0 0.0 600.0 440.0" fill="none" stroke="none" stroke-linecap="square" stroke-miterlimit="10" width="600" height="440" xmlns:xlink="http://www.w3.org/1999/xlink" xmlns="http://www.w3.org/2000/svg"><path fill="#ffffff" d="M0 0L600.0 0L600.0 440.0L0 440.0L0 0Z" fill-rule="nonzero"/><path stroke="#333333" stroke-width="1.0" stroke-linecap="butt" d="M49.5 327.5L578.5 327.5" fill-rule="nonzero"/><path stroke="#cccccc" stroke-width="1.0" stroke-linecap="butt" d="M49.5 262.5L578.5 262.5" fill-rule="nonzero"/><path stroke="#cccccc" stroke-width="1.0" stroke-linecap="butt" d="M49.5 197.5L578.5 197.5" fill-rule="nonzero"/><path stroke="#cccccc" stroke-width="1.0" stroke-linecap="butt" d="M49.5 132.5L578.5 132.5" fill-rule="nonzero"/><path stroke="#cccccc" stroke-width="1.0" stroke-linecap="butt" d="M49.5 67.5L578.5 67.5" fill-rule="nonzero"/><clipPath id="id_0"><path d="M49.0 67.666664L578.0 67.666664L578.0 327.85428L49.0 327.85428L49.0 67.666664Z" clip-rule="nonzero"/></clipPath><path stroke="#000000" stroke-width="2.0" stroke-linecap="butt" stroke-opacity="0.0" clip-path="url(#id_0)" d="M82.0 328.0L61.0 328.0L61.0 112.0C61.0 110.89543 61.89543 110.0 63.0 110.0L80.0 110.0C81.10457 110.0 82.0 110.89543 82.0 112.0Z" fill-rule="nonzero"/><path fill="#4285f4" clip-path="url(#id_0)" d="M82.0 328.0L61.0 328.0L61.0 112.0C61.0 110.89543 61.89543 110.0 63.0 110.0L80.0 110.0C81.10457 110.0 82.0 110.89543 82.0 112.0Z" fill-rule="nonzero"/><path stroke="#000000" stroke-width="2.0" stroke-linecap="butt" stroke-opacity="0.0" clip-path="url(#id_0)" d="M114.0 328.0L93.0 328.0L93.0 157.0C93.0 155.89543 93.89543 155.0 95.0 155.0L112.0 155.0C113.10457 155.0 114.0 155.89543 114.0 157.0Z" fill-rule="nonzero"/><path fill="#4285f4" clip-path="url(#id_0)" d="M114.0 328.0L93.0 328.0L93.0 157.0C93.0 155.89543 93.89543 155.0 95.0 155.0L112.0 155.0C113.10457 155.0 114.0 155.89543 114.0 157.0Z" fill-rule="nonzero"/><path stroke="#000000" stroke-width="2.0" stroke-linecap="butt" stroke-opacity="0.0" clip-path="url(#id_0)" d="M147.0 328.0L126.0 328.0L126.0 200.0C126.0 198.89543 126.89543 198.0 128.0 198.0L145.0 198.0C146.10457 198.0 147.0 198.89543 147.0 200.0Z" fill-rule="nonzero"/><path fill="#4285f4" clip-path="url(#id_0)" d="M147.0 328.0L126.0 328.0L126.0 200.0C126.0 198.89543 126.89543 198.0 128.0 198.0L145.0 198.0C146.10457 198.0 147.0 198.89543 147.0 200.0Z" fill-rule="nonzero"/><path stroke="#000000" stroke-width="2.0" stroke-linecap="butt" stroke-opacity="0.0" clip-path="url(#id_0)" d="M179.0 328.0L158.0 328.0L158.0 242.0C158.0 240.89543 158.89543 240.0 160.0 240.0L177.0 240.0C178.10457 240.0 179.0 240.89543 179.0 242.0Z" fill-rule="nonzero"/><path fill="#4285f4" clip-path="url(#id_0)" d="M179.0 328.0L158.0 328.0L158.0 242.0C158.0 240.89543 158.89543 240.0 160.0 240.0L177.0 240.0C178.10457 240.0 179.0 240.89543 179.0 242.0Z" fill-rule="nonzero"/><path stroke="#000000" stroke-width="2.0" stroke-linecap="butt" stroke-opacity="0.0" clip-path="url(#id_0)" d="M211.0 328.0L190.0 328.0L190.0 294.0C190.0 292.89542 190.89543 292.0 192.0 292.0L209.0 292.0C210.10457 292.0 211.0 292.89542 211.0 294.0Z" fill-rule="nonzero"/><path fill="#4285f4" clip-path="url(#id_0)" d="M211.0 328.0L190.0 328.0L190.0 294.0C190.0 292.89542 190.89543 292.0 192.0 292.0L209.0 292.0C210.10457 292.0 211.0 292.89542 211.0 294.0Z" fill-rule="nonzero"/><path stroke="#000000" stroke-width="2.0" stroke-linecap="butt" stroke-opacity="0.0" clip-path="url(#id_0)" d="M244.0 328.0L223.0 328.0L223.0 314.0C223.0 312.89542 223.89543 312.0 225.0 312.0L242.0 312.0C243.10457 312.0 244.0 312.89542 244.0 314.0Z" fill-rule="nonzero"/><path fill="#4285f4" clip-path="url(#id_0)" d="M244.0 328.0L223.0 328.0L223.0 314.0C223.0 312.89542 223.89543 312.0 225.0 312.0L242.0 312.0C243.10457 312.0 244.0 312.89542 244.0 314.0Z" fill-rule="nonzero"/><path stroke="#000000" stroke-width="2.0" stroke-linecap="butt" stroke-opacity="0.0" clip-path="url(#id_0)" d="M276.0 328.0L255.0 328.0L255.0 314.0C255.0 312.89542 255.89543 312.0 257.0 312.0L274.0 312.0C275.10458 312.0 276.0 312.89542 276.0 314.0Z" fill-rule="nonzero"/><path fill="#4285f4" clip-path="url(#id_0)" d="M276.0 328.0L255.0 328.0L255.0 314.0C255.0 312.89542 255.89543 312.0 257.0 312.0L274.0 312.0C275.10458 312.0 276.0 312.89542 276.0 314.0Z" fill-rule="nonzero"/><path stroke="#000000" stroke-width="2.0" stroke-linecap="butt" stroke-opacity="0.0" clip-path="url(#id_0)" d="M308.0 328.0L287.0 328.0L287.0 314.0C287.0 312.89542 287.89542 312.0 289.0 312.0L306.0 312.0C307.10458 312.0 308.0 312.89542 308.0 314.0Z" fill-rule="nonzero"/><path fill="#4285f4" clip-path="url(#id_0)" d="M308.0 328.0L287.0 328.0L287.0 314.0C287.0 312.89542 287.89542 312.0 289.0 312.0L306.0 312.0C307.10458 312.0 308.0 312.89542 308.0 314.0Z" fill-rule="nonzero"/><path stroke="#000000" stroke-width="2.0" stroke-linecap="butt" stroke-opacity="0.0" clip-path="url(#id_0)" d="M341.0 328.0L320.0 328.0L320.0 317.0C320.0 315.89542 320.89542 315.0 322.0 315.0L339.0 315.0C340.10458 315.0 341.0 315.89542 341.0 317.0Z" fill-rule="nonzero"/><path fill="#4285f4" clip-path="url(#id_0)" d="M341.0 328.0L320.0 328.0L320.0 317.0C320.0 315.89542 320.89542 315.0 322.0 315.0L339.0 315.0C340.10458 315.0 341.0 315.89542 341.0 317.0Z" fill-rule="nonzero"/><path stroke="#000000" stroke-width="2.0" stroke-linecap="butt" stroke-opacity="0.0" clip-path="url(#id_0)" d="M373.0 328.0L352.0 328.0L352.0 317.0C352.0 315.89542 352.89542 315.0 354.0 315.0L371.0 315.0C372.10458 315.0 373.0 315.89542 373.0 317.0Z" fill-rule="nonzero"/><path fill="#4285f4" clip-path="url(#id_0)" d="M373.0 328.0L352.0 328.0L352.0 317.0C352.0 315.89542 352.89542 315.0 354.0 315.0L371.0 315.0C372.10458 315.0 373.0 315.89542 373.0 317.0Z" fill-rule="nonzero"/><path stroke="#000000" stroke-width="2.0" stroke-linecap="butt" stroke-opacity="0.0" clip-path="url(#id_0)" d="M405.0 328.0L384.0 328.0L384.0 317.0C384.0 315.89542 384.89542 315.0 386.0 315.0L403.0 315.0C404.10458 315.0 405.0 315.89542 405.0 317.0Z" fill-rule="nonzero"/><path fill="#4285f4" clip-path="url(#id_0)" d="M405.0 328.0L384.0 328.0L384.0 317.0C384.0 315.89542 384.89542 315.0 386.0 315.0L403.0 315.0C404.10458 315.0 405.0 315.89542 405.0 317.0Z" fill-rule="nonzero"/><path stroke="#000000" stroke-width="2.0" stroke-linecap="butt" stroke-opacity="0.0" clip-path="url(#id_0)" d="M438.0 328.0L417.0 328.0L417.0 317.0C417.0 315.89542 417.89542 315.0 419.0 315.0L436.0 315.0C437.10458 315.0 438.0 315.89542 438.0 317.0Z" fill-rule="nonzero"/><path fill="#4285f4" clip-path="url(#id_0)" d="M438.0 328.0L417.0 328.0L417.0 317.0C417.0 315.89542 417.89542 315.0 419.0 315.0L436.0 315.0C437.10458 315.0 438.0 315.89542 438.0 317.0Z" fill-rule="nonzero"/><path stroke="#000000" stroke-width="2.0" stroke-linecap="butt" stroke-opacity="0.0" clip-path="url(#id_0)" d="M470.0 328.0L449.0 328.0L449.0 320.0C449.0 318.89542 449.89542 318.0 451.0 318.0L468.0 318.0C469.10458 318.0 470.0 318.89542 470.0 320.0Z" fill-rule="nonzero"/><path fill="#4285f4" clip-path="url(#id_0)" d="M470.0 328.0L449.0 328.0L449.0 320.0C449.0 318.89542 449.89542 318.0 451.0 318.0L468.0 318.0C469.10458 318.0 470.0 318.89542 470.0 320.0Z" fill-rule="nonzero"/><path stroke="#000000" stroke-width="2.0" stroke-linecap="butt" stroke-opacity="0.0" clip-path="url(#id_0)" d="M502.0 328.0L481.0 328.0L481.0 320.0C481.0 318.89542 481.89542 318.0 483.0 318.0L500.0 318.0C501.10458 318.0 502.0 318.89542 502.0 320.0Z" fill-rule="nonzero"/><path fill="#4285f4" clip-path="url(#id_0)" d="M502.0 328.0L481.0 328.0L481.0 320.0C481.0 318.89542 481.89542 318.0 483.0 318.0L500.0 318.0C501.10458 318.0 502.0 318.89542 502.0 320.0Z" fill-rule="nonzero"/><path stroke="#000000" stroke-width="2.0" stroke-linecap="butt" stroke-opacity="0.0" clip-path="url(#id_0)" d="M535.0 328.0L514.0 328.0L514.0 320.0C514.0 318.89542 514.89545 318.0 516.0 318.0L533.0 318.0C534.10455 318.0 535.0 318.89542 535.0 320.0Z" fill-rule="nonzero"/><path fill="#4285f4" clip-path="url(#id_0)" d="M535.0 328.0L514.0 328.0L514.0 320.0C514.0 318.89542 514.89545 318.0 516.0 318.0L533.0 318.0C534.10455 318.0 535.0 318.89542 535.0 320.0Z" fill-rule="nonzero"/><path stroke="#000000" stroke-width="2.0" stroke-linecap="butt" stroke-opacity="0.0" clip-path="url(#id_0)" d="M567.0 328.0L546.0 328.0L546.0 320.0C546.0 318.89542 546.89545 318.0 548.0 318.0L565.0 318.0C566.10455 318.0 567.0 318.89542 567.0 320.0Z" fill-rule="nonzero"/><path fill="#4285f4" clip-path="url(#id_0)" d="M567.0 328.0L546.0 328.0L546.0 320.0C546.0 318.89542 546.89545 318.0 548.0 318.0L565.0 318.0C566.10455 318.0 567.0 318.89542 567.0 320.0Z" fill-rule="nonzero"/><path fill="#000000" d="M36.5 327.6199Q36.5 326.08865 36.8125 325.16678Q37.125 324.22928 37.734375 323.72928Q38.359375 323.22928 39.296875 323.22928Q39.984375 323.22928 40.5 323.51053Q41.03125 323.79178 41.375 324.32303Q41.71875 324.83865 41.90625 325.58865Q42.09375 326.33865 42.09375 327.6199Q42.09375 329.13553 41.78125 330.0574Q41.484375 330.97928 40.859375 331.4949Q40.25 331.9949 39.296875 331.9949Q38.0625 331.9949 37.34375 331.10428Q36.5 330.04178 36.5 327.6199ZM37.578125 327.6199Q37.578125 329.72928 38.078125 330.4324Q38.578125 331.13553 39.296875 331.13553Q40.03125 331.13553 40.515625 330.4324Q41.015625 329.72928 41.015625 327.6199Q41.015625 325.4949 40.515625 324.8074Q40.03125 324.10428 39.28125 324.10428Q38.5625 324.10428 38.125 324.71365Q37.578125 325.4949 37.578125 327.6199Z" fill-rule="nonzero"/><path fill="#000000" d="M35.046875 265.79175L35.046875 266.80737L29.359375 266.80737Q29.359375 266.43237 29.484375 266.073Q29.703125 265.49487 30.171875 264.93237Q30.65625 264.36987 31.5625 263.6355Q32.96875 262.47925 33.453125 261.80737Q33.953125 261.1355 33.953125 260.54175Q33.953125 259.91675 33.5 259.49487Q33.046875 259.05737 32.328125 259.05737Q31.5625 259.05737 31.109375 259.5105Q30.65625 259.96362 30.640625 260.77612L29.5625 260.66675Q29.671875 259.448 30.390625 258.823Q31.125 258.18237 32.359375 258.18237Q33.59375 258.18237 34.3125 258.86987Q35.03125 259.55737 35.03125 260.573Q35.03125 261.08862 34.8125 261.58862Q34.609375 262.073 34.109375 262.6355Q33.625 263.18237 32.5 264.1355Q31.546875 264.93237 31.265625 265.22925Q31.0 265.5105 30.828125 265.79175L35.046875 265.79175ZM36.5 262.573Q36.5 261.04175 36.8125 260.11987Q37.125 259.18237 37.734375 258.68237Q38.359375 258.18237 39.296875 258.18237Q39.984375 258.18237 40.5 258.46362Q41.03125 258.74487 41.375 259.27612Q41.71875 259.79175 41.90625 260.54175Q42.09375 261.29175 42.09375 262.573Q42.09375 264.08862 41.78125 265.0105Q41.484375 265.93237 40.859375 266.448Q40.25 266.948 39.296875 266.948Q38.0625 266.948 37.34375 266.05737Q36.5 264.99487 36.5 262.573ZM37.578125 262.573Q37.578125 264.68237 38.078125 265.3855Q38.578125 266.08862 39.296875 266.08862Q40.03125 266.08862 40.515625 265.3855Q41.015625 264.68237 41.015625 262.573Q41.015625 260.448 40.515625 259.7605Q40.03125 259.05737 39.28125 259.05737Q38.5625 259.05737 38.125 259.66675Q37.578125 260.448 37.578125 262.573Z" fill-rule="nonzero"/><path fill="#000000" d="M32.875 201.76048L32.875 199.69798L29.15625 199.69798L29.15625 198.72923L33.078125 193.16673L33.9375 193.16673L33.9375 198.72923L35.09375 198.72923L35.09375 199.69798L33.9375 199.69798L33.9375 201.76048L32.875 201.76048ZM32.875 198.72923L32.875 194.86986L30.1875 198.72923L32.875 198.72923ZM36.5 197.52611Q36.5 195.99486 36.8125 195.07298Q37.125 194.13548 37.734375 193.63548Q38.359375 193.13548 39.296875 193.13548Q39.984375 193.13548 40.5 193.41673Q41.03125 193.69798 41.375 194.22923Q41.71875 194.74486 41.90625 195.49486Q42.09375 196.24486 42.09375 197.52611Q42.09375 199.04173 41.78125 199.96361Q41.484375 200.88548 40.859375 201.40111Q40.25 201.90111 39.296875 201.90111Q38.0625 201.90111 37.34375 201.01048Q36.5 199.94798 36.5 197.52611ZM37.578125 197.52611Q37.578125 199.63548 38.078125 200.33861Q38.578125 201.04173 39.296875 201.04173Q40.03125 201.04173 40.515625 200.33861Q41.015625 199.63548 41.015625 197.52611Q41.015625 195.40111 40.515625 194.71361Q40.03125 194.01048 39.28125 194.01048Q38.5625 194.01048 38.125 194.61986Q37.578125 195.40111 37.578125 197.52611Z" fill-rule="nonzero"/><path fill="#000000" d="M34.96875 130.2292L33.921875 130.30733Q33.78125 129.68233 33.53125 129.40108Q33.09375 128.94795 32.46875 128.94795Q31.96875 128.94795 31.578125 129.2292Q31.09375 129.6042 30.796875 130.30733Q30.515625 130.99483 30.5 132.27608Q30.875 131.69795 31.421875 131.4167Q31.984375 131.13545 32.59375 131.13545Q33.640625 131.13545 34.375 131.9167Q35.125 132.69795 35.125 133.9167Q35.125 134.7292 34.765625 135.43233Q34.421875 136.11983 33.8125 136.49483Q33.203125 136.8542 32.4375 136.8542Q31.109375 136.8542 30.28125 135.88545Q29.453125 134.9167 29.453125 132.69795Q29.453125 130.19795 30.375 129.07295Q31.171875 128.08858 32.53125 128.08858Q33.546875 128.08858 34.1875 128.6667Q34.84375 129.2292 34.96875 130.2292ZM30.671875 133.93233Q30.671875 134.4792 30.890625 134.9792Q31.125 135.46358 31.53125 135.7292Q31.953125 135.99483 32.421875 135.99483Q33.078125 135.99483 33.5625 135.46358Q34.046875 134.9167 34.046875 133.99483Q34.046875 133.1042 33.5625 132.58858Q33.09375 132.07295 32.375 132.07295Q31.65625 132.07295 31.15625 132.58858Q30.671875 133.1042 30.671875 133.93233ZM36.5 132.4792Q36.5 130.94795 36.8125 130.02608Q37.125 129.08858 37.734375 128.58858Q38.359375 128.08858 39.296875 128.08858Q39.984375 128.08858 40.5 128.36983Q41.03125 128.65108 41.375 129.18233Q41.71875 129.69795 41.90625 130.44795Q42.09375 131.19795 42.09375 132.4792Q42.09375 133.99483 41.78125 134.9167Q41.484375 135.83858 40.859375 136.3542Q40.25 136.8542 39.296875 136.8542Q38.0625 136.8542 37.34375 135.96358Q36.5 134.90108 36.5 132.4792ZM37.578125 132.4792Q37.578125 134.58858 38.078125 135.2917Q38.578125 135.99483 39.296875 135.99483Q40.03125 135.99483 40.515625 135.2917Q41.015625 134.58858 41.015625 132.4792Q41.015625 130.3542 40.515625 129.6667Q40.03125 128.96358 39.28125 128.96358Q38.5625 128.96358 38.125 129.57295Q37.578125 130.3542 37.578125 132.4792Z" fill-rule="nonzero"/><path fill="#000000" d="M31.125 67.010414Q30.46875 66.760414 30.140625 66.322914Q29.828125 65.86979 29.828125 65.260414Q29.828125 64.322914 30.5 63.68229Q31.1875 63.041664 32.296875 63.041664Q33.421875 63.041664 34.109375 63.697914Q34.796875 64.354164 34.796875 65.291664Q34.796875 65.885414 34.484375 66.322914Q34.171875 66.760414 33.53125 67.010414Q34.328125 67.260414 34.734375 67.83854Q35.140625 68.416664 35.140625 69.21354Q35.140625 70.30729 34.359375 71.05729Q33.59375 71.80729 32.3125 71.80729Q31.046875 71.80729 30.265625 71.05729Q29.484375 70.30729 29.484375 69.18229Q29.484375 68.33854 29.90625 67.77604Q30.34375 67.21354 31.125 67.010414ZM30.90625 65.21354Q30.90625 65.822914 31.296875 66.21354Q31.703125 66.604164 32.328125 66.604164Q32.9375 66.604164 33.328125 66.229164Q33.71875 65.83854 33.71875 65.27604Q33.71875 64.697914 33.3125 64.30729Q32.90625 63.90104 32.3125 63.90104Q31.703125 63.90104 31.296875 64.291664Q30.90625 64.68229 30.90625 65.21354ZM30.578125 69.18229Q30.578125 69.635414 30.78125 70.05729Q31.0 70.479164 31.421875 70.71354Q31.84375 70.947914 32.328125 70.947914Q33.078125 70.947914 33.5625 70.46354Q34.0625 69.979164 34.0625 69.229164Q34.0625 68.46354 33.5625 67.96354Q33.0625 67.46354 32.296875 67.46354Q31.546875 67.46354 31.0625 67.96354Q30.578125 68.447914 30.578125 69.18229ZM36.5 67.43229Q36.5 65.90104 36.8125 64.979164Q37.125 64.041664 37.734375 63.541664Q38.359375 63.041664 39.296875 63.041664Q39.984375 63.041664 40.5 63.322914Q41.03125 63.604164 41.375 64.135414Q41.71875 64.65104 41.90625 65.40104Q42.09375 66.15104 42.09375 67.43229Q42.09375 68.947914 41.78125 69.86979Q41.484375 70.791664 40.859375 71.30729Q40.25 71.80729 39.296875 71.80729Q38.0625 71.80729 37.34375 70.916664Q36.5 69.854164 36.5 67.43229ZM37.578125 67.43229Q37.578125 69.541664 38.078125 70.24479Q38.578125 70.947914 39.296875 70.947914Q40.03125 70.947914 40.515625 70.24479Q41.015625 69.541664 41.015625 67.43229Q41.015625 65.30729 40.515625 64.61979Q40.03125 63.916664 39.28125 63.916664Q38.5625 63.916664 38.125 64.52604Q37.578125 65.30729 37.578125 67.43229Z" fill-rule="nonzero"/><path fill="#000000" d="M46.74258 373.5075L40.665882 367.43082L41.483475 366.61322L49.449474 368.19318L44.676502 363.4202L45.4499 362.6468L51.5266 368.7235L50.69796 369.55215L42.73196 367.9722L47.50493 372.74518L46.74258 373.5075ZM54.609142 362.81253L55.47093 362.12753Q55.968113 362.97827 55.84658 363.8511Q55.725044 364.72394 54.962696 365.48627Q54.001472 366.4475 52.830326 366.4254Q51.67023 366.39227 50.598522 365.32056Q49.493668 364.2157 49.46052 363.0335Q49.41633 361.84027 50.322308 360.93427Q51.206192 360.05038 52.35524 360.09457Q53.515335 360.12775 54.609142 361.22153Q54.675434 361.28784 54.808018 361.4204L51.5266 364.70184Q52.299995 365.38684 53.051296 365.40894Q53.79155 365.41998 54.34398 364.86755Q54.752773 364.45877 54.830112 363.96158Q54.90745 363.4423 54.609142 362.81253ZM50.963123 364.04996L53.4159 361.5972Q52.80823 361.0779 52.299995 361.03372Q51.5045 360.96744 50.941025 361.53088Q50.421745 362.05017 50.410698 362.74625Q50.410698 363.43124 50.963123 364.04996ZM60.85157 359.39853L60.199707 358.74667Q60.431725 360.01724 59.54784 360.90112Q59.161144 361.28784 58.675007 361.4867Q58.18887 361.66348 57.80217 361.60825Q57.404423 361.54196 57.006676 361.2768Q56.75256 361.11105 56.266422 360.6249L53.54848 357.90698L54.29978 357.15567L56.741512 359.5974Q57.316036 360.17194 57.570152 360.33765Q57.923706 360.55862 58.321453 360.51443Q58.7192 360.44815 59.061707 360.10565Q59.39316 359.77417 59.514694 359.3212Q59.63623 358.8461 59.459454 358.42627Q59.293724 357.99536 58.730247 357.4319L56.37691 355.07855L57.11716 354.3383L61.51448 358.73563L60.85157 359.39853ZM62.906597 357.3435L58.509277 352.94617L59.18324 352.27222L59.846153 352.93512Q59.63623 352.21698 59.702522 351.86343Q59.768814 351.48776 60.033978 351.2226Q60.40963 350.84695 61.028347 350.6923L61.470287 351.64246Q61.028347 351.75293 60.76318 352.0181Q60.509064 352.27222 60.46487 352.62576Q60.420677 352.9572 60.6085 353.29974Q60.87367 353.83008 61.337704 354.2941L63.64685 356.60324L62.906597 357.3435ZM65.978096 354.272L59.901394 348.1953L60.69689 347.3998L66.77359 353.4765L65.978096 354.272ZM67.95578 352.2943L61.879086 346.21762L64.177185 343.91953Q64.7738 343.3229 65.14945 343.05774Q65.67979 342.6821 66.18802 342.5937Q66.7073 342.49426 67.25973 342.69315Q67.823204 342.88095 68.27619 343.33395Q69.04959 344.10736 69.09378 345.1459Q69.13798 346.16238 67.8453 347.45505L66.28745 349.0129L68.76233 351.48776L67.95578 352.2943ZM65.580345 348.3058L67.14924 346.7369Q67.933685 345.95245 67.966835 345.3448Q67.99998 344.71503 67.46965 344.1847Q67.093994 343.80902 66.62996 343.74274Q66.16592 343.65436 65.76817 343.87534Q65.503006 344.03 64.961624 344.57138L63.40378 346.12924L65.580345 348.3058ZM71.391884 344.94702L72.07689 344.12946Q72.59617 344.53824 73.082306 344.62662Q73.56844 344.71503 74.16506 344.49405Q74.76169 344.25098 75.28097 343.7317Q75.733955 343.27872 75.954926 342.79257Q76.16485 342.29538 76.09856 341.89764Q76.032265 341.47778 75.75606 341.20157Q75.468796 340.9143 75.09314 340.87012Q74.70644 340.81488 74.187164 341.0469Q73.83361 341.20157 72.795044 341.8424Q71.76753 342.47217 71.2593 342.62683Q70.585335 342.83676 70.04396 342.71524Q69.49153 342.58264 69.071686 342.1628Q68.6187 341.7098 68.47507 341.05795Q68.331436 340.38397 68.629745 339.68793Q68.928055 338.9698 69.53573 338.3621Q70.20969 337.68814 70.949936 337.38983Q71.679146 337.08047 72.386246 337.23514Q73.082306 337.37878 73.634735 337.88702L72.91658 338.71567Q72.275764 338.20743 71.6239 338.28476Q70.97204 338.34 70.27598 339.03607Q69.546776 339.76526 69.480484 340.36188Q69.41419 340.9585 69.78984 341.33417Q70.1213 341.66562 70.56324 341.64352Q71.00518 341.62143 72.198425 340.87012Q73.40272 340.1078 73.933044 339.9089Q74.71749 339.6327 75.34726 339.7542Q75.96598 339.86472 76.463165 340.36188Q76.949295 340.84802 77.10397 341.55515Q77.247604 342.2512 76.9714 343.01355Q76.684135 343.76483 76.032265 344.41672Q75.20363 345.24533 74.408134 345.5768Q73.61264 345.88617 72.80609 345.72043Q72.0106 345.54367 71.391884 344.94702Z" fill-rule="nonzero"/><path fill="#000000" d="M91.96887 360.63596L85.89217 354.55927L86.687675 353.76376L92.76437 359.84045L91.96887 360.63596ZM96.15627 352.18384L97.16169 351.59827Q97.89089 352.8357 97.758316 354.00684Q97.62573 355.17798 96.67555 356.12814Q95.69224 357.11148 94.675766 357.33246Q93.6593 357.5534 92.58759 357.12253Q91.50484 356.68057 90.632 355.80774Q89.68182 354.85757 89.339325 353.78586Q88.99682 352.71417 89.29513 351.68665Q89.604485 350.64807 90.41103 349.84152Q91.31701 348.93555 92.399765 348.78088Q93.493576 348.61514 94.57633 349.21176L93.96866 350.1951Q93.095825 349.7421 92.38872 349.8526Q91.68161 349.94098 91.073944 350.54865Q90.377884 351.2447 90.2453 352.0623Q90.11272 352.8578 90.477325 353.62015Q90.852974 354.37143 91.46064 354.9791Q92.23404 355.7525 93.02953 356.10605Q93.83608 356.44858 94.59843 356.26074Q95.36078 356.0729 95.924255 355.50943Q96.59821 354.83548 96.67555 353.98474Q96.76395 353.12296 96.15627 352.18384ZM100.27738 352.32745L94.20068 346.25076L95.007225 345.4442L100.36577 350.80276L103.359924 347.8086L104.07808 348.52676L100.27738 352.32745ZM105.271324 347.33353L99.194626 341.2568L101.890465 338.56097Q102.70806 337.74338 103.29363 337.48926Q103.8792 337.23514 104.55317 337.40088Q105.21608 337.55554 105.713264 338.05273Q106.36513 338.70462 106.38722 339.5664Q106.409325 340.4282 105.65802 341.42255Q106.13311 341.2568 106.44247 341.2347Q107.11643 341.20157 107.91193 341.37836L110.62987 341.97498L109.6134 342.99146L107.55837 342.5274Q106.65239 342.32852 106.13311 342.2733Q105.62488 342.207 105.32656 342.28433Q105.02825 342.33957 104.78519 342.47217Q104.63051 342.58264 104.321144 342.892L103.38202 343.83112L106.077866 346.52698L105.271324 347.33353ZM102.68597 343.13507L104.420586 341.40045Q104.96196 340.85907 105.160835 340.43924Q105.35971 339.99728 105.271324 339.59955Q105.18293 339.1797 104.88462 338.88138Q104.45373 338.4505 103.85711 338.4947Q103.27154 338.52783 102.59757 339.20178L100.675125 341.12424L102.68597 343.13507Z" fill-rule="nonzero"/><path fill="#000000" d="M124.323616 360.63596L118.24692 354.55927L119.04241 353.76376L125.11911 359.84048L124.323616 360.63596ZM128.51102 352.18384L129.51643 351.59827Q130.24564 352.8357 130.11305 354.00684Q129.98047 355.17798 129.03029 356.12817Q128.04697 357.11148 127.03051 357.33246Q126.01404 357.55344 124.94233 357.12253Q123.85957 356.6806 122.98674 355.80774Q122.03657 354.85757 121.69406 353.78586Q121.351555 352.71417 121.649864 351.68665Q121.95923 350.64807 122.76577 349.84155Q123.671745 348.93555 124.75451 348.78088Q125.84831 348.61514 126.93107 349.21176L126.3234 350.1951Q125.45056 349.7421 124.743454 349.8526Q124.036354 349.94098 123.42868 350.54865Q122.73262 351.2447 122.60004 352.0623Q122.46746 352.8578 122.83206 353.62015Q123.20771 354.37143 123.81538 354.97913Q124.588776 355.7525 125.38427 356.10608Q126.19082 356.44858 126.95316 356.26074Q127.715515 356.0729 128.27899 355.50943Q128.95296 354.83548 129.03029 353.98474Q129.11868 353.12296 128.51102 352.18384ZM132.64317 352.3164L126.56647 346.23972L127.78181 345.02438L133.516 347.88596Q134.32254 348.29474 134.70924 348.50467Q134.47722 348.07376 134.05737 347.21198L131.2842 341.52197L132.36696 340.43924L138.44365 346.51593L137.67026 347.28934L132.58792 342.207L135.90248 349.0571L135.17328 349.7863L128.24585 346.37228L133.41656 351.54303L132.64317 352.3164ZM138.99608 345.9635L132.91937 339.8868L133.72592 339.08026L139.08447 344.4388L142.07863 341.44464L142.79678 342.1628L138.99608 345.9635Z" fill-rule="nonzero"/><path fill="#000000" d="M155.2089 357.8407L156.21431 357.25513Q156.94351 358.49255 156.81093 359.6637Q156.67834 360.83484 155.72818 361.785Q154.74486 362.76834 153.7284 362.98932Q152.71193 363.21027 151.64021 362.7794Q150.55746 362.33743 149.68462 361.4646Q148.73445 360.51443 148.39194 359.44272Q148.04944 358.37103 148.34775 357.3435Q148.6571 356.30493 149.46365 355.49838Q150.36963 354.5924 151.4524 354.43774Q152.54619 354.272 153.62895 354.86862L153.02129 355.85196Q152.14845 355.39896 151.44135 355.50946Q150.73424 355.59784 150.12657 356.2055Q149.43051 356.90155 149.29793 357.71915Q149.16534 358.51465 149.52994 359.277Q149.9056 360.0283 150.51326 360.63596Q151.28667 361.40936 152.08215 361.7629Q152.8887 362.10544 153.65105 361.9176Q154.4134 361.72977 154.97687 361.1663Q155.65083 360.49234 155.72818 359.6416Q155.81656 358.77982 155.2089 357.8407ZM161.09776 356.21655L152.66772 352.4932L153.54056 351.62036L159.53992 354.45984Q160.25807 354.80234 160.8547 355.1338Q160.50114 354.49298 160.19179 353.80798L157.40755 347.75336L158.22514 346.93576L161.9264 355.3879L161.09776 356.21655ZM164.3129 353.00143L158.23619 346.9247L160.53429 344.62662Q161.13092 344.03 161.50656 343.76483Q162.0369 343.3892 162.54512 343.3008Q163.0644 343.20135 163.61684 343.40024Q164.18031 343.58807 164.6333 344.04105Q165.4067 344.81445 165.4509 345.85303Q165.49509 346.86948 164.20241 348.16217L162.64456 349.72L165.11943 352.1949L164.3129 353.00143ZM161.93745 349.0129L163.50635 347.444Q164.2908 346.65958 164.32394 346.05188Q164.35709 345.42212 163.82675 344.89178Q163.45111 344.51614 162.98708 344.44986Q162.52303 344.36145 162.12529 344.58243Q161.86012 344.73712 161.31874 345.2785L159.7609 346.83633L161.93745 349.0129ZM169.98079 347.33353L163.9041 341.25684L166.59995 338.56097Q167.41754 337.74338 168.00311 337.48926Q168.58868 337.23517 169.26263 337.40088Q169.92555 337.55557 170.42274 338.05273Q171.0746 338.70462 171.0967 339.5664Q171.11879 340.4282 170.3675 341.42255Q170.84259 341.25684 171.15195 341.23474Q171.8259 341.20157 172.6214 341.37836L175.33934 341.97498L174.32288 342.99146L172.26785 342.5274Q171.36186 342.32852 170.84259 342.2733Q170.33435 342.207 170.03604 342.28433Q169.73773 342.33957 169.49466 342.47217Q169.33998 342.58264 169.03062 342.892L168.09149 343.83115L170.78734 346.52698L169.98079 347.33353ZM167.39543 343.13507L169.13007 341.40045Q169.67143 340.85907 169.87032 340.43924Q170.06918 339.99728 169.98079 339.59955Q169.89241 339.1797 169.5941 338.88138Q169.16321 338.4505 168.56659 338.4947Q167.981 338.52783 167.30705 339.20178L165.3846 341.12424L167.39543 343.13507Z" fill-rule="nonzero"/><path fill="#000000" d="M189.0331 360.63596L182.9564 354.55927L183.75189 353.76376L189.8286 359.84045L189.0331 360.63596ZM193.22049 352.18384L194.22592 351.59827Q194.95512 352.8357 194.82254 354.00684Q194.68996 355.17798 193.73978 356.12814Q192.75645 357.11148 191.73999 357.33246Q190.72353 357.5534 189.65181 357.12253Q188.56906 356.68057 187.69623 355.80774Q186.74605 354.85757 186.40355 353.78586Q186.06104 352.71414 186.35934 351.68665Q186.66872 350.64807 187.47525 349.84152Q188.38124 348.93555 189.46399 348.78088Q190.5578 348.61514 191.64055 349.21176L191.03288 350.1951Q190.16005 349.7421 189.45294 349.85257Q188.74583 349.94098 188.13817 350.54865Q187.44211 351.2447 187.30952 352.0623Q187.17694 352.8578 187.54155 353.62015Q187.91719 354.37143 188.52487 354.9791Q189.29826 355.7525 190.09377 356.10605Q190.9003 356.44858 191.66266 356.26074Q192.425 356.0729 192.98848 355.50943Q193.66245 354.83548 193.73978 353.98474Q193.82817 353.12296 193.22049 352.18384ZM199.58446 345.81985L200.58987 345.23428Q201.31908 346.47174 201.1865 347.64288Q201.05391 348.81403 200.10374 349.7642Q199.12042 350.74753 198.10396 350.96848Q197.0875 351.18945 196.01578 350.75858Q194.93301 350.31662 194.06018 349.4438Q193.11002 348.49362 192.7675 347.4219Q192.425 346.3502 192.72331 345.3227Q193.03267 344.28412 193.83922 343.47757Q194.7452 342.5716 195.82796 342.4169Q196.92175 342.2512 198.00452 342.8478L197.39685 343.83112Q196.52402 343.37814 195.81691 343.48862Q195.1098 343.577 194.50212 344.1847Q193.80608 344.88074 193.6735 345.69833Q193.54091 346.49384 193.9055 347.25616Q194.28116 348.00748 194.88882 348.61514Q195.66223 349.38855 196.45772 349.7421Q197.26427 350.0846 198.02661 349.8968Q198.78896 349.70895 199.35243 349.14548Q200.0264 348.47153 200.10374 347.6208Q200.19212 346.759 199.58446 345.81985ZM205.47333 344.19574L197.04329 340.47238L197.91612 339.59955L203.91548 342.439Q204.63364 342.78152 205.23027 343.11298Q204.87671 342.47217 204.56735 341.78714L201.78311 335.73254L202.60071 334.91495L206.30197 343.3671L205.47333 344.19574Z" fill-rule="nonzero"/><path fill="#000000" d="M217.73077 364.29303L211.65407 358.21634L216.04034 353.83005L216.7585 354.54822L213.17877 358.12793L215.03493 359.9841L218.39368 356.62534L219.11183 357.3435L215.75308 360.70224L217.81915 362.76834L221.54251 359.04498L222.26067 359.76312L217.73077 364.29303ZM225.57524 352.18384L226.58066 351.59827Q227.30986 352.8357 227.17728 354.00684Q227.0447 355.17798 226.09451 356.12814Q225.11119 357.11148 224.09473 357.33246Q223.07826 357.5534 222.00656 357.12253Q220.9238 356.68057 220.05096 355.80774Q219.10078 354.85757 218.75829 353.78586Q218.41577 352.71417 218.7141 351.68665Q219.02345 350.64807 219.82999 349.84152Q220.73598 348.93555 221.81873 348.78088Q222.91254 348.61514 223.99529 349.21176L223.38762 350.1951Q222.51479 349.7421 221.80768 349.8526Q221.10057 349.94098 220.4929 350.54865Q219.79684 351.2447 219.66426 352.0623Q219.53168 352.8578 219.89629 353.62015Q220.27193 354.37143 220.87961 354.9791Q221.653 355.7525 222.4485 356.10605Q223.25504 356.44858 224.0174 356.26074Q224.77974 356.0729 225.34322 355.50943Q226.01718 354.83548 226.09451 353.98474Q226.1829 353.12296 225.57524 352.18384ZM231.9392 345.81985L232.94461 345.23428Q233.67381 346.47174 233.54123 347.64288Q233.40865 348.81403 232.45848 349.7642Q231.47516 350.74753 230.4587 350.96848Q229.44223 351.18945 228.37051 350.75858Q227.28777 350.31662 226.41492 349.4438Q225.46475 348.49362 225.12224 347.4219Q224.77974 346.3502 225.07805 345.3227Q225.3874 344.28412 226.19395 343.47757Q227.09993 342.5716 228.1827 342.4169Q229.27649 342.2512 230.35925 342.8478L229.75159 343.83112Q228.87875 343.37814 228.17165 343.48862Q227.46454 343.57703 226.85687 344.1847Q226.16081 344.88074 226.02823 345.69833Q225.89565 346.49384 226.26024 347.25616Q226.6359 348.00748 227.24356 348.61514Q228.01697 349.38855 228.81245 349.7421Q229.619 350.0846 230.38135 349.8968Q231.1437 349.70895 231.70717 349.14548Q232.38113 348.47153 232.45848 347.6208Q232.54686 346.759 231.9392 345.81985ZM237.82806 344.19574L229.39803 340.47238L230.27086 339.59955L236.27022 342.43903Q236.98837 342.78152 237.585 343.11298Q237.23145 342.47217 236.92209 341.78714L234.13785 335.73254L234.95544 334.91495L238.65671 343.3671L237.82806 344.19574Z" fill-rule="nonzero"/><path fill="#000000" d="M239.501 374.87753L235.75554 366.4696L236.61732 365.60782L245.17995 369.19858L244.27397 370.10455L241.71071 368.97763L239.18059 371.50772L240.35175 374.0268L239.501 374.87753ZM238.76074 370.62384L240.81578 368.56882L238.50664 367.5192Q237.44597 367.05518 236.81621 366.69058Q237.28024 367.39767 237.64485 368.18213L238.76074 370.62384ZM245.2573 369.12125L239.18059 363.04456L239.97609 362.24905L246.05278 368.32574L245.2573 369.12125ZM245.01422 365.45312L245.69923 364.63553Q246.21852 365.04434 246.70465 365.13272Q247.19078 365.2211 247.78741 365.00015Q248.38403 364.75708 248.9033 364.2378Q249.35631 363.7848 249.57727 363.29868Q249.7872 362.80148 249.7209 362.40375Q249.65462 361.9839 249.3784 361.70767Q249.09114 361.4204 248.71548 361.37622Q248.32878 361.32098 247.80951 361.553Q247.45595 361.70767 246.41739 362.34848Q245.38988 362.97827 244.88164 363.13293Q244.20769 363.34286 243.6663 363.2213Q243.11388 363.08875 242.69403 362.66888Q242.24104 362.2159 242.09741 361.56406Q241.95378 360.89008 242.25209 360.19403Q242.5504 359.47586 243.15807 358.8682Q243.83203 358.19424 244.57228 357.89594Q245.30148 357.58658 246.00859 357.74124Q246.70465 357.8849 247.25708 358.39313L246.53893 359.22174Q245.8981 358.71353 245.24625 358.79086Q244.59438 358.8461 243.89832 359.54218Q243.16911 360.27136 243.10283 360.86798Q243.03653 361.4646 243.41219 361.84027Q243.74364 362.17172 244.18558 362.14963Q244.62752 362.12753 245.82077 361.37622Q247.02505 360.61386 247.55539 360.415Q248.33983 360.1388 248.9696 360.2603Q249.58832 360.3708 250.08551 360.86798Q250.57164 361.35413 250.72632 362.06122Q250.86995 362.7573 250.59373 363.51962Q250.30647 364.27094 249.65462 364.9228Q248.82597 365.75143 248.03047 366.0829Q247.23499 366.39224 246.42844 366.22653Q245.63295 366.04974 245.01422 365.45312ZM254.43863 359.9399L249.0801 354.58136L247.0803 356.58115L246.36215 355.863L251.1793 351.04584L251.89746 351.76398L249.88663 353.7748L255.24518 359.13336L254.43863 359.9399ZM257.17868 357.19986L253.43321 348.79193L254.295 347.93015L262.85764 351.5209L261.95163 352.4269L259.38837 351.29996L256.85828 353.83008L258.02942 356.34912L257.17868 357.19986ZM256.43842 352.94617L258.49344 350.89114L256.1843 349.84155Q255.12364 349.3775 254.49388 349.0129Q254.95792 349.72 255.32251 350.50446L256.43842 352.94617ZM264.33813 350.0404L258.97958 344.6819L256.9798 346.68167L256.26163 345.9635L261.0788 341.14633L261.79697 341.8645L259.78613 343.87534L265.14468 349.23386L264.33813 350.0404ZM265.52032 344.94702L266.20532 344.12946Q266.7246 344.53824 267.21075 344.62662Q267.69687 344.71503 268.29352 344.49405Q268.89014 344.25098 269.4094 343.7317Q269.8624 343.27872 270.08337 342.79257Q270.2933 342.29538 270.227 341.89764Q270.1607 341.47778 269.8845 341.20157Q269.59723 340.9143 269.2216 340.87012Q268.83487 340.81488 268.3156 341.0469Q267.96204 341.20157 266.9235 341.8424Q265.89597 342.47217 265.38773 342.62683Q264.71378 342.83676 264.1724 342.71524Q263.61996 342.58264 263.20013 342.1628Q262.74713 341.7098 262.60352 341.05795Q262.45987 340.38397 262.75818 339.68793Q263.0565 338.9698 263.66415 338.3621Q264.33813 337.68814 265.07837 337.38983Q265.8076 337.08047 266.51468 337.23514Q267.21075 337.37878 267.76318 337.88702L267.045 338.71567Q266.4042 338.20743 265.75235 338.28476Q265.10046 338.34 264.40442 339.03607Q263.6752 339.76526 263.60892 340.36188Q263.54263 340.9585 263.91827 341.33417Q264.24973 341.66562 264.69168 341.64352Q265.13364 341.62143 266.32687 340.87012Q267.53116 340.10776 268.0615 339.9089Q268.84595 339.6327 269.4757 339.7542Q270.09442 339.86472 270.5916 340.36188Q271.07773 340.84802 271.23242 341.55515Q271.37604 342.2512 271.09982 343.01355Q270.81256 343.76483 270.1607 344.41672Q269.33206 345.24533 268.53656 345.5768Q267.7411 345.88617 266.93454 345.72043Q266.13904 345.54367 265.52032 344.94702Z" fill-rule="nonzero"/><path fill="#000000" d="M254.88518 391.8481L251.13972 383.44016L252.00151 382.57837L260.56412 386.16916L259.65814 387.07513L257.09488 385.94818L254.56477 388.4783L255.73592 390.99738L254.88518 391.8481ZM254.14493 387.59442L256.19995 385.5394L253.89081 384.48978Q252.83014 384.02573 252.20038 383.66113Q252.66441 384.36826 253.02902 385.15268L254.14493 387.59442ZM260.64148 386.09183L254.56477 380.0151L255.36026 379.2196L261.43695 385.29633L260.64148 386.09183ZM266.98334 378.6672Q266.91705 379.44058 266.67398 379.97092Q266.44196 380.4902 266.0 380.93213Q265.2708 381.66135 264.53055 381.6945Q263.7903 381.72763 263.23788 381.1752Q262.91748 380.8548 262.79593 380.446Q262.66336 380.02615 262.75174 379.62842Q262.82907 379.2196 263.05005 378.84396Q263.1937 378.56775 263.59143 378.0595Q264.38693 377.06516 264.66315 376.47958Q264.50845 376.3249 264.4753 376.29175Q264.01126 375.82773 263.61353 375.84982Q263.0832 375.894 262.5197 376.4575Q262.00043 376.97678 261.93414 377.4187Q261.8568 377.8496 262.1993 378.43518L261.37067 379.06494Q261.00607 378.50146 260.95084 377.98218Q260.89557 377.4629 261.17178 376.87732Q261.448 376.29175 262.01147 375.72827Q262.57495 375.1648 263.0611 374.94385Q263.54724 374.72287 263.91183 374.756Q264.27643 374.78915 264.6521 375.03223Q264.87305 375.1869 265.37024 375.68408L266.36462 376.67847Q267.40317 377.717 267.72357 377.94904Q268.05505 378.17 268.4528 378.2805L267.66833 379.06494Q267.32584 378.94342 266.98334 378.6672ZM265.24872 377.06516Q265.00565 377.63968 264.32062 378.56775Q263.92288 379.09808 263.82346 379.3743Q263.71295 379.63947 263.75714 379.90463Q263.8124 380.15875 264.01126 380.3576Q264.30957 380.65594 264.72943 380.63382Q265.1603 380.60068 265.59122 380.1698Q266.0221 379.7389 266.16574 379.2196Q266.3204 378.6893 266.14365 378.20316Q266.01105 377.8275 265.52493 377.34137L265.24872 377.06516ZM269.60184 377.13144L265.20453 372.73413L265.86743 372.0712L266.48615 372.68994Q266.25412 371.48563 267.17114 370.5686Q267.5689 370.17087 268.04398 369.98303Q268.53012 369.78415 268.9279 369.85046Q269.32562 369.91675 269.70126 370.15982Q269.94434 370.33658 270.46362 370.85587L273.1705 373.56277L272.43027 374.303L269.7565 371.62927Q269.29248 371.16522 268.98312 371.03265Q268.67377 370.90005 268.3202 370.98846Q267.9556 371.0658 267.6573 371.3641Q267.1822 371.8392 267.138 372.5021Q267.0938 373.1429 267.9335 373.9826L270.3421 376.3912L269.60184 377.13144ZM277.4021 369.33118L276.84967 368.77875Q277.0817 369.85046 276.27515 370.657Q275.7448 371.18732 275.01562 371.342Q274.27536 371.48563 273.51303 371.2094Q272.75067 370.9332 272.07672 370.25925Q271.42484 369.6074 271.10443 368.84503Q270.78403 368.0827 270.94977 367.36453Q271.10443 366.6353 271.6458 366.09396Q272.04355 365.6962 272.51865 365.55258Q272.99374 365.40894 273.45776 365.47522L271.28122 363.29868L272.02145 362.5584L278.09818 368.6351L277.4021 369.33118ZM272.8501 369.48584Q273.70084 370.33658 274.47424 370.4029Q275.2366 370.45813 275.72272 369.972Q276.20886 369.48584 276.15363 368.7456Q276.0984 368.00534 275.2808 367.18774Q274.37482 366.28177 273.6014 366.21548Q272.83905 366.13815 272.3308 366.64636Q271.83365 367.14355 271.91098 367.88382Q271.97726 368.613 272.8501 369.48584ZM281.73312 365.00015L275.65643 358.92343L280.0427 354.53717L280.76086 355.25534L277.18112 358.83505L279.0373 360.69122L282.39606 357.33246L283.1142 358.0506L279.75543 361.40936L281.82153 363.47543L285.5449 359.75208L286.26303 360.47025L281.73312 365.00015ZM288.24072 357.16672L289.00308 357.7081Q288.74896 358.09482 288.5059 358.33786Q288.0971 358.74667 287.75458 358.8461Q287.40103 358.93448 287.09167 358.824Q286.79337 358.70248 286.11942 358.0285L283.5893 355.49838L283.0479 356.03976L282.4734 355.46524L283.01477 354.92386L281.92096 353.83008L282.21927 352.64786L283.755 354.18362L284.50632 353.4323L285.08084 354.00684L284.32953 354.75815L286.90387 357.33246Q287.22427 357.65286 287.3458 357.7081Q287.4784 357.7523 287.622 357.71915Q287.76566 357.686 287.93137 357.5203Q288.06396 357.3877 288.24072 357.16672ZM289.40082 357.33246L283.32413 351.25577L284.0644 350.5155L286.24094 352.69208Q286.1636 351.57617 286.9591 350.78067Q287.45627 350.28348 288.0087 350.1288Q288.56113 349.95203 289.05832 350.13986Q289.54446 350.31662 290.19632 350.9685L292.98056 353.75272L292.2403 354.49298L289.45605 351.70874Q288.89258 351.14526 288.39542 351.13422Q287.89822 351.12317 287.45627 351.56512Q287.12482 351.89658 287.0033 352.37167Q286.88174 352.82465 287.0475 353.25555Q287.21323 353.66434 287.73248 354.18362L290.14108 356.5922L289.40082 357.33246ZM289.13565 347.1678L288.27386 346.306L289.02518 345.55472L289.88696 346.4165L289.13565 347.1678ZM294.3506 352.38272L289.95325 347.98538L290.70456 347.2341L295.10187 351.6314L294.3506 352.38272ZM297.7314 345.77567L298.56006 345.1459Q299.18985 346.01874 299.12354 346.94684Q299.05725 347.8749 298.3391 348.59305Q297.4331 349.49902 296.2951 349.46588Q295.1571 349.41064 294.05228 348.3058Q293.34515 347.5987 293.04684 346.83633Q292.74854 346.05188 292.95847 345.31165Q293.1794 344.56033 293.75394 343.9858Q294.46106 343.27872 295.27866 343.1903Q296.09625 343.07983 296.9028 343.62122L296.28406 344.4609Q295.74268 344.1184 295.25656 344.1626Q294.75937 344.19574 294.38373 344.57138Q293.82025 345.13486 293.8755 345.89722Q293.91968 346.6485 294.7925 347.52136Q295.68744 348.4163 296.4277 348.47153Q297.16794 348.52676 297.70932 347.98538Q298.15128 347.54346 298.17337 346.99103Q298.2065 346.42755 297.7314 345.77567ZM299.10144 345.0023L299.72015 344.1626Q300.2284 344.53824 300.73663 344.49405Q301.25592 344.4388 301.7752 343.91953Q302.28342 343.4113 302.3276 342.96936Q302.37183 342.5053 302.08456 342.21805Q301.83044 341.96393 301.46582 342.04126Q301.21173 342.09653 300.44937 342.5495Q299.42184 343.15717 298.95782 343.33395Q298.49377 343.48862 298.0629 343.3892Q297.632 343.28976 297.30054 342.9583Q297.01328 342.67105 296.89172 342.28433Q296.7702 341.89764 296.8365 341.49988Q296.89172 341.20157 297.10165 340.81488Q297.31158 340.4282 297.66513 340.07462Q298.17337 339.5664 298.71475 339.33438Q299.25613 339.08026 299.69806 339.14655Q300.14 339.21283 300.62616 339.5664L299.99637 340.39505Q299.62073 340.1078 299.18985 340.16302Q298.75894 340.19617 298.317 340.6381Q297.80878 341.14633 297.7646 341.5441Q297.70932 341.9308 297.94135 342.1628Q298.085 342.30643 298.28384 342.32852Q298.50482 342.35062 298.77 342.24014Q298.92468 342.17386 299.62073 341.76505Q300.6372 341.19052 301.07913 341.01376Q301.5211 340.83698 301.95197 340.9143Q302.38287 340.99167 302.76956 341.37836Q303.1452 341.754 303.2557 342.30643Q303.36618 342.83676 303.1452 343.43338Q302.9132 344.01895 302.39392 344.53824Q301.53214 345.40002 300.7256 345.49945Q299.91904 345.5768 299.10144 345.0023Z" fill-rule="nonzero"/><path fill="#000000" d="M262.35858 416.72943L257.96127 412.3321L258.62418 411.6692L259.2429 412.2879Q259.0109 411.08362 259.92792 410.1666Q260.32565 409.76883 260.80075 409.58102Q261.2869 409.38214 261.68463 409.44843Q262.08237 409.51474 262.45804 409.75778Q262.7011 409.93457 263.22037 410.45386L265.92728 413.16074L265.187 413.901L262.51328 411.22726Q262.04922 410.7632 261.73987 410.63065Q261.4305 410.49805 261.07697 410.58643Q260.71237 410.6638 260.41406 410.9621Q259.93896 411.43716 259.89478 412.1001Q259.8506 412.7409 260.69028 413.5806L263.09885 415.98917L262.35858 416.72943ZM268.99878 413.4701L262.911 407.38235L263.585 406.7084L264.14847 407.27188Q264.06006 406.69736 264.19266 406.2333Q264.33627 405.7582 264.76718 405.32733Q265.33066 404.76385 266.0488 404.6202Q266.76697 404.4766 267.5072 404.797Q268.2585 405.10635 268.88828 405.7361Q269.56226 406.4101 269.86057 407.19452Q270.16992 407.96793 269.99313 408.71924Q269.81635 409.47052 269.30814 409.97876Q268.93246 410.35443 268.4795 410.49805Q268.01544 410.63065 267.5956 410.58643L269.739 412.72986L268.99878 413.4701ZM265.80573 408.92917Q266.65646 409.7799 267.40778 409.8462Q268.14804 409.90143 268.63416 409.41528Q269.13135 408.91812 269.06506 408.1447Q268.99878 407.3713 268.1149 406.48743Q267.2752 405.64774 266.5239 405.58145Q265.76154 405.50412 265.27542 405.99023Q264.80032 406.46533 264.87766 407.27188Q264.955 408.07843 265.80573 408.92917ZM267.04318 401.63712L266.17035 400.76428L266.92163 400.01297L267.79446 400.8858L267.04318 401.63712ZM273.02045 409.49265L272.5122 408.71924Q272.79947 408.54245 272.921 408.42093Q273.153 408.1889 273.10883 407.92374Q273.07568 407.66962 272.46802 407.06195L267.84973 402.44366L268.601 401.69235L273.2414 406.33273Q274.04794 407.13928 274.15845 407.66962Q274.30206 408.3657 273.68335 408.9844Q273.374 409.29376 273.02045 409.49265ZM276.5891 402.4989L270.51242 396.4222L272.61163 394.32297Q273.31876 393.61588 273.78278 393.3286Q274.4236 392.93088 275.09756 392.8756Q275.9925 392.79828 276.86533 393.2071Q277.73816 393.59378 278.5447 394.40033Q279.24075 395.09637 279.60538 395.79245Q279.98102 396.47745 280.08044 397.0851Q280.1799 397.69278 280.0694 398.20102Q279.96997 398.6982 279.6606 399.22855Q279.3402 399.7478 278.78778 400.30023L276.5891 402.4989ZM276.67752 400.9742L277.97018 399.68152Q278.57785 399.07385 278.80988 398.62085Q279.0419 398.16788 279.03085 397.75906Q279.0419 397.1956 278.71045 396.55478Q278.39 395.90292 277.70502 395.21793Q276.75485 394.26773 275.9262 394.07993Q275.09756 393.87 274.47885 394.13516Q274.02585 394.3451 273.31876 395.0522L272.0371 396.3338L276.67752 400.9742ZM277.64978 391.00842L276.788 390.14664L277.5393 389.39532L278.4011 390.2571L277.64978 391.00842ZM282.8647 396.22333L278.46738 391.82602L279.21866 391.0747L283.616 395.47202L282.8647 396.22333ZM285.20697 394.61023L286.04666 393.99152Q286.42233 394.27878 286.78693 394.22354Q287.27307 394.15726 287.74814 393.68216Q288.26743 393.16287 288.3337 392.67676Q288.41107 392.17957 288.1459 391.7155Q287.98016 391.4172 287.2399 390.69907Q287.3283 391.7597 286.5991 392.48892Q285.6931 393.3949 284.54407 393.24023Q283.38397 393.0745 282.478 392.16852Q281.84824 391.53876 281.53888 390.78745Q281.2295 390.01404 281.37314 389.2959Q281.51675 388.57773 282.10233 387.99216Q282.88678 387.20773 284.02478 387.32925L283.49445 386.79892L284.17947 386.11392L287.98016 389.9146Q289.0077 390.94214 289.22864 391.58295Q289.44962 392.22375 289.2397 392.91983Q289.04083 393.62692 288.3779 394.28983Q287.59348 395.07428 286.75378 395.20688Q285.9141 395.33945 285.20697 394.61023ZM283.1851 391.35092Q284.04688 392.2127 284.78714 392.26794Q285.52737 392.32318 286.04666 391.80392Q286.56595 391.28464 286.5107 390.54437Q286.46652 389.7931 285.62683 388.9534Q284.82028 388.14685 284.04688 388.10266Q283.28455 388.0474 282.7763 388.55563Q282.2791 389.05283 282.33435 389.8152Q282.3896 390.55542 283.1851 391.35092ZM284.72086 383.93735L283.85907 383.07556L284.61035 382.32425L285.47214 383.18604L284.72086 383.93735ZM289.93576 389.15225L285.53845 384.75494L286.28973 384.00363L290.68707 388.40097L289.93576 389.15225ZM293.0183 384.7439L293.78064 385.28528Q293.52652 385.67197 293.28348 385.91504Q292.87466 386.32382 292.53217 386.42328Q292.17862 386.51166 291.86926 386.40118Q291.57095 386.27963 290.89697 385.60568L288.36685 383.07556L287.8255 383.61694L287.25098 383.04242L287.79233 382.50104L286.69855 381.40723L286.99686 380.22504L288.5326 381.76077L289.2839 381.0095L289.85843 381.584L289.10712 382.3353L291.68143 384.9096Q292.00183 385.23004 292.12338 385.28528Q292.25595 385.32947 292.3996 385.29633Q292.5432 385.26318 292.70895 385.09744Q292.84152 384.96487 293.0183 384.7439ZM296.50964 381.49564Q296.44336 382.269 296.2003 382.79935Q295.96826 383.31863 295.5263 383.76056Q294.79712 384.48978 294.05685 384.52292Q293.31662 384.55606 292.7642 384.00363Q292.4438 383.68323 292.32224 383.27444Q292.18967 382.85458 292.27805 382.45685Q292.35538 382.04803 292.57635 381.6724Q292.72 381.39618 293.11774 380.88794Q293.91324 379.8936 294.18945 379.308Q294.03476 379.15332 294.00162 379.12018Q293.5376 378.65616 293.13983 378.67825Q292.6095 378.72244 292.04602 379.28592Q291.52673 379.8052 291.46045 380.24713Q291.38312 380.67804 291.72562 381.2636L290.89697 381.89337Q290.53238 381.3299 290.47714 380.8106Q290.4219 380.29132 290.69812 379.70575Q290.97433 379.12018 291.5378 378.5567Q292.10126 377.99323 292.5874 377.77228Q293.07355 377.5513 293.43814 377.58444Q293.80273 377.61758 294.1784 377.86066Q294.39938 378.01532 294.89655 378.5125L295.89093 379.5069Q296.92947 380.54544 297.2499 380.77747Q297.58136 380.99844 297.9791 381.10892L297.19464 381.89337Q296.85214 381.77185 296.50964 381.49564ZM294.77502 379.8936Q294.53195 380.4681 293.84695 381.39618Q293.4492 381.9265 293.34976 382.20273Q293.23926 382.4679 293.28348 382.73306Q293.3387 382.98718 293.5376 383.18604Q293.8359 383.48434 294.25574 383.46225Q294.68665 383.4291 295.11752 382.99823Q295.54843 382.56732 295.69205 382.04803Q295.84674 381.51773 295.66995 381.0316Q295.53738 380.65594 295.05124 380.1698L294.77502 379.8936ZM299.10605 379.98196L293.02936 373.90527L293.78064 373.15396L299.85736 379.23068L299.10605 379.98196ZM303.43707 375.65094L297.36038 369.57425L298.5757 368.35892L304.3099 371.2205Q305.11646 371.62927 305.50314 371.8392Q305.27115 371.4083 304.8513 370.5465L302.0781 364.8565L303.16086 363.77377L309.23755 369.85046L308.46417 370.62384L303.38184 365.54153L306.6964 372.39163L305.9672 373.12082L299.03976 369.70682L304.21048 374.87753L303.43707 375.65094ZM311.32574 364.93387L312.18753 364.24884Q312.68472 365.09958 312.56317 365.9724Q312.44165 366.84525 311.6793 367.6076Q310.71808 368.56882 309.54694 368.54672Q308.3868 368.51358 307.31512 367.44186Q306.21027 366.337 306.17712 365.15482Q306.13293 363.96158 307.0389 363.0556Q307.9228 362.17172 309.07184 362.2159Q310.23193 362.24905 311.32574 363.34286Q311.39203 363.40915 311.5246 363.54175L308.2432 366.82315Q309.0166 367.50818 309.76788 367.53027Q310.50815 367.54132 311.06058 366.9889Q311.46936 366.58008 311.54672 366.08292Q311.62405 365.56363 311.32574 364.93387ZM307.67972 366.1713L310.1325 363.7185Q309.5248 363.19922 309.0166 363.15503Q308.2211 363.08875 307.65762 363.65222Q307.13834 364.1715 307.1273 364.86755Q307.1273 365.55258 307.67972 366.1713ZM317.53503 361.553L316.9826 361.00058Q317.2146 362.0723 316.40808 362.8788Q315.87775 363.40915 315.14853 363.56384Q314.4083 363.70746 313.64594 363.43124Q312.88358 363.15503 312.20963 362.48108Q311.55777 361.82922 311.23734 361.06686Q310.91693 360.3045 311.08267 359.58636Q311.23734 358.85715 311.77872 358.31577Q312.17648 357.91803 312.65155 357.7744Q313.12665 357.63077 313.5907 357.69705L311.41412 355.5205L312.1544 354.78024L318.23108 360.85693L317.53503 361.553ZM312.98303 361.70767Q313.83377 362.5584 314.60715 362.6247Q315.3695 362.67996 315.85565 362.19382Q316.34177 361.70767 316.28653 360.96744Q316.2313 360.22717 315.4137 359.40958Q314.50772 358.5036 313.7343 358.43732Q312.972 358.36 312.46375 358.8682Q311.96655 359.3654 312.04388 360.10565Q312.1102 360.83484 312.98303 361.70767ZM314.41934 354.23886L313.55756 353.37708L314.30884 352.62576L315.17062 353.48758L314.41934 354.23886ZM319.63425 359.45377L315.2369 355.05646L315.98822 354.30515L320.38553 358.70248L319.63425 359.45377ZM323.0151 352.84674L323.84375 352.21698Q324.4735 353.0898 324.40723 354.01788Q324.3409 354.94598 323.62277 355.66412Q322.7168 356.5701 321.5788 356.53696Q320.4408 356.48172 319.33594 355.37686Q318.6288 354.66977 318.3305 353.9074Q318.0322 353.12296 318.24213 352.38272Q318.4631 351.6314 319.03763 351.0569Q319.74472 350.3498 320.56232 350.26138Q321.3799 350.1509 322.18646 350.6923L321.56775 351.53198Q321.02637 351.18945 320.54022 351.23367Q320.04303 351.2668 319.6674 351.64246Q319.1039 352.20593 319.15915 352.9683Q319.20334 353.71957 320.07617 354.5924Q320.97113 355.48737 321.71136 355.5426Q322.45163 355.59784 322.993 355.05646Q323.43494 354.6145 323.45703 354.0621Q323.49017 353.49863 323.0151 352.84674ZM320.7833 347.8749L319.9215 347.01312L320.6728 346.2618L321.5346 347.1236L320.7833 347.8749ZM325.9982 353.0898L321.6009 348.6925L322.35217 347.9412L326.7495 352.3385L325.9982 353.0898ZM328.11954 350.9685L323.7222 346.57117L324.3851 345.90826L325.00385 346.52698Q324.77182 345.3227 325.68884 344.40567Q326.08658 344.0079 326.56168 343.8201Q327.04782 343.62122 327.44556 343.6875Q327.84332 343.75378 328.21896 343.99686Q328.46204 344.17365 328.98132 344.69293L331.6882 347.3998L330.94794 348.14008L328.2742 345.4663Q327.81015 345.0023 327.5008 344.8697Q327.19144 344.73712 326.8379 344.8255Q326.4733 344.90283 326.175 345.20117Q325.6999 345.67624 325.6557 346.33914Q325.6115 346.97998 326.4512 347.81967L328.85977 350.22824L328.11954 350.9685ZM334.66025 341.59933L335.52203 340.9143Q336.01923 341.76505 335.8977 342.6379Q335.77615 343.51074 335.01382 344.27307Q334.05258 345.2343 332.88144 345.21222Q331.72134 345.17905 330.64963 344.10736Q329.5448 343.0025 329.51163 341.8203Q329.46744 340.62704 330.3734 339.72107Q331.25732 338.8372 332.40637 338.88138Q333.56647 338.91452 334.66025 340.00833Q334.72656 340.07465 334.85913 340.2072L331.57773 343.48865Q332.3511 344.17365 333.10242 344.19574Q333.84268 344.2068 334.3951 343.65436Q334.8039 343.24557 334.88123 342.74838Q334.95856 342.2291 334.66025 341.59933ZM331.01425 342.83676L333.467 340.384Q332.85934 339.86472 332.3511 339.82053Q331.55563 339.7542 330.99216 340.3177Q330.47287 340.83698 330.46182 341.53305Q330.46182 342.21805 331.01425 342.83676Z" fill-rule="nonzero"/><path fill="#000000" d="M349.38153 362.06125L344.02298 356.7027L342.0232 358.70248L341.30502 357.9843L346.1222 353.16714L346.84036 353.8853L344.82953 355.89615L350.18808 361.2547L349.38153 362.06125ZM352.7624 358.6804L346.68567 352.60367L347.90103 351.38834L353.63522 354.2499Q354.44174 354.65872 354.82846 354.86862Q354.59644 354.43774 354.1766 353.57596L351.4034 347.88596L352.48618 346.8032L358.56287 352.87988L357.78946 353.6533L352.70712 348.57095L356.0217 355.42105L355.29248 356.15027L348.36505 352.73627L353.53577 357.90698L352.7624 358.6804ZM359.1153 352.32748L353.0386 346.25076L353.84512 345.4442L359.20367 350.80276L362.19785 347.80862L362.916 348.52676L359.1153 352.32748ZM364.10922 347.33353L358.03253 341.25684L360.72836 338.56097Q361.54596 337.74338 362.13153 337.4893Q362.7171 337.23517 363.39108 337.40088Q364.054 337.55557 364.55118 338.05276Q365.20303 338.70462 365.22513 339.5664Q365.24722 340.4282 364.49594 341.42255Q364.971 341.25684 365.28036 341.23474Q365.95435 341.2016 366.74985 341.37836L369.46777 341.97498L368.45132 342.99146L366.39627 342.5274Q365.4903 342.32855 364.971 342.2733Q364.4628 342.207 364.1645 342.28433Q363.86615 342.3396 363.6231 342.47217Q363.4684 342.58264 363.15906 342.89203L362.21994 343.83115L364.91577 346.52698L364.10922 347.33353ZM361.52386 343.13507L363.25848 341.40045Q363.79987 340.85907 363.99875 340.43924Q364.19763 339.99728 364.10922 339.59955Q364.02084 339.17972 363.72253 338.88138Q363.29163 338.4505 362.695 338.4947Q362.10944 338.52783 361.4355 339.2018L359.51303 341.12424L361.52386 343.13507Z" fill-rule="nonzero"/><path fill="#000000" d="M385.1834 358.6141L381.43796 350.20615L382.29974 349.34436L390.86237 352.93515L389.9564 353.84113L387.39313 352.71417L384.863 355.2443L386.03415 357.76337L385.1834 358.6141ZM384.44315 354.3604L386.49817 352.3054L384.18903 351.25577Q383.1284 350.79172 382.4986 350.42712Q382.96265 351.13422 383.32724 351.91867L384.44315 354.3604ZM390.13315 353.66434L386.3877 345.2564L387.24948 344.39462L395.8121 347.98538L394.90613 348.8914L392.34286 347.76443L389.81274 350.29456L390.9839 352.8136L390.13315 353.66434ZM389.3929 349.41064L391.44794 347.35562L389.1388 346.30603Q388.07812 345.84198 387.44836 345.4774Q387.91238 346.18448 388.277 346.96893L389.3929 349.41064ZM395.08292 348.7146L391.33743 340.30667L392.19922 339.4449L400.76184 343.03564L399.85587 343.94162L397.2926 342.81467L394.76248 345.3448L395.93362 347.86386L395.08292 348.7146ZM394.34265 344.4609L396.39767 342.40588L394.08853 341.35626Q393.02786 340.89224 392.3981 340.52762Q392.86215 341.23474 393.22675 342.0192L394.34265 344.4609ZM400.8392 342.9583L394.76248 336.88162L395.55798 336.08612L401.63467 342.1628L400.8392 342.9583Z" fill-rule="nonzero"/><path fill="#000000" d="M419.64844 344.3504L420.455 343.54385L423.9684 347.0573Q424.88544 347.97433 425.2169 348.72562Q425.53732 349.46588 425.33844 350.34976Q425.1285 351.2226 424.25568 352.09543Q423.40494 352.94617 422.56525 353.21133Q421.72556 353.4544 420.94113 353.134Q420.14563 352.80255 419.1844 351.8413L415.67096 348.32788L416.4775 347.52133L419.9799 351.0237Q420.7754 351.8192 421.29468 352.05124Q421.825 352.27222 422.3885 352.12857Q422.95197 351.96286 423.47122 351.44357Q424.3551 350.5597 424.333 349.7863Q424.29987 349.00183 423.15082 347.85278L419.64844 344.3504ZM427.43765 348.71457L423.6922 340.30664L424.554 339.44485L433.1166 343.0356L432.21063 343.94162L429.64737 342.81467L427.11725 345.3448L428.2884 347.86383L427.43765 348.71457ZM426.69742 344.46088L428.75244 342.40585L426.4433 341.35626Q425.38263 340.8922 424.75287 340.52762Q425.2169 341.2347 425.5815 342.01917L426.69742 344.46088ZM433.19394 342.95828L427.11725 336.8816L427.91275 336.0861L433.98944 342.16278L433.19394 342.95828Z" fill-rule="nonzero"/><path fill="#000000" d="M447.7053 360.8017L441.6286 354.72498L442.84393 353.50964L448.57812 356.37122Q449.38467 356.78003 449.77136 356.98993Q449.53934 356.55905 449.1195 355.69727L446.3463 350.00726L447.42908 348.9245L453.50577 355.0012L452.7324 355.7746L447.65005 350.69226L450.9646 357.54236L450.2354 358.27158L443.30798 354.85757L448.4787 360.0283L447.7053 360.8017ZM454.235 354.272L448.1583 348.1953L448.95377 347.3998L455.0305 353.4765L454.235 354.272ZM456.21268 352.2943L450.13596 346.21762L452.2352 344.11838Q452.9423 343.4113 453.40634 343.12402Q454.04715 342.72626 454.72113 342.67102Q455.61606 342.5937 456.4889 343.00247Q457.36172 343.3892 458.16827 344.19574Q458.86432 344.89178 459.2289 345.58783Q459.60458 346.27286 459.704 346.88052Q459.80344 347.4882 459.69296 347.99643Q459.59354 348.49362 459.28418 349.02396Q458.96375 349.5432 458.41132 350.09564L456.21268 352.2943ZM456.30106 350.76962L457.59375 349.47693Q458.20142 348.86926 458.43344 348.41626Q458.66544 347.9633 458.6544 347.55447Q458.66544 346.991 458.33398 346.3502Q458.01358 345.69833 457.32858 345.0133Q456.3784 344.06314 455.54974 343.8753Q454.72113 343.6654 454.1024 343.93057Q453.6494 344.14047 452.9423 344.8476L451.66068 346.1292L456.30106 350.76962ZM462.5435 345.9635L456.4668 339.8868L457.27332 339.08026L462.63187 344.43878L465.62604 341.44464L466.34418 342.1628L462.5435 345.9635Z" fill-rule="nonzero"/><path fill="#000000" d="M475.82843 361.58615L476.4582 360.7575Q477.17636 361.43146 477.6625 361.45355Q478.14862 361.47565 478.56848 361.05582Q478.8668 360.7575 478.95517 360.40393Q479.0325 360.03934 478.87784 359.72998Q478.72314 359.39853 478.2039 358.87924L474.01648 354.69183L474.81198 353.89636L478.95517 358.03955Q479.71753 358.8019 479.94955 359.40958Q480.1926 360.0062 480.01584 360.6249Q479.828 361.23257 479.28662 361.77396Q478.49115 362.56946 477.60724 362.54736Q476.72336 362.50317 475.82843 361.58615ZM482.18134 358.68036L476.10464 352.60367L477.31998 351.38834L483.0542 354.2499Q483.86072 354.6587 484.24744 354.86862Q484.0154 354.43774 483.59555 353.57596L480.8224 347.88596L481.90512 346.8032L487.98184 352.87988L487.20844 353.6533L482.1261 348.57095L485.44067 355.42105L484.71146 356.15027L477.78403 352.73627L482.95474 357.90698L482.18134 358.68036ZM488.53427 352.32745L482.45755 346.25076L483.26413 345.44418L488.62268 350.80273L491.61682 347.8086L492.335 348.52673L488.53427 352.32745ZM493.52823 347.3335L487.45154 341.2568L490.14737 338.56094Q490.96497 337.74335 491.55054 337.48926Q492.1361 337.23514 492.81006 337.40085Q493.473 337.55554 493.97015 338.0527Q494.62204 338.7046 494.64413 339.56638Q494.66623 340.42816 493.91492 341.42252Q494.39 341.2568 494.69937 341.2347Q495.37332 341.20157 496.16882 341.37833L498.88678 341.97495L497.8703 342.99142L495.81528 342.52737Q494.9093 342.3285 494.39 342.27325Q493.88177 342.20697 493.58347 342.2843Q493.28516 342.33957 493.04208 342.47214Q492.88742 342.5826 492.57806 342.89197L491.63892 343.83112L494.33478 346.52695L493.52823 347.3335ZM490.94287 343.13504L492.6775 341.40042Q493.21887 340.85904 493.41772 340.4392Q493.6166 339.99725 493.52823 339.59952Q493.43985 339.17966 493.14154 338.88135Q492.71063 338.45047 492.114 338.49466Q491.52844 338.5278 490.8545 339.20178L488.93204 341.1242L490.94287 343.13504Z" fill-rule="nonzero"/><path fill="#000000" d="M453.0399 420.17657L446.9632 414.09985L447.7808 413.2823L455.7468 414.8622L450.97382 410.08923L451.74722 409.31586L457.8239 415.39255L456.99527 416.2212L449.02927 414.64124L453.80225 419.4142L453.0399 420.17657ZM460.90646 409.48157L461.76825 408.79657Q462.26544 409.6473 462.1439 410.52014Q462.02237 411.39297 461.26 412.15533Q460.2988 413.11655 459.12766 413.09445Q457.96753 413.0613 456.89584 411.9896Q455.791 410.88474 455.75784 409.70255Q455.71365 408.5093 456.61963 407.60333Q457.5035 406.71945 458.65256 406.76364Q459.81265 406.79678 460.90646 407.8906Q460.97275 407.95688 461.10532 408.08945L457.8239 411.37088Q458.59732 412.05588 459.3486 412.07797Q460.08887 412.08902 460.6413 411.5366Q461.05008 411.1278 461.12744 410.6306Q461.20477 410.11136 460.90646 409.48157ZM457.26044 410.71902L459.71323 408.26624Q459.10553 407.74695 458.59732 407.70276Q457.80182 407.63647 457.23834 408.19995Q456.71906 408.71924 456.708 409.41528Q456.708 410.10028 457.26044 410.71902ZM467.1489 406.06757L466.497 405.4157Q466.72903 406.6863 465.84515 407.5702Q465.45847 407.95688 464.97232 408.15576Q464.48618 408.33252 464.0995 408.27728Q463.70175 408.211 463.304 407.94583Q463.04987 407.7801 462.56375 407.29398L459.8458 404.57602L460.5971 403.82474L463.03882 406.26645Q463.61334 406.84097 463.86746 407.0067Q464.221 407.22766 464.61877 407.18347Q465.0165 407.1172 465.359 406.7747Q465.6905 406.44324 465.812 405.99023Q465.93353 405.51514 465.75677 405.0953Q465.59103 404.6644 465.02756 404.10092L462.67422 401.7476L463.4145 401.00735L467.8118 405.40466L467.1489 406.06757ZM469.20392 404.01254L464.80658 399.61523L465.48056 398.94125L466.14346 399.6042Q465.93353 398.88602 465.99985 398.53247Q466.06613 398.15683 466.3313 397.89166Q466.70694 397.516 467.32565 397.36133L467.7676 398.3115Q467.32565 398.422 467.0605 398.68716Q466.80637 398.94125 466.76218 399.29483Q466.718 399.62628 466.90582 399.96878Q467.171 400.4991 467.635 400.96313L469.94415 403.2723L469.20392 404.01254ZM472.27542 400.94104L466.1987 394.86435L466.9942 394.06885L473.0709 400.14557L472.27542 400.94104ZM474.25308 398.96335L468.1764 392.88666L470.4745 390.58856Q471.0711 389.99194 471.44678 389.72678Q471.9771 389.35114 472.48532 389.26276Q473.0046 389.1633 473.55704 389.36218Q474.1205 389.55002 474.57352 390.003Q475.3469 390.7764 475.39108 391.81494Q475.4353 392.83142 474.1426 394.1241L472.58478 395.68195L475.05963 398.15683L474.25308 398.96335ZM471.87766 394.97485L473.44656 393.40594Q474.231 392.6215 474.26416 392.01382Q474.2973 391.38406 473.76697 390.85373Q473.3913 390.4781 472.92728 390.4118Q472.46323 390.3234 472.0655 390.54437Q471.80032 390.69907 471.25894 391.24042L469.7011 392.79828L471.87766 394.97485ZM477.6892 391.6161L478.3742 390.7985Q478.8935 391.20728 479.3796 391.2957Q479.86575 391.38406 480.46237 391.1631Q481.059 390.92 481.57828 390.40076Q482.03128 389.94775 482.25223 389.4616Q482.46216 388.96442 482.39587 388.56668Q482.3296 388.14685 482.05338 387.87064Q481.7661 387.58337 481.39044 387.53918Q481.00375 387.48392 480.48447 387.71594Q480.13092 387.87064 479.09235 388.51144Q478.06485 389.1412 477.5566 389.2959Q476.88266 389.5058 476.34128 389.38428Q475.78885 389.25168 475.369 388.83185Q474.91602 388.37885 474.77237 387.727Q474.62875 387.05304 474.92706 386.35696Q475.22537 385.63882 475.83304 385.03116Q476.507 384.35718 477.24725 384.05887Q477.97647 383.7495 478.68356 383.9042Q479.3796 384.04782 479.93204 384.55606L479.2139 385.3847Q478.5731 384.87646 477.9212 384.9538Q477.26935 385.00906 476.5733 385.7051Q475.8441 386.43433 475.7778 387.03094Q475.71152 387.62756 476.08716 388.0032Q476.4186 388.33466 476.86057 388.31256Q477.3025 388.29047 478.49573 387.53918Q479.70004 386.77682 480.23035 386.57794Q481.0148 386.30173 481.64456 386.42328Q482.2633 386.53375 482.76047 387.03094Q483.2466 387.51706 483.4013 388.22418Q483.54492 388.92023 483.2687 389.6826Q482.98145 390.4339 482.3296 391.08575Q481.50095 391.9144 480.70544 392.24585Q479.90994 392.5552 479.1034 392.38947Q478.30792 392.2127 477.6892 391.6161ZM488.74878 384.46768L481.059 380.00406L481.88763 379.1754L486.80423 382.23587Q487.5666 382.71097 488.2958 383.21918Q487.55554 382.0149 487.44507 381.816L484.4951 376.56796L485.46738 375.5957L489.4117 377.79434Q490.88116 378.623 492.04126 379.47372Q491.5772 378.78873 491.01373 377.8496L488.06378 372.9993L488.87033 372.19275L493.28973 379.92673L492.50528 380.71118L486.60538 377.35242Q485.8651 376.9436 485.6994 376.84418Q486.0198 377.34137 486.2297 377.72806L489.57742 383.63904L488.74878 384.46768ZM492.90305 375.9161Q491.67664 374.68973 491.76505 373.43018Q491.84238 372.38055 492.65997 371.563Q493.56595 370.65698 494.73712 370.67908Q495.90826 370.67908 496.9579 371.72867Q497.80862 372.5794 498.04062 373.31967Q498.27264 374.05994 498.05167 374.83334Q497.8307 375.58466 497.25616 376.15918Q496.33914 377.0762 495.17905 377.06516Q494.01895 377.032 492.90305 375.9161ZM493.66537 375.15375Q494.50507 375.99344 495.28952 376.04868Q496.08502 376.09286 496.63745 375.54047Q497.20093 374.977 497.1457 374.19254Q497.09042 373.40808 496.22864 372.5463Q495.41107 371.7287 494.61557 371.6845Q493.83112 371.62927 493.2787 372.1817Q492.72626 372.73413 492.77045 373.5296Q492.81464 374.303 493.66537 375.15375ZM500.31662 372.89984L495.9193 368.5025L496.59326 367.82855L497.2562 368.49146Q497.04626 367.77332 497.11255 367.41974Q497.17883 367.0441 497.444 366.77893Q497.81967 366.4033 498.4384 366.2486L498.8803 367.1988Q498.4384 367.30927 498.17322 367.57443Q497.9191 367.82855 497.8749 368.1821Q497.83072 368.51355 498.01852 368.85605Q498.2837 369.38638 498.74774 369.85043L501.0569 372.15958L500.31662 372.89984ZM503.1561 370.06036L497.0794 363.98364L497.83072 363.23236L501.29996 366.7016L501.2668 363.155L502.23907 362.18274L502.1728 365.4973L506.80212 366.41434L505.8851 367.33136L502.1728 366.53586L502.16174 367.5634L503.9074 369.30905L503.1561 370.06036ZM505.78568 364.80124L506.4044 363.96155Q506.91263 364.33722 507.42084 364.293Q507.94012 364.23776 508.4594 363.71848Q508.96765 363.21027 509.01184 362.7683Q509.05603 362.30426 508.76877 362.017Q508.51465 361.7629 508.15005 361.84024Q507.89594 361.89548 507.13358 362.34848Q506.10608 362.95615 505.64203 363.1329Q505.17798 363.2876 504.7471 363.18817Q504.3162 363.0887 503.98474 362.75726Q503.69748 362.47 503.57596 362.0833Q503.4544 361.6966 503.52072 361.29886Q503.57596 361.00055 503.7859 360.61386Q503.9958 360.22714 504.34937 359.8736Q504.85757 359.36536 505.39896 359.13333Q505.94034 358.8792 506.3823 358.94553Q506.82422 359.0118 507.31036 359.36536L506.6806 360.194Q506.30493 359.90674 505.87405 359.96198Q505.44315 359.99512 505.00122 360.43707Q504.49298 360.9453 504.4488 361.34305Q504.39355 361.72974 504.62558 361.96176Q504.7692 362.1054 504.96808 362.1275Q505.18903 362.1496 505.4542 362.03912Q505.6089 361.9728 506.30493 361.56403Q507.3214 360.9895 507.76334 360.8127Q508.2053 360.63596 508.6362 360.7133Q509.06708 360.79062 509.45377 361.17734Q509.82944 361.55298 509.9399 362.1054Q510.05038 362.63574 509.82944 363.23236Q509.5974 363.81793 509.07812 364.33722Q508.21634 365.199 507.4098 365.29843Q506.60324 365.37576 505.78568 364.80124ZM512.3485 360.86795L506.2718 354.79126L507.01205 354.05103L509.1886 356.22757Q509.11127 355.11166 509.90677 354.3162Q510.40396 353.819 510.9564 353.6643Q511.50882 353.48755 512.006 353.67535Q512.4921 353.85214 513.144 354.504L515.9282 357.28824L515.188 358.0285L512.40375 355.24426Q511.84027 354.6808 511.34308 354.66974Q510.8459 354.6587 510.40396 355.10062Q510.0725 355.43207 509.95096 355.90717Q509.82944 356.36017 509.99515 356.79105Q510.1609 357.19986 510.68018 357.71912L513.08875 360.12772L512.3485 360.86795ZM514.82336 353.99576Q513.597 352.76938 513.68536 351.50986Q513.7627 350.46024 514.5803 349.64264Q515.48627 348.73666 516.6574 348.75876Q517.82855 348.75876 518.8782 349.80838Q519.72894 350.65912 519.96094 351.39935Q520.19293 352.13962 519.972 352.91302Q519.75104 353.6643 519.1765 354.23883Q518.25946 355.15585 517.09937 355.1448Q515.9393 355.11166 514.82336 353.99576ZM515.5857 353.23343Q516.4254 354.07312 517.20984 354.12836Q518.0054 354.17255 518.5578 353.62012Q519.1213 353.05664 519.06604 352.2722Q519.01074 351.48776 518.149 350.62598Q517.33136 349.80838 516.5359 349.7642Q515.75146 349.70892 515.19904 350.26135Q514.6466 350.81378 514.6908 351.60928Q514.735 352.3827 515.5857 353.23343ZM523.9384 352.6589L517.85065 346.57114L518.52466 345.8972L519.08813 346.46066Q518.9997 345.88614 519.1323 345.4221Q519.27594 344.94702 519.70685 344.5161Q520.2703 343.95264 520.98846 343.80902Q521.7066 343.66537 522.44684 343.98578Q523.1982 344.29514 523.82794 344.92493Q524.5019 345.59888 524.80023 346.38333Q525.10956 347.1567 524.9328 347.90802Q524.756 348.65933 524.2478 349.16754Q523.87213 349.5432 523.4191 349.68683Q522.9551 349.81943 522.5353 349.77524L524.67865 351.91864L523.9384 352.6589ZM520.74536 348.11795Q521.5961 348.9687 522.3474 349.03497Q523.0877 349.0902 523.5738 348.6041Q524.071 348.1069 524.0047 347.3335Q523.9384 346.5601 523.05457 345.6762Q522.21484 344.83652 521.46356 344.77023Q520.7012 344.6929 520.2151 345.17905Q519.74 345.6541 519.8173 346.46066Q519.89465 347.2672 520.74536 348.11795ZM525.58466 345.00226L526.20337 344.16257Q526.7116 344.5382 527.21985 344.49402Q527.73914 344.43878 528.2584 343.9195Q528.76666 343.41125 528.81085 342.96933Q528.85504 342.50528 528.56775 342.21802Q528.31366 341.9639 527.94904 342.04126Q527.69495 342.0965 526.93256 342.54947Q525.905 343.15714 525.44104 343.33392Q524.977 343.48862 524.5461 343.38916Q524.1152 343.28973 523.78375 342.95828Q523.49646 342.67102 523.37494 342.2843Q523.2534 341.8976 523.3197 341.49988Q523.37494 341.20157 523.58484 340.81485Q523.7948 340.42816 524.1483 340.07462Q524.65656 339.56638 525.19794 339.33435Q525.7393 339.08023 526.1813 339.1465Q526.6232 339.21283 527.1094 339.56638L526.47955 340.39502Q526.10394 340.10776 525.67303 340.163Q525.2421 340.19614 524.80023 340.6381Q524.292 341.1463 524.2478 341.54407Q524.1925 341.93076 524.42456 342.16278Q524.5682 342.3064 524.7671 342.32852Q524.98804 342.35062 525.2532 342.2401Q525.4079 342.17383 526.10394 341.76505Q527.1204 341.19052 527.5623 341.01373Q528.0043 340.83694 528.4352 340.9143Q528.8661 340.99164 529.25275 341.37833Q529.6284 341.754 529.7389 342.3064Q529.84937 342.83673 529.6284 343.43335Q529.3964 344.01892 528.87714 344.5382Q528.0153 345.4 527.2088 345.49945Q526.4022 345.57678 525.58466 345.00226Z" fill-rule="nonzero"/><path fill="#000000" d="M498.26617 407.30502L492.18948 401.22833L492.985 400.43283L499.06168 406.50952L498.26617 407.30502ZM502.45358 398.85287L503.459 398.2673Q504.1882 399.50473 504.05563 400.6759Q503.92303 401.84705 502.97287 402.7972Q501.98953 403.78052 500.97308 404.0015Q499.9566 404.22247 498.8849 403.79156Q497.80215 403.34964 496.92932 402.4768Q495.97913 401.52664 495.63663 400.45493Q495.29413 399.3832 495.59244 398.35568Q495.9018 397.31714 496.70834 396.5106Q497.61432 395.6046 498.69708 395.44992Q499.7909 395.2842 500.87363 395.88083L500.26596 396.86414Q499.39313 396.41116 498.68604 396.52164Q497.9789 396.61002 497.37125 397.21768Q496.6752 397.91376 496.5426 398.73135Q496.41003 399.52686 496.77463 400.28918Q497.15027 401.0405 497.75797 401.64816Q498.53134 402.42157 499.32684 402.77512Q500.1334 403.1176 500.89575 402.92978Q501.65808 402.74197 502.22156 402.1785Q502.89554 401.50452 502.97287 400.65378Q503.06125 399.792 502.45358 398.85287ZM506.58572 398.98547L500.50903 392.90875L501.72437 391.69342L507.4586 394.55496Q508.26514 394.96378 508.65182 395.1737Q508.41983 394.7428 507.99997 393.881L505.22678 388.191L506.30954 387.10825L512.3862 393.18497L511.61285 393.95834L506.53052 388.87604L509.8451 395.72614L509.11588 396.45532L502.18842 393.04135L507.35913 398.21207L506.58572 398.98547ZM512.93866 392.63254L506.86197 386.55582L507.66852 385.7493L513.02704 391.10782L516.02124 388.11368L516.7394 388.83182L512.93866 392.63254ZM521.1035 384.46765L513.41376 380.00406L514.2424 379.1754L519.159 382.23584Q519.9213 382.71094 520.6506 383.21918Q519.9103 382.0149 519.7998 381.816L516.84985 376.56793L517.82214 375.59567L521.7665 377.79434Q523.2359 378.623 524.396 379.47372Q523.93195 378.7887 523.36847 377.84958L520.4185 372.99927L521.2251 372.19272L525.6445 379.9267L524.86005 380.71115L518.96014 377.3524Q518.21985 376.9436 518.05414 376.84415Q518.3746 377.34134 518.5845 377.72806L521.9322 383.639L521.1035 384.46765ZM525.2578 375.91608Q524.03143 374.6897 524.1198 373.43015Q524.19714 372.38055 525.0147 371.56296Q525.9207 370.65698 527.09186 370.67908Q528.263 370.67908 529.3126 371.7287Q530.1633 372.57944 530.3954 373.31967Q530.6274 374.05994 530.40643 374.8333Q530.1854 375.58463 529.6109 376.15915Q528.6939 377.07617 527.5338 377.06512Q526.3737 377.03198 525.2578 375.91608ZM526.02014 375.15375Q526.85986 375.9934 527.6443 376.04868Q528.43976 376.09286 528.9922 375.54044Q529.55566 374.97696 529.5004 374.1925Q529.4452 373.40805 528.58344 372.54626Q527.7658 371.7287 526.97034 371.68448Q526.18585 371.62924 525.6334 372.18167Q525.081 372.7341 525.12524 373.5296Q525.16943 374.303 526.02014 375.15375ZM532.6714 372.89984L528.27405 368.5025L528.948 367.82855L529.6109 368.49146Q529.401 367.77332 529.4673 367.41974Q529.53357 367.0441 529.79877 366.77893Q530.1744 366.4033 530.7931 366.2486L531.23505 367.1988Q530.7931 367.30927 530.52795 367.57443Q530.27386 367.82855 530.2296 368.1821Q530.1854 368.51355 530.3733 368.85605Q530.6384 369.38638 531.1025 369.85043L533.4116 372.15958L532.6714 372.89984ZM535.51086 370.06036L529.43414 363.98364L530.1854 363.23236L533.65466 366.7016L533.6215 363.15503L534.5938 362.18274L534.5275 365.4973L539.15686 366.41434L538.2398 367.33136L534.5275 366.53586L534.5165 367.5634L536.26215 369.30905L535.51086 370.06036ZM538.1404 364.80124L538.7591 363.96155Q539.26733 364.33722 539.7756 364.29303Q540.29486 364.23776 540.81415 363.7185Q541.3224 363.21027 541.3666 362.7683Q541.41077 362.3043 541.12354 362.01703Q540.8694 361.7629 540.50476 361.84024Q540.2507 361.89548 539.48834 362.34848Q538.4608 362.95615 537.99677 363.1329Q537.5327 363.2876 537.1018 363.18817Q536.67096 363.0887 536.3395 362.75726Q536.05225 362.47 535.93066 362.0833Q535.80914 361.6966 535.8754 361.29886Q535.93066 361.00055 536.1406 360.61386Q536.3505 360.22714 536.7041 359.8736Q537.21234 359.36536 537.7537 359.13333Q538.2951 358.87924 538.737 358.94553Q539.17896 359.0118 539.6651 359.36536L539.03534 360.194Q538.65967 359.90674 538.22876 359.96198Q537.7979 359.99512 537.35596 360.43707Q536.8477 360.9453 536.8035 361.34305Q536.7483 361.72977 536.9803 361.96176Q537.12396 362.1054 537.3228 362.1275Q537.54376 362.1496 537.80896 362.03912Q537.9636 361.9728 538.65967 361.56403Q539.67615 360.9895 540.1181 360.8127Q540.56006 360.63596 540.9909 360.7133Q541.4218 360.79062 541.80853 361.17734Q542.18414 361.55298 542.2947 362.1054Q542.40515 362.63574 542.18414 363.23236Q541.95215 363.81793 541.43286 364.33722Q540.5711 365.199 539.7645 365.29843Q538.958 365.37576 538.1404 364.80124ZM544.70325 360.86798L538.6265 354.79126L539.36676 354.05103L541.54333 356.22757Q541.466 355.11166 542.26154 354.3162Q542.75867 353.819 543.3111 353.6643Q543.8635 353.48755 544.3607 353.67535Q544.84686 353.85214 545.4987 354.504L548.28296 357.28824L547.5427 358.0285L544.7585 355.24426Q544.195 354.6808 543.6978 354.66974Q543.2006 354.6587 542.75867 355.10062Q542.42725 355.4321 542.3057 355.90717Q542.18414 356.36017 542.3499 356.79105Q542.5156 357.19986 543.0349 357.71915L545.4435 360.12772L544.70325 360.86798ZM547.1781 353.99576Q545.9517 352.76938 546.0401 351.50986Q546.11743 350.46024 546.93506 349.64264Q547.841 348.73666 549.01215 348.75876Q550.1833 348.75876 551.2329 349.80838Q552.0837 350.65912 552.3157 351.39935Q552.5477 352.13962 552.3267 352.91302Q552.1058 353.6643 551.53125 354.23883Q550.6142 355.15588 549.4541 355.1448Q548.294 355.11166 547.1781 353.99576ZM547.9404 353.23343Q548.78015 354.07312 549.5646 354.12836Q550.3601 354.17255 550.91254 353.62012Q551.476 353.05664 551.4208 352.2722Q551.3655 351.48776 550.5037 350.62598Q549.68616 349.80838 548.8906 349.7642Q548.1062 349.70892 547.5538 350.26135Q547.00134 350.81378 547.04553 351.60928Q547.0897 352.3827 547.9404 353.23343ZM556.29315 352.6589L550.2054 346.57114L550.8794 345.8972L551.4429 346.46066Q551.35443 345.88614 551.48706 345.4221Q551.6307 344.94702 552.0616 344.5161Q552.62506 343.95264 553.3432 343.80902Q554.06134 343.66537 554.8016 343.98578Q555.5529 344.29517 556.1827 344.92493Q556.8566 345.59888 557.15497 346.38333Q557.4643 347.15674 557.28754 347.90802Q557.1108 348.65933 556.60254 349.16757Q556.22687 349.5432 555.77386 349.68683Q555.3098 349.81943 554.89 349.77524L557.0334 351.91864L556.29315 352.6589ZM553.1001 348.11795Q553.95087 348.9687 554.70215 349.03497Q555.44244 349.0902 555.9285 348.6041Q556.4257 348.1069 556.35944 347.3335Q556.29315 346.5601 555.4093 345.6762Q554.5696 344.83652 553.8183 344.77023Q553.0559 344.6929 552.5698 345.17905Q552.0947 345.6541 552.17206 346.46066Q552.2494 347.2672 553.1001 348.11795ZM557.9394 345.00226L558.5581 344.16257Q559.06635 344.5382 559.5746 344.49402Q560.0939 344.43878 560.61316 343.9195Q561.1214 343.41125 561.1656 342.96933Q561.2098 342.50528 560.9225 342.21802Q560.6684 341.9639 560.3038 342.04126Q560.0497 342.0965 559.2873 342.54947Q558.2598 343.15717 557.7958 343.33392Q557.3317 343.48862 556.9008 343.38916Q556.4699 343.28973 556.1385 342.95828Q555.8512 342.67102 555.7297 342.2843Q555.60815 341.8976 555.67444 341.49988Q555.7297 341.20157 555.9396 340.81485Q556.14954 340.42816 556.50305 340.07462Q557.0113 339.56638 557.5527 339.33435Q558.09406 339.08023 558.536 339.1465Q558.97797 339.21283 559.4641 339.56638L558.83435 340.39502Q558.4587 340.10776 558.0278 340.163Q557.59686 340.19614 557.15497 340.6381Q556.6467 341.1463 556.60254 341.54407Q556.5473 341.93076 556.7793 342.16278Q556.9229 342.30643 557.1218 342.32852Q557.3428 342.35062 557.6079 342.2401Q557.76263 342.17383 558.4587 341.76505Q559.47516 341.19052 559.91705 341.01373Q560.359 340.83694 560.7899 340.9143Q561.2208 340.99164 561.6075 341.37833Q561.98315 341.754 562.0936 342.30643Q562.2041 342.83673 561.98315 343.43338Q561.75116 344.01895 561.2319 344.5382Q560.37006 345.4 559.56354 345.49945Q558.75696 345.57678 557.9394 345.00226Z" fill-rule="nonzero"/><path fill="#757575" d="M23.546875 41.0L23.546875 26.6875L28.9375 26.6875Q30.375 26.6875 31.125 26.8125Q32.171875 27.0 32.890625 27.5Q33.609375 27.984375 34.03125 28.875Q34.46875 29.765625 34.46875 30.828125Q34.46875 32.65625 33.296875 33.921875Q32.140625 35.171875 29.109375 35.171875L25.4375 35.171875L25.4375 41.0L23.546875 41.0ZM25.4375 33.484375L29.140625 33.484375Q30.96875 33.484375 31.734375 32.8125Q32.515625 32.125 32.515625 30.875Q32.515625 29.984375 32.0625 29.34375Q31.609375 28.703125 30.875 28.5Q30.390625 28.375 29.09375 28.375L25.4375 28.375L25.4375 33.484375ZM43.09375 39.71875Q42.109375 40.546875 41.203125 40.890625Q40.296875 41.234375 39.265625 41.234375Q37.5625 41.234375 36.640625 40.40625Q35.71875 39.5625 35.71875 38.265625Q35.71875 37.5 36.0625 36.875Q36.421875 36.25 36.984375 35.875Q37.546875 35.484375 38.25 35.28125Q38.765625 35.15625 39.8125 35.015625Q41.9375 34.765625 42.9375 34.421875Q42.953125 34.0625 42.953125 33.953125Q42.953125 32.890625 42.453125 32.4375Q41.78125 31.84375 40.453125 31.84375Q39.203125 31.84375 38.609375 32.28125Q38.03125 32.71875 37.75 33.828125L36.03125 33.59375Q36.265625 32.484375 36.796875 31.8125Q37.328125 31.125 38.34375 30.765625Q39.359375 30.390625 40.703125 30.390625Q42.03125 30.390625 42.859375 30.703125Q43.6875 31.015625 44.078125 31.5Q44.46875 31.96875 44.625 32.6875Q44.71875 33.140625 44.71875 34.3125L44.71875 36.65625Q44.71875 39.109375 44.828125 39.765625Q44.9375 40.40625 45.28125 41.0L43.4375 41.0Q43.171875 40.453125 43.09375 39.71875ZM42.9375 35.796875Q41.984375 36.1875 40.0625 36.453125Q38.984375 36.609375 38.53125 36.8125Q38.09375 37.0 37.84375 37.375Q37.59375 37.75 37.59375 38.21875Q37.59375 38.921875 38.125 39.390625Q38.65625 39.859375 39.6875 39.859375Q40.703125 39.859375 41.484375 39.421875Q42.28125 38.96875 42.65625 38.203125Q42.9375 37.59375 42.9375 36.4375L42.9375 35.796875ZM47.3125 44.96875L47.3125 30.625L48.921875 30.625L48.921875 31.96875Q49.484375 31.1875 50.1875 30.796875Q50.90625 30.390625 51.921875 30.390625Q53.25 30.390625 54.265625 31.078125Q55.28125 31.765625 55.796875 33.015625Q56.328125 34.25 56.328125 35.734375Q56.328125 37.328125 55.75 38.609375Q55.1875 39.875 54.09375 40.5625Q53.0 41.234375 51.796875 41.234375Q50.921875 41.234375 50.21875 40.859375Q49.53125 40.484375 49.078125 39.921875L49.078125 44.96875L47.3125 44.96875ZM48.90625 35.875Q48.90625 37.875 49.71875 38.828125Q50.53125 39.78125 51.6875 39.78125Q52.859375 39.78125 53.6875 38.796875Q54.53125 37.8125 54.53125 35.71875Q54.53125 33.75 53.703125 32.765625Q52.890625 31.765625 51.765625 31.765625Q50.640625 31.765625 49.765625 32.828125Q48.90625 33.875 48.90625 35.875ZM65.421875 37.65625L67.234375 37.890625Q66.8125 39.46875 65.640625 40.359375Q64.484375 41.234375 62.671875 41.234375Q60.40625 41.234375 59.0625 39.84375Q57.734375 38.4375 57.734375 35.90625Q57.734375 33.28125 59.078125 31.84375Q60.421875 30.390625 62.578125 30.390625Q64.65625 30.390625 65.96875 31.8125Q67.296875 33.21875 67.296875 35.796875Q67.296875 35.953125 67.28125 36.265625L59.546875 36.265625Q59.640625 37.96875 60.515625 38.875Q61.390625 39.78125 62.6875 39.78125Q63.65625 39.78125 64.328125 39.28125Q65.015625 38.765625 65.421875 37.65625ZM59.640625 34.8125L65.4375 34.8125Q65.328125 33.515625 64.78125 32.859375Q63.9375 31.84375 62.59375 31.84375Q61.390625 31.84375 60.5625 32.65625Q59.734375 33.453125 59.640625 34.8125ZM69.296875 41.0L69.296875 30.625L70.875 30.625L70.875 32.203125Q71.484375 31.09375 72.0 30.75Q72.515625 30.390625 73.125 30.390625Q74.015625 30.390625 74.9375 30.953125L74.328125 32.59375Q73.6875 32.203125 73.046875 32.203125Q72.46875 32.203125 72.0 32.5625Q71.546875 32.90625 71.34375 33.515625Q71.0625 34.453125 71.0625 35.5625L71.0625 41.0L69.296875 41.0ZM75.609375 37.90625L77.359375 37.625Q77.5 38.671875 78.171875 39.234375Q78.84375 39.78125 80.046875 39.78125Q81.25 39.78125 81.828125 39.296875Q82.421875 38.796875 82.421875 38.140625Q82.421875 37.546875 81.90625 37.203125Q81.546875 36.96875 80.109375 36.609375Q78.171875 36.109375 77.421875 35.765625Q76.6875 35.40625 76.296875 34.78125Q75.90625 34.140625 75.90625 33.375Q75.90625 32.6875 76.21875 32.09375Q76.546875 31.5 77.09375 31.109375Q77.5 30.8125 78.203125 30.609375Q78.921875 30.390625 79.734375 30.390625Q80.953125 30.390625 81.875 30.75Q82.796875 31.09375 83.234375 31.703125Q83.671875 32.296875 83.84375 33.296875L82.125 33.53125Q82.0 32.734375 81.4375 32.296875Q80.875 31.84375 79.859375 31.84375Q78.640625 31.84375 78.125 32.25Q77.609375 32.640625 77.609375 33.171875Q77.609375 33.515625 77.828125 33.796875Q78.03125 34.078125 78.5 34.265625Q78.765625 34.359375 80.046875 34.703125Q81.921875 35.203125 82.65625 35.53125Q83.390625 35.84375 83.8125 36.453125Q84.234375 37.046875 84.234375 37.953125Q84.234375 38.828125 83.71875 39.609375Q83.203125 40.390625 82.234375 40.8125Q81.265625 41.234375 80.046875 41.234375Q78.03125 41.234375 76.96875 40.390625Q75.90625 39.546875 75.609375 37.90625ZM93.9375 41.0L92.3125 41.0L92.3125 26.6875L94.0625 26.6875L94.0625 31.796875Q95.1875 30.390625 96.90625 30.390625Q97.859375 30.390625 98.71875 30.78125Q99.578125 31.171875 100.125 31.875Q100.671875 32.5625 100.984375 33.546875Q101.296875 34.53125 101.296875 35.65625Q101.296875 38.328125 99.984375 39.78125Q98.671875 41.234375 96.828125 41.234375Q94.984375 41.234375 93.9375 39.703125L93.9375 41.0ZM93.921875 35.734375Q93.921875 37.59375 94.421875 38.4375Q95.265625 39.78125 96.671875 39.78125Q97.828125 39.78125 98.65625 38.78125Q99.5 37.78125 99.5 35.796875Q99.5 33.765625 98.6875 32.8125Q97.890625 31.84375 96.75 31.84375Q95.59375 31.84375 94.75 32.84375Q93.921875 33.84375 93.921875 35.734375ZM103.234375 45.0L103.046875 43.34375Q103.625 43.5 104.046875 43.5Q104.640625 43.5 104.984375 43.296875Q105.34375 43.109375 105.5625 42.765625Q105.734375 42.5 106.109375 41.453125Q106.15625 41.296875 106.265625 41.015625L102.328125 30.625L104.21875 30.625L106.375 36.640625Q106.796875 37.78125 107.125 39.03125Q107.4375 37.828125 107.84375 36.671875L110.0625 30.625L111.828125 30.625L107.875 41.171875Q107.25 42.890625 106.890625 43.53125Q106.421875 44.40625 105.8125 44.796875Q105.21875 45.203125 104.375 45.203125Q103.859375 45.203125 103.234375 45.0ZM122.203125 41.0L118.25 30.625L120.109375 30.625L122.34375 36.84375Q122.703125 37.84375 123.0 38.921875Q123.234375 38.109375 123.65625 36.953125L125.953125 30.625L127.765625 30.625L123.84375 41.0L122.203125 41.0ZM135.42188 37.65625L137.23438 37.890625Q136.8125 39.46875 135.64062 40.359375Q134.48438 41.234375 132.67188 41.234375Q130.40625 41.234375 129.0625 39.84375Q127.734375 38.4375 127.734375 35.90625Q127.734375 33.28125 129.07812 31.84375Q130.42188 30.390625 132.57812 30.390625Q134.65625 30.390625 135.96875 31.8125Q137.29688 33.21875 137.29688 35.796875Q137.29688 35.953125 137.28125 36.265625L129.54688 36.265625Q129.64062 37.96875 130.51562 38.875Q131.39062 39.78125 132.6875 39.78125Q133.65625 39.78125 134.32812 39.28125Q135.01562 38.765625 135.42188 37.65625ZM129.64062 34.8125L135.4375 34.8125Q135.32812 33.515625 134.78125 32.859375Q133.9375 31.84375 132.59375 31.84375Q131.39062 31.84375 130.5625 32.65625Q129.73438 33.453125 129.64062 34.8125ZM139.3125 41.0L139.3125 30.625L140.90625 30.625L140.90625 32.109375Q142.04688 30.390625 144.20312 30.390625Q145.14062 30.390625 145.92188 30.734375Q146.71875 31.0625 147.10938 31.609375Q147.5 32.15625 147.65625 32.90625Q147.75 33.40625 147.75 34.625L147.75 41.0L145.98438 41.0L145.98438 34.6875Q145.98438 33.609375 145.78125 33.078125Q145.57812 32.546875 145.04688 32.234375Q144.53125 31.921875 143.82812 31.921875Q142.70312 31.921875 141.89062 32.640625Q141.07812 33.34375 141.07812 35.328125L141.07812 41.0L139.3125 41.0ZM156.10938 41.0L156.10938 39.46875Q154.90625 41.234375 152.82812 41.234375Q151.90625 41.234375 151.10938 40.890625Q150.3125 40.53125 149.92188 40.0Q149.54688 39.46875 149.39062 38.6875Q149.28125 38.171875 149.28125 37.046875L149.28125 30.625L151.03125 30.625L151.03125 36.375Q151.03125 37.75 151.14062 38.234375Q151.3125 38.921875 151.84375 39.328125Q152.39062 39.71875 153.17188 39.71875Q153.96875 39.71875 154.65625 39.3125Q155.35938 38.90625 155.64062 38.21875Q155.9375 37.515625 155.9375 36.1875L155.9375 30.625L157.6875 30.625L157.6875 41.0L156.10938 41.0ZM166.42188 37.65625L168.23438 37.890625Q167.8125 39.46875 166.64062 40.359375Q165.48438 41.234375 163.67188 41.234375Q161.40625 41.234375 160.0625 39.84375Q158.73438 38.4375 158.73438 35.90625Q158.73438 33.28125 160.07812 31.84375Q161.42188 30.390625 163.57812 30.390625Q165.65625 30.390625 166.96875 31.8125Q168.29688 33.21875 168.29688 35.796875Q168.29688 35.953125 168.28125 36.265625L160.54688 36.265625Q160.64062 37.96875 161.51562 38.875Q162.39062 39.78125 163.6875 39.78125Q164.65625 39.78125 165.32812 39.28125Q166.01562 38.765625 166.42188 37.65625ZM160.64062 34.8125L166.4375 34.8125Q166.32812 33.515625 165.78125 32.859375Q164.9375 31.84375 163.59375 31.84375Q162.39062 31.84375 161.5625 32.65625Q160.73438 33.453125 160.64062 34.8125ZM179.67188 45.203125Q178.21875 43.375 177.21875 40.921875Q176.21875 38.453125 176.21875 35.8125Q176.21875 33.484375 176.96875 31.359375Q177.84375 28.890625 179.67188 26.4375L180.9375 26.4375Q179.75 28.46875 179.375 29.34375Q178.78125 30.6875 178.4375 32.15625Q178.01562 33.984375 178.01562 35.828125Q178.01562 40.515625 180.9375 45.203125L179.67188 45.203125ZM190.09375 39.71875Q189.10938 40.546875 188.20312 40.890625Q187.29688 41.234375 186.26562 41.234375Q184.5625 41.234375 183.64062 40.40625Q182.71875 39.5625 182.71875 38.265625Q182.71875 37.5 183.0625 36.875Q183.42188 36.25 183.98438 35.875Q184.54688 35.484375 185.25 35.28125Q185.76562 35.15625 186.8125 35.015625Q188.9375 34.765625 189.9375 34.421875Q189.95312 34.0625 189.95312 33.953125Q189.95312 32.890625 189.45312 32.4375Q188.78125 31.84375 187.45312 31.84375Q186.20312 31.84375 185.60938 32.28125Q185.03125 32.71875 184.75 33.828125L183.03125 33.59375Q183.26562 32.484375 183.79688 31.8125Q184.32812 31.125 185.34375 30.765625Q186.35938 30.390625 187.70312 30.390625Q189.03125 30.390625 189.85938 30.703125Q190.6875 31.015625 191.07812 31.5Q191.46875 31.96875 191.625 32.6875Q191.71875 33.140625 191.71875 34.3125L191.71875 36.65625Q191.71875 39.109375 191.82812 39.765625Q191.9375 40.40625 192.28125 41.0L190.4375 41.0Q190.17188 40.453125 190.09375 39.71875ZM189.9375 35.796875Q188.98438 36.1875 187.0625 36.453125Q185.98438 36.609375 185.53125 36.8125Q185.09375 37.0 184.84375 37.375Q184.59375 37.75 184.59375 38.21875Q184.59375 38.921875 185.125 39.390625Q185.65625 39.859375 186.6875 39.859375Q187.70312 39.859375 188.48438 39.421875Q189.28125 38.96875 189.65625 38.203125Q189.9375 37.59375 189.9375 36.4375L189.9375 35.796875ZM198.15625 39.421875L198.40625 40.984375Q197.67188 41.140625 197.07812 41.140625Q196.125 41.140625 195.59375 40.84375Q195.07812 40.53125 194.85938 40.046875Q194.64062 39.546875 194.64062 37.96875L194.64062 32.0L193.35938 32.0L193.35938 30.625L194.64062 30.625L194.64062 28.0625L196.39062 27.0L196.39062 30.625L198.15625 30.625L198.15625 32.0L196.39062 32.0L196.39062 38.0625Q196.39062 38.8125 196.48438 39.03125Q196.57812 39.234375 196.78125 39.375Q197.0 39.5 197.39062 39.5Q197.67188 39.5 198.15625 39.421875ZM206.28125 41.0L206.28125 26.6875L208.03125 26.6875L208.03125 41.0L206.28125 41.0ZM217.42188 37.65625L219.23438 37.890625Q218.8125 39.46875 217.64062 40.359375Q216.48438 41.234375 214.67188 41.234375Q212.40625 41.234375 211.0625 39.84375Q209.73438 38.4375 209.73438 35.90625Q209.73438 33.28125 211.07812 31.84375Q212.42188 30.390625 214.57812 30.390625Q216.65625 30.390625 217.96875 31.8125Q219.29688 33.21875 219.29688 35.796875Q219.29688 35.953125 219.28125 36.265625L211.54688 36.265625Q211.64062 37.96875 212.51562 38.875Q213.39062 39.78125 214.6875 39.78125Q215.65625 39.78125 216.32812 39.28125Q217.01562 38.765625 217.42188 37.65625ZM211.64062 34.8125L217.4375 34.8125Q217.32812 33.515625 216.78125 32.859375Q215.9375 31.84375 214.59375 31.84375Q213.39062 31.84375 212.5625 32.65625Q211.73438 33.453125 211.64062 34.8125ZM228.09375 39.71875Q227.10938 40.546875 226.20312 40.890625Q225.29688 41.234375 224.26562 41.234375Q222.5625 41.234375 221.64062 40.40625Q220.71875 39.5625 220.71875 38.265625Q220.71875 37.5 221.0625 36.875Q221.42188 36.25 221.98438 35.875Q222.54688 35.484375 223.25 35.28125Q223.76562 35.15625 224.8125 35.015625Q226.9375 34.765625 227.9375 34.421875Q227.95312 34.0625 227.95312 33.953125Q227.95312 32.890625 227.45312 32.4375Q226.78125 31.84375 225.45312 31.84375Q224.20312 31.84375 223.60938 32.28125Q223.03125 32.71875 222.75 33.828125L221.03125 33.59375Q221.26562 32.484375 221.79688 31.8125Q222.32812 31.125 223.34375 30.765625Q224.35938 30.390625 225.70312 30.390625Q227.03125 30.390625 227.85938 30.703125Q228.6875 31.015625 229.07812 31.5Q229.46875 31.96875 229.625 32.6875Q229.71875 33.140625 229.71875 34.3125L229.71875 36.65625Q229.71875 39.109375 229.82812 39.765625Q229.9375 40.40625 230.28125 41.0L228.4375 41.0Q228.17188 40.453125 228.09375 39.71875ZM227.9375 35.796875Q226.98438 36.1875 225.0625 36.453125Q223.98438 36.609375 223.53125 36.8125Q223.09375 37.0 222.84375 37.375Q222.59375 37.75 222.59375 38.21875Q222.59375 38.921875 223.125 39.390625Q223.65625 39.859375 224.6875 39.859375Q225.70312 39.859375 226.48438 39.421875Q227.28125 38.96875 227.65625 38.203125Q227.9375 37.59375 227.9375 36.4375L227.9375 35.796875ZM231.60938 37.90625L233.35938 37.625Q233.5 38.671875 234.17188 39.234375Q234.84375 39.78125 236.04688 39.78125Q237.25 39.78125 237.82812 39.296875Q238.42188 38.796875 238.42188 38.140625Q238.42188 37.546875 237.90625 37.203125Q237.54688 36.96875 236.10938 36.609375Q234.17188 36.109375 233.42188 35.765625Q232.6875 35.40625 232.29688 34.78125Q231.90625 34.140625 231.90625 33.375Q231.90625 32.6875 232.21875 32.09375Q232.54688 31.5 233.09375 31.109375Q233.5 30.8125 234.20312 30.609375Q234.92188 30.390625 235.73438 30.390625Q236.95312 30.390625 237.875 30.75Q238.79688 31.09375 239.23438 31.703125Q239.67188 32.296875 239.84375 33.296875L238.125 33.53125Q238.0 32.734375 237.4375 32.296875Q236.875 31.84375 235.85938 31.84375Q234.64062 31.84375 234.125 32.25Q233.60938 32.640625 233.60938 33.171875Q233.60938 33.515625 233.82812 33.796875Q234.03125 34.078125 234.5 34.265625Q234.76562 34.359375 236.04688 34.703125Q237.92188 35.203125 238.65625 35.53125Q239.39062 35.84375 239.8125 36.453125Q240.23438 37.046875 240.23438 37.953125Q240.23438 38.828125 239.71875 39.609375Q239.20312 40.390625 238.23438 40.8125Q237.26562 41.234375 236.04688 41.234375Q234.03125 41.234375 232.96875 40.390625Q231.90625 39.546875 231.60938 37.90625ZM246.15625 39.421875L246.40625 40.984375Q245.67188 41.140625 245.07812 41.140625Q244.125 41.140625 243.59375 40.84375Q243.07812 40.53125 242.85938 40.046875Q242.64062 39.546875 242.64062 37.96875L242.64062 32.0L241.35938 32.0L241.35938 30.625L242.64062 30.625L242.64062 28.0625L244.39062 27.0L244.39062 30.625L246.15625 30.625L246.15625 32.0L244.39062 32.0L244.39062 38.0625Q244.39062 38.8125 244.48438 39.03125Q244.57812 39.234375 244.78125 39.375Q245.0 39.5 245.39062 39.5Q245.67188 39.5 246.15625 39.421875ZM253.84375 37.21875L255.59375 36.984375Q255.90625 38.484375 256.625 39.140625Q257.35938 39.796875 258.40625 39.796875Q259.64062 39.796875 260.48438 38.9375Q261.34375 38.078125 261.34375 36.8125Q261.34375 35.59375 260.54688 34.8125Q259.76562 34.03125 258.54688 34.03125Q258.04688 34.03125 257.3125 34.21875L257.5 32.671875Q257.67188 32.703125 257.78125 32.703125Q258.90625 32.703125 259.79688 32.125Q260.70312 31.53125 260.70312 30.3125Q260.70312 29.34375 260.04688 28.703125Q259.39062 28.0625 258.35938 28.0625Q257.34375 28.0625 256.65625 28.71875Q255.96875 29.359375 255.78125 30.640625L254.01562 30.328125Q254.34375 28.5625 255.48438 27.59375Q256.625 26.625 258.32812 26.625Q259.5 26.625 260.48438 27.125Q261.46875 27.625 261.98438 28.5Q262.51562 29.375 262.51562 30.34375Q262.51562 31.265625 262.01562 32.03125Q261.51562 32.796875 260.54688 33.25Q261.8125 33.53125 262.51562 34.46875Q263.21875 35.390625 263.21875 36.765625Q263.21875 38.640625 261.84375 39.953125Q260.48438 41.25 258.39062 41.25Q256.5 41.25 255.25 40.125Q254.01562 39.0 253.84375 37.21875ZM271.3125 44.96875L271.3125 30.625L272.92188 30.625L272.92188 31.96875Q273.48438 31.1875 274.1875 30.796875Q274.90625 30.390625 275.92188 30.390625Q277.25 30.390625 278.26562 31.078125Q279.28125 31.765625 279.79688 33.015625Q280.32812 34.25 280.32812 35.734375Q280.32812 37.328125 279.75 38.609375Q279.1875 39.875 278.09375 40.5625Q277.0 41.234375 275.79688 41.234375Q274.92188 41.234375 274.21875 40.859375Q273.53125 40.484375 273.07812 39.921875L273.07812 44.96875L271.3125 44.96875ZM272.90625 35.875Q272.90625 37.875 273.71875 38.828125Q274.53125 39.78125 275.6875 39.78125Q276.85938 39.78125 277.6875 38.796875Q278.53125 37.8125 278.53125 35.71875Q278.53125 33.75 277.70312 32.765625Q276.89062 31.765625 275.76562 31.765625Q274.64062 31.765625 273.76562 32.828125Q272.90625 33.875 272.90625 35.875ZM289.09375 39.71875Q288.10938 40.546875 287.20312 40.890625Q286.29688 41.234375 285.26562 41.234375Q283.5625 41.234375 282.64062 40.40625Q281.71875 39.5625 281.71875 38.265625Q281.71875 37.5 282.0625 36.875Q282.42188 36.25 282.98438 35.875Q283.54688 35.484375 284.25 35.28125Q284.76562 35.15625 285.8125 35.015625Q287.9375 34.765625 288.9375 34.421875Q288.95312 34.0625 288.95312 33.953125Q288.95312 32.890625 288.45312 32.4375Q287.78125 31.84375 286.45312 31.84375Q285.20312 31.84375 284.60938 32.28125Q284.03125 32.71875 283.75 33.828125L282.03125 33.59375Q282.26562 32.484375 282.79688 31.8125Q283.32812 31.125 284.34375 30.765625Q285.35938 30.390625 286.70312 30.390625Q288.03125 30.390625 288.85938 30.703125Q289.6875 31.015625 290.07812 31.5Q290.46875 31.96875 290.625 32.6875Q290.71875 33.140625 290.71875 34.3125L290.71875 36.65625Q290.71875 39.109375 290.82812 39.765625Q290.9375 40.40625 291.28125 41.0L289.4375 41.0Q289.17188 40.453125 289.09375 39.71875ZM288.9375 35.796875Q287.98438 36.1875 286.0625 36.453125Q284.98438 36.609375 284.53125 36.8125Q284.09375 37.0 283.84375 37.375Q283.59375 37.75 283.59375 38.21875Q283.59375 38.921875 284.125 39.390625Q284.65625 39.859375 285.6875 39.859375Q286.70312 39.859375 287.48438 39.421875Q288.28125 38.96875 288.65625 38.203125Q288.9375 37.59375 288.9375 36.4375L288.9375 35.796875ZM293.3125 44.96875L293.3125 30.625L294.92188 30.625L294.92188 31.96875Q295.48438 31.1875 296.1875 30.796875Q296.90625 30.390625 297.92188 30.390625Q299.25 30.390625 300.26562 31.078125Q301.28125 31.765625 301.79688 33.015625Q302.32812 34.25 302.32812 35.734375Q302.32812 37.328125 301.75 38.609375Q301.1875 39.875 300.09375 40.5625Q299.0 41.234375 297.79688 41.234375Q296.92188 41.234375 296.21875 40.859375Q295.53125 40.484375 295.07812 39.921875L295.07812 44.96875L293.3125 44.96875ZM294.90625 35.875Q294.90625 37.875 295.71875 38.828125Q296.53125 39.78125 297.6875 39.78125Q298.85938 39.78125 299.6875 38.796875Q300.53125 37.8125 300.53125 35.71875Q300.53125 33.75 299.70312 32.765625Q298.89062 31.765625 297.76562 31.765625Q296.64062 31.765625 295.76562 32.828125Q294.90625 33.875 294.90625 35.875ZM311.42188 37.65625L313.23438 37.890625Q312.8125 39.46875 311.64062 40.359375Q310.48438 41.234375 308.67188 41.234375Q306.40625 41.234375 305.0625 39.84375Q303.73438 38.4375 303.73438 35.90625Q303.73438 33.28125 305.07812 31.84375Q306.42188 30.390625 308.57812 30.390625Q310.65625 30.390625 311.96875 31.8125Q313.29688 33.21875 313.29688 35.796875Q313.29688 35.953125 313.28125 36.265625L305.54688 36.265625Q305.64062 37.96875 306.51562 38.875Q307.39062 39.78125 308.6875 39.78125Q309.65625 39.78125 310.32812 39.28125Q311.01562 38.765625 311.42188 37.65625ZM305.64062 34.8125L311.4375 34.8125Q311.32812 33.515625 310.78125 32.859375Q309.9375 31.84375 308.59375 31.84375Q307.39062 31.84375 306.5625 32.65625Q305.73438 33.453125 305.64062 34.8125ZM315.29688 41.0L315.29688 30.625L316.875 30.625L316.875 32.203125Q317.48438 31.09375 318.0 30.75Q318.51562 30.390625 319.125 30.390625Q320.01562 30.390625 320.9375 30.953125L320.32812 32.59375Q319.6875 32.203125 319.04688 32.203125Q318.46875 32.203125 318.0 32.5625Q317.54688 32.90625 317.34375 33.515625Q317.0625 34.453125 317.0625 35.5625L317.0625 41.0L315.29688 41.0ZM321.60938 37.90625L323.35938 37.625Q323.5 38.671875 324.17188 39.234375Q324.84375 39.78125 326.04688 39.78125Q327.25 39.78125 327.82812 39.296875Q328.42188 38.796875 328.42188 38.140625Q328.42188 37.546875 327.90625 37.203125Q327.54688 36.96875 326.10938 36.609375Q324.17188 36.109375 323.42188 35.765625Q322.6875 35.40625 322.29688 34.78125Q321.90625 34.140625 321.90625 33.375Q321.90625 32.6875 322.21875 32.09375Q322.54688 31.5 323.09375 31.109375Q323.5 30.8125 324.20312 30.609375Q324.92188 30.390625 325.73438 30.390625Q326.95312 30.390625 327.875 30.75Q328.79688 31.09375 329.23438 31.703125Q329.67188 32.296875 329.84375 33.296875L328.125 33.53125Q328.0 32.734375 327.4375 32.296875Q326.875 31.84375 325.85938 31.84375Q324.64062 31.84375 324.125 32.25Q323.60938 32.640625 323.60938 33.171875Q323.60938 33.515625 323.82812 33.796875Q324.03125 34.078125 324.5 34.265625Q324.76562 34.359375 326.04688 34.703125Q327.92188 35.203125 328.65625 35.53125Q329.39062 35.84375 329.8125 36.453125Q330.23438 37.046875 330.23438 37.953125Q330.23438 38.828125 329.71875 39.609375Q329.20312 40.390625 328.23438 40.8125Q327.26562 41.234375 326.04688 41.234375Q324.03125 41.234375 322.96875 40.390625Q321.90625 39.546875 321.60938 37.90625ZM333.46875 45.203125L332.21875 45.203125Q335.125 40.515625 335.125 35.828125Q335.125 33.984375 334.71875 32.1875Q334.375 30.71875 333.78125 29.375Q333.40625 28.484375 332.21875 26.4375L333.46875 26.4375Q335.3125 28.890625 336.1875 31.359375Q336.9375 33.484375 336.9375 35.8125Q336.9375 38.453125 335.92188 40.921875Q334.92188 43.375 333.46875 45.203125Z" fill-rule="nonzero"/></svg>